<svg width="302" height="264" viewBox="0 0 302 264" fill="none" xmlns="http://www.w3.org/2000/svg">
<path d="M58.7289 49.7396C53.1868 55.0214 44.6597 63.2886 37.7119 76.7745C30.9445 89.889 29.2499 101.035 27.7292 110.969C25.5914 124.952 23.697 137.328 28.3527 152.278C28.974 154.275 32.2285 164.41 40.6079 175.25C42.9586 178.292 51.5335 188.916 65.8722 196.575C74.1278 200.99 81.5274 202.93 121.521 205.761C144.489 207.387 141.335 206.696 172.832 208.725C191.733 209.942 201.171 210.726 216.341 210.887C237.756 211.104 243.148 210.806 246.518 210.304C262.286 207.956 277.457 205.696 285.045 194.407C295.404 178.996 285.23 156.295 281.339 147.615C274.513 132.383 264.28 122.747 259.918 118.719C242.32 102.467 232.518 105.315 224.588 91.8379C217.947 80.5398 222.526 74.6453 216.591 61.5396C209.961 46.8869 197.375 39.5431 188.292 34.0983C161.9 18.2767 125.46 13.5576 93.8847 26.3831C75.6985 33.7681 63.4954 45.1965 58.7289 49.7396Z" fill="url(#paint0_linear_4077_20004)"/>
<path d="M116.483 193.64C81.862 191.05 77.0021 189.229 71.3991 186.235C59.9043 180.095 52.5286 171.496 49.8911 168.085C43.1541 159.372 40.2864 151.122 39.5543 148.802C35.7045 136.417 37.3035 125.975 39.337 112.735C40.7796 103.305 42.2721 93.5522 48.1509 82.1434C54.3361 70.1392 62.1594 62.6825 66.8347 58.2263C70.5432 54.6934 81.8251 43.9429 98.3124 37.2466C111.041 32.0756 125.434 29.916 139.938 31.0023C155.17 32.1473 169.808 36.6904 182.261 44.1624L182.75 44.4535C191.255 49.5507 200.895 55.317 205.905 66.3978C207.936 70.8801 208.225 73.9784 208.59 77.9001C209.081 83.1428 209.689 89.6674 214.477 97.8042C220.417 107.896 227.512 111.653 234.389 115.284C239.566 118.023 244.921 120.854 251.956 127.355C255.432 130.562 264.647 139.088 270.639 152.435C272.482 156.541 275.56 163.413 277.037 170.805C278.515 178.196 277.941 183.976 275.317 187.88C273.361 190.774 270.124 192.914 265.106 194.615C259.388 196.549 252.305 197.605 244.806 198.722C241.966 199.146 236.064 199.374 216.48 199.176C204.06 199.046 195.765 198.498 182.02 197.59C179.413 197.418 176.63 197.234 173.601 197.038C157.742 196.015 150.718 195.684 144.529 195.393C138.478 195.106 133.698 194.881 122.369 194.09C120.316 193.93 118.355 193.78 116.483 193.64Z" fill="url(#paint1_linear_4077_20004)"/>
<path d="M117.359 181.94C83.52 179.409 80.3177 177.699 76.9264 175.887C67.1653 170.672 60.8693 163.102 59.1725 160.908C53.4936 153.562 51.1646 146.629 50.7562 145.325C47.7146 135.535 48.9877 127.177 50.9235 114.525C52.2835 105.634 53.5674 97.237 58.5686 87.5315C63.8478 77.2829 70.5175 70.9364 74.9168 66.7366C78.2256 63.584 88.2909 53.9894 102.725 48.1318C113.777 43.6299 126.34 41.7571 139.05 42.7087C152.48 43.7125 165.337 47.7059 176.23 54.224L176.719 54.5173C184.436 59.1408 191.723 63.5058 195.218 71.2276C196.437 73.9196 196.585 75.5035 196.911 78.9798C197.445 84.7027 198.251 93.35 204.367 103.749C211.992 116.707 221.371 121.667 228.916 125.649C233.841 128.257 238.095 130.503 244.007 135.965C246.996 138.727 254.937 146.064 259.94 157.225C261.578 160.882 264.32 167.002 265.539 173.086C266.801 179.413 265.597 181.299 265.584 181.318C265.571 181.338 264.909 182.277 261.346 183.491C256.618 185.088 250.048 186.068 243.072 187.106C239.659 187.615 226.329 187.541 216.6 187.435C204.504 187.306 196.331 186.765 182.789 185.872C180.182 185.699 177.386 185.514 174.351 185.318C158.387 184.291 151.322 183.956 145.081 183.663C139.106 183.38 134.39 183.156 123.188 182.359C121.159 182.219 119.216 182.079 117.359 181.94Z" fill="url(#paint2_linear_4077_20004)"/>
<path d="M118.236 170.24C103.42 169.132 93.4564 168.102 87.7817 167.092C84.158 166.44 83.4801 166.086 82.4547 165.538C74.5532 161.317 69.4065 154.964 68.455 153.732C63.834 147.755 62.0351 142.071 61.9591 141.832C59.8083 134.916 60.5774 129.013 62.5218 116.29C63.8383 107.69 64.8768 100.898 68.9981 92.8961C73.3736 84.4052 78.9439 79.0973 83.0109 75.2212C85.9199 72.4488 94.7708 64.0122 107.126 58.9933C116.522 55.178 127.257 53.5919 138.173 54.4089C149.794 55.2779 160.863 58.6934 170.205 64.2838L170.694 64.5771C177.059 68.3902 182.556 71.684 184.539 76.0642C184.924 76.9137 184.948 76.9637 185.237 80.0641C185.83 86.4149 186.821 97.0416 194.264 109.691C203.571 125.521 215.518 131.837 223.432 136.018C228.144 138.51 231.253 140.157 236.046 144.578C238.553 146.894 245.212 153.052 249.233 162.021C250.478 164.797 252.448 169.191 253.578 173.44C250.124 174.192 245.831 174.831 241.366 175.498C240.119 175.659 235.257 175.896 216.728 175.7C204.957 175.576 196.908 175.048 183.573 174.164L175.1 173.608C159.023 172.573 151.906 172.237 145.625 171.941C139.736 171.663 135.082 171.444 124.009 170.659C122 170.519 120.076 170.379 118.236 170.24Z" fill="url(#paint3_linear_4077_20004)"/>
<path d="M228.864 170.125C225.477 170.125 221.429 170.101 216.832 170.051C205.387 169.931 197.464 169.399 184.336 168.53C181.696 168.356 178.891 168.172 175.845 167.976C159.647 166.931 152.486 166.594 146.169 166.297C140.355 166.021 135.764 165.806 124.828 165.03C122.835 164.885 120.927 164.747 119.103 164.615C104.893 163.561 95.0361 162.551 89.8372 161.621C88.9943 161.471 88.462 161.36 88.1383 161.286C87.9979 161.256 87.8626 161.205 87.7364 161.136C81.8554 157.914 77.9057 152.852 77.7428 152.637C75.8012 150.135 74.2538 147.351 73.1544 144.381C71.8509 140.133 72.3202 135.937 74.1234 124.142C75.366 116.014 76.1873 110.645 79.4308 104.348C82.9069 97.6131 87.4518 93.2677 91.1082 89.7914C93.6196 87.4014 101.256 80.1207 111.549 75.9404C117.882 73.3679 125.162 72.0078 132.603 72.0078C134.161 72.0078 135.743 72.0686 137.307 72.186C147.109 72.9182 156.399 75.7688 164.172 80.427L164.661 80.7225C167.362 82.339 169.441 83.7643 171.296 85.3525C171.596 85.6089 172.997 87.7838 173.034 88.1771L173.903 91.8706C174.542 98.7147 175.383 106.819 184.151 121.721C195.15 140.407 209.42 147.959 217.945 152.467C222.39 154.816 224.417 155.889 228.079 159.274C229.541 160.624 232.748 163.587 235.562 167.681C235.72 167.91 235.813 168.178 235.831 168.456C235.848 168.734 235.79 169.012 235.662 169.26C235.534 169.507 235.342 169.716 235.105 169.862C234.868 170.009 234.595 170.088 234.317 170.092C232.876 170.114 231.088 170.125 228.864 170.125Z" fill="url(#paint4_linear_4077_20004)"/>
<path d="M17.8818 221.264L276.977 220.232C276.977 220.232 224.167 163.583 217.059 163.546C214.074 163.531 208.173 170.281 202.355 175.324C201.535 176.039 200.562 176.559 199.512 176.843C198.461 177.128 197.359 177.17 196.29 176.967C195.221 176.764 194.211 176.32 193.338 175.67C192.465 175.02 191.751 174.181 191.249 173.214C187.48 166.003 181.797 155.296 176.791 146.54V146.521C171.905 137.982 167.667 131.312 166.485 131.555C164.577 131.959 160.708 137.56 157.099 143.466C152.893 150.332 149.042 157.604 149.042 157.604C148.933 157.321 143.793 144.133 138.77 133.13C137.849 131.112 136.932 129.167 136.05 127.39C133.408 122.056 131.086 118.223 129.947 118.421C129.152 118.558 127.694 120.185 126.343 121.913C126.126 122.199 125.909 122.488 125.691 122.782C125.435 123.125 125.095 123.397 124.705 123.573C124.314 123.749 123.886 123.824 123.459 123.789C123.032 123.755 122.621 123.613 122.263 123.377C121.906 123.141 121.614 122.818 121.416 122.438C120.647 120.965 119.706 119.221 118.713 117.517C116.528 113.763 114.101 110.21 112.743 110.21C111.824 110.21 109.777 112.242 107.036 115.525C95.567 129.25 71.9495 164.876 67.8847 165.747C63.5396 166.666 57.5739 153.386 50.939 150.438C49.9483 149.968 48.8456 149.785 47.7562 149.91C45.8357 155.776 43.8805 161.488 41.7058 166.794C34.304 184.843 22.933 202.257 18.0252 220.775L17.8818 221.264Z" fill="#2E3192"/>
<path d="M67.8777 165.743C63.5326 166.662 57.569 153.383 50.932 150.434C49.9413 149.964 48.8386 149.781 47.7492 149.906C46.046 155.121 44.3145 160.19 42.4287 164.974C44.1798 166.221 50.567 159.542 52.7004 161.535C53.3522 162.15 54.6166 165.346 56.1134 165.858C60.6866 167.425 67.6669 165.806 67.8777 165.743Z" fill="white"/>
<path d="M24.0303 203.857L64.6044 220.693L110.755 220.722C110.755 220.722 97.5898 214.638 94.3462 209.641C91.1026 204.644 83.5575 200.189 76.9139 198.173C70.2703 196.157 56.8789 184.702 54.1176 185.117C51.3563 185.532 62.2559 193.272 58.9536 196.885C56.2076 199.89 41.8341 188.353 32.9137 185.426C30.2915 189.476 28.4666 194.51 26.0768 198.623C25.223 200.096 24.8341 202.362 24.0303 203.857Z" fill="#272B7D"/>
<path d="M157.08 143.451C157.378 143.87 157.71 144.135 158.069 144.135C159.75 144.135 162.631 140.298 164.428 143.177C166.224 146.056 168.503 145.934 171.264 144.615C173.452 143.568 175.868 145.617 176.772 146.506C171.886 137.967 167.647 131.297 166.465 131.54C164.567 131.944 160.697 137.545 157.08 143.451Z" fill="white"/>
<path d="M126.347 121.882C127.985 124.092 127.794 125.865 129.771 124.924C130.857 124.416 133.525 125.776 136.054 127.357C133.412 122.023 131.089 118.193 129.951 118.389C129.156 118.528 127.698 120.155 126.347 121.882Z" fill="white"/>
<path d="M107.033 115.497C108.456 117.606 110.446 118.708 110.822 117.018C111.3 114.858 113.94 118.219 116.338 118.817C118.002 119.234 117.994 117.978 118.711 117.487C116.525 113.735 114.098 110.18 112.74 110.18C111.821 110.18 109.775 112.212 107.033 115.497Z" fill="white"/>
<path d="M193.459 220.148C193.459 220.148 178.338 205.462 173.406 199.133C168.475 192.804 155.264 181.513 157.401 188.982C159.539 196.452 156.13 205.667 147.33 200.396C138.529 195.125 143.071 206.566 131.998 206.262C120.925 205.958 113.599 206.214 117.184 212.443C120.768 218.672 124.994 220.074 124.994 220.074L193.459 220.148Z" fill="#272B7D"/>
<path opacity="0.35" d="M176.79 146.54C177.007 147.237 182.756 160.839 180.596 166.774C177.555 175.118 182.215 175.861 185.004 174.872C187.042 174.149 189.412 176.762 195.528 181.349C200.573 185.132 200.657 176.612 200.657 176.612L200.547 176.476C198.872 177.212 196.981 177.285 195.255 176.68C193.529 176.075 192.097 174.837 191.248 173.216C187.479 166.003 181.796 155.296 176.79 146.54Z" fill="#A5D9FF"/>
<path d="M110.423 205.025C110.423 205.025 109.337 198.368 103.586 198.01C97.8355 197.651 97.6486 194.409 94.0509 193.51C90.4532 192.61 82.5366 186.494 80.1989 185.953C77.8613 185.412 85.413 192.61 86.6752 194.77C87.9375 196.93 96.5689 201.071 97.829 203.587C99.089 206.103 104.846 207.546 110.423 205.025Z" fill="#272B7D"/>
<path opacity="0.35" d="M139.727 145.785C142.116 151.064 138.167 155.621 141.767 157.78C145.366 159.94 149.04 157.604 149.04 157.604C148.931 157.322 143.791 144.133 138.768 133.131C137.902 136.312 138.075 142.154 139.727 145.785Z" fill="#A5D9FF"/>
<path d="M161.143 81.5303V88.9957H153.398V88.169H160.354V81.5303H161.143Z" fill="#2C348C"/>
<path d="M138.53 81.5303V88.9957H146.275V88.169H139.318V81.5303H138.53Z" fill="#2C348C"/>
<path d="M160.733 77.7704L166.7 74.3599V81.1796L160.733 84.5889V77.7704Z" fill="#057C19"/>
<path d="M154.77 74.3595L160.735 70.9502L166.701 74.3595L160.735 77.77L154.77 74.3595Z" fill="#00FF00"/>
<path d="M154.77 81.1796L160.735 84.5889V77.7704L154.77 74.3599V81.1796Z" fill="#0CC42A"/>
<path d="M138.939 77.7704L144.905 74.3599V81.1796L138.939 84.5889V77.7704Z" fill="#057C19"/>
<path d="M132.974 74.3595L138.94 70.9502L144.905 74.3595L138.94 77.77L132.974 74.3595Z" fill="#00FF00"/>
<path d="M132.974 81.1792L138.94 84.5884V77.7699L132.974 74.3594V81.1792Z" fill="#0CC42A"/>
<path d="M149.775 87.4034L155.742 83.9941V90.8127L149.775 94.2219V87.4034Z" fill="#057C19"/>
<path d="M143.81 83.9937L149.776 80.5845L155.742 83.9937L149.776 87.403L143.81 83.9937Z" fill="#00FF00"/>
<path d="M143.81 90.8127L149.776 94.2219V87.4034L143.81 83.9941V90.8127Z" fill="#0CC42A"/>
<path d="M149.775 67.8946L155.742 64.4854V71.3039L149.775 74.7144V67.8946Z" fill="#057C19"/>
<path d="M143.81 64.4854L149.776 61.0762L155.742 64.4854L149.776 67.8947L143.81 64.4854Z" fill="#00FF00"/>
<path d="M143.81 71.3039L149.776 74.7144V67.8946L143.81 64.4854V71.3039Z" fill="#0CC42A"/>
<path d="M161.101 74.1842V69.1914H153.355V70.0194H160.312V74.1842H161.101Z" fill="#2C348C"/>
<path d="M138.545 69.1914H146.289V70.0194H139.333V74.1842H138.545V69.1914Z" fill="#2C348C"/>
<path d="M204.726 230.027C204.686 230.202 204.648 230.376 204.608 230.55L204.484 231.053C204.402 231.389 204.31 231.722 204.228 232.054C204.053 232.719 203.864 233.383 203.662 234.046C203.46 234.709 203.237 235.373 202.994 236.038C202.744 236.742 202.43 237.421 202.055 238.067C201.924 238.283 201.719 238.445 201.478 238.521C201.236 238.598 200.976 238.584 200.744 238.483C200.512 238.381 200.325 238.199 200.217 237.97C200.109 237.741 200.088 237.481 200.158 237.238L200.192 237.119L200.305 236.729L200.405 236.301L200.487 235.848C200.514 235.697 200.535 235.538 200.56 235.383C200.647 234.758 200.716 234.119 200.767 233.468C200.817 232.822 200.859 232.171 200.887 231.52C200.899 231.192 200.911 230.867 200.922 230.541L200.932 230.054C200.932 229.893 200.932 229.724 200.932 229.578C200.93 229.069 201.131 228.579 201.489 228.217C201.848 227.855 202.336 227.651 202.846 227.649C203.355 227.647 203.845 227.847 204.207 228.206C204.568 228.565 204.773 229.053 204.775 229.563C204.777 229.699 204.763 229.835 204.735 229.968L204.726 230.027Z" fill="#F2A37C"/>
<path d="M218.62 229.52L218.549 231.531L218.469 233.539C218.412 234.878 218.351 236.217 218.274 237.559C218.258 237.857 218.131 238.138 217.918 238.347C217.705 238.556 217.421 238.677 217.123 238.687C216.825 238.697 216.534 238.595 216.307 238.401C216.081 238.207 215.935 237.936 215.899 237.639C215.735 236.321 215.551 235.003 215.377 233.687L215.098 231.711L214.811 229.74V229.729C214.775 229.48 214.788 229.226 214.85 228.982C214.912 228.738 215.021 228.509 215.171 228.307C215.322 228.105 215.511 227.935 215.727 227.806C215.943 227.677 216.183 227.592 216.432 227.556C216.681 227.52 216.935 227.533 217.179 227.595C217.423 227.657 217.652 227.766 217.854 227.917C218.056 228.067 218.226 228.256 218.355 228.472C218.484 228.688 218.569 228.928 218.605 229.177C218.619 229.291 218.625 229.406 218.62 229.52Z" fill="#F2A37C"/>
<path d="M215.469 192.491C215.479 192.723 215.475 192.955 215.459 193.187C215.445 193.417 215.419 193.645 215.391 193.873C215.333 194.326 215.25 194.773 215.151 195.216C215.051 195.658 214.931 196.095 214.802 196.529C214.731 196.744 214.667 196.962 214.592 197.176C214.517 197.39 214.444 197.605 214.362 197.817C213.728 199.52 213.051 201.209 212.314 202.879C212.14 203.298 211.95 203.716 211.764 204.132L211.212 205.383L210.664 206.629L210.141 207.876L209.884 208.496L209.64 209.117C209.48 209.53 209.321 209.939 209.173 210.336L208.966 210.932L208.869 211.217L208.783 211.487C208.728 211.661 208.679 211.835 208.648 211.898C208.648 211.909 208.648 211.898 208.639 211.898C208.639 211.898 208.639 211.898 208.639 211.916L208.608 212.104L208.543 212.478L208.033 215.253L207.793 216.622L207.561 217.987L207.103 220.731C206.955 221.64 206.809 222.551 206.645 223.458C206.482 224.365 206.325 225.274 206.123 226.18C206.034 226.632 205.93 227.085 205.825 227.538C205.721 227.99 205.611 228.44 205.496 228.892C205.381 229.345 205.256 229.793 205.132 230.244C205.009 230.694 204.866 231.144 204.73 231.591C204.659 231.816 204.587 232.042 204.513 232.267L204.283 232.939C204.206 233.164 204.121 233.39 204.041 233.614L204.011 233.7C204.003 233.729 203.988 233.757 203.969 233.782C203.89 233.848 203.792 233.891 203.689 233.904C203.49 233.94 203.288 233.958 203.085 233.956C202.96 233.956 202.785 233.956 202.631 233.956L202.35 233.94L202.187 233.926L202.012 233.912C201.966 233.908 201.921 233.898 201.877 233.883L201.703 233.823L201.548 233.769L201.281 233.668C201.137 233.609 200.973 233.545 200.86 233.494C200.674 233.415 200.495 233.32 200.324 233.212C200.235 233.162 200.163 233.089 200.115 233C200.108 232.972 200.108 232.943 200.115 232.915V232.833C200.13 232.612 200.15 232.394 200.162 232.169L200.2 231.499L200.247 230.83C200.273 230.381 200.296 229.932 200.334 229.484C200.372 229.037 200.388 228.582 200.428 228.135C200.494 227.235 200.57 226.336 200.654 225.436L200.717 224.762L200.788 224.088L200.931 222.739C200.973 222.288 201.025 221.839 201.077 221.389L201.227 220.04C201.326 219.14 201.421 218.24 201.513 217.338C201.6 216.437 201.678 215.536 201.755 214.635C201.791 214.186 201.817 213.735 201.844 213.289C201.87 212.844 201.896 212.396 201.917 211.961L201.929 211.649V211.492V211.355L201.939 211.21C201.967 210.862 202.002 210.594 202.039 210.329C202.11 209.807 202.192 209.328 202.275 208.853C202.449 207.906 202.624 206.991 202.808 206.077C203.181 204.256 203.574 202.456 203.975 200.659C204.375 198.862 204.786 197.074 205.204 195.287C205.622 193.501 206.036 191.716 206.466 189.921C206.721 188.863 207.349 187.933 208.234 187.302C209.12 186.67 210.203 186.38 211.286 186.483C212.368 186.586 213.377 187.077 214.127 187.864C214.877 188.652 215.318 189.684 215.368 190.77L215.469 192.491Z" fill="white"/>
<path d="M222.439 191.279C222.165 194.838 221.814 198.398 221.472 201.952L220.95 207.273L220.682 209.913L220.618 210.568L220.562 211.205L220.534 211.522L220.522 211.679L220.511 211.814L220.492 212.086L220.482 212.224V212.398C220.461 212.908 220.429 213.355 220.4 213.817L220.304 215.173C220.269 215.624 220.24 216.073 220.201 216.521L220.086 217.862L219.637 223.216L219.528 224.551L219.407 225.885L219.179 228.551L219.075 229.881L218.977 231.208L218.892 232.53C218.876 232.749 218.868 232.967 218.856 233.184C218.856 233.294 218.856 233.404 218.833 233.513C218.809 233.567 218.72 233.625 218.546 233.687C218.261 233.774 217.97 233.837 217.675 233.875H217.652C217.119 233.954 216.577 233.969 216.04 233.919C215.746 233.896 215.455 233.846 215.17 233.771C214.996 233.719 214.902 233.665 214.872 233.607C214.849 233.494 214.844 233.379 214.828 233.259L214.75 232.575L214.609 231.211L214.48 229.853L214.36 228.499L214.136 225.791L214.029 224.44C213.996 223.989 213.968 223.538 213.939 223.089L213.601 217.691L213.517 216.347L213.446 215.008L213.371 213.679C213.343 213.249 213.317 212.809 213.282 212.424V212.349C213.282 212.325 213.282 212.305 213.282 212.267L213.274 212.063L213.258 211.656L213.249 211.452V211.278L213.239 210.93L213.223 210.221L213.213 209.525C213.213 209.062 213.201 208.609 213.202 208.154V206.794L213.216 204.083C213.216 203.183 213.227 202.281 213.249 201.383L213.302 198.684L213.331 197.336L213.371 195.99L213.458 193.297C213.497 192.398 213.526 191.503 213.575 190.603C213.587 190.007 213.72 189.419 213.964 188.875C214.208 188.331 214.559 187.841 214.996 187.436C215.433 187.03 215.947 186.716 216.508 186.513C217.069 186.31 217.665 186.222 218.26 186.254C218.856 186.286 219.439 186.437 219.974 186.699C220.51 186.961 220.988 187.327 221.379 187.777C221.771 188.227 222.067 188.752 222.252 189.319C222.437 189.886 222.506 190.484 222.454 191.078C222.456 191.106 222.456 191.133 222.454 191.16L222.439 191.279Z" fill="white"/>
<g style="mix-blend-mode:multiply" opacity="0.14">
<path d="M200.252 228.569C201.382 230.864 206.05 227.188 207.271 221.763C207.178 232.48 205.378 235.045 205.378 235.045L200.252 234.611L198.483 232.572L200.252 228.569Z" fill="#1B1464"/>
</g>
<g style="mix-blend-mode:multiply" opacity="0.14">
<path d="M214.303 228.404C214.576 230.192 217.437 231.148 218.459 228.578C218.807 227.707 220.336 220.436 220.336 220.436L219.916 235.053L212.99 235.388L214.303 228.404Z" fill="#1B1464"/>
</g>
<g style="mix-blend-mode:multiply" opacity="0.26">
<path d="M218.782 193.04C221.187 195.969 221.537 202.148 221.613 203.247C221.69 204.346 223.657 193.771 223.657 193.771L221.481 189.834L218.782 193.04Z" fill="#1B1464"/>
</g>
<path d="M208.534 185.296C206.929 187.571 205.81 192.851 205.81 192.851C205.81 192.851 219.658 191.416 220.276 190.105C220.894 188.794 223.095 187.129 222.27 184.359C218.979 184.054 214.724 184.061 211.74 184.603C208.755 185.144 208.534 185.296 208.534 185.296Z" fill="white"/>
<path d="M203.547 235.477C204.219 236.82 203.547 240.057 203.547 240.057H196.468C196.468 240.057 196.224 239.047 196.468 238.773C196.711 238.5 198.787 237.887 199.703 235.885H200.465C201.023 235.466 201.686 235.209 202.38 235.141C203.456 235.08 203.547 235.477 203.547 235.477Z" fill="#2C348C"/>
<path d="M218.784 235.477C219.454 236.82 218.784 240.057 218.784 240.057H211.705C211.705 240.057 211.461 239.047 211.705 238.773C211.949 238.5 214.024 237.892 214.936 235.885H215.699C216.257 235.465 216.92 235.208 217.614 235.141C218.692 235.08 218.784 235.477 218.784 235.477Z" fill="#2C348C"/>
<path d="M220.697 155.781C219.759 157.43 219.827 158.61 219.849 159.239C219.872 159.622 220.039 159.982 220.318 160.245L216.446 159.81C216.446 159.81 214.717 160.23 214.974 159.578C215.415 158.459 215.197 156.651 215.197 156.651L220.697 155.781Z" fill="#F2A37C"/>
<path d="M226.108 165.076L226.182 165.277L226.256 165.458L226.385 165.83L226.633 166.574C226.793 167.068 226.949 167.563 227.099 168.061C227.4 169.057 227.682 170.06 227.931 171.084C228.18 172.107 228.407 173.147 228.563 174.239C228.642 174.785 228.706 175.344 228.737 175.935C228.75 176.231 228.755 176.535 228.737 176.854C228.737 177.012 228.722 177.176 228.706 177.343L228.692 177.479L228.675 177.625C228.663 177.718 228.647 177.81 228.631 177.899C228.571 178.218 228.49 178.533 228.389 178.842C228.297 179.13 228.196 179.401 228.092 179.664C227.883 180.187 227.655 180.678 227.418 181.155C226.944 182.105 226.432 183.004 225.91 183.888C225.388 184.773 224.843 185.63 224.289 186.484C224.012 186.912 223.732 187.335 223.45 187.756C223.164 188.179 222.882 188.59 222.579 189.018C222.385 189.287 222.095 189.472 221.769 189.535C221.443 189.598 221.106 189.534 220.825 189.356C220.545 189.178 220.343 188.9 220.261 188.578C220.179 188.256 220.223 187.915 220.384 187.625L220.394 187.608C220.633 187.195 220.877 186.76 221.112 186.331C221.347 185.903 221.583 185.461 221.808 185.034C222.264 184.163 222.703 183.293 223.117 182.408C223.532 181.524 223.916 180.643 224.246 179.769C224.409 179.332 224.557 178.898 224.677 178.477C224.736 178.268 224.787 178.064 224.827 177.871C224.864 177.699 224.889 177.524 224.902 177.348C224.902 177.314 224.902 177.282 224.902 177.251V177.159C224.902 177.078 224.891 176.984 224.883 176.901C224.864 176.727 224.836 176.527 224.799 176.326C224.726 175.924 224.625 175.497 224.501 175.067C224.258 174.197 223.948 173.316 223.601 172.436C223.255 171.557 222.87 170.681 222.47 169.811C222.266 169.375 222.059 168.94 221.846 168.51L221.524 167.868L221.361 167.551L221.28 167.396C221.254 167.347 221.225 167.289 221.204 167.253C221.024 166.946 220.906 166.606 220.858 166.254C220.81 165.901 220.832 165.542 220.923 165.198C221.014 164.854 221.173 164.532 221.389 164.249C221.605 163.966 221.875 163.729 222.184 163.552C222.492 163.374 222.832 163.259 223.185 163.214C223.538 163.168 223.897 163.193 224.24 163.286C224.583 163.38 224.905 163.541 225.186 163.759C225.467 163.978 225.702 164.25 225.877 164.559C225.952 164.691 226.017 164.828 226.07 164.97L226.108 165.076Z" fill="#F2A37C"/>
<path d="M213.318 152.066C213.472 153.982 213.715 155.164 214.387 156.155C215.059 157.146 217.21 158.002 218.218 157.682C219.226 157.361 220.781 155.244 220.781 155.148C220.781 155.053 215.578 152.159 215.578 152.159L213.318 152.066Z" fill="#F2A37C"/>
<path d="M203.398 165.317C203.08 165.171 202.77 165.006 202.471 164.824C202.307 164.722 202.138 164.608 201.957 164.469C201.752 164.309 201.562 164.131 201.389 163.937L201.341 163.88L201.307 163.838L201.238 163.752L201.102 163.584L200.966 163.414L200.837 163.241L200.58 162.896L200.344 162.551C200.18 162.32 200.035 162.083 199.878 161.846C199.305 160.919 198.78 159.963 198.304 158.982C197.843 158.013 197.398 157.043 197.015 156.065C196.819 155.574 196.623 155.084 196.437 154.592C196.251 154.099 196.076 153.605 195.898 153.112C195.72 152.619 195.557 152.121 195.388 151.624L195.152 150.872L195.029 150.498L194.908 150.106C194.823 149.822 194.848 149.516 194.979 149.25C195.11 148.984 195.336 148.778 195.613 148.673C195.89 148.567 196.196 148.57 196.471 148.682C196.746 148.793 196.968 149.004 197.094 149.272L197.172 149.441C197.273 149.655 197.378 149.888 197.485 150.112L197.81 150.79C198.03 151.242 198.248 151.693 198.475 152.139C198.702 152.585 198.932 153.029 199.163 153.469C199.395 153.909 199.641 154.341 199.879 154.774C200.36 155.637 200.882 156.473 201.397 157.283C201.912 158.094 202.489 158.854 203.067 159.572C203.215 159.745 203.357 159.926 203.509 160.09L203.735 160.339L203.964 160.577L204.077 160.695L204.196 160.806L204.312 160.918L204.369 160.973L204.399 161C204.41 161.004 204.423 161.025 204.414 161.006C204.364 160.942 204.35 160.926 204.363 160.921C204.398 160.925 204.432 160.933 204.464 160.946C204.564 160.986 204.724 161.025 204.899 161.066" fill="#F2A37C"/>
<g style="mix-blend-mode:multiply" opacity="0.26">
<path d="M224.78 176.264C224.78 176.289 224.789 176.313 224.794 176.336C224.831 176.536 224.859 176.731 224.878 176.91C224.878 177.001 224.894 177.084 224.897 177.168V177.26C224.897 177.292 224.897 177.323 224.897 177.358C224.885 177.533 224.86 177.708 224.822 177.88C224.782 178.073 224.732 178.277 224.672 178.486C224.641 178.596 224.608 178.707 224.573 178.819C225.466 178.521 226.603 179.425 226.812 179.999C226.922 180.302 226.577 181.843 226.18 183.415C226.605 182.688 227.018 181.944 227.399 181.166C227.636 180.689 227.864 180.198 228.073 179.675C228.177 179.412 228.278 179.141 228.371 178.853C228.471 178.544 228.552 178.229 228.613 177.91C228.628 177.821 228.644 177.736 228.656 177.636L228.673 177.49L228.687 177.354C228.703 177.18 228.713 177.023 228.719 176.865C228.731 176.546 228.719 176.242 228.719 175.946L228.708 175.771H224.892L224.78 176.264Z" fill="#36121F"/>
</g>
<g style="mix-blend-mode:multiply" opacity="0.26">
<path d="M204.9 161.071C204.728 161.031 204.569 160.984 204.466 160.951C204.433 160.939 204.399 160.93 204.365 160.927C204.355 160.923 204.365 160.948 204.415 161.011C204.429 161.017 204.415 161.011 204.4 161.005L204.37 160.978L204.314 160.923L204.197 160.812L204.079 160.7L203.965 160.582L203.736 160.345L203.51 160.095C203.358 159.932 203.216 159.75 203.068 159.577C202.853 159.302 202.636 159.026 202.42 158.75C202.616 159.538 202.614 160.21 202.094 160.309C201.039 160.517 199.198 159.247 197.589 157.417C197.822 157.943 198.063 158.467 198.312 158.99C198.788 159.971 199.313 160.927 199.886 161.854C200.038 162.089 200.183 162.327 200.352 162.559L200.588 162.904L200.844 163.249L200.974 163.422L201.11 163.592L201.246 163.76L201.315 163.846L201.348 163.888L201.397 163.945C201.57 164.139 201.76 164.317 201.965 164.477C202.145 164.616 202.315 164.73 202.479 164.832C202.642 164.934 202.762 165 202.898 165.072L206.139 161.631L205.826 161.261C205.707 161.241 205.589 161.22 205.477 161.196C205.272 161.155 205.076 161.114 204.9 161.071Z" fill="#36121F"/>
</g>
<path d="M196.922 149.86C196.974 149.797 197.012 149.723 197.033 149.643C197.054 149.564 197.057 149.481 197.042 149.4C196.881 148.466 196.391 146.88 195.805 146.842C195.157 146.804 193.165 147.417 192.94 148.586C192.714 149.755 193.58 150.293 193.804 150.252C194.029 150.242 194.254 150.259 194.475 150.303C194.599 150.324 194.713 150.385 194.798 150.478L195.212 150.922C195.267 150.982 195.335 151.028 195.409 151.059C195.484 151.09 195.565 151.105 195.646 151.102C195.727 151.1 195.806 151.079 195.878 151.043C195.951 151.007 196.015 150.956 196.066 150.893L196.922 149.86Z" fill="#F2A37C"/>
<path d="M195.675 147.562C195.647 147.549 195.62 147.535 195.594 147.518C195.569 147.505 195.545 147.492 195.523 147.48C195.483 147.454 195.445 147.425 195.409 147.394C195.34 147.331 195.277 147.26 195.222 147.184C195.083 147.025 194.932 146.877 194.771 146.74L194.512 146.52L194.237 146.297C194.054 146.152 193.862 146.002 193.685 145.854L193.629 145.808C193.581 145.768 193.55 145.713 193.541 145.652C193.531 145.591 193.544 145.529 193.578 145.477C193.611 145.425 193.662 145.387 193.721 145.371C193.78 145.354 193.843 145.359 193.899 145.386C194.129 145.495 194.352 145.617 194.569 145.75C194.788 145.881 194.999 146.025 195.201 146.181C195.41 146.342 195.602 146.524 195.775 146.723C195.967 146.94 196.103 147.202 196.169 147.484C196.179 147.536 196.168 147.589 196.139 147.632C196.11 147.675 196.065 147.705 196.014 147.715C195.97 147.725 195.925 147.718 195.885 147.697L195.675 147.562Z" fill="#F2A37C"/>
<path d="M230.306 175.263C230.222 175.193 230.121 175.146 230.013 175.126C229.905 175.105 229.794 175.113 229.69 175.148C229.566 172.248 228.985 169.386 227.966 166.668C226.584 162.899 224.719 161.365 222.315 160.762C222.212 160.705 222.101 160.665 221.986 160.642C218.782 160.012 215.393 159.35 211.505 160.165C208.382 159.862 205.312 159.159 202.368 158.076C202.511 158 202.62 157.874 202.674 157.721C202.728 157.568 202.721 157.401 202.657 157.253C202.592 157.104 202.474 156.986 202.326 156.921C202.177 156.856 202.01 156.85 201.857 156.904C199.594 157.722 198.201 161.518 198.111 162.958C198.1 163.127 198.156 163.294 198.268 163.422C198.38 163.55 198.538 163.628 198.708 163.639H198.746C198.884 163.639 199.018 163.594 199.128 163.512C199.238 163.43 199.319 163.314 199.359 163.183C201.405 165.3 205.479 168.634 206.712 170.783C209.884 177.83 205.841 190.11 205.841 190.11C205.841 190.11 207.211 189.187 208.329 190.025C212.316 193.015 215.669 194.456 218.19 194.695C218.655 194.738 219.999 191.841 219.999 191.841C220.846 193.382 220.363 194.578 220.741 194.453C222.47 193.845 223.394 192.29 223.353 190.074C223.3 187.558 221.88 183.271 222.442 180.003C222.602 179.071 222.935 177.217 223.278 175.287L224.12 176.787C223.97 176.795 223.827 176.856 223.717 176.959C223.607 177.062 223.536 177.201 223.518 177.35C223.501 177.5 223.536 177.652 223.619 177.778C223.702 177.904 223.826 177.997 223.971 178.04C224.402 178.161 224.848 178.219 225.296 178.214C226.346 178.19 227.381 177.962 228.344 177.542C228.992 177.347 229.485 177.077 229.647 176.828C229.921 176.641 230.169 176.418 230.387 176.167C230.441 176.102 230.482 176.028 230.507 175.947C230.532 175.867 230.541 175.782 230.534 175.698C230.527 175.614 230.503 175.533 230.464 175.458C230.425 175.383 230.371 175.317 230.306 175.263Z" fill="#39B34C"/>
<g style="mix-blend-mode:multiply" opacity="0.23">
<path d="M221.717 173.387C221.543 176.6 220.101 179.868 220.293 181.022C220.528 182.436 222.964 187.799 223.301 190.977C223.335 190.672 223.349 190.366 223.341 190.059C223.289 187.543 221.869 183.256 222.431 179.988C222.591 179.057 222.924 177.202 223.267 175.273L223.463 174.186L224.947 172.868C225.263 172.162 225.496 171.422 225.643 170.662C225.939 169.019 226.303 168.05 226.698 167.512C228.744 170.669 229.174 174.16 228.673 175.855C229.092 176.443 229.021 177.279 227.753 177.69L227.828 177.742C228.002 177.681 228.176 177.613 228.351 177.542C228.998 177.347 229.491 177.077 229.653 176.828C229.927 176.64 230.176 176.418 230.393 176.166C230.483 176.059 230.535 175.926 230.542 175.786C230.549 175.646 230.51 175.508 230.431 175.393C230.352 175.277 230.237 175.191 230.105 175.147C229.972 175.102 229.829 175.103 229.696 175.148C229.573 172.248 228.991 169.386 227.973 166.668C226.59 162.898 224.726 161.364 222.321 160.762C222.219 160.705 222.107 160.664 221.992 160.642L221.177 170.662C221.309 171.579 221.489 172.489 221.717 173.387Z" fill="#36121F"/>
</g>
<path d="M210.663 160.076C211.285 161.542 215.702 167.112 218.028 167.295C220.354 167.478 226.011 163.047 225.972 162.96C225.934 162.872 224.564 161.567 223.321 161.044C220.213 159.728 218.272 159.735 217.021 159.585C215.146 159.364 210.663 160.076 210.663 160.076Z" fill="#F2A37C"/>
<g style="mix-blend-mode:multiply" opacity="0.26">
<path d="M218.759 165.79C219.004 166.765 219.429 167.041 219.429 167.041L220.648 166.518L221.576 160.391C221.053 160.217 220.559 160.095 220.111 159.997C219.956 159.773 219.867 159.51 219.852 159.238C219.824 158.61 219.761 157.429 220.7 155.78L220.284 155.846C220.471 155.631 220.637 155.397 220.78 155.15C220.711 155.089 220.635 155.036 220.554 154.993L215.79 155.493C216.15 156.621 216.669 157.675 217.34 158.086C218.01 158.496 218.255 159.633 218.384 160.011C218.513 160.389 218.515 164.814 218.759 165.79Z" fill="#36121F"/>
</g>
<path d="M198.821 163.775C198.709 163.774 198.598 163.75 198.495 163.705C198.392 163.66 198.299 163.595 198.222 163.513C197.83 163.104 198.154 162.159 198.191 162.051C198.203 162.017 198.229 161.99 198.261 161.974C198.294 161.959 198.331 161.957 198.365 161.969C198.382 161.975 198.397 161.984 198.411 161.996C198.424 162.008 198.435 162.022 198.443 162.039C198.451 162.055 198.455 162.072 198.456 162.09C198.457 162.108 198.454 162.126 198.448 162.143C198.367 162.373 198.187 163.082 198.419 163.324C198.48 163.392 198.557 163.444 198.644 163.474C198.73 163.505 198.823 163.513 198.913 163.498C198.991 163.484 199.064 163.452 199.127 163.405C199.19 163.358 199.241 163.298 199.277 163.228C199.194 162.613 200.226 160.599 200.44 160.189C200.457 160.157 200.486 160.133 200.52 160.122C200.555 160.111 200.592 160.114 200.625 160.13C200.641 160.139 200.655 160.15 200.667 160.164C200.679 160.178 200.688 160.194 200.693 160.211C200.699 160.228 200.701 160.247 200.699 160.265C200.697 160.283 200.692 160.3 200.684 160.317C200.162 161.328 199.453 162.892 199.55 163.205C199.562 163.236 199.562 163.269 199.55 163.299C199.489 163.442 199.387 163.563 199.258 163.649C199.129 163.734 198.978 163.78 198.823 163.782L198.821 163.775Z" fill="#289D4B"/>
<path d="M207.878 179.401H207.866C207.83 179.398 207.796 179.381 207.773 179.353C207.749 179.326 207.738 179.29 207.74 179.253C207.883 177.512 207.497 173.882 207.077 172.137C206.689 170.516 205.402 169.221 205.388 169.207C205.363 169.181 205.349 169.146 205.349 169.11C205.349 169.074 205.363 169.039 205.388 169.013C205.414 168.988 205.449 168.974 205.486 168.974C205.522 168.974 205.557 168.988 205.583 169.013C205.637 169.069 206.936 170.377 207.345 172.076C207.768 173.84 208.16 177.509 208.014 179.278C208.011 179.312 207.995 179.343 207.97 179.366C207.945 179.389 207.912 179.402 207.878 179.401Z" fill="#289D4B"/>
<path d="M205.834 190.242C205.824 190.244 205.813 190.244 205.803 190.242C205.785 190.239 205.768 190.231 205.754 190.221C205.739 190.21 205.726 190.197 205.717 190.181C205.707 190.166 205.701 190.149 205.699 190.131C205.696 190.113 205.697 190.095 205.702 190.077L207.15 184.122C207.155 184.104 207.163 184.087 207.174 184.072C207.185 184.057 207.2 184.044 207.216 184.034C207.232 184.025 207.25 184.019 207.269 184.017C207.287 184.014 207.306 184.016 207.324 184.021C207.342 184.025 207.359 184.033 207.373 184.043C207.388 184.054 207.4 184.067 207.41 184.083C207.419 184.098 207.425 184.115 207.428 184.133C207.431 184.151 207.43 184.169 207.425 184.187L205.977 190.141C205.968 190.172 205.95 190.199 205.924 190.218C205.898 190.236 205.866 190.245 205.834 190.242Z" fill="#289D4B"/>
<path d="M218.151 194.827C216.828 194.827 211.781 192.46 211.565 192.359C211.534 192.344 211.509 192.318 211.497 192.286C211.485 192.253 211.485 192.217 211.499 192.185C211.514 192.155 211.541 192.131 211.573 192.119C211.605 192.107 211.641 192.107 211.673 192.119C211.725 192.144 216.826 194.536 218.115 194.557C218.679 193.958 219.856 191.797 219.856 191.771C219.863 191.753 219.874 191.737 219.888 191.724C219.902 191.71 219.919 191.7 219.937 191.694C219.955 191.687 219.974 191.684 219.994 191.686C220.013 191.687 220.032 191.693 220.049 191.702C220.066 191.711 220.08 191.724 220.092 191.74C220.104 191.755 220.112 191.773 220.117 191.791C220.121 191.81 220.122 191.83 220.118 191.849C220.115 191.868 220.107 191.886 220.096 191.902C220.045 191.996 218.841 194.223 218.263 194.788C218.251 194.801 218.237 194.81 218.221 194.817C218.206 194.823 218.189 194.827 218.172 194.827H218.151Z" fill="#289D4B"/>
<path d="M220.737 194.576C220.704 194.576 220.671 194.564 220.646 194.543C220.621 194.521 220.605 194.491 220.6 194.458C220.595 194.425 220.603 194.391 220.621 194.364C220.639 194.336 220.667 194.315 220.699 194.306C220.716 194.306 222.377 193.805 222.755 192.473C223.157 191.052 223.302 189.861 222.913 187.597C222.551 185.497 221.992 181.714 222.299 179.969C222.588 178.315 223.517 173.145 223.517 173.093C223.524 173.057 223.544 173.025 223.574 173.004C223.604 172.983 223.642 172.975 223.678 172.982C223.714 172.988 223.746 173.009 223.766 173.039C223.787 173.069 223.795 173.106 223.789 173.142C223.779 173.194 222.854 178.365 222.57 180.016C222.271 181.721 222.828 185.47 223.185 187.552C223.584 189.861 223.434 191.09 223.011 192.551C222.588 194.012 220.859 194.55 220.775 194.571C220.763 194.574 220.75 194.576 220.737 194.576Z" fill="#289D4B"/>
<path d="M225.64 178.378C225.603 178.378 225.568 178.364 225.542 178.338C225.516 178.312 225.502 178.277 225.502 178.241C225.502 178.204 225.516 178.169 225.542 178.144C225.568 178.118 225.603 178.103 225.64 178.103C226.256 178.088 229.452 177.489 230.386 175.983C230.426 175.904 230.446 175.817 230.446 175.729C230.446 175.641 230.426 175.554 230.386 175.476C230.323 175.407 230.247 175.352 230.163 175.313C230.079 175.274 229.987 175.253 229.895 175.249H229.663C229.466 175.424 228.712 176.089 228.288 176.104C228.27 176.105 228.252 176.102 228.235 176.096C228.218 176.09 228.202 176.08 228.189 176.068C228.176 176.056 228.165 176.041 228.157 176.024C228.15 176.008 228.146 175.99 228.145 175.972C228.144 175.954 228.147 175.936 228.153 175.919C228.16 175.902 228.169 175.887 228.181 175.873C228.194 175.86 228.209 175.849 228.225 175.842C228.241 175.834 228.259 175.83 228.277 175.829C228.552 175.829 229.183 175.323 229.517 175.013C229.542 174.989 229.576 174.975 229.611 174.976H229.9C229.924 174.976 230.394 174.995 230.612 175.324C230.679 175.441 230.717 175.572 230.721 175.707C230.726 175.841 230.697 175.975 230.638 176.096C230.636 176.104 230.633 176.112 230.628 176.118C229.646 177.725 226.39 178.363 225.646 178.382L225.64 178.378Z" fill="#289D4B"/>
<path d="M229.123 170.801C229.091 170.8 229.061 170.789 229.037 170.769C229.012 170.749 228.995 170.722 228.989 170.691C228.978 170.637 227.807 165.241 226.273 163.51C226.257 163.498 226.243 163.482 226.234 163.463C226.225 163.445 226.22 163.425 226.22 163.405C226.219 163.384 226.223 163.364 226.232 163.345C226.24 163.327 226.253 163.31 226.268 163.297C226.284 163.284 226.302 163.274 226.322 163.269C226.342 163.264 226.363 163.263 226.383 163.267C226.403 163.27 226.422 163.278 226.438 163.291C226.455 163.303 226.468 163.318 226.478 163.336C228.059 165.121 229.21 170.418 229.264 170.649C229.268 170.667 229.268 170.685 229.265 170.703C229.262 170.721 229.256 170.738 229.246 170.753C229.236 170.768 229.224 170.781 229.209 170.792C229.194 170.802 229.177 170.809 229.159 170.813L229.123 170.801Z" fill="#289D4B"/>
<path d="M210.661 160.213H210.642C210.539 160.197 208.156 159.84 207.405 159.672C207.358 159.661 202.666 158.583 202.275 158.026C202.264 158.011 202.257 157.994 202.253 157.977C202.249 157.959 202.249 157.941 202.252 157.923C202.255 157.905 202.262 157.888 202.272 157.873C202.282 157.858 202.294 157.845 202.309 157.835C202.324 157.824 202.34 157.817 202.358 157.813C202.375 157.809 202.393 157.809 202.411 157.812C202.429 157.815 202.446 157.821 202.461 157.831C202.476 157.84 202.489 157.853 202.499 157.868C202.727 158.193 205.854 159.041 207.466 159.403C208.206 159.577 210.658 159.938 210.682 159.941C210.716 159.947 210.747 159.965 210.768 159.992C210.79 160.019 210.8 160.053 210.797 160.088C210.795 160.122 210.779 160.154 210.754 160.178C210.729 160.201 210.696 160.215 210.661 160.215V160.213Z" fill="#289D4B"/>
<path d="M218.028 172.249C217.963 172.249 217.899 172.232 217.843 172.199C217.787 172.167 217.74 172.119 217.709 172.062C217.472 171.681 216.769 170.889 215.877 169.884C214.223 168.021 211.956 165.467 210.863 163.491C210.854 163.475 210.849 163.457 210.847 163.439C210.845 163.421 210.846 163.403 210.851 163.385C210.856 163.368 210.864 163.352 210.876 163.337C210.887 163.323 210.901 163.311 210.917 163.302C210.933 163.294 210.95 163.288 210.968 163.286C210.986 163.284 211.005 163.286 211.022 163.291C211.04 163.296 211.056 163.304 211.07 163.315C211.084 163.327 211.096 163.341 211.105 163.356C212.181 165.307 214.436 167.847 216.083 169.703C216.983 170.717 217.693 171.517 217.942 171.918C217.972 171.965 218 171.975 218.031 171.974C218.727 171.956 220.991 168.364 222.248 166.104C222.267 166.075 222.296 166.054 222.33 166.046C222.363 166.038 222.399 166.042 222.429 166.059C222.46 166.076 222.483 166.103 222.494 166.136C222.504 166.169 222.502 166.205 222.488 166.236C222.479 166.252 221.652 167.737 220.709 169.196C218.769 172.226 218.217 172.238 218.038 172.249H218.028Z" fill="#289D4B"/>
<path d="M213.688 150.603C213.688 153.754 216.922 157.075 217.807 157.08C220.049 157.092 222.368 154.797 222.368 150.512C222.368 147.361 219.477 146.159 217.224 146.159C214.971 146.159 213.688 147.451 213.688 150.603Z" fill="#2E318F"/>
<path d="M215.409 146.88C213.32 146.393 212.693 147.688 212.571 149.932C212.574 150.671 212.727 151.401 213.022 152.078L214.452 152.114L215.409 146.88Z" fill="#2E318F"/>
<path d="M215.602 153.792C215.696 154.445 215.546 155.011 215.266 155.049C214.986 155.088 214.43 154.215 214.336 153.563C214.242 152.91 214.646 152.722 214.926 152.681C215.207 152.641 215.508 153.139 215.602 153.792Z" fill="#F2A37C"/>
<path d="M218.721 149.834C218.746 149.171 219.233 148.471 219.926 148.149C220.744 147.768 221.841 147.914 222.092 148.389C222.163 148.528 222.2 148.767 222.092 148.871C221.984 148.976 221.782 148.906 221.611 148.871C221.013 148.75 220.201 148.941 219.926 149.352C219.698 149.7 219.966 149.986 219.686 150.317C219.512 150.522 219.179 150.665 218.963 150.557C218.7 150.419 218.718 149.961 218.721 149.834Z" fill="#00FF01"/>
<path d="M220.012 150.848C220.084 150.606 219.796 150.418 219.582 149.988C218.827 148.475 222.163 148.025 223.893 150.47C225.373 152.559 228.53 160.294 224.564 170.259C223.256 173.544 220.232 177.431 220.69 165.133C220.902 159.416 220.442 154.071 220.232 152.805C220.124 152.157 218.686 151.811 218.686 151.811C218.358 151.412 219.614 151.099 220.012 150.848Z" fill="#2E318F"/>
<path d="M227.604 239.501H196.004C195.499 239.501 195.09 239.91 195.09 240.415C195.09 240.92 195.499 241.329 196.004 241.329H227.604C228.109 241.329 228.518 240.92 228.518 240.415C228.518 239.91 228.109 239.501 227.604 239.501Z" fill="#2B2B2B"/>
<path d="M250.976 238.613C251.004 238.748 251.03 238.906 251.056 239.054L251.131 239.508C251.18 239.814 251.227 240.118 251.272 240.423C251.362 241.033 251.439 241.643 251.506 242.251C251.574 242.86 251.622 243.47 251.652 244.055C251.652 244.199 251.668 244.351 251.668 244.494V244.924L251.654 245.329L251.624 245.697L251.61 245.871C251.587 246.153 251.666 246.434 251.832 246.663C251.998 246.892 252.241 247.054 252.516 247.12C252.791 247.186 253.081 247.151 253.333 247.022C253.585 246.893 253.782 246.678 253.889 246.416C254.156 245.739 254.36 245.04 254.5 244.326C254.641 243.659 254.758 243 254.848 242.347C254.939 241.694 255.023 241.037 255.106 240.384C255.143 240.058 255.178 239.731 255.209 239.404L255.254 238.911C255.27 238.737 255.284 238.586 255.296 238.405V238.331C255.334 237.751 255.139 237.18 254.756 236.743C254.372 236.306 253.83 236.039 253.25 236.002C252.67 235.964 252.099 236.158 251.662 236.542C251.225 236.926 250.958 237.467 250.921 238.048C250.916 238.238 250.935 238.428 250.976 238.613Z" fill="#F2A37C"/>
<path d="M237.414 238.621C237.442 238.755 237.47 238.914 237.496 239.062L237.572 239.516C237.622 239.819 237.671 240.123 237.717 240.429C237.81 241.039 237.891 241.649 237.959 242.257C238.03 242.865 238.081 243.476 238.114 244.059C238.114 244.205 238.13 244.357 238.131 244.498V244.928L238.119 245.335L238.091 245.701L238.079 245.875C238.058 246.157 238.138 246.438 238.305 246.666C238.472 246.894 238.715 247.055 238.99 247.12C239.265 247.184 239.555 247.149 239.806 247.019C240.057 246.889 240.254 246.673 240.36 246.411C240.623 245.735 240.824 245.035 240.961 244.322C241.1 243.655 241.213 242.995 241.309 242.341C241.405 241.686 241.483 241.031 241.558 240.378C241.593 240.051 241.626 239.723 241.657 239.396L241.701 238.903C241.714 238.729 241.728 238.578 241.739 238.397V238.325C241.762 238.035 241.726 237.743 241.635 237.467C241.544 237.19 241.398 236.934 241.207 236.715C241.016 236.495 240.783 236.316 240.522 236.187C240.261 236.058 239.977 235.983 239.686 235.965C239.395 235.948 239.104 235.988 238.829 236.085C238.554 236.181 238.302 236.331 238.085 236.526C237.869 236.721 237.694 236.957 237.57 237.221C237.446 237.484 237.376 237.77 237.364 238.061C237.357 238.249 237.374 238.437 237.414 238.621Z" fill="#F2A37C"/>
<path d="M247.919 199.924L248.073 201.192L248.212 202.459L248.487 204.996L248.739 207.533L248.975 210.068C249.056 210.915 249.123 211.759 249.196 212.605C249.269 213.452 249.345 214.296 249.408 215.142L249.607 217.677L249.706 218.947L249.793 220.214C249.85 221.061 249.913 221.905 249.967 222.751C250.021 223.598 250.07 224.442 250.106 225.287L250.348 230.36L250.47 232.896L250.533 234.165C250.552 234.588 250.583 235.009 250.608 235.433C250.66 236.279 250.705 237.123 250.771 237.969L250.864 239.237L250.909 239.871L250.921 240.029C250.921 240.083 250.928 240.136 250.944 240.188C250.996 240.294 251.104 240.4 251.407 240.505C252.57 240.913 253.838 240.913 255.002 240.505C255.305 240.4 255.415 240.294 255.465 240.188C255.481 240.137 255.489 240.083 255.488 240.029L255.5 239.871L255.549 239.237L255.643 237.969C255.711 237.123 255.765 236.279 255.817 235.433C255.845 235.009 255.878 234.588 255.902 234.165L255.975 232.896L256.122 230.36C256.176 229.514 256.212 228.67 256.256 227.823L256.379 225.287L256.63 220.214L257.124 210.068L257.349 204.996L257.544 199.924L257.56 199.529C257.587 198.26 257.115 197.032 256.245 196.108C255.375 195.185 254.177 194.64 252.91 194.591C251.642 194.541 250.406 194.992 249.467 195.846C248.528 196.7 247.963 197.888 247.892 199.155C247.882 199.411 247.891 199.669 247.919 199.924Z" fill="white"/>
<path d="M240.516 198.411C240.448 198.63 240.382 198.834 240.319 199.046L240.131 199.678C240.007 200.098 239.884 200.518 239.769 200.941L239.42 202.207C239.304 202.63 239.187 203.051 239.072 203.478C238.856 204.328 238.643 205.18 238.432 206.034C238.379 206.248 238.325 206.46 238.275 206.676L238.129 207.321L237.84 208.618C237.65 209.488 237.462 210.359 237.284 211.24C237.107 212.121 236.96 213.027 236.819 213.989C236.783 214.23 236.75 214.479 236.718 214.738C236.687 214.998 236.656 215.273 236.628 215.586L236.61 215.833C236.61 215.926 236.598 216.008 236.595 216.115V216.27V216.457V216.631V216.707L236.616 217.331L236.689 219.889L236.816 225.067C236.861 226.808 236.901 228.532 236.96 230.27C237.02 232.007 237.067 233.752 237.145 235.493C237.183 236.364 237.223 237.235 237.27 238.121C237.295 238.563 237.321 239.005 237.35 239.456L237.375 239.805L237.389 239.979C237.392 240.04 237.41 240.099 237.439 240.153C237.479 240.218 237.528 240.277 237.585 240.327C237.622 240.36 237.66 240.391 237.7 240.419C237.745 240.453 237.792 240.483 237.841 240.51C237.864 240.524 237.897 240.538 237.925 240.553C237.953 240.569 237.979 240.581 238.014 240.595C238.048 240.609 238.081 240.624 238.113 240.642L238.231 240.691L238.35 240.736C238.388 240.752 238.442 240.766 238.487 240.78L238.557 240.799L238.593 240.809L238.635 240.818L238.809 240.851C239.226 240.933 239.656 240.913 240.063 240.794L240.484 240.668L240.787 240.578L240.918 240.539L241.031 240.505L241.142 240.471C241.174 240.463 241.206 240.452 241.236 240.438L241.323 240.4C241.35 240.386 241.383 240.374 241.404 240.362C241.451 240.337 241.505 240.313 241.539 240.29C241.574 240.268 241.618 240.243 241.649 240.221C241.705 240.182 241.752 240.132 241.788 240.074C241.818 240.03 241.834 239.979 241.837 239.926L241.849 239.778L241.877 239.472C241.917 239.059 241.961 238.638 242.006 238.213C242.098 237.367 242.197 236.512 242.298 235.655L242.915 230.505C243.125 228.786 243.324 227.064 243.526 225.34C243.728 223.617 243.919 221.889 244.104 220.152C244.194 219.281 244.278 218.41 244.362 217.521L244.417 216.845V216.761V216.741V216.751V216.768V216.788C244.417 216.788 244.417 216.803 244.417 216.8C244.417 216.8 244.431 216.781 244.436 216.767C244.446 216.745 244.455 216.722 244.463 216.699L244.598 216.283L244.772 215.771C245.02 215.055 245.307 214.282 245.605 213.507C245.902 212.732 246.19 211.94 246.494 211.153L248.364 206.377C248.523 205.98 248.672 205.579 248.824 205.181L249.282 203.983C249.437 203.584 249.583 203.184 249.731 202.783L249.956 202.184L250.17 201.594C250.414 200.963 250.53 200.289 250.511 199.612C250.491 198.935 250.337 198.269 250.058 197.653C249.778 197.037 249.378 196.482 248.881 196.022C248.384 195.563 247.801 195.206 247.165 194.975C246.529 194.743 245.853 194.641 245.177 194.673C244.501 194.706 243.838 194.874 243.228 195.166C242.617 195.458 242.071 195.869 241.621 196.375C241.171 196.88 240.827 197.471 240.608 198.111C240.582 198.181 240.559 198.252 240.536 198.324L240.516 198.411Z" fill="white"/>
<g opacity="0.5">
<g style="mix-blend-mode:multiply" opacity="0.4">
<path d="M256.2 233.497C256.026 234.514 255.586 236.473 254.532 236.534C251.548 236.703 250.106 227.619 250.106 227.619L250.423 240.912L251.9 245.378L261.956 241.141L258.897 234.495L256.2 233.497Z" fill="#1B1464"/>
</g>
<g style="mix-blend-mode:multiply" opacity="0.4">
<path d="M242.663 232.515C242.386 233.513 241.772 235.43 240.704 235.401C237.678 235.315 237.048 226.13 237.048 226.13L236.151 239.409L237.231 243.988L247.743 240.621L245.271 233.734L242.663 232.515Z" fill="#1B1464"/>
</g>
</g>
<path d="M254.634 244.857C255.031 246.865 254.498 247.93 254.498 247.93H248.457C248.457 247.93 247.618 247.004 248.081 246.426C248.544 245.848 250.076 245.381 250.712 245.096C251.347 244.81 251.175 243.779 251.608 243.762C252.042 243.745 252.388 244.662 253.025 244.662C253.352 244.648 253.675 244.585 253.983 244.474C254.051 244.452 254.123 244.445 254.194 244.453C254.265 244.46 254.333 244.483 254.395 244.519C254.456 244.555 254.509 244.604 254.551 244.663C254.592 244.721 254.62 244.787 254.634 244.857Z" fill="#2C348C"/>
<path d="M241.162 244.857C241.559 246.864 241.026 247.93 241.026 247.93H233.508C233.508 247.93 232.671 247.004 233.134 246.426C233.597 245.847 236.515 245.074 237.15 244.785C237.786 244.496 237.701 243.779 238.134 243.761C238.568 243.744 238.914 244.662 239.551 244.662C239.878 244.648 240.201 244.585 240.509 244.474C240.577 244.452 240.649 244.444 240.72 244.452C240.791 244.46 240.86 244.482 240.921 244.519C240.983 244.555 241.036 244.604 241.078 244.662C241.119 244.72 241.148 244.787 241.162 244.857Z" fill="#2C348C"/>
<path d="M254.678 167.151C254.637 167.053 254.593 166.956 254.557 166.86L254.499 166.719C254.48 166.668 254.463 166.637 254.445 166.595L254.337 166.364L254.288 166.249L254.238 166.144C254.207 166.075 254.175 166.005 254.146 165.935L254.057 165.733C253.999 165.603 253.947 165.47 253.897 165.342C253.694 164.853 253.547 164.343 253.46 163.821C253.381 163.311 253.373 162.789 253.272 162.308C253.225 162.075 253.156 161.847 253.066 161.628L252.998 161.478C252.973 161.421 252.928 161.375 252.871 161.349C252.776 161.322 252.678 161.305 252.579 161.297H252.528C252.519 161.296 252.51 161.296 252.5 161.297L252.476 161.305C252.439 161.318 252.396 161.33 252.358 161.338C252.255 161.362 252.151 161.377 252.046 161.384C252.05 161.179 252.011 160.975 251.932 160.786C251.854 160.597 251.737 160.426 251.589 160.284C251.441 160.142 251.266 160.032 251.074 159.961C250.881 159.891 250.677 159.86 250.472 159.872C250.267 159.884 250.068 159.938 249.885 160.031C249.702 160.124 249.541 160.254 249.411 160.412C249.281 160.571 249.185 160.754 249.129 160.951C249.073 161.148 249.058 161.355 249.086 161.558C249.086 161.622 249.086 161.688 249.086 161.755V161.929C249.086 162.011 249.086 162.094 249.086 162.178C249.086 162.261 249.086 162.321 249.086 162.394L249.098 162.601L249.156 163.388C249.199 163.9 249.243 164.403 249.272 164.898C249.283 165.148 249.292 165.394 249.299 165.638C249.299 165.758 249.299 165.881 249.299 166.001C249.299 166.122 249.299 166.238 249.288 166.35C249.278 166.461 249.276 166.578 249.264 166.698C249.26 166.753 249.254 166.809 249.245 166.863L249.222 167.022L249.211 167.1L249.196 167.17L249.157 167.304C249.153 167.325 249.147 167.346 249.138 167.367L249.112 167.408C249.097 167.436 249.077 167.462 249.06 167.488C248.744 167.983 248.562 168.551 248.531 169.137C248.5 169.723 248.621 170.307 248.882 170.832C249.143 171.357 249.536 171.806 250.022 172.134C250.508 172.463 251.071 172.66 251.656 172.707C252.24 172.754 252.827 172.648 253.359 172.401C253.891 172.154 254.35 171.773 254.692 171.296C255.033 170.819 255.245 170.262 255.308 169.679C255.37 169.095 255.28 168.506 255.048 167.967L254.678 167.151Z" fill="#F2A37C"/>
<path d="M263.467 171.606C259.222 166.254 256.955 165.568 251.77 165.369C249.294 165.274 246.105 165.993 243.969 166.808C241.381 167.797 238.428 170.464 239.149 173.132C240.478 178.059 242.369 185.935 242.01 189.717C241.846 191.458 240.288 194.979 239.766 198.626C242.416 200.437 249.918 209.199 258.158 198.726C258.158 198.726 257.039 190.741 258.139 186.537C259.239 182.334 263.467 171.606 263.467 171.606Z" fill="#2C348C"/>
<g style="mix-blend-mode:multiply" opacity="0.3">
<path d="M241.847 185.752L242.37 185.714C242.37 185.714 243.284 181.596 243.279 180.792C243.273 179.987 243.158 178.321 243.158 178.321C243.158 178.321 244.882 181.582 245.115 184.763C245.349 187.944 244.9 192.059 244.9 192.059L245.909 194.497L250.805 197.935L254.775 196.386L257.764 194.504C257.911 196.884 258.168 198.726 258.168 198.726C257.66 199.376 257.112 199.994 256.526 200.575C254.367 201.552 251.101 202.717 249.108 201.954C245.929 200.735 245.048 197.561 243.522 197.995C242.835 198.19 241.86 198.883 240.996 199.586C240.519 199.191 240.11 198.853 239.777 198.627C240.3 194.97 241.867 191.456 242.022 189.717C242.112 188.664 242.036 187.291 241.847 185.752Z" fill="#1B1464"/>
</g>
<path d="M250.418 163.557C252.122 163.455 253.387 161.441 253.245 159.059C253.103 156.676 251.606 154.827 249.902 154.929C248.199 155.031 246.933 157.045 247.075 159.427C247.218 161.81 248.714 163.659 250.418 163.557Z" fill="#F2A37C"/>
<path d="M248.255 159.163C248.398 161.545 249.893 163.394 251.596 163.293C253.299 163.192 255.622 160.325 255.479 157.943C255.336 155.561 252.785 154.565 251.081 154.666C249.376 154.767 248.112 156.781 248.255 159.163Z" fill="#272C7C"/>
<path d="M245.979 156.701C246.132 159.247 248.591 161.172 251.456 161.002C254.322 160.831 256.232 160.708 256.58 158.181C257.148 154.067 253.561 152.886 250.905 151.779C247.736 150.455 245.828 154.154 245.979 156.701Z" fill="#2E318F"/>
<path d="M239.081 175.064C238.845 175.571 238.645 176.095 238.484 176.631C238.322 177.153 238.185 177.686 238.068 178.219C237.951 178.752 237.852 179.288 237.775 179.83C237.699 180.371 237.631 180.911 237.56 181.454C237.419 182.541 237.297 183.631 237.187 184.736C237.137 185.29 237.09 185.847 237.053 186.422C237.036 186.711 237.02 187.003 237.015 187.313C237.015 187.468 237.015 187.629 237.015 187.803C237.015 187.888 237.015 187.977 237.015 188.079C237.015 188.182 237.025 188.287 237.039 188.428L237.053 188.536L237.072 188.663C237.072 188.715 237.088 188.755 237.102 188.821C237.102 188.854 237.114 188.879 237.124 188.919C237.135 188.959 237.145 188.995 237.157 189.034C237.17 189.072 237.19 189.136 237.208 189.185L237.222 189.223L237.244 189.276C237.258 189.312 237.276 189.347 237.291 189.382L237.318 189.434L237.356 189.507C237.384 189.558 237.413 189.607 237.445 189.654L237.479 189.704L237.493 189.725L237.525 189.765L237.587 189.847L237.629 189.896L237.669 189.941L237.704 189.981L237.765 190.045L237.819 190.101L237.871 190.153L237.918 190.2L238.011 190.287L238.098 190.369C238.327 190.58 238.542 190.763 238.756 190.947C239.186 191.313 239.609 191.663 240.035 192.008C240.887 192.704 241.743 193.374 242.603 194.041C243.464 194.708 244.345 195.359 245.215 196.012C245.652 196.336 246.086 196.657 246.537 196.977C246.756 197.137 247.036 197.731 247.261 197.889L247.546 198.119L247.907 198.365C248.181 198.552 248.516 198.629 248.845 198.582C249.174 198.535 249.473 198.367 249.684 198.11C249.895 197.853 250.002 197.527 249.984 197.195C249.967 196.863 249.825 196.55 249.589 196.317L249.55 195.85L247.268 193.603L244.945 191.339L242.631 189.095C242.25 188.72 241.867 188.348 241.501 187.978C241.327 187.804 241.137 187.609 240.979 187.44L240.923 187.38L240.873 187.322L240.848 187.296L240.831 187.275L240.817 187.256V187.245L240.85 187.287L240.866 187.308L240.899 187.357C240.927 187.397 240.951 187.439 240.976 187.482L241.009 187.545L241.03 187.585L241.066 187.667L241.094 187.735C241.106 187.768 241.12 187.81 241.127 187.837C241.134 187.865 241.141 187.883 241.148 187.905L241.158 187.951L241.172 188.012V188.038C241.175 188.016 241.175 187.995 241.172 187.973V187.844C241.172 187.749 241.188 187.637 241.2 187.524C241.223 187.292 241.252 187.045 241.284 186.794C241.35 186.293 241.426 185.776 241.508 185.255C241.669 184.211 241.857 183.166 242.031 182.107L242.307 180.523C242.398 180 242.469 179.462 242.529 178.928C242.588 178.393 242.626 177.855 242.642 177.312C242.662 176.765 242.645 176.217 242.591 175.672V175.651C242.546 175.248 242.371 174.871 242.092 174.577C241.814 174.282 241.447 174.086 241.047 174.019C240.648 173.951 240.237 174.015 239.877 174.201C239.517 174.387 239.227 174.685 239.052 175.05L239.081 175.064Z" fill="#F2A37C"/>
<path d="M256.015 198.647C256.179 198.474 256.353 198.31 256.537 198.158C256.629 198.08 256.723 198 256.821 197.923L257.124 197.698C257.529 197.396 257.966 197.112 258.407 196.828C258.847 196.544 259.302 196.26 259.761 195.976C259.991 195.835 260.221 195.693 260.458 195.552L261.167 195.134L261.884 194.709C262.128 194.57 262.372 194.428 262.619 194.284C263.113 193.993 263.607 193.687 264.13 193.349C264.389 193.175 264.652 193.001 264.927 192.785C265.237 192.549 265.528 192.289 265.798 192.008C265.978 191.816 266.142 191.609 266.289 191.39C266.385 191.244 266.472 191.091 266.548 190.934C266.647 190.727 266.725 190.511 266.783 190.29C266.819 190.151 266.845 190.009 266.862 189.867C266.862 189.792 266.875 189.71 266.881 189.63V189.527C266.881 189.48 266.881 189.433 266.881 189.386C266.881 189.29 266.863 189.196 266.848 189.102L266.83 188.999V188.965L266.82 188.897L266.802 188.778L266.738 188.353L266.484 186.717C266.398 186.172 266.31 185.63 266.233 185.087L265.719 181.826L265.474 180.198L265.242 178.566C265.089 177.48 264.932 176.393 264.791 175.301C264.746 174.944 264.63 174.598 264.451 174.285C264.272 173.972 264.033 173.698 263.747 173.477C263.462 173.256 263.136 173.094 262.788 173C262.44 172.905 262.077 172.88 261.719 172.925C261.362 172.971 261.016 173.087 260.703 173.266C260.39 173.445 260.116 173.684 259.895 173.97C259.675 174.255 259.512 174.581 259.418 174.929C259.323 175.277 259.298 175.64 259.344 175.998C259.344 176.034 259.354 176.071 259.359 176.108L259.438 176.559C259.626 177.638 259.821 178.714 260.03 179.788L260.345 181.399L260.67 183.006L260.832 183.811L261.006 184.613L261.344 186.217C261.454 186.752 261.57 187.284 261.692 187.817L262.041 189.41L262.122 189.795L262.14 189.882V189.919V189.945C262.14 189.945 262.14 189.955 262.14 189.945V189.896C262.129 189.831 262.121 189.765 262.117 189.699C262.117 189.666 262.117 189.633 262.117 189.6V189.536C262.117 189.497 262.117 189.459 262.117 189.426C262.123 189.368 262.132 189.309 262.143 189.252C262.161 189.154 262.194 189.06 262.241 188.973C262.241 188.958 262.23 188.987 262.195 189.029C262.083 189.152 261.963 189.269 261.837 189.377C261.684 189.515 261.506 189.661 261.315 189.807C260.937 190.098 260.529 190.406 260.108 190.715L259.476 191.193L258.837 191.69C257.982 192.363 257.124 193.083 256.245 193.796C256.027 193.971 255.802 194.155 255.581 194.341L254.913 194.9L254.225 195.471L253.515 196.07C253.334 196.223 253.184 196.41 253.076 196.62C252.967 196.83 252.901 197.06 252.881 197.296C252.86 197.532 252.887 197.769 252.959 197.995C253.031 198.221 253.146 198.43 253.299 198.611C253.451 198.792 253.638 198.941 253.848 199.05C254.059 199.159 254.288 199.225 254.524 199.245C254.76 199.265 254.997 199.238 255.223 199.167C255.449 199.095 255.658 198.979 255.839 198.827C255.896 198.779 255.949 198.728 255.999 198.674L256.015 198.647Z" fill="#F2A37C"/>
<path d="M254.21 196.114C253.394 196.137 252.587 196.298 251.825 196.591C251.825 196.591 251.302 195.546 250.568 195.546H248.551L247.402 197.844C247.402 197.844 249.18 200.667 250.806 200.804C252.432 200.942 255.415 200.238 255.981 199.274C257.998 195.826 254.21 196.114 254.21 196.114Z" fill="#F2A37C"/>
<g style="mix-blend-mode:multiply" opacity="0.13">
<path d="M247.741 193.599C248.407 194.818 247.86 195.33 245.675 194.992C243.49 194.654 236.599 189.083 236.599 189.083L237.991 195.091L248.722 201.342L253.443 201.724L257.556 198.177L265.774 192.495C265.774 192.495 261.726 195.154 258.17 195.544C254.615 195.934 257.046 193.188 257.046 193.188L247.741 193.599Z" fill="#CC7455"/>
</g>
<g style="mix-blend-mode:multiply" opacity="0.13">
<path d="M266.559 186.753C266.068 186.255 264.189 185.648 262.916 186.579C261.644 187.511 260.689 189.093 260.689 189.093V185.388L266.559 183.567V186.753Z" fill="#CC7455"/>
</g>
<g style="mix-blend-mode:multiply" opacity="0.13">
<path d="M241.609 186.753C241.409 186.753 239.868 186.057 239.118 186.156C238.367 186.255 236.68 187.874 236.597 189.088C236.203 185.388 237.039 183.365 237.039 183.365L240.57 183.567L242.359 184.96L241.609 186.753Z" fill="#CC7455"/>
</g>
<path d="M259.649 167.906C261.969 168.486 263.571 171.406 264.316 173.605C265.441 176.927 267.053 183.83 267.053 183.83C264.602 185.397 262.417 186.267 259.934 186.325C259.934 186.325 257.168 181.583 257.082 179.804C256.724 172.146 259.649 167.906 259.649 167.906Z" fill="#2C348C"/>
<g style="mix-blend-mode:multiply" opacity="0.3">
<path d="M263.081 185.791C262.064 186.121 261.003 186.302 259.934 186.325C259.934 186.325 259.357 185.34 258.715 184.098L259.531 179.766C259.531 179.766 260.315 184.612 263.081 185.791Z" fill="#1B1464"/>
</g>
<path d="M251.866 199.554C251.897 199.555 251.927 199.545 251.95 199.526C251.974 199.507 251.991 199.481 251.997 199.451C252.003 199.421 251.998 199.39 251.983 199.363C251.969 199.337 251.945 199.316 251.917 199.305C251.245 199.025 250.672 198.462 250.554 197.968C250.527 197.879 250.523 197.784 250.541 197.693C250.56 197.602 250.6 197.517 250.66 197.445C250.671 197.433 250.68 197.418 250.686 197.401C250.691 197.385 250.694 197.368 250.693 197.35C250.691 197.333 250.687 197.316 250.68 197.301C250.672 197.285 250.661 197.271 250.648 197.26C250.636 197.249 250.621 197.24 250.604 197.234C250.588 197.229 250.571 197.226 250.553 197.227C250.536 197.228 250.519 197.233 250.504 197.24C250.488 197.248 250.474 197.258 250.463 197.271C250.376 197.374 250.316 197.497 250.287 197.629C250.259 197.761 250.263 197.897 250.299 198.027C250.439 198.605 251.062 199.228 251.816 199.544C251.832 199.55 251.849 199.553 251.866 199.554Z" fill="#CC8862"/>
<path d="M241.923 169.775C239.216 169.068 238.549 171.772 237.813 174.727C237.426 176.28 235.479 184.303 235.479 184.303C236.562 184.977 239.843 186.431 242.355 185.719L243.144 175.867L241.923 169.775Z" fill="#2C348C"/>
<g style="mix-blend-mode:multiply" opacity="0.3">
<path d="M238.939 185.666C237.726 185.385 236.561 184.924 235.483 184.297C235.483 184.297 237.43 176.279 237.816 174.721C238.123 173.49 238.419 172.302 238.861 171.388C237.757 176.253 238.628 183.453 238.939 185.666Z" fill="#1B1464"/>
</g>
<path d="M262.95 247.903H232.046C231.541 247.903 231.132 248.312 231.132 248.817C231.132 249.322 231.541 249.731 232.046 249.731H262.95C263.455 249.731 263.864 249.322 263.864 248.817C263.864 248.312 263.455 247.903 262.95 247.903Z" fill="#2B2B2B"/>
<defs>
<linearGradient id="paint0_linear_4077_20004" x1="161.262" y1="215.823" x2="148.816" y2="17.7694" gradientUnits="userSpaceOnUse">
<stop stop-color="#FF447F" stop-opacity="0.99"/>
<stop offset="0.12" stop-color="#FF4D88" stop-opacity="0.76"/>
<stop offset="0.25" stop-color="#FF5591" stop-opacity="0.56"/>
<stop offset="0.37" stop-color="#FF5B97" stop-opacity="0.39"/>
<stop offset="0.5" stop-color="#FF619D" stop-opacity="0.25"/>
<stop offset="0.62" stop-color="#FF65A1" stop-opacity="0.14"/>
<stop offset="0.75" stop-color="#FF68A5" stop-opacity="0.06"/>
<stop offset="0.87" stop-color="#FF69A6" stop-opacity="0.02"/>
<stop offset="1" stop-color="#FF6AA7" stop-opacity="0"/>
</linearGradient>
<linearGradient id="paint1_linear_4077_20004" x1="160.531" y1="204.112" x2="149.558" y2="29.4858" gradientUnits="userSpaceOnUse">
<stop stop-color="#FF447F" stop-opacity="0.99"/>
<stop offset="0.12" stop-color="#FF4D88" stop-opacity="0.76"/>
<stop offset="0.25" stop-color="#FF5591" stop-opacity="0.56"/>
<stop offset="0.37" stop-color="#FF5B97" stop-opacity="0.39"/>
<stop offset="0.5" stop-color="#FF619D" stop-opacity="0.25"/>
<stop offset="0.62" stop-color="#FF65A1" stop-opacity="0.14"/>
<stop offset="0.75" stop-color="#FF68A5" stop-opacity="0.06"/>
<stop offset="0.87" stop-color="#FF69A6" stop-opacity="0.02"/>
<stop offset="1" stop-color="#FF6AA7" stop-opacity="0"/>
</linearGradient>
<linearGradient id="paint2_linear_4077_20004" x1="159.795" y1="192.403" x2="150.292" y2="41.1927" gradientUnits="userSpaceOnUse">
<stop stop-color="#FF447F" stop-opacity="0.99"/>
<stop offset="0.12" stop-color="#FF4D88" stop-opacity="0.76"/>
<stop offset="0.25" stop-color="#FF5591" stop-opacity="0.56"/>
<stop offset="0.37" stop-color="#FF5B97" stop-opacity="0.39"/>
<stop offset="0.5" stop-color="#FF619D" stop-opacity="0.25"/>
<stop offset="0.62" stop-color="#FF65A1" stop-opacity="0.14"/>
<stop offset="0.75" stop-color="#FF68A5" stop-opacity="0.06"/>
<stop offset="0.87" stop-color="#FF69A6" stop-opacity="0.02"/>
<stop offset="1" stop-color="#FF6AA7" stop-opacity="0"/>
</linearGradient>
<linearGradient id="paint3_linear_4077_20004" x1="158.799" y1="180.718" x2="150.77" y2="52.9176" gradientUnits="userSpaceOnUse">
<stop stop-color="#FF447F" stop-opacity="0.99"/>
<stop offset="0.12" stop-color="#FF4D88" stop-opacity="0.76"/>
<stop offset="0.25" stop-color="#FF5591" stop-opacity="0.56"/>
<stop offset="0.37" stop-color="#FF5B97" stop-opacity="0.39"/>
<stop offset="0.5" stop-color="#FF619D" stop-opacity="0.25"/>
<stop offset="0.62" stop-color="#FF65A1" stop-opacity="0.14"/>
<stop offset="0.75" stop-color="#FF68A5" stop-opacity="0.06"/>
<stop offset="0.87" stop-color="#FF69A6" stop-opacity="0.02"/>
<stop offset="1" stop-color="#FF6AA7" stop-opacity="0"/>
</linearGradient>
<linearGradient id="paint4_linear_4077_20004" x1="155.423" y1="175.068" x2="148.877" y2="70.8772" gradientUnits="userSpaceOnUse">
<stop stop-color="#FF447F" stop-opacity="0.99"/>
<stop offset="0.12" stop-color="#FF4D88" stop-opacity="0.76"/>
<stop offset="0.25" stop-color="#FF5591" stop-opacity="0.56"/>
<stop offset="0.37" stop-color="#FF5B97" stop-opacity="0.39"/>
<stop offset="0.5" stop-color="#FF619D" stop-opacity="0.25"/>
<stop offset="0.62" stop-color="#FF65A1" stop-opacity="0.14"/>
<stop offset="0.75" stop-color="#FF68A5" stop-opacity="0.06"/>
<stop offset="0.87" stop-color="#FF69A6" stop-opacity="0.02"/>
<stop offset="1" stop-color="#FF6AA7" stop-opacity="0"/>
</linearGradient>
</defs>
</svg>
