<svg width="1024" height="849" viewBox="0 0 1024 849" fill="none" xmlns="http://www.w3.org/2000/svg">
<g clip-path="url(#clip0_4080_20009)">
<path d="M203.691 107.438C184.469 125.757 154.894 154.429 130.797 201.203C107.326 246.687 101.449 285.345 96.1743 319.797C88.7599 368.296 82.1895 411.219 98.3369 463.071C100.492 469.996 111.779 505.15 140.842 542.745C148.994 553.294 178.735 590.143 228.465 616.706C257.098 632.018 282.762 638.748 421.473 648.567C501.133 654.203 490.192 651.807 599.434 658.845C664.988 663.065 697.72 665.785 750.336 666.343C824.608 667.096 843.31 666.064 854.997 664.323C909.685 656.177 962.302 648.34 988.622 609.186C1024.55 555.736 989.262 477.004 975.767 446.9C952.092 394.068 916.602 360.648 901.472 346.677C840.439 290.311 806.442 300.19 778.939 253.447C755.905 214.262 771.788 193.818 751.203 148.363C728.206 97.5435 684.556 72.0733 653.053 53.1891C561.518 -1.68484 435.134 -18.0521 325.621 26.4303C262.546 52.0437 220.222 91.6808 203.691 107.438Z" fill="url(#paint0_linear_4080_20009)"/>
<path d="M403.999 606.526C283.922 597.544 267.066 591.229 247.634 580.845C207.766 559.549 182.185 529.724 173.038 517.893C149.672 487.675 139.726 459.063 137.186 451.015C123.834 408.062 129.38 371.846 136.433 325.924C141.436 293.22 146.613 259.393 167.002 219.824C188.454 178.19 215.588 152.328 231.803 136.872C244.665 124.619 283.794 87.3333 340.977 64.1087C385.124 46.1741 435.043 38.6837 485.346 42.4515C538.174 46.4228 588.945 62.1796 632.135 88.0944L633.83 89.1042C663.33 106.783 696.762 126.782 714.138 165.213C721.183 180.759 722.185 191.505 723.451 205.107C725.154 223.29 727.264 245.919 743.871 274.14C764.471 309.143 789.08 322.172 812.929 334.764C830.884 344.266 849.458 354.085 873.856 376.631C885.912 387.754 917.875 417.323 938.657 463.614C945.046 477.856 955.723 501.691 960.847 527.327C965.971 552.963 963.982 573.008 954.879 586.549C948.098 596.587 936.871 604.009 919.465 609.91C899.633 616.616 875.069 620.279 849.059 624.152C839.21 625.621 818.738 626.413 750.818 625.727C707.741 625.275 678.972 623.376 631.298 620.226C622.257 619.631 612.604 618.99 602.101 618.312C547.095 614.763 522.735 613.617 501.268 612.607C480.283 611.613 463.706 610.829 424.411 608.086C417.293 607.533 410.489 607.013 403.999 606.526Z" fill="url(#paint1_linear_4080_20009)"/>
<path d="M407.037 565.946C289.673 557.167 278.566 551.237 266.804 544.952C232.95 526.867 211.113 500.613 205.228 493.002C185.532 467.524 177.455 443.478 176.038 438.957C165.489 405.002 169.905 376.012 176.618 332.133C181.335 301.297 185.788 272.172 203.134 238.511C221.444 202.966 244.576 180.954 259.834 166.388C271.31 155.454 306.219 122.177 356.282 101.861C394.612 86.2472 438.187 79.7516 482.266 83.0521C528.847 86.5336 573.439 100.384 611.219 122.991L612.915 124.008C639.679 140.044 664.951 155.183 677.075 181.964C681.302 191.301 681.814 196.794 682.944 208.851C684.798 228.7 687.594 258.691 708.804 294.756C735.252 339.698 767.78 356.902 793.949 370.715C811.031 379.757 825.784 387.549 846.287 406.494C856.655 416.071 884.196 441.519 901.549 480.229C907.23 492.911 916.739 514.139 920.966 535.239C925.344 557.182 921.17 563.723 921.124 563.791C921.079 563.859 918.781 567.114 906.424 571.327C890.028 576.865 867.242 580.264 843.047 583.866C831.21 585.629 784.975 585.373 751.234 585.004C709.279 584.559 680.933 582.683 633.967 579.586C624.925 578.983 615.228 578.342 604.702 577.664C549.335 574.1 524.831 572.939 503.183 571.922C482.462 570.942 466.104 570.166 427.253 567.401C420.216 566.913 413.477 566.428 407.037 565.946Z" fill="url(#paint2_linear_4080_20009)"/>
<path d="M410.078 525.368C358.69 521.525 324.134 517.953 304.453 514.449C291.885 512.188 289.534 510.96 285.977 509.061C258.573 494.419 240.722 472.385 237.422 468.112C221.395 447.382 215.156 427.669 214.893 426.84C207.433 402.854 210.1 382.38 216.844 338.252C221.41 308.426 225.012 284.87 239.306 257.117C254.481 227.668 273.801 209.258 287.906 195.815C297.995 186.199 328.693 156.939 371.544 139.532C404.133 126.299 441.363 120.798 479.226 123.632C519.531 126.646 557.921 138.492 590.321 157.881L592.017 158.898C614.094 172.123 633.158 183.547 640.037 198.739C641.371 201.685 641.454 201.858 642.456 212.612C644.513 234.638 647.949 271.495 673.763 315.367C706.043 370.271 747.478 392.177 774.928 406.675C791.271 415.318 802.054 421.03 818.676 436.365C827.371 444.398 850.466 465.754 864.413 496.861C868.73 506.491 875.565 521.728 879.483 536.468C867.502 539.075 852.613 541.29 837.129 543.604C832.804 544.161 815.94 544.983 751.675 544.305C710.851 543.875 682.934 542.044 636.684 538.977L607.298 537.048C551.539 533.461 526.855 532.293 505.071 531.268C484.644 530.303 468.504 529.542 430.098 526.822C423.131 526.335 416.457 525.85 410.078 525.368Z" fill="url(#paint3_linear_4080_20009)"/>
<path d="M793.766 524.969C782.019 524.969 767.981 524.886 752.037 524.713C712.343 524.298 684.863 522.452 639.33 519.438C630.175 518.835 620.447 518.194 609.883 517.516C553.702 513.892 528.867 512.724 506.956 511.691C486.792 510.734 470.871 509.988 432.94 507.298C426.028 506.796 419.41 506.316 413.085 505.859C363.799 502.204 329.613 498.7 311.582 495.475C308.658 494.955 306.812 494.57 305.69 494.314C305.203 494.208 304.733 494.033 304.296 493.794C283.898 482.619 270.2 465.061 269.635 464.315C262.901 455.638 257.534 445.981 253.721 435.68C249.2 420.948 250.828 406.397 257.082 365.486C261.392 337.296 264.24 318.675 275.489 296.837C287.545 273.477 303.309 258.406 315.99 246.349C324.7 238.06 351.186 212.808 386.886 198.31C408.851 189.388 434.1 184.67 459.907 184.67C465.31 184.67 470.795 184.881 476.221 185.288C510.218 187.828 542.438 197.714 569.398 213.871L571.093 214.896C580.459 220.502 587.67 225.445 594.105 230.954C595.145 231.843 600.005 239.386 600.133 240.75L603.147 253.561C605.362 277.298 608.278 305.405 638.689 357.092C676.839 421.897 726.328 448.091 755.895 463.727C771.312 471.873 778.342 475.596 791.046 487.336C796.117 492.016 807.239 502.294 816.996 516.491C817.545 517.287 817.868 518.217 817.929 519.182C817.991 520.146 817.789 521.11 817.346 521.968C816.902 522.827 816.234 523.55 815.412 524.058C814.59 524.567 813.645 524.843 812.679 524.856C807.683 524.931 801.482 524.969 793.766 524.969Z" fill="url(#paint4_linear_4080_20009)"/>
<path d="M62.0195 702.334L960.638 698.754C960.638 698.754 777.478 502.28 752.824 502.151C742.471 502.099 722.006 525.512 701.827 543.002C698.981 545.482 695.608 547.283 691.964 548.27C688.32 549.257 684.5 549.403 680.791 548.699C677.082 547.994 673.582 546.457 670.553 544.203C667.525 541.948 665.048 539.036 663.309 535.685C650.236 510.674 630.524 473.539 613.164 443.171V443.103C596.217 413.488 581.517 390.354 577.418 391.198C570.802 392.599 557.382 412.026 544.867 432.508C530.279 456.32 516.92 481.542 516.92 481.542C516.543 480.562 498.715 434.821 481.294 396.661C478.1 389.661 474.92 382.916 471.861 376.752C462.698 358.252 454.643 344.96 450.695 345.645C447.937 346.12 442.881 351.764 438.194 357.755C437.441 358.75 436.688 359.752 435.934 360.769C435.044 361.958 433.867 362.903 432.513 363.514C431.159 364.125 429.672 364.383 428.191 364.265C426.71 364.146 425.284 363.654 424.045 362.834C422.806 362.015 421.794 360.895 421.105 359.579C418.438 354.469 415.175 348.418 411.732 342.511C404.152 329.489 395.735 317.168 391.026 317.168C387.838 317.168 380.74 324.214 371.231 335.6C331.454 383.203 249.542 506.763 235.444 509.785C220.374 512.973 199.683 466.915 176.671 456.689C173.235 455.059 169.411 454.425 165.633 454.858C158.972 475.204 152.19 495.015 144.648 513.417C118.976 576.015 79.5383 636.413 62.5168 700.638L62.0195 702.334Z" fill="#2E3192"/>
<path d="M235.42 509.772C220.35 512.96 199.666 466.902 176.647 456.677C173.211 455.046 169.387 454.412 165.608 454.845C159.701 472.931 153.696 490.511 147.155 507.105C153.228 511.43 175.381 488.266 182.781 495.176C185.041 497.308 189.426 508.393 194.618 510.172C210.479 515.605 234.689 509.991 235.42 509.772Z" fill="white"/>
<path d="M83.3438 641.962L224.067 700.355L384.132 700.453C384.132 700.453 338.47 679.354 327.22 662.022C315.97 644.69 289.801 629.242 266.76 622.249C243.718 615.256 197.272 575.529 187.695 576.968C178.118 578.407 215.921 605.249 204.468 617.78C194.944 628.202 145.093 588.188 114.154 578.038C105.059 592.084 98.7301 609.544 90.4417 623.809C87.4804 628.918 86.1317 636.778 83.3438 641.962Z" fill="#272B7D"/>
<path d="M544.799 432.456C545.831 433.91 546.984 434.83 548.227 434.83C554.059 434.83 564.051 421.522 570.282 431.506C576.513 441.491 584.418 441.069 593.995 436.495C601.582 432.863 609.961 439.969 613.096 443.051C596.15 413.436 581.449 390.302 577.35 391.146C570.764 392.548 557.345 411.974 544.799 432.456Z" fill="white"/>
<path d="M438.208 357.649C443.889 365.313 443.226 371.462 450.083 368.199C453.851 366.436 463.103 371.153 471.874 376.639C462.712 358.139 454.657 344.854 450.709 345.532C447.951 346.014 442.895 351.659 438.208 357.649Z" fill="white"/>
<path d="M371.223 335.503C376.158 342.82 383.06 346.641 384.364 340.778C386.021 333.288 395.176 344.945 403.495 347.017C409.267 348.464 409.236 344.109 411.723 342.406C404.143 329.392 395.726 317.063 391.017 317.063C387.83 317.063 380.732 324.109 371.223 335.503Z" fill="white"/>
<path d="M670.972 698.463C670.972 698.463 618.528 647.53 601.424 625.579C584.32 603.628 538.5 564.465 545.914 590.373C553.328 616.28 541.506 648.238 510.982 629.957C480.458 611.676 496.213 651.358 457.808 650.303C419.402 649.248 393.994 650.137 406.427 671.742C418.86 693.346 433.515 698.207 433.515 698.207L670.972 698.463Z" fill="#272B7D"/>
<path opacity="0.35" d="M613.159 443.17C613.913 445.589 633.85 492.762 626.36 513.349C615.811 542.286 631.974 544.863 641.649 541.434C648.717 538.925 656.937 547.99 678.148 563.898C695.644 577.017 695.938 547.47 695.938 547.47L695.554 546.995C689.747 549.549 683.187 549.802 677.2 547.704C671.214 545.605 666.247 541.312 663.304 535.692C650.231 510.674 630.52 473.539 613.159 443.17Z" fill="#A5D9FF"/>
<path d="M382.979 646.014C382.979 646.014 379.211 622.925 359.266 621.682C339.321 620.438 338.673 609.195 326.195 606.076C313.717 602.956 286.26 581.743 278.152 579.867C270.045 577.991 296.236 602.956 300.614 610.446C304.992 617.937 334.928 632.299 339.298 641.026C343.669 649.752 363.636 654.755 382.979 646.014Z" fill="#272B7D"/>
<path opacity="0.35" d="M484.613 440.55C492.901 458.862 479.203 474.664 491.688 482.154C504.174 489.644 516.915 481.544 516.915 481.544C516.538 480.564 498.711 434.823 481.29 396.663C478.283 407.695 478.886 427.958 484.613 440.55Z" fill="#A5D9FF"/>
<path d="M558.891 217.697V243.59H532.03V240.722H556.153V217.697H558.891Z" fill="#2C348C"/>
<path d="M480.464 217.697V243.59H507.324V240.722H483.197V217.697H480.464Z" fill="#2C348C"/>
<path d="M557.471 204.657L578.164 192.828V216.481L557.471 228.305V204.657Z" fill="#057C19"/>
<path d="M536.786 192.826L557.475 181.002L578.168 192.826L557.475 204.655L536.786 192.826Z" fill="#00FF00"/>
<path d="M536.786 216.481L557.475 228.305V204.656L536.786 192.828V216.481Z" fill="#0CC42A"/>
<path d="M481.883 204.657L502.572 192.828V216.481L481.883 228.305V204.657Z" fill="#057C19"/>
<path d="M461.191 192.826L481.884 181.002L502.573 192.826L481.884 204.655L461.191 192.826Z" fill="#00FF00"/>
<path d="M461.191 216.48L481.884 228.304V204.655L461.191 192.827V216.48Z" fill="#0CC42A"/>
<path d="M519.465 238.067L540.158 226.242V249.891L519.465 261.715V238.067Z" fill="#057C19"/>
<path d="M498.774 226.241L519.467 214.417L540.161 226.241L519.467 238.065L498.774 226.241Z" fill="#00FF00"/>
<path d="M498.774 249.891L519.467 261.715V238.067L498.774 226.242V249.891Z" fill="#0CC42A"/>
<path d="M519.465 170.404L540.158 158.58V182.229L519.465 194.057V170.404Z" fill="#057C19"/>
<path d="M498.774 158.581L519.467 146.756L540.161 158.581L519.467 170.405L498.774 158.581Z" fill="#00FF00"/>
<path d="M498.774 182.229L519.467 194.057V170.404L498.774 158.58V182.229Z" fill="#0CC42A"/>
<path d="M558.746 192.218V174.902H531.882V177.773H556.009V192.218H558.746Z" fill="#2C348C"/>
<path d="M480.514 174.902H507.374V177.773H483.246V192.218H480.514V174.902Z" fill="#2C348C"/>
<path d="M710.049 732.729C709.91 733.333 709.778 733.937 709.639 734.541L709.21 736.286C708.926 737.451 708.606 738.605 708.322 739.758C707.714 742.065 707.06 744.368 706.36 746.667C705.659 748.966 704.886 751.269 704.041 753.575C703.177 756.017 702.087 758.372 700.786 760.611C700.331 761.362 699.62 761.922 698.783 762.187C697.946 762.453 697.042 762.405 696.238 762.054C695.433 761.703 694.784 761.071 694.41 760.277C694.036 759.483 693.963 758.58 694.204 757.736L694.325 757.326L694.718 755.973L695.062 754.487L695.346 752.917C695.442 752.392 695.515 751.842 695.599 751.305C695.901 749.135 696.141 746.921 696.318 744.662C696.493 742.421 696.638 740.163 696.734 737.904C696.777 736.769 696.819 735.64 696.855 734.51L696.891 732.819C696.891 732.264 696.891 731.678 696.891 731.171C696.884 729.403 697.579 727.705 698.824 726.451C700.068 725.196 701.76 724.487 703.528 724.48C705.295 724.472 706.993 725.168 708.248 726.412C709.502 727.657 710.211 729.349 710.218 731.116C710.225 731.589 710.178 732.061 710.08 732.524L710.049 732.729Z" fill="#F2A37C"/>
<path d="M758.24 730.969L757.992 737.944L757.714 744.907C757.515 749.551 757.304 754.195 757.038 758.851C756.982 759.884 756.542 760.859 755.803 761.584C755.064 762.308 754.081 762.729 753.047 762.764C752.013 762.799 751.003 762.445 750.217 761.772C749.432 761.099 748.926 760.156 748.801 759.129C748.234 754.558 747.594 749.986 746.99 745.42L746.024 738.566L745.027 731.73V731.694C744.902 730.83 744.947 729.949 745.162 729.103C745.376 728.257 745.755 727.461 746.277 726.761C746.799 726.061 747.454 725.471 748.204 725.024C748.954 724.577 749.785 724.283 750.649 724.157C751.513 724.031 752.393 724.077 753.24 724.292C754.086 724.506 754.882 724.885 755.581 725.407C756.281 725.929 756.871 726.584 757.318 727.334C757.765 728.085 758.059 728.915 758.185 729.779C758.236 730.174 758.254 730.572 758.24 730.969V730.969Z" fill="#F2A37C"/>
<path d="M747.309 602.541C747.342 603.346 747.33 604.152 747.273 604.956C747.225 605.753 747.134 606.545 747.037 607.336C746.838 608.906 746.548 610.458 746.204 611.992C745.86 613.526 745.443 615.041 744.996 616.545C744.749 617.294 744.525 618.049 744.266 618.792C744.006 619.534 743.753 620.277 743.469 621.014C741.271 626.92 738.922 632.778 736.367 638.569C735.764 640.025 735.105 641.474 734.459 642.917L732.545 647.253L730.643 651.577L728.831 655.901L727.938 658.051L727.092 660.207C726.537 661.638 725.987 663.058 725.474 664.434L724.755 666.5L724.417 667.49L724.121 668.426C723.928 669.03 723.759 669.634 723.65 669.851C723.65 669.888 723.65 669.851 723.62 669.851C723.62 669.851 723.62 669.851 723.62 669.912L723.511 670.564L723.288 671.862L721.519 681.489L720.685 686.235L719.882 690.97L718.294 700.487C717.781 703.64 717.274 706.798 716.706 709.944C716.138 713.091 715.595 716.243 714.894 719.383C714.586 720.954 714.224 722.524 713.862 724.094C713.5 725.664 713.119 727.222 712.721 728.792C712.322 730.362 711.887 731.914 711.459 733.478C711.03 735.043 710.535 736.601 710.064 738.153C709.816 738.932 709.568 739.717 709.309 740.496L708.512 742.827C708.246 743.606 707.95 744.391 707.672 745.17L707.57 745.466C707.54 745.569 707.491 745.665 707.425 745.75C707.148 745.981 706.811 746.128 706.453 746.172C705.761 746.299 705.06 746.36 704.357 746.354C703.922 746.354 703.319 746.354 702.781 746.354L701.809 746.299L701.241 746.251L700.638 746.203C700.477 746.187 700.319 746.153 700.166 746.1L699.563 745.895L699.025 745.707L698.101 745.357C697.6 745.152 697.033 744.928 696.64 744.753C695.995 744.477 695.373 744.149 694.78 743.775C694.474 743.602 694.223 743.347 694.056 743.038C694.031 742.941 694.031 742.839 694.056 742.742V742.458C694.11 741.692 694.176 740.937 694.219 740.158L694.351 737.833L694.514 735.514C694.605 733.956 694.684 732.397 694.816 730.845C694.949 729.293 695.004 727.717 695.142 726.165C695.372 723.045 695.634 719.925 695.927 716.805L696.145 714.468L696.392 712.131L696.888 707.45C697.033 705.886 697.214 704.328 697.395 702.77L697.914 698.09C698.256 694.97 698.586 691.846 698.904 688.717C699.206 685.595 699.478 682.467 699.744 679.345C699.871 677.787 699.961 676.223 700.052 674.677C700.142 673.131 700.233 671.579 700.305 670.069L700.348 668.988V668.444V667.967L700.384 667.466C700.481 666.258 700.601 665.328 700.728 664.41C700.976 662.599 701.259 660.938 701.549 659.289C702.153 656.004 702.757 652.834 703.397 649.663C704.689 643.346 706.054 637.102 707.443 630.87C708.832 624.637 710.257 618.435 711.706 612.239C713.155 606.043 714.593 599.853 716.084 593.627C716.968 589.96 719.145 586.735 722.216 584.544C725.287 582.354 729.045 581.345 732.8 581.704C736.555 582.062 740.054 583.764 742.655 586.495C745.257 589.227 746.785 592.806 746.959 596.574L747.309 602.541Z" fill="white"/>
<path d="M771.482 598.337C770.534 610.681 769.314 623.03 768.131 635.356L766.319 653.811L765.389 662.966L765.166 665.237L764.973 667.447L764.876 668.546L764.834 669.09L764.798 669.561L764.731 670.503L764.695 670.98V671.584C764.622 673.353 764.514 674.905 764.411 676.506L764.079 681.21C763.958 682.774 763.856 684.332 763.723 685.884L763.324 690.534L761.766 709.104L761.386 713.736L760.969 718.362L760.178 727.608L759.816 732.222L759.478 736.823L759.182 741.407C759.127 742.168 759.097 742.923 759.055 743.678C759.055 744.058 759.055 744.439 758.976 744.819C758.892 745.006 758.584 745.206 757.98 745.423C756.993 745.723 755.983 745.941 754.961 746.075H754.882C753.031 746.347 751.154 746.398 749.291 746.226C748.271 746.145 747.261 745.973 746.271 745.713C745.668 745.532 745.341 745.344 745.239 745.145C745.16 744.753 745.142 744.354 745.088 743.937L744.816 741.564L744.327 736.835L743.88 732.125L743.463 727.427L742.685 718.036L742.316 713.35C742.201 711.786 742.105 710.222 742.002 708.663L740.831 689.943L740.541 685.28L740.293 680.636L740.034 676.029C739.937 674.537 739.846 673.009 739.726 671.675V671.415C739.726 671.33 739.726 671.264 739.726 671.131L739.695 670.424L739.641 669.011L739.611 668.305V667.701L739.575 666.493L739.52 664.035L739.484 661.62C739.484 660.013 739.442 658.443 739.448 656.867V652.15L739.496 642.748C739.496 639.626 739.532 636.497 739.611 633.381L739.792 624.021L739.895 619.347L740.034 614.678L740.336 605.336C740.468 602.22 740.571 599.116 740.74 595.994C740.783 593.926 741.242 591.888 742.089 590C742.936 588.113 744.153 586.416 745.669 585.008C747.185 583.601 748.968 582.513 750.913 581.809C752.858 581.105 754.924 580.799 756.99 580.91C759.055 581.02 761.077 581.545 762.936 582.453C764.794 583.36 766.451 584.633 767.808 586.194C769.165 587.755 770.195 589.572 770.835 591.539C771.476 593.506 771.714 595.582 771.537 597.642C771.543 597.737 771.543 597.832 771.537 597.926L771.482 598.337Z" fill="white"/>
<g style="mix-blend-mode:multiply" opacity="0.14">
<path d="M694.535 727.672C698.454 735.631 714.643 722.883 718.876 704.065C718.556 741.236 712.312 750.131 712.312 750.131L694.535 748.627L688.399 741.556L694.535 727.672Z" fill="#1B1464"/>
</g>
<g style="mix-blend-mode:multiply" opacity="0.14">
<path d="M743.267 727.097C744.215 733.299 754.136 736.615 757.681 727.701C758.889 724.682 764.19 699.463 764.19 699.463L762.735 750.16L738.714 751.32L743.267 727.097Z" fill="#1B1464"/>
</g>
<g style="mix-blend-mode:multiply" opacity="0.26">
<path d="M758.801 604.446C767.14 614.604 768.354 636.036 768.619 639.847C768.885 643.657 775.709 606.982 775.709 606.982L768.16 593.328L758.801 604.446Z" fill="#1B1464"/>
</g>
<path d="M723.258 577.585C717.69 585.478 713.808 603.788 713.808 603.788C713.808 603.788 761.838 598.812 763.982 594.265C766.125 589.717 773.758 583.944 770.896 574.336C759.483 573.279 744.725 573.303 734.375 575.182C724.025 577.06 723.258 577.585 723.258 577.585Z" fill="white"/>
<path d="M705.96 751.63C708.29 756.286 705.96 767.513 705.96 767.513H681.407C681.407 767.513 680.562 764.01 681.407 763.062C682.252 762.114 689.45 759.988 692.627 753.043H695.271C697.207 751.591 699.505 750.699 701.914 750.464C705.646 750.253 705.96 751.63 705.96 751.63Z" fill="#2C348C"/>
<path d="M758.808 751.63C761.133 756.286 758.808 767.513 758.808 767.513H734.256C734.256 767.513 733.41 764.01 734.256 763.062C735.101 762.114 742.299 760.006 745.463 753.043H748.108C750.043 751.589 752.341 750.697 754.75 750.464C758.488 750.253 758.808 751.63 758.808 751.63Z" fill="#2C348C"/>
<path d="M765.442 475.22C762.188 480.939 762.423 485.033 762.502 487.213C762.58 488.541 763.16 489.789 764.126 490.704L750.696 489.194C750.696 489.194 744.7 490.649 745.594 488.391C747.121 484.508 746.367 478.239 746.367 478.239L765.442 475.22Z" fill="#F2A37C"/>
<path d="M784.211 507.459L784.464 508.154L784.724 508.782L785.171 510.074L786.028 512.653C786.584 514.368 787.127 516.083 787.646 517.81C788.691 521.265 789.669 524.743 790.533 528.294C791.396 531.845 792.181 535.45 792.725 539.237C792.997 541.133 793.22 543.071 793.329 545.119C793.371 546.145 793.389 547.202 793.329 548.307C793.329 548.857 793.274 549.425 793.22 550.004L793.172 550.475L793.111 550.983C793.069 551.303 793.015 551.623 792.96 551.931C792.75 553.038 792.47 554.132 792.121 555.204C791.801 556.2 791.451 557.142 791.088 558.054C790.364 559.866 789.573 561.569 788.751 563.224C787.109 566.521 785.334 569.637 783.522 572.705C781.711 575.773 779.821 578.744 777.9 581.709C776.938 583.191 775.968 584.66 774.99 586.118C773.999 587.585 773.021 589.01 771.97 590.496C771.297 591.43 770.292 592.071 769.161 592.289C768.031 592.507 766.859 592.285 765.887 591.668C764.915 591.051 764.215 590.086 763.93 588.97C763.646 587.854 763.798 586.672 764.356 585.665L764.392 585.604C765.219 584.173 766.065 582.663 766.88 581.178C767.695 579.692 768.516 578.158 769.295 576.679C770.877 573.659 772.399 570.64 773.836 567.572C775.273 564.504 776.608 561.448 777.749 558.417C778.317 556.901 778.83 555.397 779.247 553.936C779.452 553.211 779.627 552.504 779.766 551.834C779.895 551.237 779.982 550.632 780.026 550.022C780.026 549.902 780.026 549.793 780.026 549.684V549.364C780.026 549.086 779.99 548.76 779.959 548.47C779.893 547.866 779.796 547.172 779.67 546.477C779.416 545.082 779.066 543.603 778.637 542.111C777.792 539.092 776.717 536.036 775.515 532.986C774.313 529.937 772.979 526.899 771.59 523.88C770.883 522.37 770.165 520.86 769.428 519.368L768.311 517.14L767.743 516.041L767.466 515.503C767.375 515.334 767.272 515.135 767.2 515.008C766.576 513.943 766.168 512.766 766.001 511.543C765.834 510.32 765.911 509.076 766.226 507.882C766.542 506.689 767.091 505.57 767.841 504.59C768.592 503.61 769.528 502.788 770.598 502.172C771.667 501.555 772.848 501.157 774.072 500.999C775.296 500.841 776.539 500.927 777.73 501.252C778.921 501.576 780.035 502.134 781.01 502.891C781.984 503.649 782.799 504.592 783.407 505.666C783.669 506.122 783.893 506.599 784.078 507.091L784.211 507.459Z" fill="#F2A37C"/>
<path d="M739.851 462.337C740.382 468.98 741.227 473.081 743.558 476.517C745.889 479.953 753.347 482.924 756.843 481.813C760.339 480.702 765.732 473.359 765.732 473.026C765.732 472.694 747.689 462.657 747.689 462.657L739.851 462.337Z" fill="#F2A37C"/>
<path d="M705.446 508.295C704.342 507.786 703.268 507.215 702.229 506.584C701.662 506.23 701.073 505.834 700.447 505.352C699.736 504.798 699.076 504.181 698.476 503.508L698.309 503.31L698.192 503.165L697.955 502.866L697.481 502.283L697.009 501.693L696.561 501.094L695.67 499.898L694.853 498.699C694.283 497.901 693.782 497.079 693.235 496.257C691.25 493.04 689.428 489.724 687.777 486.323C686.179 482.963 684.636 479.599 683.306 476.205C682.627 474.502 681.946 472.804 681.302 471.096C680.658 469.388 680.049 467.674 679.432 465.963C678.815 464.253 678.251 462.525 677.665 460.801L676.845 458.193L676.418 456.899L675.999 455.536C675.703 454.551 675.792 453.491 676.245 452.569C676.699 451.648 677.485 450.932 678.445 450.566C679.404 450.2 680.467 450.212 681.42 450.598C682.373 450.984 683.145 451.716 683.581 452.647L683.852 453.233C684.203 453.975 684.567 454.781 684.937 455.557L686.063 457.911C686.828 459.479 687.583 461.044 688.371 462.589C689.159 464.134 689.955 465.676 690.758 467.202C691.561 468.727 692.413 470.227 693.238 471.729C694.907 474.72 696.717 477.619 698.505 480.43C700.292 483.242 702.293 485.879 704.296 488.368C704.809 488.967 705.303 489.598 705.829 490.164L706.613 491.03L707.406 491.854L707.801 492.262L708.211 492.65L708.615 493.036L708.812 493.226L708.917 493.321C708.956 493.337 708.999 493.407 708.967 493.342C708.795 493.122 708.747 493.063 708.792 493.049C708.912 493.061 709.03 493.09 709.143 493.133C709.49 493.274 710.042 493.407 710.649 493.549" fill="#F2A37C"/>
<g style="mix-blend-mode:multiply" opacity="0.26">
<path d="M779.604 546.263C779.604 546.347 779.634 546.432 779.653 546.51C779.779 547.205 779.876 547.881 779.942 548.503C779.942 548.817 779.997 549.107 780.009 549.397V549.717C780.009 549.826 780.009 549.934 780.009 550.055C779.965 550.665 779.879 551.27 779.749 551.867C779.61 552.537 779.435 553.244 779.23 553.969C779.121 554.349 779.007 554.735 778.886 555.122C781.984 554.089 785.927 557.224 786.651 559.216C787.032 560.267 785.836 565.612 784.459 571.065C785.933 568.541 787.364 565.962 788.686 563.263C789.507 561.608 790.299 559.905 791.023 558.093C791.385 557.181 791.736 556.239 792.056 555.243C792.405 554.171 792.685 553.077 792.895 551.97C792.949 551.662 793.004 551.366 793.046 551.022L793.106 550.514L793.155 550.043C793.209 549.439 793.245 548.896 793.263 548.346C793.306 547.241 793.263 546.184 793.263 545.158L793.227 544.554H779.991L779.604 546.263Z" fill="#36121F"/>
</g>
<g style="mix-blend-mode:multiply" opacity="0.26">
<path d="M710.653 493.568C710.057 493.43 709.505 493.264 709.147 493.151C709.034 493.108 708.916 493.08 708.796 493.068C708.763 493.054 708.799 493.14 708.971 493.36C709.021 493.381 708.971 493.36 708.92 493.34L708.816 493.245L708.619 493.054L708.215 492.668L707.805 492.28L707.41 491.872L706.616 491.048L705.833 490.182C705.306 489.617 704.813 488.986 704.299 488.386C703.552 487.431 702.8 486.474 702.053 485.519C702.732 488.251 702.726 490.582 700.919 490.923C697.264 491.648 690.877 487.241 685.295 480.894C686.104 482.717 686.94 484.536 687.803 486.351C689.454 489.752 691.276 493.067 693.261 496.284C693.792 497.099 694.293 497.922 694.879 498.727L695.696 499.926L696.587 501.122L697.035 501.721L697.507 502.31L697.981 502.894L698.218 503.192L698.335 503.338L698.503 503.536C699.102 504.209 699.762 504.826 700.473 505.379C701.099 505.861 701.688 506.257 702.255 506.611C702.822 506.965 703.238 507.193 703.71 507.444L714.949 495.509L713.865 494.227C713.451 494.157 713.044 494.083 712.653 494.002C711.943 493.857 711.263 493.718 710.653 493.568Z" fill="#36121F"/>
</g>
<path d="M682.981 454.685C683.163 454.466 683.295 454.209 683.367 453.933C683.439 453.658 683.45 453.369 683.4 453.089C682.841 449.851 681.139 444.35 679.108 444.216C676.861 444.085 669.953 446.212 669.17 450.267C668.388 454.322 671.393 456.188 672.167 456.046C672.947 456.009 673.728 456.068 674.493 456.222C674.925 456.293 675.32 456.507 675.616 456.828L677.052 458.369C677.243 458.575 677.476 458.737 677.736 458.845C677.995 458.953 678.275 459.003 678.555 458.994C678.836 458.984 679.111 458.915 679.362 458.789C679.614 458.664 679.835 458.487 680.012 458.268L682.981 454.685Z" fill="#F2A37C"/>
<path d="M678.657 446.716C678.56 446.671 678.466 446.62 678.376 446.563C678.291 446.517 678.206 446.471 678.132 446.43C677.994 446.34 677.862 446.24 677.736 446.133C677.496 445.912 677.279 445.667 677.088 445.402C676.605 444.852 676.082 444.338 675.524 443.864L674.625 443.101L673.671 442.327C673.036 441.824 672.37 441.304 671.755 440.791L671.561 440.63C671.397 440.493 671.288 440.301 671.256 440.09C671.223 439.879 671.269 439.663 671.384 439.484C671.499 439.304 671.676 439.173 671.881 439.114C672.086 439.056 672.305 439.075 672.498 439.167C673.295 439.546 674.071 439.968 674.822 440.431C675.583 440.885 676.315 441.384 677.014 441.926C677.739 442.485 678.406 443.115 679.005 443.806C679.672 444.559 680.142 445.466 680.37 446.446C680.405 446.623 680.368 446.807 680.267 446.957C680.167 447.107 680.011 447.211 679.833 447.246C679.682 447.278 679.523 447.256 679.387 447.182L678.657 446.716Z" fill="#F2A37C"/>
<path d="M798.77 542.79C798.477 542.547 798.127 542.383 797.752 542.313C797.378 542.244 796.993 542.271 796.632 542.392C796.203 532.334 794.185 522.408 790.654 512.982C785.859 499.907 779.392 494.587 771.053 492.497C770.697 492.299 770.311 492.159 769.911 492.081C758.801 489.895 747.044 487.6 733.56 490.426C722.73 489.373 712.08 486.938 701.869 483.179C702.366 482.918 702.746 482.479 702.932 481.949C703.118 481.42 703.097 480.84 702.873 480.325C702.649 479.81 702.238 479.4 701.724 479.175C701.21 478.951 700.63 478.929 700.1 479.115C692.25 481.953 687.419 495.118 687.105 500.113C687.067 500.7 687.264 501.279 687.652 501.722C688.041 502.165 688.589 502.435 689.176 502.474H689.309C689.787 502.473 690.251 502.319 690.634 502.034C691.017 501.749 691.297 501.349 691.435 500.892C698.53 508.235 712.66 519.8 716.936 527.252C727.938 551.692 713.916 594.285 713.916 594.285C713.916 594.285 718.669 591.084 722.545 593.989C736.374 604.358 748.004 609.358 756.747 610.186C758.36 610.336 763.022 600.288 763.022 600.288C765.956 605.632 764.284 609.781 765.594 609.346C771.59 607.239 774.797 601.846 774.652 594.158C774.471 585.432 769.543 570.564 771.494 559.228C772.049 555.998 773.202 549.566 774.392 542.875L777.315 548.074C776.792 548.102 776.296 548.314 775.914 548.671C775.532 549.029 775.289 549.51 775.227 550.03C775.164 550.55 775.288 551.075 775.575 551.512C775.862 551.95 776.294 552.272 776.795 552.422C778.291 552.84 779.838 553.044 781.391 553.026C785.033 552.943 788.624 552.151 791.964 550.695C794.21 550.019 795.919 549.083 796.481 548.219C797.432 547.568 798.294 546.797 799.047 545.924C799.235 545.701 799.377 545.442 799.465 545.163C799.553 544.884 799.584 544.591 799.559 544.3C799.533 544.009 799.45 543.725 799.314 543.466C799.179 543.207 798.994 542.978 798.77 542.79V542.79Z" fill="#39B34C"/>
<g style="mix-blend-mode:multiply" opacity="0.23">
<path d="M768.98 536.284C768.376 547.426 763.376 558.761 764.04 562.765C764.855 567.668 773.303 586.269 774.475 597.29C774.592 596.233 774.639 595.17 774.614 594.107C774.432 585.381 769.505 570.513 771.455 559.178C772.011 555.947 773.164 549.515 774.354 542.824L775.036 539.056L780.181 534.484C781.277 532.035 782.087 529.467 782.596 526.833C783.623 521.132 784.885 517.774 786.256 515.908C793.351 526.857 794.843 538.965 793.104 544.841C794.559 546.882 794.311 549.781 789.915 551.206L790.175 551.387C790.779 551.176 791.383 550.94 791.986 550.693C794.233 550.016 795.942 549.08 796.503 548.217C797.454 547.565 798.316 546.794 799.07 545.922C799.381 545.55 799.562 545.087 799.586 544.603C799.61 544.119 799.475 543.64 799.201 543.24C798.927 542.84 798.53 542.54 798.071 542.386C797.611 542.233 797.113 542.234 796.654 542.389C796.225 532.332 794.208 522.406 790.676 512.979C785.881 499.905 779.414 494.584 771.075 492.495C770.719 492.297 770.334 492.156 769.934 492.078L767.108 526.833C767.564 530.014 768.189 533.169 768.98 536.284V536.284Z" fill="#36121F"/>
</g>
<path d="M730.642 490.117C732.797 495.202 748.117 514.52 756.185 515.155C764.252 515.789 783.871 500.419 783.738 500.117C783.605 499.815 778.853 495.286 774.542 493.474C763.763 488.909 757.03 488.933 752.694 488.414C746.191 487.647 730.642 490.117 730.642 490.117Z" fill="#F2A37C"/>
<g style="mix-blend-mode:multiply" opacity="0.26">
<path d="M758.719 509.936C759.57 513.318 761.043 514.272 761.043 514.272L765.27 512.46L768.489 491.209C766.677 490.605 764.962 490.182 763.41 489.844C762.873 489.066 762.562 488.155 762.511 487.211C762.414 485.031 762.197 480.936 765.451 475.217L764.008 475.447C764.658 474.699 765.234 473.89 765.729 473.031C765.49 472.819 765.227 472.637 764.944 472.488L748.423 474.221C749.673 478.134 751.472 481.788 753.797 483.213C756.122 484.638 756.973 488.582 757.42 489.892C757.867 491.203 757.873 506.548 758.719 509.936Z" fill="#36121F"/>
</g>
<path d="M689.569 502.945C689.18 502.942 688.795 502.86 688.438 502.704C688.081 502.548 687.759 502.322 687.492 502.039C686.133 500.62 687.257 497.34 687.383 496.966C687.427 496.849 687.515 496.754 687.628 496.701C687.74 496.648 687.87 496.641 687.987 496.682C688.046 496.702 688.1 496.734 688.147 496.776C688.193 496.817 688.231 496.867 688.258 496.924C688.285 496.98 688.301 497.041 688.304 497.103C688.307 497.165 688.298 497.227 688.277 497.286C687.993 498.083 687.371 500.541 688.175 501.381C688.386 501.618 688.654 501.798 688.954 501.904C689.254 502.009 689.576 502.037 689.889 501.984C690.158 501.936 690.411 501.826 690.63 501.664C690.849 501.501 691.027 501.291 691.152 501.048C690.862 498.917 694.442 491.929 695.185 490.51C695.243 490.399 695.343 490.314 695.463 490.276C695.583 490.237 695.713 490.248 695.825 490.305C695.881 490.334 695.931 490.373 695.972 490.421C696.013 490.469 696.044 490.525 696.063 490.585C696.082 490.645 696.089 490.709 696.083 490.771C696.078 490.834 696.06 490.895 696.031 490.951C694.219 494.46 691.761 499.883 692.1 500.97C692.139 501.075 692.139 501.191 692.1 501.296C691.886 501.79 691.534 502.211 691.086 502.508C690.638 502.805 690.113 502.965 689.575 502.969L689.569 502.945Z" fill="#289D4B"/>
<path d="M720.982 557.143H720.939C720.814 557.133 720.698 557.073 720.616 556.976C720.535 556.88 720.495 556.756 720.505 556.63C721 550.591 719.659 538 718.204 531.949C716.857 526.326 712.395 521.833 712.347 521.785C712.258 521.696 712.209 521.575 712.209 521.45C712.209 521.324 712.258 521.204 712.347 521.115C712.437 521.026 712.558 520.977 712.685 520.977C712.811 520.977 712.933 521.026 713.023 521.115C713.21 521.308 717.715 525.843 719.134 531.737C720.601 537.855 721.96 550.579 721.453 556.715C721.442 556.832 721.388 556.941 721.301 557.021C721.213 557.1 721.1 557.144 720.982 557.143V557.143Z" fill="#289D4B"/>
<path d="M713.893 594.743C713.857 594.749 713.821 594.749 713.785 594.743C713.723 594.73 713.665 594.704 713.614 594.667C713.563 594.631 713.52 594.585 713.487 594.531C713.454 594.477 713.433 594.418 713.424 594.355C713.415 594.293 713.418 594.23 713.435 594.169L718.459 573.516C718.474 573.452 718.502 573.393 718.541 573.341C718.58 573.288 718.629 573.244 718.686 573.212C718.742 573.179 718.805 573.158 718.869 573.15C718.934 573.142 719 573.147 719.062 573.166C719.123 573.18 719.181 573.206 719.232 573.243C719.282 573.279 719.325 573.326 719.358 573.379C719.39 573.432 719.412 573.492 719.422 573.554C719.431 573.615 719.428 573.679 719.413 573.739L714.389 594.393C714.359 594.499 714.294 594.593 714.204 594.657C714.114 594.721 714.004 594.751 713.893 594.743V594.743Z" fill="#289D4B"/>
<path d="M756.613 610.643C752.024 610.643 734.518 602.436 733.769 602.085C733.661 602.033 733.577 601.941 733.535 601.829C733.492 601.717 733.494 601.592 733.54 601.482C733.594 601.375 733.686 601.293 733.798 601.251C733.909 601.209 734.032 601.209 734.144 601.252C734.325 601.337 752.018 609.634 756.486 609.707C758.443 607.629 762.525 600.135 762.525 600.044C762.55 599.982 762.588 599.926 762.637 599.88C762.685 599.834 762.743 599.798 762.806 599.776C762.869 599.753 762.936 599.744 763.003 599.749C763.07 599.755 763.135 599.774 763.194 599.806C763.253 599.838 763.304 599.882 763.345 599.935C763.386 599.988 763.415 600.05 763.43 600.115C763.446 600.18 763.447 600.248 763.435 600.314C763.422 600.38 763.396 600.442 763.358 600.497C763.183 600.823 759.004 608.547 756.999 610.51C756.958 610.552 756.91 610.585 756.856 610.608C756.802 610.631 756.744 610.642 756.685 610.643H756.613Z" fill="#289D4B"/>
<path d="M765.579 609.773C765.464 609.774 765.352 609.732 765.265 609.657C765.178 609.582 765.121 609.477 765.104 609.363C765.088 609.249 765.114 609.132 765.177 609.036C765.24 608.939 765.335 608.868 765.446 608.837C765.507 608.837 771.268 607.098 772.578 602.478C773.973 597.55 774.474 593.419 773.127 585.569C771.871 578.286 769.933 565.163 770.996 559.112C771.998 553.375 775.223 535.445 775.223 535.264C775.245 535.139 775.316 535.028 775.421 534.955C775.525 534.883 775.653 534.855 775.778 534.877C775.903 534.9 776.014 534.971 776.087 535.075C776.159 535.179 776.187 535.308 776.165 535.433C776.129 535.614 772.922 553.55 771.938 559.275C770.899 565.187 772.832 578.189 774.069 585.412C775.452 593.419 774.933 597.683 773.466 602.75C771.998 607.816 766.002 609.682 765.712 609.755C765.669 609.767 765.624 609.773 765.579 609.773V609.773Z" fill="#289D4B"/>
<path d="M782.584 553.595C782.458 553.595 782.337 553.545 782.247 553.456C782.158 553.366 782.107 553.245 782.107 553.118C782.107 552.992 782.158 552.87 782.247 552.781C782.337 552.691 782.458 552.641 782.584 552.641C784.722 552.587 795.809 550.509 799.045 545.286C799.184 545.013 799.256 544.712 799.256 544.407C799.256 544.102 799.184 543.8 799.045 543.528C798.828 543.29 798.566 543.099 798.273 542.964C797.981 542.829 797.664 542.754 797.343 542.743H796.539C795.857 543.347 793.242 545.654 791.769 545.708C791.706 545.711 791.644 545.701 791.585 545.679C791.526 545.657 791.472 545.624 791.426 545.581C791.38 545.539 791.343 545.488 791.317 545.431C791.291 545.374 791.276 545.312 791.274 545.249C791.272 545.187 791.282 545.124 791.303 545.065C791.325 545.007 791.358 544.953 791.401 544.907C791.443 544.861 791.495 544.824 791.552 544.797C791.609 544.771 791.67 544.757 791.733 544.754C792.687 544.754 794.873 542.997 796.032 541.922C796.12 541.838 796.237 541.793 796.358 541.795H797.361C797.445 541.795 799.076 541.861 799.83 543.003C800.063 543.407 800.194 543.863 800.209 544.329C800.225 544.796 800.126 545.259 799.921 545.678C799.914 545.706 799.902 545.733 799.885 545.757C796.479 551.331 785.187 553.541 782.609 553.607L782.584 553.595Z" fill="#289D4B"/>
<path d="M794.664 527.312C794.555 527.311 794.45 527.272 794.366 527.203C794.281 527.134 794.223 527.039 794.2 526.932C794.163 526.745 790.099 508.03 784.779 502.027C784.724 501.984 784.678 501.928 784.646 501.865C784.614 501.801 784.597 501.732 784.596 501.661C784.594 501.59 784.609 501.519 784.638 501.455C784.667 501.39 784.71 501.333 784.764 501.287C784.818 501.241 784.882 501.208 784.951 501.19C785.019 501.172 785.091 501.169 785.161 501.182C785.23 501.195 785.296 501.223 785.354 501.265C785.411 501.307 785.458 501.361 785.492 501.423C790.975 507.613 794.966 525.984 795.154 526.787C795.168 526.848 795.17 526.912 795.159 526.973C795.148 527.035 795.126 527.094 795.092 527.147C795.058 527.2 795.014 527.246 794.963 527.281C794.911 527.317 794.853 527.342 794.791 527.355L794.664 527.312Z" fill="#289D4B"/>
<path d="M730.635 490.592H730.569C730.213 490.537 721.946 489.299 719.343 488.714C719.18 488.677 702.907 484.939 701.548 483.007C701.512 482.955 701.487 482.897 701.474 482.836C701.46 482.775 701.459 482.711 701.471 482.65C701.482 482.588 701.505 482.529 701.539 482.476C701.573 482.424 701.617 482.378 701.669 482.342C701.719 482.307 701.777 482.281 701.837 482.267C701.898 482.254 701.96 482.252 702.022 482.263C702.083 482.274 702.141 482.296 702.194 482.33C702.246 482.363 702.291 482.406 702.327 482.457C703.118 483.586 713.963 486.527 719.555 487.784C722.121 488.387 730.623 489.638 730.708 489.65C730.826 489.669 730.933 489.731 731.007 489.825C731.081 489.919 731.117 490.038 731.108 490.157C731.099 490.276 731.045 490.388 730.958 490.47C730.87 490.551 730.755 490.597 730.635 490.598V490.592Z" fill="#289D4B"/>
<path d="M756.182 532.335C755.957 532.336 755.735 532.277 755.541 532.163C755.347 532.05 755.186 531.886 755.077 531.689C754.256 530.366 751.816 527.619 748.724 524.134C742.988 517.672 735.126 508.813 731.334 501.959C731.303 501.904 731.284 501.843 731.277 501.781C731.269 501.718 731.275 501.655 731.292 501.594C731.309 501.533 731.339 501.477 731.378 501.428C731.417 501.378 731.466 501.337 731.521 501.307C731.576 501.276 731.636 501.257 731.699 501.25C731.762 501.243 731.825 501.248 731.886 501.265C731.946 501.283 732.003 501.312 732.052 501.351C732.101 501.39 732.142 501.439 732.173 501.494C735.905 508.258 743.725 517.068 749.437 523.506C752.559 527.021 755.023 529.799 755.886 531.188C755.989 531.351 756.085 531.387 756.194 531.381C758.61 531.321 766.46 518.862 770.819 511.023C770.885 510.923 770.987 510.851 771.103 510.822C771.22 510.793 771.343 510.809 771.449 510.867C771.554 510.925 771.634 511.02 771.671 511.135C771.709 511.249 771.703 511.373 771.653 511.482C771.623 511.537 768.754 516.688 765.481 521.749C758.754 532.257 756.84 532.299 756.218 532.335H756.182Z" fill="#289D4B"/>
<path d="M741.131 457.261C741.131 468.191 752.35 479.708 755.418 479.726C763.196 479.768 771.239 471.809 771.239 456.947C771.239 446.016 761.209 441.849 753.395 441.849C745.581 441.849 741.131 446.33 741.131 457.261Z" fill="#2E318F"/>
<path d="M747.103 444.35C739.856 442.659 737.682 447.152 737.26 454.936C737.268 457.497 737.801 460.029 738.824 462.376L743.781 462.503L747.103 444.35Z" fill="#2E318F"/>
<path d="M747.771 468.324C748.097 470.588 747.578 472.551 746.606 472.684C745.634 472.817 743.707 469.791 743.381 467.526C743.055 465.262 744.456 464.61 745.428 464.471C746.4 464.332 747.445 466.059 747.771 468.324Z" fill="#F2A37C"/>
<path d="M758.589 454.596C758.674 452.295 760.365 449.867 762.768 448.75C765.606 447.427 769.41 447.935 770.28 449.583C770.528 450.066 770.654 450.894 770.28 451.256C769.906 451.618 769.205 451.377 768.613 451.256C766.536 450.833 763.722 451.498 762.768 452.923C761.977 454.131 762.907 455.121 761.935 456.268C761.331 456.981 760.177 457.476 759.429 457.102C758.517 456.625 758.577 455.036 758.589 454.596Z" fill="#00FF01"/>
<path d="M763.067 458.111C763.315 457.271 762.319 456.619 761.576 455.128C758.955 449.88 770.525 448.322 776.527 456.8C781.66 464.047 792.608 490.872 778.852 525.434C774.317 536.829 763.828 550.308 765.416 507.655C766.153 487.829 764.559 469.289 763.828 464.899C763.454 462.652 758.466 461.45 758.466 461.45C757.331 460.067 761.685 458.98 763.067 458.111Z" fill="#2E318F"/>
<path d="M789.397 765.586H679.798C678.047 765.586 676.628 767.005 676.628 768.756C676.628 770.507 678.047 771.927 679.798 771.927H789.397C791.148 771.927 792.567 770.507 792.567 768.756C792.567 767.005 791.148 765.586 789.397 765.586Z" fill="#2B2B2B"/>
<path d="M870.459 762.507C870.556 762.972 870.647 763.522 870.737 764.035L870.997 765.611C871.166 766.67 871.329 767.727 871.486 768.782C871.796 770.899 872.066 773.013 872.295 775.123C872.531 777.236 872.7 779.35 872.802 781.379C872.802 781.88 872.857 782.406 872.857 782.901V784.392L872.808 785.8L872.706 787.074L872.657 787.678C872.578 788.656 872.851 789.63 873.428 790.425C874.004 791.219 874.845 791.781 875.8 792.009C876.754 792.238 877.759 792.117 878.632 791.669C879.506 791.222 880.19 790.476 880.562 789.568C881.486 787.221 882.196 784.796 882.681 782.321C883.17 780.008 883.575 777.719 883.889 775.455C884.203 773.19 884.493 770.913 884.783 768.649C884.912 767.517 885.03 766.384 885.139 765.249L885.296 763.54C885.35 762.936 885.399 762.41 885.441 761.782V761.529C885.572 759.516 884.897 757.534 883.567 756.019C882.236 754.504 880.358 753.579 878.346 753.449C876.333 753.318 874.352 753.992 872.836 755.323C871.321 756.654 870.397 758.532 870.266 760.544C870.25 761.204 870.314 761.863 870.459 762.507V762.507Z" fill="#F2A37C"/>
<path d="M823.422 762.535C823.518 763 823.615 763.549 823.705 764.063L823.971 765.639C824.144 766.69 824.311 767.744 824.472 768.803C824.794 770.921 825.074 773.035 825.312 775.144C825.559 777.252 825.734 779.372 825.849 781.395C825.849 781.902 825.903 782.427 825.909 782.916V784.408L825.867 785.821L825.771 787.089L825.728 787.693C825.654 788.671 825.931 789.644 826.51 790.435C827.09 791.227 827.933 791.785 828.887 792.01C829.842 792.234 830.846 792.11 831.717 791.659C832.588 791.209 833.27 790.462 833.639 789.553C834.552 787.206 835.249 784.78 835.722 782.307C836.205 779.994 836.598 777.705 836.93 775.434C837.262 773.163 837.534 770.893 837.793 768.628C837.914 767.493 838.029 766.357 838.137 765.222L838.288 763.513C838.337 762.909 838.385 762.384 838.421 761.756V761.508C838.5 760.501 838.378 759.489 838.062 758.53C837.745 757.571 837.241 756.684 836.578 755.922C835.915 755.16 835.107 754.538 834.201 754.092C833.295 753.646 832.309 753.384 831.301 753.323C830.293 753.262 829.283 753.403 828.33 753.737C827.377 754.07 826.5 754.591 825.75 755.267C825 755.944 824.392 756.763 823.963 757.677C823.533 758.591 823.289 759.581 823.247 760.59C823.225 761.243 823.284 761.896 823.422 762.535V762.535Z" fill="#F2A37C"/>
<path d="M859.858 628.322L860.39 632.718L860.873 637.114L861.827 645.913L862.702 654.712L863.518 663.505C863.801 666.44 864.031 669.369 864.284 672.304C864.538 675.239 864.804 678.168 865.021 681.103L865.71 689.895L866.054 694.298L866.356 698.694C866.555 701.629 866.772 704.558 866.959 707.493C867.147 710.428 867.316 713.357 867.443 716.286L868.282 733.883L868.705 742.676L868.922 747.079C868.988 748.546 869.097 750.008 869.182 751.475C869.363 754.41 869.52 757.339 869.749 760.274L870.069 764.67L870.226 766.869L870.269 767.418C870.268 767.604 870.294 767.789 870.347 767.968C870.528 768.336 870.903 768.704 871.953 769.067C875.989 770.483 880.387 770.483 884.423 769.067C885.474 768.704 885.854 768.336 886.029 767.968C886.085 767.79 886.112 767.604 886.108 767.418L886.15 766.869L886.319 764.67L886.645 760.274C886.881 757.339 887.068 754.41 887.249 751.475C887.346 750.008 887.46 748.546 887.545 747.079L887.798 742.676L888.306 733.883C888.493 730.949 888.62 728.02 888.771 725.085L889.199 716.286L890.069 698.694L891.784 663.505L892.563 645.913L893.239 628.322L893.293 626.951C893.387 622.551 891.749 618.291 888.733 615.087C885.716 611.884 881.562 609.993 877.165 609.823C872.769 609.653 868.481 611.216 865.226 614.177C861.97 617.138 860.008 621.259 859.762 625.652C859.727 626.543 859.759 627.436 859.858 628.322V628.322Z" fill="white"/>
<path d="M834.179 623.073C833.943 623.834 833.714 624.541 833.496 625.277L832.844 627.47C832.416 628.925 831.987 630.38 831.588 631.848L830.381 636.238C829.976 637.706 829.571 639.167 829.173 640.647C828.424 643.594 827.683 646.549 826.951 649.512C826.77 650.255 826.582 650.991 826.407 651.74L825.9 653.975L824.898 658.474C824.239 661.493 823.587 664.513 822.971 667.569C822.355 670.624 821.848 673.765 821.359 677.104C821.232 677.937 821.117 678.801 821.009 679.701C820.9 680.601 820.791 681.555 820.695 682.642L820.634 683.499C820.634 683.819 820.592 684.103 820.58 684.478V685.015V685.661V686.265V686.531L820.653 688.693L820.906 697.564L821.347 715.524C821.504 721.563 821.643 727.542 821.848 733.569C822.053 739.596 822.217 745.647 822.488 751.686C822.621 754.705 822.76 757.725 822.923 760.799C823.008 762.333 823.098 763.867 823.201 765.431L823.285 766.638L823.334 767.242C823.347 767.454 823.407 767.66 823.509 767.846C823.646 768.072 823.817 768.276 824.016 768.45C824.142 768.566 824.275 768.673 824.415 768.77C824.57 768.887 824.733 768.991 824.904 769.084C824.982 769.133 825.097 769.181 825.194 769.235C825.29 769.29 825.381 769.332 825.501 769.38C825.62 769.427 825.735 769.481 825.846 769.543L826.256 769.712L826.667 769.869C826.8 769.924 826.987 769.972 827.144 770.02L827.385 770.087L827.512 770.123L827.657 770.153L828.261 770.268C829.705 770.552 831.197 770.484 832.609 770.069L834.07 769.634L835.121 769.32L835.574 769.187L835.966 769.066L836.353 768.951C836.464 768.921 836.573 768.883 836.679 768.837L836.981 768.704C837.071 768.655 837.186 768.613 837.258 768.571C837.422 768.486 837.609 768.402 837.729 768.323C837.85 768.245 838.001 768.16 838.11 768.082C838.304 767.948 838.468 767.775 838.593 767.575C838.695 767.422 838.753 767.244 838.762 767.061L838.804 766.548L838.901 765.485C839.04 764.054 839.191 762.592 839.348 761.119C839.668 758.184 840.012 755.219 840.362 752.248L842.5 734.384C843.231 728.424 843.919 722.451 844.619 716.472C845.32 710.494 845.984 704.503 846.624 698.476C846.938 695.457 847.228 692.437 847.518 689.351L847.711 687.008V686.718V686.646V686.682V686.742V686.809C847.711 686.809 847.711 686.863 847.711 686.851C847.711 686.851 847.759 686.785 847.778 686.736C847.812 686.66 847.842 686.581 847.868 686.501L848.339 685.057L848.943 683.282C849.8 680.8 850.797 678.119 851.829 675.431C852.862 672.744 853.858 669.996 854.915 667.267L861.4 650.702C861.95 649.325 862.469 647.936 862.995 646.553L864.583 642.398C865.12 641.015 865.627 639.626 866.141 638.237L866.92 636.16L867.662 634.112C868.51 631.923 868.912 629.586 868.845 627.239C868.778 624.893 868.244 622.583 867.273 620.445C866.303 618.307 864.916 616.384 863.193 614.789C861.47 613.194 859.447 611.959 857.241 611.155C855.035 610.352 852.691 609.997 850.346 610.111C848.002 610.224 845.703 610.805 843.585 611.818C841.467 612.831 839.573 614.256 838.013 616.011C836.452 617.765 835.258 619.813 834.499 622.034C834.408 622.276 834.33 622.524 834.251 622.771L834.179 623.073Z" fill="white"/>
<g opacity="0.5">
<g style="mix-blend-mode:multiply" opacity="0.4">
<path d="M888.578 744.764C887.974 748.29 886.447 755.084 882.793 755.296C872.443 755.882 867.443 724.376 867.443 724.376L868.542 770.478L873.663 785.968L908.542 771.275L897.932 748.224L888.578 744.764Z" fill="#1B1464"/>
</g>
<g style="mix-blend-mode:multiply" opacity="0.4">
<path d="M841.627 741.358C840.667 744.818 838.535 751.467 834.834 751.365C824.339 751.069 822.153 719.213 822.153 719.213L819.043 765.266L822.787 781.149L859.247 769.47L850.673 745.585L841.627 741.358Z" fill="#1B1464"/>
</g>
</g>
<path d="M883.146 784.163C884.523 791.126 882.675 794.822 882.675 794.822H861.721C861.721 794.822 858.811 791.609 860.417 789.604C862.023 787.599 867.337 785.98 869.541 784.99C871.745 784 871.148 780.425 872.651 780.364C874.155 780.304 875.356 783.486 877.566 783.486C878.7 783.439 879.82 783.219 880.888 782.834C881.123 782.758 881.372 782.732 881.618 782.759C881.865 782.786 882.102 782.865 882.316 782.991C882.529 783.116 882.713 783.285 882.857 783.488C883 783.69 883.098 783.92 883.146 784.163Z" fill="#2C348C"/>
<path d="M836.419 784.161C837.795 791.124 835.948 794.82 835.948 794.82H809.873C809.873 794.82 806.969 791.607 808.575 789.602C810.181 787.597 820.302 784.916 822.506 783.913C824.71 782.911 824.414 780.423 825.918 780.362C827.421 780.302 828.623 783.484 830.833 783.484C831.967 783.437 833.087 783.217 834.154 782.832C834.39 782.756 834.64 782.73 834.886 782.757C835.133 782.784 835.371 782.863 835.585 782.988C835.798 783.114 835.983 783.283 836.127 783.485C836.271 783.687 836.37 783.918 836.419 784.161V784.161Z" fill="#2C348C"/>
<path d="M883.299 514.653C883.154 514.315 883.003 513.977 882.876 513.645L882.677 513.156C882.611 512.981 882.55 512.872 882.49 512.727L882.115 511.924L881.946 511.525L881.771 511.163C881.663 510.921 881.554 510.68 881.451 510.438L881.143 509.738C880.944 509.285 880.763 508.826 880.588 508.379C879.884 506.685 879.375 504.916 879.072 503.107C878.8 501.337 878.77 499.526 878.42 497.859C878.258 497.051 878.019 496.261 877.707 495.498L877.472 494.978C877.386 494.78 877.228 494.62 877.031 494.532C876.699 494.439 876.36 494.378 876.016 494.35H875.841C875.809 494.347 875.777 494.347 875.745 494.35L875.66 494.381C875.533 494.423 875.383 494.465 875.25 494.495C874.894 494.576 874.533 494.629 874.169 494.652C874.182 493.942 874.048 493.236 873.775 492.58C873.502 491.923 873.097 491.331 872.585 490.838C872.072 490.346 871.463 489.965 870.796 489.719C870.13 489.473 869.419 489.368 868.71 489.41C868 489.452 867.307 489.639 866.674 489.962C866.041 490.284 865.481 490.734 865.029 491.283C864.578 491.832 864.245 492.468 864.051 493.152C863.857 493.836 863.807 494.552 863.903 495.256C863.903 495.48 863.903 495.709 863.903 495.939V496.543C863.903 496.826 863.903 497.116 863.903 497.406C863.903 497.696 863.903 497.901 863.903 498.155L863.945 498.874L864.145 501.603C864.296 503.379 864.447 505.124 864.549 506.839C864.586 507.709 864.616 508.56 864.64 509.406C864.64 509.822 864.64 510.251 864.64 510.668C864.64 511.084 864.64 511.489 864.604 511.876C864.568 512.262 864.561 512.667 864.519 513.083C864.507 513.276 864.485 513.467 864.453 513.657L864.374 514.207L864.338 514.478L864.284 514.72L864.151 515.185C864.136 515.259 864.114 515.332 864.084 515.402L863.994 515.547C863.94 515.644 863.873 515.734 863.813 515.825C862.718 517.541 862.087 519.51 861.979 521.542C861.871 523.574 862.29 525.599 863.196 527.421C864.102 529.243 865.464 530.799 867.15 531.939C868.835 533.078 870.787 533.763 872.815 533.925C874.843 534.087 876.879 533.722 878.724 532.864C880.569 532.007 882.161 530.687 883.345 529.032C884.529 527.378 885.265 525.445 885.482 523.421C885.698 521.398 885.387 519.353 884.579 517.486L883.299 514.653Z" fill="#F2A37C"/>
<path d="M913.779 530.108C899.057 511.544 891.195 509.165 873.212 508.476C864.625 508.144 853.563 510.638 846.154 513.464C837.18 516.894 826.939 526.146 829.439 535.398C834.046 552.488 840.604 579.803 839.36 592.92C838.793 598.959 833.388 611.169 831.577 623.821C840.767 630.102 866.787 660.49 895.367 624.165C895.367 624.165 891.485 596.471 895.301 581.892C899.117 567.314 913.779 530.108 913.779 530.108Z" fill="#2C348C"/>
<g style="mix-blend-mode:multiply" opacity="0.3">
<path d="M838.797 579.17L840.609 579.037C840.609 579.037 843.779 564.755 843.761 561.965C843.743 559.175 843.344 553.396 843.344 553.396C843.344 553.396 849.322 564.707 850.131 575.74C850.94 586.773 849.382 601.043 849.382 601.043L852.885 609.498L869.865 621.425L883.633 616.05L894.001 609.522C894.508 617.777 895.402 624.167 895.402 624.167C893.64 626.422 891.738 628.564 889.708 630.58C882.22 633.968 870.892 638.008 863.978 635.363C852.951 631.136 849.896 620.127 844.606 621.63C842.221 622.307 838.839 624.71 835.844 627.15C834.19 625.779 832.771 624.608 831.617 623.822C833.429 611.141 838.863 598.954 839.401 592.921C839.715 589.267 839.449 584.508 838.797 579.17Z" fill="#1B1464"/>
</g>
<path d="M868.524 502.19C874.433 501.836 878.823 494.851 878.329 486.588C877.835 478.325 872.644 471.912 866.735 472.265C860.826 472.618 856.436 479.604 856.93 487.867C857.424 496.13 862.615 502.543 868.524 502.19Z" fill="#F2A37C"/>
<path d="M861.021 486.951C861.516 495.212 866.703 501.626 872.609 501.275C878.514 500.925 886.57 490.979 886.074 482.718C885.579 474.456 876.733 471.002 870.821 471.352C864.909 471.702 860.525 478.69 861.021 486.951Z" fill="#272C7C"/>
<path d="M853.127 478.411C853.658 487.241 862.185 493.92 872.124 493.328C882.063 492.736 888.688 492.307 889.895 483.545C891.864 469.274 879.424 465.18 870.21 461.339C859.22 456.75 852.601 469.576 853.127 478.411Z" fill="#2E318F"/>
<path d="M829.203 542.1C828.383 543.859 827.691 545.676 827.132 547.535C826.57 549.346 826.093 551.194 825.688 553.042C825.284 554.89 824.94 556.75 824.674 558.628C824.408 560.506 824.173 562.379 823.925 564.263C823.436 568.031 823.013 571.811 822.633 575.646C822.458 577.567 822.295 579.499 822.168 581.492C822.108 582.495 822.053 583.509 822.035 584.584C822.035 585.121 822.035 585.677 822.035 586.281C822.035 586.577 822.035 586.885 822.035 587.241C822.035 587.597 822.071 587.96 822.12 588.449L822.168 588.823L822.234 589.264C822.234 589.445 822.289 589.584 822.337 589.814C822.337 589.929 822.379 590.013 822.416 590.152C822.452 590.291 822.488 590.418 822.53 590.551C822.573 590.683 822.645 590.907 822.705 591.076L822.754 591.209L822.832 591.39C822.881 591.517 822.941 591.638 822.995 591.758L823.086 591.94L823.219 592.193C823.315 592.37 823.418 592.539 823.527 592.7L823.647 592.876L823.696 592.948L823.804 593.087L824.022 593.371L824.167 593.54L824.306 593.697L824.426 593.836L824.638 594.059L824.825 594.252L825.006 594.434L825.169 594.597L825.489 594.899L825.791 595.182C826.588 595.913 827.331 596.547 828.074 597.187C829.565 598.456 831.033 599.669 832.512 600.865C835.465 603.281 838.436 605.606 841.419 607.919C844.402 610.232 847.457 612.49 850.477 614.755C851.992 615.878 853.496 616.989 855.06 618.101C855.821 618.656 856.793 620.715 857.572 621.265L858.562 622.062L859.812 622.914C860.764 623.562 861.925 623.832 863.065 623.668C864.206 623.504 865.244 622.92 865.975 622.029C866.706 621.139 867.078 620.007 867.017 618.857C866.956 617.706 866.467 616.62 865.645 615.812L865.512 614.193L857.596 606.397L849.541 598.546L841.515 590.762C840.193 589.464 838.864 588.171 837.596 586.891C836.993 586.287 836.334 585.611 835.785 585.025L835.592 584.813L835.416 584.614L835.332 584.524L835.272 584.451L835.223 584.385V584.348L835.338 584.493L835.392 584.566L835.507 584.735C835.604 584.874 835.688 585.019 835.773 585.17L835.887 585.387L835.96 585.526L836.087 585.81L836.183 586.045C836.226 586.16 836.274 586.305 836.298 586.402C836.322 586.498 836.346 586.559 836.371 586.637L836.407 586.794L836.455 587.006V587.096C836.464 587.022 836.464 586.947 836.455 586.873V586.426C836.455 586.094 836.509 585.707 836.552 585.315C836.63 584.512 836.733 583.654 836.842 582.784C837.071 581.045 837.337 579.252 837.621 577.446C838.176 573.822 838.828 570.199 839.432 566.527L840.392 561.032C840.706 559.22 840.954 557.354 841.159 555.5C841.364 553.646 841.497 551.78 841.552 549.896C841.623 547.998 841.564 546.097 841.376 544.207V544.135C841.219 542.738 840.611 541.431 839.645 540.409C838.679 539.388 837.408 538.709 836.022 538.474C834.636 538.239 833.212 538.46 831.963 539.106C830.715 539.751 829.71 540.785 829.1 542.051L829.203 542.1Z" fill="#F2A37C"/>
<path d="M887.933 623.894C888.501 623.292 889.106 622.725 889.744 622.197C890.064 621.925 890.39 621.648 890.729 621.382L891.779 620.603C893.186 619.552 894.702 618.568 896.23 617.583C897.758 616.599 899.334 615.615 900.928 614.63C901.725 614.141 902.522 613.646 903.343 613.157L905.801 611.707L908.289 610.234C909.134 609.751 909.983 609.26 910.837 608.76C912.552 607.752 914.267 606.689 916.078 605.517C916.978 604.913 917.89 604.31 918.844 603.561C919.919 602.743 920.928 601.842 921.863 600.867C922.488 600.2 923.058 599.483 923.566 598.724C923.9 598.216 924.2 597.688 924.466 597.141C924.808 596.424 925.081 595.676 925.281 594.907C925.405 594.425 925.496 593.934 925.553 593.439C925.553 593.18 925.601 592.896 925.619 592.618V592.262C925.619 592.099 925.619 591.936 925.619 591.773C925.619 591.44 925.559 591.114 925.505 590.788L925.444 590.432V590.311L925.408 590.076L925.348 589.665L925.124 588.191L924.242 582.515C923.947 580.625 923.639 578.746 923.373 576.862L921.592 565.551L920.74 559.905L919.937 554.246C919.406 550.478 918.862 546.71 918.373 542.923C918.214 541.682 917.813 540.485 917.192 539.399C916.57 538.314 915.741 537.361 914.752 536.596C913.763 535.831 912.632 535.268 911.425 534.94C910.218 534.612 908.959 534.524 907.718 534.683C906.477 534.841 905.28 535.243 904.195 535.864C903.109 536.486 902.157 537.315 901.392 538.304C900.626 539.294 900.064 540.424 899.735 541.631C899.407 542.838 899.32 544.098 899.479 545.339C899.479 545.466 899.515 545.592 899.533 545.719L899.805 547.283C900.457 551.027 901.133 554.76 901.858 558.486L902.951 564.072L904.08 569.646L904.641 572.436L905.245 575.22L906.417 580.782C906.797 582.636 907.202 584.484 907.624 586.331L908.832 591.857L909.116 593.192L909.176 593.494V593.621V593.711C909.176 593.711 909.176 593.747 909.176 593.711V593.542C909.138 593.316 909.112 593.088 909.098 592.86C909.098 592.745 909.098 592.63 909.098 592.515V592.292C909.098 592.159 909.098 592.026 909.098 591.912C909.118 591.709 909.148 591.507 909.188 591.308C909.25 590.97 909.364 590.644 909.527 590.341C909.527 590.287 909.49 590.39 909.37 590.535C908.98 590.962 908.564 591.366 908.126 591.742C907.594 592.22 906.978 592.727 906.314 593.234C905.004 594.243 903.591 595.311 902.129 596.38L899.937 598.041L897.721 599.762C894.756 602.099 891.779 604.593 888.73 607.069C887.975 607.673 887.196 608.313 886.429 608.96L884.11 610.898L881.725 612.879L879.261 614.956C878.634 615.486 878.117 616.134 877.739 616.863C877.362 617.592 877.132 618.389 877.063 619.207C876.993 620.025 877.085 620.849 877.334 621.631C877.583 622.414 877.983 623.14 878.513 623.767C879.042 624.395 879.69 624.912 880.419 625.29C881.148 625.667 881.945 625.897 882.763 625.967C883.581 626.036 884.405 625.944 885.187 625.695C885.97 625.446 886.695 625.046 887.323 624.516C887.52 624.351 887.705 624.174 887.878 623.985L887.933 623.894Z" fill="#F2A37C"/>
<path d="M881.674 615.105C878.843 615.186 876.046 615.745 873.401 616.76C873.401 616.76 871.59 613.137 869.042 613.137H862.049L858.063 621.108C858.063 621.108 864.229 630.897 869.869 631.375C875.509 631.852 885.853 629.412 887.815 626.066C894.814 614.109 881.674 615.105 881.674 615.105Z" fill="#F2A37C"/>
<g style="mix-blend-mode:multiply" opacity="0.13">
<path d="M859.239 606.385C861.546 610.612 859.65 612.388 852.072 611.216C844.493 610.045 820.593 590.72 820.593 590.72L825.424 611.56L862.639 633.24L879.015 634.563L893.278 622.261L921.78 602.556C921.78 602.556 907.741 611.778 895.41 613.13C883.079 614.483 891.509 604.96 891.509 604.96L859.239 606.385Z" fill="#CC7455"/>
</g>
<g style="mix-blend-mode:multiply" opacity="0.13">
<path d="M924.503 582.641C922.8 580.914 916.285 578.806 911.871 582.037C907.457 585.268 904.147 590.758 904.147 590.758V577.907L924.503 571.59V582.641Z" fill="#CC7455"/>
</g>
<g style="mix-blend-mode:multiply" opacity="0.13">
<path d="M837.971 582.641C837.276 582.641 831.932 580.225 829.33 580.569C826.727 580.913 820.876 586.53 820.586 590.739C819.221 577.906 822.12 570.889 822.12 570.889L834.366 571.589L840.573 576.42L837.971 582.641Z" fill="#CC7455"/>
</g>
<path d="M900.537 517.274C908.586 519.285 914.141 529.413 916.726 537.04C920.627 548.563 926.219 572.501 926.219 572.501C917.716 577.936 910.138 580.956 901.527 581.155C901.527 581.155 891.932 564.711 891.636 558.539C890.392 531.979 900.537 517.274 900.537 517.274Z" fill="#2C348C"/>
<g style="mix-blend-mode:multiply" opacity="0.3">
<path d="M912.444 579.303C908.915 580.45 905.237 581.075 901.527 581.157C901.527 581.157 899.528 577.739 897.3 573.433L900.132 558.408C900.132 558.408 902.849 575.215 912.444 579.303Z" fill="#1B1464"/>
</g>
<path d="M873.546 627.039C873.651 627.042 873.754 627.008 873.837 626.942C873.92 626.877 873.977 626.784 873.998 626.681C874.019 626.577 874.002 626.47 873.952 626.377C873.901 626.285 873.819 626.213 873.721 626.175C871.39 625.203 869.403 623.252 868.993 621.537C868.9 621.228 868.885 620.901 868.949 620.585C869.013 620.269 869.155 619.974 869.361 619.725C869.401 619.681 869.431 619.628 869.45 619.572C869.47 619.515 869.478 619.455 869.474 619.396C869.471 619.336 869.455 619.278 869.429 619.224C869.403 619.17 869.366 619.122 869.322 619.082C869.277 619.043 869.225 619.012 869.168 618.993C869.111 618.973 869.052 618.965 868.992 618.969C868.932 618.972 868.874 618.988 868.82 619.014C868.766 619.04 868.718 619.077 868.679 619.121C868.377 619.479 868.168 619.904 868.069 620.361C867.97 620.818 867.984 621.292 868.111 621.742C868.594 623.747 870.756 625.909 873.37 627.002C873.427 627.023 873.486 627.035 873.546 627.039V627.039Z" fill="#CC8862"/>
<path d="M839.06 523.755C829.671 521.303 827.358 530.682 824.804 540.93C823.463 546.317 816.712 574.145 816.712 574.145C820.468 576.482 831.844 581.524 840.558 579.054L843.293 544.886L839.06 523.755Z" fill="#2C348C"/>
<g style="mix-blend-mode:multiply" opacity="0.3">
<path d="M828.712 578.871C824.502 577.896 820.462 576.296 816.726 574.124C816.726 574.124 823.477 546.315 824.817 540.91C825.88 536.64 826.907 532.522 828.44 529.351C824.612 546.224 827.631 571.195 828.712 578.871Z" fill="#1B1464"/>
</g>
<path d="M911.987 794.726H804.803C803.052 794.726 801.633 796.145 801.633 797.896C801.633 799.647 803.052 801.067 804.803 801.067H911.987C913.738 801.067 915.157 799.647 915.157 797.896C915.157 796.145 913.738 794.726 911.987 794.726Z" fill="#2B2B2B"/>
</g>
<defs>
<linearGradient id="paint0_linear_4080_20009" x1="559.305" y1="683.465" x2="516.138" y2="-3.4444" gradientUnits="userSpaceOnUse">
<stop stop-color="#FF447F" stop-opacity="0.99"/>
<stop offset="0.12" stop-color="#FF4D88" stop-opacity="0.76"/>
<stop offset="0.25" stop-color="#FF5591" stop-opacity="0.56"/>
<stop offset="0.37" stop-color="#FF5B97" stop-opacity="0.39"/>
<stop offset="0.5" stop-color="#FF619D" stop-opacity="0.25"/>
<stop offset="0.62" stop-color="#FF65A1" stop-opacity="0.14"/>
<stop offset="0.75" stop-color="#FF68A5" stop-opacity="0.06"/>
<stop offset="0.87" stop-color="#FF69A6" stop-opacity="0.02"/>
<stop offset="1" stop-color="#FF6AA7" stop-opacity="0"/>
</linearGradient>
<linearGradient id="paint1_linear_4080_20009" x1="556.767" y1="642.847" x2="518.711" y2="37.1919" gradientUnits="userSpaceOnUse">
<stop stop-color="#FF447F" stop-opacity="0.99"/>
<stop offset="0.12" stop-color="#FF4D88" stop-opacity="0.76"/>
<stop offset="0.25" stop-color="#FF5591" stop-opacity="0.56"/>
<stop offset="0.37" stop-color="#FF5B97" stop-opacity="0.39"/>
<stop offset="0.5" stop-color="#FF619D" stop-opacity="0.25"/>
<stop offset="0.62" stop-color="#FF65A1" stop-opacity="0.14"/>
<stop offset="0.75" stop-color="#FF68A5" stop-opacity="0.06"/>
<stop offset="0.87" stop-color="#FF69A6" stop-opacity="0.02"/>
<stop offset="1" stop-color="#FF6AA7" stop-opacity="0"/>
</linearGradient>
<linearGradient id="paint2_linear_4080_20009" x1="554.217" y1="602.235" x2="521.259" y2="77.7942" gradientUnits="userSpaceOnUse">
<stop stop-color="#FF447F" stop-opacity="0.99"/>
<stop offset="0.12" stop-color="#FF4D88" stop-opacity="0.76"/>
<stop offset="0.25" stop-color="#FF5591" stop-opacity="0.56"/>
<stop offset="0.37" stop-color="#FF5B97" stop-opacity="0.39"/>
<stop offset="0.5" stop-color="#FF619D" stop-opacity="0.25"/>
<stop offset="0.62" stop-color="#FF65A1" stop-opacity="0.14"/>
<stop offset="0.75" stop-color="#FF68A5" stop-opacity="0.06"/>
<stop offset="0.87" stop-color="#FF69A6" stop-opacity="0.02"/>
<stop offset="1" stop-color="#FF6AA7" stop-opacity="0"/>
</linearGradient>
<linearGradient id="paint3_linear_4080_20009" x1="550.763" y1="561.707" x2="522.913" y2="118.459" gradientUnits="userSpaceOnUse">
<stop stop-color="#FF447F" stop-opacity="0.99"/>
<stop offset="0.12" stop-color="#FF4D88" stop-opacity="0.76"/>
<stop offset="0.25" stop-color="#FF5591" stop-opacity="0.56"/>
<stop offset="0.37" stop-color="#FF5B97" stop-opacity="0.39"/>
<stop offset="0.5" stop-color="#FF619D" stop-opacity="0.25"/>
<stop offset="0.62" stop-color="#FF65A1" stop-opacity="0.14"/>
<stop offset="0.75" stop-color="#FF68A5" stop-opacity="0.06"/>
<stop offset="0.87" stop-color="#FF69A6" stop-opacity="0.02"/>
<stop offset="1" stop-color="#FF6AA7" stop-opacity="0"/>
</linearGradient>
<linearGradient id="paint4_linear_4080_20009" x1="539.052" y1="542.114" x2="516.35" y2="180.749" gradientUnits="userSpaceOnUse">
<stop stop-color="#FF447F" stop-opacity="0.99"/>
<stop offset="0.12" stop-color="#FF4D88" stop-opacity="0.76"/>
<stop offset="0.25" stop-color="#FF5591" stop-opacity="0.56"/>
<stop offset="0.37" stop-color="#FF5B97" stop-opacity="0.39"/>
<stop offset="0.5" stop-color="#FF619D" stop-opacity="0.25"/>
<stop offset="0.62" stop-color="#FF65A1" stop-opacity="0.14"/>
<stop offset="0.75" stop-color="#FF68A5" stop-opacity="0.06"/>
<stop offset="0.87" stop-color="#FF69A6" stop-opacity="0.02"/>
<stop offset="1" stop-color="#FF6AA7" stop-opacity="0"/>
</linearGradient>
<clipPath id="clip0_4080_20009">
<rect width="1024" height="848.528" fill="white"/>
</clipPath>
</defs>
</svg>
