<svg xmlns="http://www.w3.org/2000/svg" xmlns:xlink="http://www.w3.org/1999/xlink" viewBox="0 0 1460 882"><defs><style>.cls-1{fill:none;}.cls-2{fill:#2c348c;}.cls-3{fill:#f2a37c;}.cls-4{fill:#39b34c;}.cls-5{isolation:isolate;}.cls-6{fill:#111010;}.cls-7{clip-path:url(#clip-path);}.cls-8{fill:url(#linear-gradient);}.cls-9{fill:url(#linear-gradient-2);}.cls-10{opacity:0.6;}.cls-11{fill:url(#linear-gradient-3);}.cls-12{opacity:0.45;}.cls-13{fill:url(#linear-gradient-4);}.cls-14{fill:url(#linear-gradient-5);}.cls-15{fill:url(#radial-gradient);}.cls-16{fill:url(#radial-gradient-2);}.cls-17{fill:url(#radial-gradient-3);}.cls-18{fill:url(#radial-gradient-4);}.cls-19,.cls-23{fill:#ddc8ff;}.cls-20{fill:url(#radial-gradient-5);}.cls-21{fill:url(#radial-gradient-6);}.cls-22{fill:url(#radial-gradient-7);}.cls-23,.cls-33{opacity:0.4;}.cls-24{fill:url(#radial-gradient-8);}.cls-25,.cls-28,.cls-32,.cls-37{opacity:0.3;}.cls-26{fill:#9498ba;}.cls-26,.cls-30{opacity:0.2;}.cls-27{fill:url(#radial-gradient-9);}.cls-28,.cls-39,.cls-42,.cls-54,.cls-56,.cls-58{mix-blend-mode:multiply;}.cls-29{fill:#55278b;}.cls-31{fill:#ff87ff;}.cls-32{fill:#ba659c;}.cls-32,.cls-37{mix-blend-mode:color-dodge;}.cls-33{fill:url(#radial-gradient-10);}.cls-34{fill:url(#radial-gradient-11);}.cls-35{fill:#b54133;}.cls-36{fill:#773d9c;}.cls-37{fill:#e4654b;}.cls-38{clip-path:url(#clip-path-2);}.cls-39,.cls-54,.cls-56{fill:#6598eb;}.cls-39,.cls-58{opacity:0.17;}.cls-40{fill:#fff;}.cls-41{clip-path:url(#clip-path-3);}.cls-42{fill:#1b1464;opacity:0.14;}.cls-43{clip-path:url(#clip-path-4);}.cls-44{fill:#f33c4e;}.cls-45{clip-path:url(#clip-path-5);}.cls-46{fill:#2e318f;}.cls-47{fill:#cc8862;}.cls-48{fill:#289d4b;}.cls-49{fill:#0f3;}.cls-50{fill:#5f628c;}.cls-51{clip-path:url(#clip-path-6);}.cls-52{clip-path:url(#clip-path-7);}.cls-53{clip-path:url(#clip-path-8);}.cls-54{opacity:0.28;}.cls-55{clip-path:url(#clip-path-9);}.cls-56{opacity:0.47;}.cls-57{clip-path:url(#clip-path-10);}.cls-58{fill:#cc765a;}.cls-59{clip-path:url(#clip-path-11);}.cls-60{clip-path:url(#clip-path-12);}.cls-61{clip-path:url(#clip-path-13);}.cls-62{fill:#057c19;}.cls-63{fill:#0cc42a;}</style><clipPath id="clip-path"><rect class="cls-1" x="20" y="23.94" width="1440" height="859" transform="translate(1480 906.88) rotate(-180)"/></clipPath><linearGradient id="linear-gradient" x1="-677.61" y1="-1088.62" x2="-749.92" y2="-951.14" gradientTransform="matrix(0.93, 0.36, 0.36, -0.93, 1833.18, 181.47)" gradientUnits="userSpaceOnUse"><stop offset="0.06" stop-color="#ff6aa7"/><stop offset="0.22" stop-color="#d15b9c"/><stop offset="0.4" stop-color="#a54d92"/><stop offset="0.57" stop-color="#85438a"/><stop offset="0.7" stop-color="#713c86"/><stop offset="0.8" stop-color="#6a3a84"/></linearGradient><linearGradient id="linear-gradient-2" x1="-704.45" y1="-1128.49" x2="-994.52" y2="-633.66" gradientTransform="matrix(0.94, 0.44, 0.34, -1.1, 1843.33, 295.53)" gradientUnits="userSpaceOnUse"><stop offset="0.03" stop-color="#ff7bac"/><stop offset="0.22" stop-color="#ff7bac" stop-opacity="0.76"/><stop offset="0.57" stop-color="#ff7bac" stop-opacity="0.36"/><stop offset="0.81" stop-color="#ff7bac" stop-opacity="0.1"/><stop offset="0.92" stop-color="#ff7bac" stop-opacity="0"/></linearGradient><linearGradient id="linear-gradient-3" x1="-1588.3" y1="-1004.27" x2="-1582.13" y2="-968.31" gradientTransform="matrix(1, -0.04, -0.04, -1, 1864.92, -130.13)" xlink:href="#linear-gradient"/><linearGradient id="linear-gradient-4" x1="-1360.74" y1="615.11" x2="-1488.77" y2="663.34" gradientTransform="matrix(-0.55, -0.83, -0.83, 0.55, 881.28, -639.99)" gradientUnits="userSpaceOnUse"><stop offset="0.65" stop-color="#6a3a84"/><stop offset="1" stop-color="#ff6aa7"/></linearGradient><linearGradient id="linear-gradient-5" x1="-1346.4" y1="1139.28" x2="-1150.71" y2="978.83" gradientTransform="matrix(-0.55, -0.83, -0.83, 0.55, 881.28, -639.99)" gradientUnits="userSpaceOnUse"><stop offset="0.06" stop-color="#ff6aa7"/><stop offset="0.49" stop-color="#a54d92"/><stop offset="0.8" stop-color="#6a3a84"/></linearGradient><radialGradient id="radial-gradient" cx="258.87" cy="389.71" r="36.21" gradientTransform="matrix(-1, 0, 0, 1, 1396.1, 0.16)" gradientUnits="userSpaceOnUse"><stop offset="0" stop-color="#fff"/><stop offset="0.05" stop-color="#e5e6e5" stop-opacity="0.9"/><stop offset="0.15" stop-color="#b0b1b0" stop-opacity="0.69"/><stop offset="0.26" stop-color="#818281" stop-opacity="0.51"/><stop offset="0.37" stop-color="#595b59" stop-opacity="0.35"/><stop offset="0.48" stop-color="#393b39" stop-opacity="0.22"/><stop offset="0.6" stop-color="#202220" stop-opacity="0.12"/><stop offset="0.72" stop-color="#0e100e" stop-opacity="0.06"/><stop offset="0.85" stop-color="#030503" stop-opacity="0.01"/><stop offset="1" stop-color="#000200" stop-opacity="0"/></radialGradient><radialGradient id="radial-gradient-2" cx="1051.01" cy="672.69" r="17.49" gradientTransform="matrix(-1, 0, 0, 1, 1396.1, 0.16)" gradientUnits="userSpaceOnUse"><stop offset="0" stop-color="#fff2ff"/><stop offset="0.05" stop-color="#e5dae5" stop-opacity="0.9"/><stop offset="0.15" stop-color="#b0a8b0" stop-opacity="0.69"/><stop offset="0.26" stop-color="#817c81" stop-opacity="0.51"/><stop offset="0.37" stop-color="#595659" stop-opacity="0.35"/><stop offset="0.48" stop-color="#393839" stop-opacity="0.22"/><stop offset="0.6" stop-color="#202020" stop-opacity="0.12"/><stop offset="0.72" stop-color="#0e0f0e" stop-opacity="0.06"/><stop offset="0.85" stop-color="#030503" stop-opacity="0.01"/><stop offset="1" stop-color="#000200" stop-opacity="0"/></radialGradient><radialGradient id="radial-gradient-3" cx="862.07" cy="547.07" r="20.72" xlink:href="#radial-gradient-2"/><radialGradient id="radial-gradient-4" cx="1334.81" cy="690.26" r="36.21" xlink:href="#radial-gradient-2"/><radialGradient id="radial-gradient-5" cx="1872.45" cy="2883.82" r="10.44" gradientTransform="matrix(-0.62, 0.78, 0.78, 0.62, -444.63, -2852.31)" gradientUnits="userSpaceOnUse"><stop offset="0" stop-color="#fff2ff"/><stop offset="0.05" stop-color="#e5dae5"/><stop offset="0.15" stop-color="#b0a8b0"/><stop offset="0.26" stop-color="#817c81"/><stop offset="0.37" stop-color="#595659"/><stop offset="0.48" stop-color="#393839"/><stop offset="0.6" stop-color="#202020"/><stop offset="0.72" stop-color="#0e0f0e"/><stop offset="0.85" stop-color="#030503"/><stop offset="1" stop-color="#000200"/></radialGradient><radialGradient id="radial-gradient-6" cx="2387.85" cy="2681.36" r="10.44" gradientTransform="matrix(-0.62, 0.78, 0.78, 0.62, -444.63, -2852.31)" xlink:href="#radial-gradient-2"/><radialGradient id="radial-gradient-7" cx="1999.97" cy="2999.67" r="10.44" gradientTransform="matrix(-0.62, 0.78, 0.78, 0.62, -444.63, -2852.31)" xlink:href="#radial-gradient-2"/><radialGradient id="radial-gradient-8" cx="454.66" cy="385.95" r="6.41" xlink:href="#radial-gradient-2"/><radialGradient id="radial-gradient-9" cx="1044.13" cy="479.35" r="118.35" gradientTransform="matrix(-1, 0, 0, 1, 1362, 0)" gradientUnits="userSpaceOnUse"><stop offset="0" stop-color="#ba3bac"/><stop offset="1" stop-color="#7e1ba0"/></radialGradient><radialGradient id="radial-gradient-10" cx="2268.36" cy="-1195.22" r="56.72" gradientTransform="translate(1034.69 -2136.8) rotate(117.2)" gradientUnits="userSpaceOnUse"><stop offset="0" stop-color="#f873d0"/><stop offset="1" stop-color="#9031f0"/></radialGradient><radialGradient id="radial-gradient-11" cx="2269.78" cy="-1193.29" r="45.38" xlink:href="#radial-gradient-10"/><clipPath id="clip-path-2"><path class="cls-1" d="M1205.4,639.82l-2.37,1.9-2.37,1.84c-1.58,1.23-3.19,2.4-4.8,3.6-3.23,2.35-6.49,4.68-9.83,6.93s-6.72,4.47-10.22,6.64c-1.74,1.09-3.54,2.14-5.4,3.19-.93.53-1.88,1.05-2.87,1.58s-2,1-3.15,1.59l-.86.41-1,.43-.5.21-.61.22-.61.21-.53.16a36.07,36.07,0,0,1-3.74.87c-2.28.43-4.4.71-6.52.95s-4.19.38-6.27.5-4.14.2-6.21.25-4.13,0-6.2-.06-4.14-.12-6.21-.28-4.16-.33-6.25-.57q-1.58-.18-3.15-.42c-.53-.07-1.06-.16-1.59-.26a1.85,1.85,0,0,1-.79-.44,3.2,3.2,0,0,1-.75-1.07,7.4,7.4,0,0,1,.14-6.48l.17-.33a2.83,2.83,0,0,1,.72-.95,1.31,1.31,0,0,1,.69-.32c.46,0,.91,0,1.37,0,.92,0,1.85-.09,2.78-.17,1.87-.15,3.76-.3,5.65-.51,3.79-.4,7.6-.86,11.4-1.46q2.85-.43,5.68-.94c1.88-.35,3.77-.7,5.61-1.14s3.68-.9,5.39-1.42c.87-.26,1.7-.54,2.4-.81l.26-.11.22-.09.21-.1.26-.13.51-.27.56-.31c1.49-.85,3.07-1.87,4.64-2.93s3.14-2.15,4.71-3.28c3.13-2.25,6.25-4.57,9.33-7s6.14-4.82,9.18-7.28,6.06-5,9-7.48A9.63,9.63,0,1,1,1206,639.38l-.15.12Z"/></clipPath><clipPath id="clip-path-3"><path class="cls-1" d="M1117,727.85c.11,1.3.27,2.66.45,4,.76,5.52-.22,9.42,1.07,15.18l2,8.71c.65,2.93,1.33,5.87,1.9,8.86q.43,2.24.84,4.5l.39,2.26c.13.76.24,1.53.35,2.29.22,1.53.42,3.07.61,4.62l.26,2.34.06.59a2,2,0,0,1,0,.6,2.22,2.22,0,0,1-1,1.34,14.55,14.55,0,0,1-12.41,2.07l-.73-.21a2.17,2.17,0,0,1-1.36-.86,1.54,1.54,0,0,1-.16-.5l-.12-.51-.48-2c-.33-1.37-.69-2.75-1.05-4.13l-1.13-4.14c-.38-1.39-.78-2.78-1.18-4.17-1.59-5.58-3.26-11.21-5-16.91q-1.29-4.28-2.57-8.65c-.84-2.92-1.64-5.89-2.46-9-.4-1.54-.78-3.11-1.13-4.74s-.7-3.31-1-5.14a34.49,34.49,0,0,1-.42-6.3c0-.62.08-1.3.17-2,0-.38.1-.73.18-1.16l.13-.62a2.76,2.76,0,0,1,.09-.37l.1-.41a17.55,17.55,0,0,1,2.9-5.82,20.63,20.63,0,0,1,3.72-3.75,26.21,26.21,0,0,1,3.49-2.29,41.67,41.67,0,0,1,6.07-2.68,83.52,83.52,0,0,1,10.47-2.8c6.6-1.4,12.84-2.17,19-3s12.18-1.4,18.1-2,11.71-1.24,17.19-2a19.59,19.59,0,1,1,5.23,38.83c-.32,0-.63.08-.94.11l-2.8.23a48.25,48.25,0,0,1-9.43-.6c-3.08-.38-6.1-.77-9.08-1.22-5.95-.86-11.77-1.82-17.47-2.62-2.85-.41-5.67-.76-8.43-1.05s-3.21,1.37-5.79,1.27c-1.29,0-2.53,0-3.72,0s-2.3.11-3.27.21"/></clipPath><clipPath id="clip-path-4"><path class="cls-1" d="M1209.07,696.1c-4.79-8.17-18.93-1.9-18.93-1.9l-.06.28a18.6,18.6,0,0,0-6.38,2.72c-4.75,3.18-9.8,6.45-14.92,9.75s-10.31,6.72-15.5,10.31-10.42,7.32-15.71,11.63a88.4,88.4,0,0,0-8,7.36c-.68.73-1.36,1.49-2,2.33s-1.39,1.73-2.09,2.75a26.89,26.89,0,0,0-2.06,3.48,21.84,21.84,0,0,0-1.73,4.78,18.37,18.37,0,0,0-.35,6.46,14.58,14.58,0,0,0,.31,1.73c.06.28.14.56.21.84l.06.21.05.16.11.32.21.64.23.56.22.56.23.5a26.09,26.09,0,0,0,1.86,3.33c.62,1,1.22,1.78,1.82,2.57,1.2,1.56,2.4,2.89,3.55,4.19s2.3,2.51,3.44,3.68c2.3,2.33,4.53,4.57,6.77,6.75l6.61,6.45,6.48,6.33,3.2,3.13c1.06,1,2.09,2.1,3.15,3.13s2.08,2.06,3.09,3.1l3,3.11c1,1,2,2.07,2.92,3.11.48.52.94,1,1.4,1.57l.34.39.17.2a.51.51,0,0,0,.21.17,1.61,1.61,0,0,0,.85,0,5.28,5.28,0,0,0,.69-.22,4.31,4.31,0,0,0,.44-.17l.53-.24,1.22-.58a25,25,0,0,0,9-7.37l.34-.46a3.17,3.17,0,0,0,.25-.4,3.79,3.79,0,0,0,.34-.66,1.67,1.67,0,0,0,.15-.92.68.68,0,0,0-.12-.3l-.17-.27-.33-.54c-.45-.72-.9-1.42-1.35-2.12-.91-1.4-1.84-2.76-2.78-4.11s-1.89-2.65-2.87-3.94-2-2.56-2.94-3.82c-2-2.51-4-4.92-6-7.33s-4.07-4.72-6.08-7-4-4.58-6-6.84-3.81-4.5-5.51-6.71c-.63-.81-1.24-1.62-1.81-2.41.55-.38,1.16-.78,1.81-1.18,1-.61,2-1.23,3.12-1.85,2.2-1.24,4.59-2.47,7.06-3.68s5-2.38,7.65-3.54c5.22-2.32,10.64-4.58,16.17-6.87l8.39-3.49c2.83-1.19,5.73-2.38,8.58-3.86l1.19-.62a19.94,19.94,0,0,0,1.77-1,20.25,20.25,0,0,0,2.72-2.22C1218.5,719.18,1214.44,705.27,1209.07,696.1Z"/></clipPath><clipPath id="clip-path-5"><path class="cls-4" d="M1216,616.15s-8.7.75-17.16,8.21c-3.59,3.16-14.77,9.56-17.4,20-2.13,8.43,3.92,20.43,3.84,28,0,3.29-6.23,7.88-8.39,12a3,3,0,0,0,2.29,4.48l23.24,4.58s12.61,8.52,17.74,4.56,2.76-16.79,2.76-16.79,12.22-40.45,9.71-52.06S1216,616.15,1216,616.15Z"/></clipPath><clipPath id="clip-path-6"><path class="cls-1" d="M1217.16,625.25A9.3,9.3,0,0,1,1230,628l25.88,40.24.53,0c1.81-.12,3.62-.18,5.44-.26s3.63-.06,5.45-.07,3.64.07,5.46.1c.91,0,1.82,0,2.73.1l2.74.16c1.83.11,3.66.26,5.49.4s3.67.39,5.51.64c.92.12,1.84.22,2.76.37l1.39.2c.23,0,.46.18.67.61a5.4,5.4,0,0,1,.3.83,12.53,12.53,0,0,1,.27,1.4,18.31,18.31,0,0,1-.33,6.28l0,.15c-.15.62-.28,1-.4,1.37a5.16,5.16,0,0,1-.37.8c-.24.42-.46.56-.67.55l-1.29.09c-.86,0-1.73.14-2.6.21-1.72.14-3.47.34-5.2.51s-3.48.32-5.23.51l-2.62.28c-.87.1-1.74.16-2.62.24l-5.24.52c-1.75.14-3.5.29-5.25.46l-5.26.38-2.63.16c-.86,0-1.76.09-2.59.11A5.38,5.38,0,0,1,1247,684l-2.25-2.26c-.79-.8-1.56-1.6-2.31-2.42s-1.51-1.63-2.23-2.46-1.48-1.65-2.19-2.5l-2.14-2.53c-.72-.84-1.39-1.71-2.09-2.56l-2.07-2.58c-1.36-1.73-2.68-3.48-4-5.22-.67-.87-1.32-1.76-2-2.64s-1.31-1.77-2-2.66c-1.29-1.78-2.57-3.56-3.75-5.42a63.36,63.36,0,0,1-3.28-5.73c-.49-1-1-2-1.39-3l-.32-.77-.3-.8q-.3-.78-.54-1.62l-.9-3.12A9.3,9.3,0,0,1,1217.16,625.25Z"/></clipPath><clipPath id="clip-path-7"><path id="SVGID" class="cls-1" d="M987.28,692.54a147.68,147.68,0,0,0-19.07-1.73c-.14,0-.28,0-.43,0l4.46,62.78a7.22,7.22,0,0,0,14.42-.44Z"/></clipPath><clipPath id="clip-path-8"><path class="cls-1" d="M1015.84,790.17c.09-.83.15-1.66.23-2.49l.43-5,.86-10,.78-10c.27-3.32.53-6.64.75-10l.7-10,.63-10,.52-10,.27-5-.51-5.12,43.42-45.57a16.3,16.3,0,0,0,1.11-1.45,15.93,15.93,0,0,0-21.36-22.61A15.21,15.21,0,0,0,1015,639.1l-29.46,61.27-.57,1.18a7.75,7.75,0,0,0-.7,2.64l-1.34,18,.39.06a130.83,130.83,0,0,1,14,3.19v6.9l.13,10,.19,10c.06,3.33.16,6.65.25,10l.28,10,.36,10,.18,5c0,.83.05,1.66.1,2.5a3,3,0,0,0,.44,1.26,4.15,4.15,0,0,0,1.28,1.27,12.7,12.7,0,0,0,13.51.35,4.1,4.1,0,0,0,1.35-1.22A2.87,2.87,0,0,0,1015.84,790.17Z"/></clipPath><clipPath id="clip-path-9"><path class="cls-2" d="M1071.69,561.1c2.51,10.85-13.7,60.34-11.23,70.15s3,33,2.71,37.51,9.16-7.52,9.72-8.49,5.74-27.66,4.6-36.33,6.76-34.7,6.76-34.7,9-11.8,2.57-17.56A95.17,95.17,0,0,0,1071.69,561.1Z"/></clipPath><clipPath id="clip-path-10"><path class="cls-1" d="M1140.59,556.33c.13-.39.29-.79.4-1.17a39.63,39.63,0,0,0,1.11-4.3,71.67,71.67,0,0,0,1.09-7.77c.44-5,.63-9.76.72-14.49s.16-9.37.34-13.91c.07-2.28.19-4.52.37-6.7a46.49,46.49,0,0,1,.85-6.13c1.2-1.73,6.43-9.41,6.16-11-.16-1-.34-3.44-.47-5.57a5.45,5.45,0,0,0-3.47-4.73,2.07,2.07,0,0,0-2.69,1.18l-2.21,5.69-4.14,5.31s-.53-5.23-1.74-5.2c-.43,0-2.3.57-1.65,4.27.49,2.81-.66,7,.54,9.35-.65,1.63-1.16,3.23-1.63,4.81-.71,2.42-1.27,4.81-1.81,7.18-1,4.75-1.87,9.43-2.68,14s-1.61,9.15-2.6,13.42c-.5,2.13-1,4.2-1.62,6a21.67,21.67,0,0,1-1,2.41c0,.1-.09.19-.14.27l-.3.15c-.84.39-1.83.84-2.84,1.28-2,.89-4.14,1.78-6.26,2.66s-4.25,1.79-6.4,2.68l-3.22,1.32-2.1,2.51c-8.59,3.55-18.35,6-26.84,9.78h0a10.67,10.67,0,0,0,8.54,19.55c8.68-3.71,17.18-7.7,25.65-11.87,2.13-1,4.24-2.09,6.35-3.16l6.34-3.26c2.12-1.12,4.23-2.25,6.39-3.47,1.09-.61,2.17-1.24,3.38-2,.32-.19.63-.39,1-.62l.59-.39.36-.25.41-.3.57-.44a12.38,12.38,0,0,0,1-.93l.68-.79a17.55,17.55,0,0,0,1.06-1.51,20.24,20.24,0,0,0,1.41-2.7C1140.29,557.13,1140.43,556.74,1140.59,556.33Zm-16.41-6.7a1.54,1.54,0,0,1-.14.23c-.14.23-.26.35-.31.35s0,0,0-.09a.57.57,0,0,1,.08-.13C1123.93,549.88,1124.05,549.75,1124.18,549.63Z"/></clipPath><clipPath id="clip-path-11"><path class="cls-2" d="M1127.24,549.53l-.28-.36-.26-.29-.23-.24-.11-.12-.1-.08a3.33,3.33,0,0,0-.72-.54,1.11,1.11,0,0,0-.54-.13,1.14,1.14,0,0,0-.4.15l-1.55.73-3.1,1.46-6.18,3c-4.1,2-8.2,4-12.25,6.18-2,1.06-4.06,2.1-6.08,3.18l-6,3.29c-4,2.26-8,4.5-11.88,7l-1.07.68a10.49,10.49,0,0,0,10,18.41c4.15-1.9,8.21-4,12.28-6.1l6.06-3.23c2-1.09,4-2.22,6-3.32,1-.56,2-1.11,3-1.68l3-1.72,6-3.43,5.92-3.53,2.95-1.78,1.48-.89a1.45,1.45,0,0,0,.35-.26,1.2,1.2,0,0,0,.23-.52,3.75,3.75,0,0,0,.06-.89v-.13l0-.16,0-.32-.06-.37-.08-.43a30.38,30.38,0,0,0-6-13.18Z"/></clipPath><clipPath id="clip-path-12"><path class="cls-2" d="M1043.64,558.94c-13.62,2-30.93,17-30.93,17s-6.63,18-11.58,19.51-6.75,2.32-8.14,1.41-.73,2-.73,2,6.09,4.26,10.12,3.77,25.06-12.69,25.06-12.69l9.48-23Z"/></clipPath><clipPath id="clip-path-13"><path class="cls-3" d="M1004.68,578.38l-1.3-1c-.26-1.92-.45-3.88-.65-5.85s-.38-4-.54-6-.33-4-.48-6l-.47-6.08c-.07-1-.16-2-.24-3s-.18-2-.26-3l0-.47A4.22,4.22,0,0,0,996,543a4.41,4.41,0,0,0-3.75,4.11c-.19,2-.33,4-.47,6s-.26,4.17-.36,6.26c-.19,4.18-.3,8.38-.27,12.61a113.22,113.22,0,0,0,.74,13c.14,1.11.32,2.24.54,3.4a35.2,35.2,0,0,0,.9,3.61c.21.63.44,1.28.73,2a14.75,14.75,0,0,0,1.13,2.18,10.94,10.94,0,0,0,2.08,2.47c.49.42,1,1.11,1.76,1.21C1006.68,600.76,1006.34,586.25,1004.68,578.38Z"/></clipPath></defs><g class="cls-5"><g id="HERO"><rect class="cls-6" x="288.23" y="-288.23" width="883.55" height="1460" transform="translate(1171.77 -288.23) rotate(90)"/><g class="cls-7"><path class="cls-8" d="M1443.2,882.88c-272-207-905-364-1282,0Z"/><path class="cls-9" d="M752.2,911.88c375.72-33.43,796.77,378,778,167s-473.28-418.43-849-385-632,249-648.4,511.53C19.59,1416.79,376.48,945.3,752.2,911.88Z"/><g class="cls-10"><path class="cls-11" d="M227.2,882.88c48-44,44.64-30.19,100.14-65,91.54,18.17,50.86,38,96.86,65Z"/></g><g class="cls-12"><path class="cls-13" d="M988.2,882.88c-7-59,32.52,6.78,89.49-49.27,21.9-21.51,63.61,20.64,91,8.45,13-12.08,9.32-26.86,4.3-40.93,22.93,7,52.51,21.58,74,32.29,32.23,21.46,17,36.78,21.23,49.46Z"/></g><g class="cls-12"><path class="cls-14" d="M595.2,882.88C560.83,839,561.35,849.75,556.4,808c-7-59,234.81-98.53,256.3-87.83,34.23,13.12,47.48,122,32.5,162.74Z"/></g><path class="cls-15" d="M1101.35,389.45a36.17,36.17,0,1,0,36.17-36.19A36.17,36.17,0,0,0,1101.35,389.45Z"/><path class="cls-16" d="M328.78,672.12a17.47,17.47,0,1,0,17.47-17.48A17.47,17.47,0,0,0,328.78,672.12Z"/><path class="cls-17" d="M514.29,546.63A20.7,20.7,0,1,0,535,525.92,20.7,20.7,0,0,0,514.29,546.63Z"/><path class="cls-18" d="M26.59,689.67a36.17,36.17,0,1,0,36.17-36.18A36.17,36.17,0,0,0,26.59,689.67Z"/><path class="cls-19" d="M460.83,563.31a5,5,0,1,0,5-5A5,5,0,0,0,460.83,563.31Z"/><path class="cls-19" d="M849.45,636.63a5,5,0,1,0,5-5A5,5,0,0,0,849.45,636.63Z"/><path class="cls-19" d="M586,529.24a2.54,2.54,0,1,0,2.53-2.53A2.54,2.54,0,0,0,586,529.24Z"/><path class="cls-19" d="M175.4,782.21a2.54,2.54,0,1,0,2.54-2.54A2.54,2.54,0,0,0,175.4,782.21Z"/><path class="cls-19" d="M299.67,675.75a5,5,0,1,0,5-5A5,5,0,0,0,299.67,675.75Z"/><path class="cls-19" d="M438.8,608.31a2.54,2.54,0,1,0,2.53-2.53A2.54,2.54,0,0,0,438.8,608.31Z"/><path class="cls-19" d="M723.52,563.93a2.41,2.41,0,1,0,2.4-2.41A2.4,2.4,0,0,0,723.52,563.93Z"/><path class="cls-19" d="M1027.81,519.93a2.41,2.41,0,1,0,2.4-2.4A2.4,2.4,0,0,0,1027.81,519.93Z"/><path class="cls-19" d="M682.23,570.19a.59.59,0,1,0-1.17,0,.59.59,0,0,0,1.17,0Z"/><path class="cls-19" d="M720.81,622.87a.59.59,0,1,0-.58.58A.58.58,0,0,0,720.81,622.87Z"/><path class="cls-19" d="M460.13,516.66a.58.58,0,0,0-.58-.59.59.59,0,1,0,0,1.17A.58.58,0,0,0,460.13,516.66Z"/><path class="cls-19" d="M276.83,707.3a.59.59,0,0,0-.59-.59.59.59,0,0,0,0,1.17A.59.59,0,0,0,276.83,707.3Z"/><path class="cls-19" d="M1142,461.67a.59.59,0,1,0-.59.58A.58.58,0,0,0,1142,461.67Z"/><path class="cls-19" d="M1314.35,648.64a.59.59,0,1,0-1.17,0,.59.59,0,0,0,1.17,0Z"/><path class="cls-19" d="M1098,483.66a.58.58,0,0,0-.58-.58.59.59,0,1,0,0,1.17A.58.58,0,0,0,1098,483.66Z"/><path class="cls-19" d="M1131,498.33a.59.59,0,1,0-.58.58A.58.58,0,0,0,1131,498.33Z"/><path class="cls-19" d="M1274,524a.59.59,0,1,0-1.17,0,.59.59,0,0,0,1.17,0Z"/><path class="cls-19" d="M1046.72,498.33a.59.59,0,1,0-.59.58A.58.58,0,0,0,1046.72,498.33Z"/><path class="cls-19" d="M542.07,610.06a.58.58,0,0,0-.58-.59.59.59,0,1,0,0,1.17A.58.58,0,0,0,542.07,610.06Z"/><path class="cls-19" d="M215.79,727.37a.59.59,0,0,0-.59-.58.59.59,0,0,0,0,1.17A.59.59,0,0,0,215.79,727.37Z"/><path class="cls-19" d="M775.6,549.54a.59.59,0,1,0-.59.59A.58.58,0,0,0,775.6,549.54Z"/><path class="cls-19" d="M779.27,512.88a.59.59,0,0,0-.59-.58.59.59,0,0,0,0,1.17A.59.59,0,0,0,779.27,512.88Z"/><path class="cls-19" d="M863.59,428.56a.59.59,0,0,0-1.17,0,.59.59,0,1,0,1.17,0Z"/><path class="cls-19" d="M609.3,642.27a.91.91,0,1,0,.91-.91A.91.91,0,0,0,609.3,642.27Z"/><path class="cls-19" d="M253.37,758.73a5.4,5.4,0,1,0,5.39-5.39A5.39,5.39,0,0,0,253.37,758.73Z"/><path class="cls-19" d="M1180.91,512.43a5.4,5.4,0,1,0,5.39-5.4A5.39,5.39,0,0,0,1180.91,512.43Z"/><path class="cls-19" d="M507.36,655.19a2.41,2.41,0,1,0,2.41-2.41A2.41,2.41,0,0,0,507.36,655.19Z"/><path class="cls-19" d="M807.77,458.28a2.41,2.41,0,1,0,2.4-2.4A2.41,2.41,0,0,0,807.77,458.28Z"/><path class="cls-19" d="M569,486a2.41,2.41,0,1,0,2.41-2.41A2.41,2.41,0,0,0,569,486Z"/><path class="cls-19" d="M957.59,445.69a2.41,2.41,0,1,0,2.41-2.41A2.4,2.4,0,0,0,957.59,445.69Z"/><path class="cls-20" d="M626.1,417.13a10.44,10.44,0,1,0-1.61-14.66A10.43,10.43,0,0,0,626.1,417.13Z"/><path class="cls-21" d="M146.25,692.27a10.44,10.44,0,1,0-1.61-14.66A10.42,10.42,0,0,0,146.25,692.27Z"/><path class="cls-22" d="M636.7,588.9a10.43,10.43,0,1,0-1.61-14.66A10.42,10.42,0,0,0,636.7,588.9Z"/><path class="cls-23" d="M607.2,565.84a3.15,3.15,0,1,0,3.14-2.83A3,3,0,0,0,607.2,565.84Z"/><path class="cls-23" d="M823.51,499.85a3.14,3.14,0,1,0,3.13-2.83A3,3,0,0,0,823.51,499.85Z"/><path class="cls-23" d="M1087.47,525.51a3.15,3.15,0,1,0,3.13-2.82A3,3,0,0,0,1087.47,525.51Z"/><path class="cls-23" d="M1329.44,587.83a3.14,3.14,0,1,0,3.13-2.82A3,3,0,0,0,1329.44,587.83Z"/><path class="cls-23" d="M760.93,630.94a1.35,1.35,0,1,0,1.35-1.22A1.29,1.29,0,0,0,760.93,630.94Z"/><path class="cls-23" d="M830.59,572.28a1.35,1.35,0,1,0,1.35-1.22A1.28,1.28,0,0,0,830.59,572.28Z"/><path class="cls-23" d="M870.92,513.62a1.35,1.35,0,1,0,1.35-1.21A1.28,1.28,0,0,0,870.92,513.62Z"/><path class="cls-23" d="M668.13,526.93a1.35,1.35,0,1,0,1.35-1.21A1.29,1.29,0,0,0,668.13,526.93Z"/><path class="cls-23" d="M1181.39,570.92a1.35,1.35,0,1,0,1.35-1.21A1.29,1.29,0,0,0,1181.39,570.92Z"/><path class="cls-23" d="M1258.38,600.25a1.35,1.35,0,1,0,1.35-1.21A1.29,1.29,0,0,0,1258.38,600.25Z"/><path class="cls-23" d="M1100.74,574.59c0-.31.6-.57,1.35-.57s1.34.26,1.34.57-.6.57-1.34.57S1100.74,574.91,1100.74,574.59Z"/><path class="cls-23" d="M698.35,504.65a1.35,1.35,0,1,0,1.35-1.21A1.29,1.29,0,0,0,698.35,504.65Z"/><path class="cls-23" d="M251.08,702.62a1.35,1.35,0,1,0,1.35-1.21A1.29,1.29,0,0,0,251.08,702.62Z"/><path class="cls-23" d="M320.74,724.62a1.35,1.35,0,1,0,1.35-1.21A1.28,1.28,0,0,0,320.74,724.62Z"/><path class="cls-23" d="M1160.29,603.64a1.35,1.35,0,1,0,1.35-1.22A1.28,1.28,0,0,0,1160.29,603.64Z"/><path class="cls-23" d="M1398.59,662.29a1.35,1.35,0,1,0,1.35-1.21A1.29,1.29,0,0,0,1398.59,662.29Z"/><path class="cls-24" d="M935.54,385.69a6.41,6.41,0,1,0,6.4-6.41A6.4,6.4,0,0,0,935.54,385.69Z"/><path class="cls-19" d="M904.28,464.45c11.25,2.36,12,3.36,11.88,14.86,2.37-11.25,3.36-12.05,14.86-11.89-11.25-2.37-12-3.36-11.89-14.86C916.77,463.81,915.77,464.61,904.28,464.45Z"/><path class="cls-19" d="M410.4,673.94c7.28,1.53,7.79,2.18,7.69,9.62,1.53-7.28,2.17-7.8,9.61-7.7-7.28-1.52-7.79-2.17-7.69-9.61C418.48,673.53,417.84,674.05,410.4,673.94Z"/><g class="cls-25"><circle class="cls-26" cx="290.92" cy="499.87" r="146.46"/><path class="cls-27" d="M237.35,421.45C283,390.17,344.24,403.5,373.9,449.89,401.06,492.37,385.16,550,347,580.06c-40.74,32-102.72,19.81-134.08-19.58C178.41,517.2,193.3,452.2,237.35,421.45Z"/><g class="cls-28"><path class="cls-29" d="M230.5,435.31c-8.56,23.4-8.14,50.75-.16,76.05,14.42,53.5,74.75,70.87,122.17,54.77a96.78,96.78,0,0,1-10.35,9.48c-38,29.86-95.79,18.47-125-18.26C187.6,520.27,196.93,466.12,230.5,435.31Z"/></g><g class="cls-30"><path class="cls-31" d="M310.06,536.06c0,24.9-19.37,49.82-44.28,33.21-11.07-8.31-5.53-24.9-5.53-36,0-13.84-8.83,3.93-19.37,8.3-14.9,6.17-10.86-4.67-30.43-13.83-7.52-3.52,0-16.61-5.54-22.14-4.28-2.14-7.73-1-11,1.3a98.59,98.59,0,0,1,1.29-17.82c3.41,4.1,6.75,7.44,9.71,5.46,5.54-2.78,5.54-19.37,13.84-24.91,8.3-2.77,16.6,2.78,19.37,11.07,2.76,11.06-8.31,22.13,0,33.2h8.29c2.78-5.53,2.14-16,8.3-16.6,4.63-.42,8.3,11.07,8.3,16.6,33.22-2.77,30.45-52.57,55.35-49.8s-13.84,33.2-8.3,49.8c2.76,5.53,11.06-13.84,19.37-11.07,5.53,0-5.54,11.07-2.78,13.84,23.6,15.74,42.25-10.79,60.62-25.38a101.89,101.89,0,0,1-7.26,44C359.69,549.6,334.87,542.84,310.06,536.06Z"/></g><path class="cls-32" d="M308.05,456.83c16.16,13.81,34.7,18.64,41.43,10.77s-.92-25.43-17.07-39.25S297.72,409.71,291,417.57,291.91,443,308.05,456.83Z"/><path class="cls-32" d="M355.26,494.24c4.51,6.63,10.79,10.23,14,8s2.17-9.36-2.34-16-10.78-10.21-14-8S350.75,487.61,355.26,494.24Z"/></g><g class="cls-10"><path class="cls-33" d="M1067.9,474c23.34-12.62,31.06-41.63,17.79-64.43-12.17-20.89-40.22-26.75-61.4-17-22.58,10.36-30.94,39.44-21,61.46C1014.16,478.17,1045.13,486.06,1067.9,474Z"/><path class="cls-34" d="M1064.13,465a37.06,37.06,0,0,0,14.23-51.54c-9.74-16.71-32.18-21.4-49.12-13.63-18.06,8.29-24.76,31.55-16.82,49.16C1021.14,468.31,1045.91,474.63,1064.13,465Z"/><g class="cls-28"><path class="cls-35" d="M1058.19,464.9c-9.47-1.18-18.73-6.12-26-13.27-15.73-14.29-11.07-37.91,2.73-51.26a37.26,37.26,0,0,0-5,1.87c-16.84,7.72-23.09,29.42-15.69,45.84C1021.7,464.65,1041.81,471,1058.19,464.9Z"/></g><g class="cls-30"><path class="cls-36" d="M1037.78,420.12c-8.49-4.37-20.38-2.13-19.09,9.27.9,5.23,7.53,6.25,11.3,8.19,4.72,2.42-2.88,2.33-6.23,5.16-4.71,4-.3,4.52-.6,12.8-.12,3.17,5.66,2.91,6.57,5.76a3.82,3.82,0,0,1-2.37,3.53,37.62,37.62,0,0,0,6.3,2.68c-.79-1.88-1.35-3.61-.16-4.26,1.92-1.41,7.58,1.5,10.92-.35,2.39-2.35,2-6.16-.38-8.55-3.29-2.89-9-1.06-11.31-5.82.47-.95,1-1.88,1.45-2.84,2.36,0,5.84,2.09,7.11.09,1-1.51-2.32-4.78-4.21-5.74,6.76-10.85,23.27-1.18,26.68-10.15s-13.74-1.1-18.44-5.89c-1.4-1.92,6.66-1.36,7.17-4.67,1-1.89-4.74-.06-5.2-1.49-1.23-10.8,11.08-12.51,19.27-16.21a39.07,39.07,0,0,0-16.28-5.24C1041.86,400.82,1039.82,410.47,1037.78,420.12Z"/></g><path class="cls-37" d="M1063.94,434.85c-1.88-7.93-.28-15.1,3.59-16s8.5,4.78,10.38,12.7.29,15.1-3.57,16S1065.82,442.78,1063.94,434.85Z"/><path class="cls-37" d="M1059.44,412.19c-1.45-2.7-1.58-5.47-.28-6.18s3.58.89,5,3.59,1.59,5.47.28,6.19S1060.92,414.89,1059.44,412.19Z"/></g></g><path class="cls-3" d="M1113.84,655.72c2-.92,5-.18,7.54-.49a40.62,40.62,0,0,1,7.28-.18h.08a5,5,0,0,1,4.77,5.13,5,5,0,0,1-5.35,4.58,6.08,6.08,0,0,1-.87-.12,31.3,31.3,0,0,0-5.4-.79,17.25,17.25,0,0,0-5,.45l-.17.05a4,4,0,0,1-4.86-2.7C1111.35,659.84,1112.14,656.49,1113.84,655.72Z"/><path class="cls-3" d="M1119,655.51c-1.69-1.7-5.64-1.91-7.93-3.12-3-1.57-4-.19-4.16.17-.38,1,4,2.9,4,2.9l-5.79,1.91-5.54.22a1.86,1.86,0,0,0-1.81,1.89,4.77,4.77,0,0,0,3.06,4.19c1.79.71,3.88,1.56,4.65,2,1.46.75,18.4-3.56,18.4-3.56Z"/><path class="cls-4" d="M1216.08,634.57l-2.37,1.9-2.37,1.83c-1.58,1.23-3.2,2.41-4.8,3.6-3.23,2.36-6.49,4.69-9.83,6.93s-6.73,4.47-10.22,6.64c-1.74,1.09-3.54,2.14-5.4,3.19-.93.53-1.88,1.05-2.87,1.58s-2,1-3.15,1.59l-.86.41-1,.43-.5.21-.61.22-.61.21-.53.16a36.07,36.07,0,0,1-3.74.87c-2.29.43-4.4.71-6.52.95s-4.2.38-6.27.5-4.15.2-6.21.25-4.14,0-6.2-.07-4.14-.11-6.22-.27-4.15-.33-6.24-.57q-1.57-.18-3.15-.42c-.53-.08-1.07-.16-1.59-.26a2,2,0,0,1-.79-.44,3.2,3.2,0,0,1-.76-1.07,7.43,7.43,0,0,1,.15-6.48l.17-.33a3,3,0,0,1,.72-1,1.33,1.33,0,0,1,.69-.31c.45,0,.9,0,1.37-.05.92,0,1.84-.1,2.78-.17,1.87-.15,3.75-.3,5.65-.51,3.79-.4,7.6-.86,11.4-1.46q2.85-.43,5.68-.94c1.88-.35,3.76-.7,5.61-1.14s3.67-.9,5.39-1.42c.86-.26,1.7-.54,2.4-.81l.26-.11.22-.09.21-.1.26-.13.51-.27.55-.31c1.5-.85,3.08-1.87,4.65-2.93s3.14-2.15,4.71-3.28c3.13-2.25,6.25-4.57,9.33-7s6.14-4.81,9.18-7.27,6.06-5,9-7.49a9.63,9.63,0,1,1,12.44,14.71l-.15.13Z"/><g class="cls-38"><path class="cls-39" d="M1158.06,665.47c9.86-3.57,20.47-6.49,24-15.38s3.68-13.67,3.68-13.67l5.5,14.06-8.55,11.18-21.19,4.65Z"/></g><path class="cls-3" d="M1116.07,800.59a29.38,29.38,0,0,0-.41-4.84,48.73,48.73,0,0,0-1.22-5.09c-.52-1.7-1.12-3.41-1.79-5.09-.34-.84-.69-1.68-1.06-2.5-.18-.42-.37-.82-.56-1.22l-.28-.59-.14-.28-.07-.13-.06-.09a6.64,6.64,0,0,1,11.56-6.52,6.4,6.4,0,0,1,.39.84l.13.31.09.25.08.21.14.4.27.79c.17.52.34,1,.5,1.56.32,1,.62,2.06.89,3.1q.83,3.12,1.4,6.33a61.85,61.85,0,0,1,.75,6.61,38.94,38.94,0,0,1-.31,7,5.18,5.18,0,0,1-10.31-.77Z"/><path class="cls-2" d="M1127.12,797.76c.26,1.94,1.78,4.66,2.44,6.3a3.65,3.65,0,0,1,.12,2.76l-19,5.35a35.07,35.07,0,0,1-13.87,1.11s-.54-3.43.47-4.53,6.39-1.83,6.39-1.83,6.32-6.59,8.63-7c-2.71-2.52,2-4.53,4.46-3.76s1.8,2.67,1.8,2.67a5.19,5.19,0,0,0,3.53.45c1.64-.56,2.8-3.42,3.43-3.57C1126.91,795.34,1127,796.7,1127.12,797.76Z"/><path class="cls-40" d="M1118,737.88q.93,9,2.49,17.89h0c.65,2.93,1.33,5.87,1.9,8.86q.43,2.24.84,4.5l.39,2.26c.13.76.24,1.53.35,2.29.22,1.53.42,3.07.61,4.62l.26,2.34.06.59a2,2,0,0,1,0,.6,2.22,2.22,0,0,1-1,1.34,14.55,14.55,0,0,1-12.41,2.07l-.73-.21a2.17,2.17,0,0,1-1.36-.86,1.54,1.54,0,0,1-.16-.5l-.12-.51-.48-2c-.33-1.37-.69-2.75-1.05-4.13l-1.13-4.14c-.38-1.39-.78-2.78-1.18-4.17-1.59-5.58-3.26-11.21-5-16.91q-1.29-4.28-2.57-8.65c-.84-2.92-1.64-5.89-2.46-9-.4-1.54-.78-3.11-1.13-4.74s-.7-3.31-1-5.14a35.41,35.41,0,0,1-.42-6.3c0-.63.08-1.3.17-2,0-.38.1-.73.18-1.16l.13-.62a2.76,2.76,0,0,1,.09-.37l.1-.41a17.55,17.55,0,0,1,2.9-5.82,20.63,20.63,0,0,1,3.72-3.75,26.21,26.21,0,0,1,3.49-2.29,41.67,41.67,0,0,1,6.07-2.68,83.52,83.52,0,0,1,10.47-2.8c6.6-1.4,12.84-2.17,19-3s12.18-1.4,18.1-2c5.64-.58,11.19-1.18,16.45-1.88,10.07-1.33,20,4.81,22.39,14.69a19.59,19.59,0,0,1-16.42,24c-.32,0-.63.08-.94.11l-2.8.23a48.25,48.25,0,0,1-9.43-.6c-3.08-.38-6.1-.77-9.08-1.22-5.95-.86-9.4-.89-15.1-1.69-2.84-.41-5.13-.14-7.89-.43s-5.32-.33-7.9-.43c-1.29,0-3.33.11-4.52.15l-1.07.05a3.57,3.57,0,0,0-3.08,2.06l-.36.79a3.48,3.48,0,0,0-.32,1.85Z"/><g class="cls-41"><path class="cls-42" d="M1104.15,772.75c9.54,6,12.8,2.18,15.19-6.25,1-3.35-4.83-17.74-4.83-17.74l-3-7.88c-1.78-2.79-1.9-10.16-.64-12.68l1.92-3.82h0c6-9.19,14.88-13.85,25.49-17.87a49.2,49.2,0,0,1,10.18-2.65l19.95-3.05-38.81,24.05-3.79,18.73,6.78,39.23-28.93,5.44Z"/></g><path class="cls-40" d="M1195.18,696.54s15.62-2.92,18.61,6.12c3.52,10.66,4.42,26.11-11,31.54-5.27,1.85-21.85,2.76-27,4.84Z"/><path class="cls-3" d="M1179.34,823a29.13,29.13,0,0,0-2.17-4.27,50.23,50.23,0,0,0-3-4.21c-1.12-1.38-2.31-2.73-3.56-4-.62-.65-1.26-1.28-1.91-1.9-.32-.32-.64-.62-1-.91l-.48-.44-.23-.2-.11-.1-.08-.06a7.08,7.08,0,1,1,9.54-10.42l.3.32.18.2.15.17.29.32.54.64c.35.42.71.84,1,1.27.69.85,1.34,1.7,2,2.57q1.92,2.61,3.65,5.41a60.27,60.27,0,0,1,3.15,5.91,39.15,39.15,0,0,1,2.33,6.7,5.53,5.53,0,0,1-10.51,3.35Z"/><path class="cls-40" d="M1150.55,758.63s0-.07.43.41c1.58,2,3.31,4,5.07,6q3,3.38,6.13,6.82t6.25,7c2.07,2.4,4.16,4.8,6.19,7.31q1.52,1.88,3,3.81c1,1.28,2,2.58,3,3.93s1.91,2.7,2.85,4.1c.47.69.93,1.4,1.39,2.11l.34.54.17.27a.74.74,0,0,1,.13.3,1.6,1.6,0,0,1-.16.92,4.39,4.39,0,0,1-.35.67c-.08.12-.15.24-.26.39s-.22.3-.35.46A25.9,25.9,0,0,1,1175,811l-1.26.58-.54.25-.45.17a5,5,0,0,1-.72.22,1.58,1.58,0,0,1-.87,0,.47.47,0,0,1-.22-.16l-.18-.2-.35-.39c-.47-.52-.94-1-1.43-1.57-1-1-2-2.07-3-3.09l-3.1-3.1q-1.58-1.56-3.19-3.1c-1.09-1-2.15-2.07-3.24-3.11l-3.29-3.12-6.66-6.31-6.81-6.43c-2.3-2.18-4.6-4.41-7-6.73-1.18-1.16-2.36-2.37-3.54-3.66s-2.42-2.62-3.65-4.18c-.62-.79-1.25-1.6-1.88-2.56a27.15,27.15,0,0,1-1.91-3.33l-.23-.5-.24-.55-.22-.57-.23-.64-.1-.32-.06-.16-.06-.2c-.07-.28-.15-.56-.22-.85a16.94,16.94,0,0,1-.31-1.73,17.62,17.62,0,0,1,.37-6.45,21.17,21.17,0,0,1,1.79-4.79,27.18,27.18,0,0,1,2.13-3.5c.72-1,1.44-1.91,2.15-2.75s1.42-1.6,2.12-2.34a91.8,91.8,0,0,1,8.29-7.39c5.45-4.33,10.84-8.06,16.2-11.7s10.7-7,16-10.36c5.13-3.23,10.2-6.43,15-9.55,8.43-5.48,19.83-4.13,26.23,3.62a19.67,19.67,0,0,1-4.37,29,20.85,20.85,0,0,1-1.82,1.05l-1.23.62c-2.94,1.49-5.92,2.69-8.84,3.9l-8.66,3.52c-5.7,2.31-11.29,4.59-16.68,6.93-2.69,1.17-5.33,2.36-7.88,3.57s-5,2.45-7.29,3.7l-1.87,1.06c-.84.49-2.81,1-2.69,2.25Z"/><g class="cls-43"><path class="cls-42" d="M1161.69,801.52c8.73,5,11.48-3.38,11.45-6.84,0-5.17-13.89-29.54-13.89-29.54l32.82,31.11-19,21.45Z"/><path class="cls-42" d="M1197.43,690.78a3.82,3.82,0,0,0-2.15,5.26c5.41,11.43-1.09,28.84-15.26,35.22-15.8,7.1-29.85,9.58-33.84,12.49-1.64,1.2-2.64,3.6-3.24,6a3.8,3.8,0,0,0,5.11,4.47l38.47-15.54s45.1-17.78,46-18.85c.7-.86-5.82-24.59-8.47-34.12a3.8,3.8,0,0,0-4.93-2.56Z"/></g><path class="cls-44" d="M1179.84,687.26l-5.18,1.77s4.29,2.38,5.65,3.19c4.68,2.78,13.57,5,19.26,9,4.84,3.43,18.9,6.5,18.9,6.5l.91-10.64-23.23-8.38Z"/><path class="cls-4" d="M1179.84,687.26l-5.18,1.77s4.29,2.38,5.65,3.19c4.68,2.78,13.57,5,19.26,9,4.84,3.43,18.9,6.5,18.9,6.5l.91-10.64-23.23-8.38Z"/><path class="cls-4" d="M1216,616.15s-8.7.75-17.16,8.21c-3.59,3.16-14.77,9.56-17.4,20-2.13,8.43,3.92,20.43,3.84,28,0,3.29-6.23,7.88-8.39,12a3,3,0,0,0,2.29,4.48l23.24,4.58s12.61,8.52,17.74,4.56,2.76-16.79,2.76-16.79,12.22-40.45,9.71-52.06S1216,616.15,1216,616.15Z"/><g class="cls-45"><path class="cls-39" d="M1222.75,644.4c-1.58,7.93-19.4,32-22.24,36s.4,8.63,5.9,10.59a32.87,32.87,0,0,0,9.19,2s8.88-6,8.11-14.16,5.49,21.2,5.49,21.2l-15.53,2.76-34.49-14-7.81-5.71s16.1-10.67,16.85-10.7S1222.75,644.4,1222.75,644.4Z"/></g><path class="cls-46" d="M1194,579.82c-3.08,5.3-5,13.34-4.65,29.15s-10.85,33.52-11.74,38.53.45,18.56,3.61,19.13,3.83-8.62,4.42-12.5,1.12-17.57,6-21.67,12.59-7.81,12.88-14.19-4.73-24-4.73-24l3.52-15.21Z"/><path class="cls-4" d="M1203.91,617.59c-2.57,2.48-4.53,12.47-4.53,12.47l6.36-5.76-.26-6.36Z"/><path class="cls-3" d="M1216.48,601.64c.14.43.23.85.33,1.27,0,.21.1.4.14.6l.13.6.5,2.21c.32,1.4.67,2.57,1.05,3.87s.83,2.74,1.28,4.34l.34,1.21.32,1.25.32,1.28c.08.2,0,.46-.48.83a4.65,4.65,0,0,1-.38.29l-.54.33-.75.39-.38.2-.52.24h0a31.13,31.13,0,0,1-8.49,2.51l-.56.08-.43,0-.84.07h-.64a3.43,3.43,0,0,1-.48,0c-.59-.06-.81-.22-.85-.44l-.44-1.29c-.14-.43-.28-.86-.41-1.31s-.27-.89-.39-1.36a35.44,35.44,0,0,1-1.14-6,24.28,24.28,0,0,1,.27-6.76c.1-.54.22-1.08.35-1.6s.28-1,.46-1.51.35-1,.55-1.45.42-.93.67-1.38a6,6,0,0,1,8.09-2.33,5.88,5.88,0,0,1,2.78,3.38Z"/><path class="cls-46" d="M1222,592.34c-.23,10.82,6.16,26.53,8.38,31.7s-8.17-4-8.17-4l-8.56-2.89,1.78-20.13Z"/><path class="cls-4" d="M1199.33,630.27c7.23-10.83,22.44-22.55,36.17-9.18.56,4.7-2.14,8,1.09,10.77s2.19,11.49-.89,14-4-.71-4-.71,3.34-11.8-4.56-17.46a18.63,18.63,0,0,0-19.82-1.52c-4.14,2.13-8.63,6.86-8.63,6.86Z"/><path class="cls-3" d="M1220.16,598.1c-3.6,10.56-12.92,17.24-20.61,14.32-6.25-2.37-9.69-12.87-6.41-26.82,2.56-10.85,11.65-14.07,19.44-11.42S1223.76,587.54,1220.16,598.1Z"/><path class="cls-46" d="M1212.32,591.13c.79,12.07-4.34,28.21-8.66,33.68s-18.37,23.59-17.29,31.62,10.48,12.46,10.66,12.22,2.22-21,9.35-30.86,8.16-18.3,11.09-25.29S1221.4,593,1221.4,593Z"/><path class="cls-2" d="M1189.83,816.67c.86,1.77,3.16,3.87,4.3,5.22a3.61,3.61,0,0,1,1,2.58l-16.34,11.07a41.2,41.2,0,0,1-12,5.78s-1.24.4-1.82-4.79c-.17-1.49,5.48-3.75,5.48-3.75s3.92-8.25,6-9.41c-3.36-1.53.52-4.94,3-5s2.55,2,2.55,2a5.17,5.17,0,0,0,3.49-.69c1.38-1,1.58-4.13,2.13-4.47C1188.86,814.45,1189.36,815.72,1189.83,816.67Z"/><path class="cls-47" d="M1200.5,613.25a5.65,5.65,0,0,1-2.48-1.18c-1.92-1.63-6.41-5.44-6.48-14.68-.07-8.71,1.21-11.8,1.26-11.93a.37.37,0,0,1,.49-.2.37.37,0,0,1,.19.49s-1.27,3.12-1.2,11.64c.07,8.89,4.38,12.55,6.22,14.12,2.16,1.83,5.82,1.15,8.23.71a.36.36,0,0,1,.43.29.37.37,0,0,1-.29.44A16.57,16.57,0,0,1,1200.5,613.25Z"/><path class="cls-48" d="M1214,699.28a60.59,60.59,0,0,1-8.4-3.5c-1.83-.86-3.42-1.6-4.27-1.91a78.67,78.67,0,0,0-8.7-1.94.36.36,0,0,1-.31-.42.39.39,0,0,1,.43-.31,75.62,75.62,0,0,1,8.84,2c.87.32,2.47,1.06,4.33,1.93,3.28,1.53,7.37,3.44,8.65,3.51a.36.36,0,0,1,.34.39.37.37,0,0,1-.39.35A4.46,4.46,0,0,1,1214,699.28Z"/><path class="cls-48" d="M1219,699a.39.39,0,0,1-.27-.23.38.38,0,0,1,.22-.48,6.52,6.52,0,0,0,3.7-5.66,50.74,50.74,0,0,0-.07-7.63,15.54,15.54,0,0,1,0-3.87c.38-1.28,5.21-19.26,5.26-19.44a.37.37,0,0,1,.45-.26.36.36,0,0,1,.26.45c-.2.74-4.88,18.18-5.26,19.46a16.82,16.82,0,0,0,0,3.61,51,51,0,0,1,.07,7.75,7.22,7.22,0,0,1-4.18,6.28A.38.38,0,0,1,1219,699Z"/><path class="cls-48" d="M1231,648.82a.37.37,0,0,1-.28-.44c0-.11,2.35-11.16.41-14.67-2.09-3.77-3.66-5.91-6.5-7.13a.38.38,0,0,1-.19-.49.37.37,0,0,1,.49-.19c3,1.3,4.73,3.62,6.85,7.45s-.23,14.72-.33,15.18a.38.38,0,0,1-.44.29Z"/><path class="cls-48" d="M1124.94,655.22a.37.37,0,0,1,0-.73c.17,0,16.79-1.47,21.18-2.19,5.45-.88,15.4-2.72,18.08-3.95a71.63,71.63,0,0,0,6.53-3.58.37.37,0,0,1,.51.12.38.38,0,0,1-.12.51,73.37,73.37,0,0,1-6.61,3.63c-3.39,1.55-16.76,3.76-18.27,4-4.41.72-21.06,2.18-21.23,2.2Z"/><path class="cls-48" d="M1173.22,644.39a.33.33,0,0,1-.21-.14.37.37,0,0,1,.08-.52c.72-.53,7.9-6,8-6.05a.37.37,0,1,1,.45.59c-.3.23-7.26,5.53-8,6.06A.33.33,0,0,1,1173.22,644.39Z"/><path class="cls-49" d="M1190.44,583.32a1.27,1.27,0,0,0,1.49,1.49c6-1.19,15.13-.78,19.79,5.71,5.15,7.16,6.27,7.34,6.27,7.34s4.42,4.27,5.77,1.68c3.75-7.13,1.51-11,1.85-14.13.55-5.17,5.24-4.11,5.56-5.41s-4-4.48-9.59-9-9.79-5.51-13.17-1.48c-4.18-.65-8.58,1.68-12,4.25-.49.38-.69-1.18-2.73,1.47A20,20,0,0,0,1190.44,583.32Z"/><path class="cls-50" d="M1197,583.36a.36.36,0,0,1-.29-.4c0-.24.67-5.69,2.55-7.88a.39.39,0,0,1,.53,0,.38.38,0,0,1,0,.52c-1.74,2-2.38,7.43-2.38,7.48a.38.38,0,0,1-.41.33Z"/><path class="cls-50" d="M1200.52,583.76a.37.37,0,0,1-.28-.39,30.65,30.65,0,0,1,1.69-7.58.37.37,0,0,1,.48-.21.37.37,0,0,1,.21.48,31.41,31.41,0,0,0-1.65,7.37.37.37,0,0,1-.4.34Z"/><path class="cls-50" d="M1216,594.51s-.06,0-.08,0a.36.36,0,0,1-.17-.49c0-.06,2.61-5.34,2.56-8.76a.36.36,0,0,1,.36-.38.38.38,0,0,1,.38.36c.06,3.61-2.53,8.88-2.64,9.1A.36.36,0,0,1,1216,594.51Z"/><path class="cls-50" d="M1217.36,596.62a.3.3,0,0,1-.18-.1.37.37,0,0,1,0-.52c.93-.92,3.14-4.82,3.2-7.2a.37.37,0,0,1,.38-.36.36.36,0,0,1,.36.38c-.06,2.7-2.43,6.73-3.41,7.71A.38.38,0,0,1,1217.36,596.62Z"/><path class="cls-50" d="M1194.79,580.26a.36.36,0,0,1-.29-.39,9.85,9.85,0,0,1,2.26-5.37.37.37,0,0,1,.52,0,.38.38,0,0,1,0,.53,9.22,9.22,0,0,0-2.06,4.92.37.37,0,0,1-.4.34Z"/><path class="cls-50" d="M1206.65,585.5a.3.3,0,0,1-.16-.08.36.36,0,0,1,0-.52c1.38-1.54,2.55-6.58,2.6-7a.37.37,0,0,1,.72-.11c.11.4-1.25,6-2.77,7.65A.37.37,0,0,1,1206.65,585.5Z"/><path class="cls-50" d="M1210.3,583.91h0a.38.38,0,0,1-.22-.48,43.11,43.11,0,0,0,1.48-4.79.37.37,0,0,1,.43-.3.37.37,0,0,1,.3.43,41.82,41.82,0,0,1-1.51,4.92A.37.37,0,0,1,1210.3,583.91Z"/><path class="cls-50" d="M1210.63,588.55a.26.26,0,0,1-.15-.07.37.37,0,0,1-.06-.52c1.51-1.89,3.28-6.64,3.3-6.68a.37.37,0,0,1,.7.25c-.08.2-1.83,4.92-3.42,6.89A.37.37,0,0,1,1210.63,588.55Z"/><path class="cls-3" d="M1308.17,672.88c-2.39-1.59-5.47-1-8.13-1.76a43.35,43.35,0,0,0-7.89-1.36h-.09a5.58,5.58,0,1,0-1,11.12,6.15,6.15,0,0,0,1,0,32.71,32.71,0,0,1,6,0,18,18,0,0,1,5.38,1.31l.18.08a4.38,4.38,0,0,0,5.73-2.3C1310.19,678,1309.89,674,1308.17,672.88Z"/><path class="cls-4" d="M1214.16,638.76q.24.84.54,1.62l.3.8.32.77c.43,1,.9,2,1.39,3a63.36,63.36,0,0,0,3.28,5.73c1.18,1.86,2.46,3.64,3.75,5.42.64.89,1.29,1.78,2,2.66s1.3,1.77,2,2.64c1.35,1.74,2.67,3.49,4,5.22l2.07,2.58c.7.85,1.37,1.72,2.09,2.56l2.14,2.53c.71.85,1.46,1.66,2.19,2.5s1.47,1.65,2.23,2.46,1.52,1.62,2.31,2.42L1247,684a5.38,5.38,0,0,0,5.32,1.37c.83,0,1.73-.08,2.59-.11l2.63-.16,5.26-.38c1.75-.17,3.5-.32,5.25-.46l5.24-.52c.88-.08,1.75-.14,2.62-.24l2.62-.28c1.75-.19,3.49-.34,5.23-.51s3.48-.37,5.2-.51c.87-.07,1.74-.16,2.6-.21l1.29-.09c.21,0,.43-.13.67-.55a5.16,5.16,0,0,0,.37-.8c.12-.38.25-.75.4-1.37l0-.15a18.31,18.31,0,0,0,.33-6.28,12.53,12.53,0,0,0-.27-1.4,5.4,5.4,0,0,0-.3-.83c-.21-.43-.44-.6-.67-.61l-1.39-.2c-.92-.15-1.84-.25-2.76-.37-1.84-.25-3.67-.44-5.51-.64s-3.66-.29-5.49-.4l-2.74-.16c-.91-.05-1.82-.07-2.73-.1-1.82,0-3.65-.09-5.46-.1s-3.64,0-5.45.07-3.63.14-5.44.26l-2.72.21c-.92.09-1.81.16-2.76.29l7.58,3.63L1230,628a9.29,9.29,0,0,0-16.74,7.6Z"/><g class="cls-51"><path class="cls-39" d="M1295.9,675.51c-12.77,7.59-34.68,6.92-42.38,5.36s-26.26-19.75-26.26-19.75l20.85,27.07,29.47-.82,16.31-1.78Z"/></g><path class="cls-48" d="M1250.45,686h.07c.72-.11,13-1,19.37-1.38l23-2.35a.37.37,0,0,0,.34-.41.38.38,0,0,0-.41-.33l-23,2.36c-.74,0-18.49,1.24-19.42,1.38-.52.07-2.18-.85-3.2-1.55l-4.54-4.66a.37.37,0,0,0-.53.52l4.62,4.73C1247.2,684.58,1249.4,686.05,1250.45,686Z"/><path class="cls-48" d="M1234.53,670.53a.42.42,0,0,0,.21-.08.37.37,0,0,0,0-.52l-2.81-3.5a.37.37,0,0,0-.58.47l2.82,3.49A.34.34,0,0,0,1234.53,670.53Z"/><path class="cls-48" d="M1264,668.32a.37.37,0,0,0,.34-.39.36.36,0,0,0-.38-.35l-7.87.32-14.19-22.07a.37.37,0,0,0-.62.4l14.42,22.43,8.29-.34Z"/><path class="cls-48" d="M1236.08,637.83a.64.64,0,0,0,.18-.06.37.37,0,0,0,.11-.51L1233,632a.37.37,0,1,0-.62.4l3.42,5.31A.35.35,0,0,0,1236.08,637.83Z"/><path class="cls-48" d="M1228.5,626.59a.37.37,0,0,0,.22-.08.39.39,0,0,0,0-.53s-3.54-4.05-10.1-1.91a.38.38,0,0,0-.24.47.39.39,0,0,0,.47.24c6.07-2,9.17,1.53,9.3,1.69A.37.37,0,0,0,1228.5,626.59Z"/><path class="cls-48" d="M1294.64,673.09a.37.37,0,0,0,.35-.35c.19-3.49-1.72-4-1.8-4h-.06l-15.85-.91a.38.38,0,0,0-.39.35.37.37,0,0,0,.35.39l15.8.91c.18.06,1.36.55,1.21,3.21a.37.37,0,0,0,.35.39Z"/><path class="cls-3" d="M1302.58,671.82c2.11-1.66,6.45-1.28,9.15-2.28,3.51-1.31,4.41.42,4.5.85.25,1.18-4.8,2.66-4.8,2.66l6,3.09,6,1.13a2.09,2.09,0,0,1,1.66,2.43,5.47,5.47,0,0,1-4,4.28c-2.07.52-4.49,1.15-5.39,1.49-1.72.62-19.44-7-19.44-7Z"/><path class="cls-3" d="M971.29,765.51a27.34,27.34,0,0,0,.56-4.77,48.31,48.31,0,0,0-.17-5.21c-.17-1.77.68-5.23.36-7-.16-.9-.07-1.51-.27-2.39-.09-.44-.2-.87-.3-1.3l-.16-.63-.08-.3,0-.14,0-.1c-1.24-3.73,1.15-6.36,4.88-7.59s6,.78,7.27,4.51a6.71,6.71,0,0,1,.27,1.07l.07.43,0,.28,0,.22.06.43.1.84c.06.55.12,1.09.17,1.64.1,1.09.17,2.17.22,3.26.11,2.17.12,4.35.05,6.55a59.56,59.56,0,0,1-.66,6.7,39.21,39.21,0,0,1-1.79,6.9,5.55,5.55,0,0,1-10.65-3Z"/><path class="cls-2" d="M985.67,763c1.56,2.2,3.05,9.3,2.4,11.2l-28.23,3.45c-2,.24-9.28-1.23-9.56-1.62s.48-3.18,3.25-3.57,6.39-.42,8.46-1.87,8-6.31,8-6.31,7.17,1.7,9.14,1.46c2.53-.29,3.15-3,4.55-3.69C984.48,761.61,985.15,762.2,985.67,763Z"/><path class="cls-40" d="M1038.67,663.27s9.15-11.76-2.6-20.91-19.34-1.84-19.34-1.84S982,668.2,971.22,684.4s-7.85,22.21-7.85,22.21l8.07,47.84s11.76,9.15,14.9.27-3.63-46.27-3.63-46.27Z"/><g class="cls-52"><path class="cls-42" d="M967.92,735.56c2,9.69,7.3,6.14,10.31,3.88,2.53-1.9,8.51-9,8.51-9l2.81,19a9.07,9.07,0,0,1-8.38,10.38h0a14.47,14.47,0,0,1-14.9-18.25Z"/></g><path class="cls-3" d="M999.15,802.11a29.26,29.26,0,0,0,.84-4.73c.13-1.7.17-3.44.13-5.22s-.21-3.58-.42-5.37c-.11-.9-.23-1.8-.38-2.69-.07-.44-.15-.88-.23-1.32l-.12-.64-.06-.3,0-.14,0-.1a7.12,7.12,0,0,1,13.76-3.68,8.19,8.19,0,0,1,.2,1.08l0,.44,0,.28,0,.22,0,.44.05.84c0,.55.06,1.1.07,1.64,0,1.1.05,2.18,0,3.27q0,3.25-.34,6.55a60.34,60.34,0,0,1-1,6.65,39.56,39.56,0,0,1-2.19,6.78,5.56,5.56,0,0,1-10.46-3.67Z"/><path class="cls-40" d="M998.46,792a4,4,0,0,1-1.25-1.26,2.87,2.87,0,0,1-.42-1.23c0-.81-.06-1.62-.09-2.44l-.16-4.87-.31-9.75-.24-9.76c-.08-3.25-.16-6.5-.21-9.75l-.15-9.74-.09-9.75,0-9.74v-4.87l.56-7.09c1.73-7.13,2-9.28,3.18-11l.12-.17,41.19-54.26.55-.8c4.58-6.71,11.85-2.23,19,1.69a15.56,15.56,0,0,1,5.38,22.43,16.44,16.44,0,0,1-1.08,1.41l-41.19,44.17-1.31,3.42h0q.14,6.61-.24,13.24l-.18,3.11-.65,9.73-.71,9.72c-.23,3.24-.5,6.48-.77,9.72l-.81,9.72-.87,9.72-.44,4.86c-.08.81-.14,1.62-.23,2.43a2.86,2.86,0,0,1-.49,1.2,4,4,0,0,1-1.32,1.18C1011,795.73,1002.29,794.54,998.46,792Z"/><g class="cls-53"><path class="cls-42" d="M1000.51,777.13c8.31,6.75,12.53,2.46,14-.6s7.28-27.5,7.28-27.5l3.59,44.79-27,2.75Z"/><path class="cls-42" d="M1033.08,702.84c17.55-31.81,11.08-41.33,1.36-45.78-4.52-1.68-5.34.52-7.72,2.5-2.47-1.36-11.14-18.53-17.79-16.59-4.4,1.28,9-13.1,9-13.1l39.38,23,23.62,26.46Z"/></g><path class="cls-2" d="M1014.24,801.64c1.68,2.11,3.6,9.1,3.07,11l-28,5.16c-1.93.35-9.33-.66-9.63-1s1-4.35,3.78-4.9,5.6.33,7.58-1.25,7.58-6.77,7.58-6.77,7.26,1.26,9.21.91c2.51-.45,3-3.21,4.32-4C1013,800.37,1013.67,800.93,1014.24,801.64Z"/><path class="cls-46" d="M1046.87,519.45c-5,2.91-4.88,10.43-3.43,12.76s6.87-2.09,6.87-2.09l4.67-8.45Z"/><path class="cls-2" d="M1011.69,597c-5.06,7.65-13.52,7.47-18,4.48s-4.08-11.61,1-19.27,12.82-11.45,17.34-8.46S1016.75,589.38,1011.69,597Z"/><path class="cls-4" d="M1084.71,590.05a22.44,22.44,0,0,0-4-21c-3.25-4-7.31-7.88-11.6-9.48-10-3.74-29.17-2.06-32.93.94s-6,14.29-7.46,20.34c-1.05,4.21-2.81,25.37-2.17,37.68a22.29,22.29,0,0,1-5.24,15.61c-5.39,6.35-12.27,9-6,14.32,2.86,2.42,53.44,13,53.44,13s-2,2.37-.67-11.83a41,41,0,0,0-.82-14.12c-1.9-7.28,8.8-28.66,12.63-35.48.76-1.34,1.27-5.66,1.73-7.12Z"/><path class="cls-54" d="M1048.21,562.13s-10.15,7.08-13.45,12.74-11.46,37.73-11.46,37.73l1.84-29.3,9.91-18.46,13-8.66,3.13,1.81Z"/><path class="cls-2" d="M1052.17,555.13c-9.74-1-16.41,2.75-20.23,9.11s-9.2,43.9-10,49.55-9.76,31.88-9.82,32,12.1-11.38,13.58-18.13,4.15-43.67,8.69-51.71,18-16.15,20.36-17-.92-4.89-.92-4.89Z"/><path class="cls-2" d="M1076.85,567.89c-.58-7.36-3.63-10.53-6.2-12.19s-16.81-3.92-22-1.44-4.34,6.4-4.34,6.4a20.87,20.87,0,0,1,7.64-3.38c3.8-.57,18-2.06,20,8.76S1076.85,567.89,1076.85,567.89Z"/><path class="cls-3" d="M1070.1,565.37c-1.32,3.54-11.12,7.78-17.11,5.55s-5.8-6.94-4.49-10.47,8.22-6.34,14.21-4.11S1071.41,561.84,1070.1,565.37Z"/><path class="cls-3" d="M1051.51,563.35a21.09,21.09,0,0,1-.43-2.81A25.57,25.57,0,0,1,1051,558a34,34,0,0,1,.36-4.63c.22-1.46.51-2.86.85-4.22.17-.69.35-1.36.55-2,.1-.34.2-.68.31-1l.36-1.11a6.45,6.45,0,0,1,12.58,1.63l0,1v.27l0,.36-.06.74c0,.51-.06,1-.07,1.52,0,1,0,2,0,3a22.31,22.31,0,0,0,.35,2.66,9.42,9.42,0,0,0,.62,1.92l.11.23a8.2,8.2,0,0,1-14.8,7.06A9,9,0,0,1,1051.51,563.35Z"/><path class="cls-2" d="M1071.69,561.1c2.51,10.85-13.7,60.34-11.23,70.15s3,33,2.71,37.51,9.16-7.52,9.72-8.49,5.74-27.66,4.6-36.33,6.76-34.7,6.76-34.7,9-11.8,2.57-17.56A95.17,95.17,0,0,0,1071.69,561.1Z"/><g class="cls-55"><path class="cls-56" d="M1083.07,593.25c-.1-.8-7.69,9.15-7.69,9.15s-6.13,20-3.91,27.2,4.38,15.28,4.38,15.28l6.34-14.2,6.82-25.36Z"/></g><path class="cls-3" d="M1135.83,501.21c-1.25-2.38-.08-6.58-.57-9.41-.65-3.7,1.22-4.26,1.65-4.27,1.21,0,1.74,5.2,1.74,5.2l4.14-5.31,2.21-5.69a2.07,2.07,0,0,1,2.69-1.18,5.45,5.45,0,0,1,3.47,4.73c.13,2.13.31,4.62.47,5.57.31,1.8-6.41,11.37-6.41,11.37Z"/><path class="cls-3" d="M1084.92,589.23c8.68-3.71,17.18-7.7,25.65-11.87,2.13-1,4.24-2.09,6.35-3.16l6.34-3.26c2.12-1.12,4.23-2.25,6.39-3.47,1.09-.61,2.17-1.24,3.38-2,.32-.19.63-.39,1-.62l.59-.39.36-.25.41-.3.57-.44a12.38,12.38,0,0,0,1-.93l.68-.79a17.55,17.55,0,0,0,1.06-1.51,20.24,20.24,0,0,0,1.41-2.7c.2-.43.34-.82.5-1.23s.29-.79.4-1.17a39.63,39.63,0,0,0,1.11-4.3,71.67,71.67,0,0,0,1.09-7.77c.44-5,.63-9.76.72-14.49s.16-9.37.34-13.91c.07-2.28.19-4.52.37-6.7a48.14,48.14,0,0,1,.85-6.14l.06-.28a4.58,4.58,0,0,0-8.57-3,44.71,44.71,0,0,0-2.79,7.42c-.71,2.42-1.27,4.81-1.81,7.18-1,4.75-1.87,9.43-2.68,14s-1.61,9.15-2.6,13.42c-.5,2.13-1,4.2-1.62,6a21.67,21.67,0,0,1-1,2.41c-.08.18-.17.31-.24.47s-.16.28-.23.37-.26.35-.31.35,0,0,0-.09a.57.57,0,0,1,.08-.13,6.72,6.72,0,0,1,.68-.64l.21-.18,0,0s0,0,0,0l-.17.07-.53.26c-.84.39-1.83.84-2.84,1.28-2,.89-4.14,1.78-6.26,2.66s-4.25,1.79-6.4,2.68l-3.22,1.32-2.1,2.51c-8.59,3.55-15.5,8.16-24,12l-3,4.21c-5.38,2.4.77,4.49,3.17,9.87S1079.58,591.51,1084.92,589.23Z"/><g class="cls-57"><path class="cls-58" d="M1147.75,479.18s1.24,10.09-1,13.66-2.25,9.39-3,11.45a32.52,32.52,0,0,0-1.81,14.65c.86,6.31-.33,20.69-1.66,24.11s-8.79,16-8.79,16l2.91,9.45,9.28-10.52s13.33-22,13.26-22.8-1-26.21-.75-26.88l5.72-14.73c.81-2.08-2.59-10.8-3.31-13.07S1147.75,479.18,1147.75,479.18Z"/></g><path class="cls-2" d="M1127.24,549.53l-.28-.36-.26-.29-.23-.24-.11-.12-.1-.08a3.33,3.33,0,0,0-.72-.54,1.11,1.11,0,0,0-.54-.13,1.14,1.14,0,0,0-.4.15l-1.55.73-3.1,1.46-6.18,3c-4.1,2-8.2,4-12.25,6.18-2,1.06-4.06,2.1-6.08,3.18l-6,3.29c-4,2.26-8,4.5-11.88,7l-1.07.68a10.49,10.49,0,0,0,10,18.41c4.15-1.9,8.21-4,12.28-6.1l6.06-3.23c2-1.09,4-2.22,6-3.32,1-.56,2-1.11,3-1.68l3-1.72,6-3.43,5.92-3.53,2.95-1.78,1.48-.89a1.45,1.45,0,0,0,.35-.26,1.2,1.2,0,0,0,.23-.52,3.75,3.75,0,0,0,.06-.89v-.13l0-.16,0-.32-.06-.37-.08-.43a30.38,30.38,0,0,0-6-13.18Z"/><g class="cls-59"><path class="cls-56" d="M1097.5,587c20.23-14.36,29.32-27.26,29.32-27.26l1.83,2.89-1.9,15.24Z"/></g><path class="cls-2" d="M1124.33,544.43a5.59,5.59,0,0,0-6.75,8.2c4.26,6.72,7.28,12.7,7.88,15.62A5.59,5.59,0,1,0,1136.4,566c-1.15-5.55-5.74-13.58-9.38-19.33A5.57,5.57,0,0,0,1124.33,544.43Z"/><path class="cls-2" d="M1043.64,558.94c-13.62,2-30.93,17-30.93,17s-6.63,18-11.58,19.51-6.75,2.32-8.14,1.41-.73,2-.73,2,6.09,4.26,10.12,3.77,25.06-12.69,25.06-12.69l9.48-23Z"/><g class="cls-60"><path class="cls-56" d="M1029.2,578.56s-11.16,20.93-20,22.42,6.19,2.31,6.19,2.31l7.2-7Z"/></g><path class="cls-58" d="M1062.79,549.8c-4.08,5.1-7.64,7.44-9.94,6.81a6.86,6.86,0,0,1-1.78-1.1l.63-5.58Z"/><path class="cls-3" d="M1071.05,536.93c-1.88,9-10,20.14-21,17.46-7-1.69-7.14-16-5.26-25A14.14,14.14,0,0,1,1061.69,518C1068.74,519.47,1072.93,528,1071.05,536.93Z"/><path class="cls-46" d="M1049.14,525.19c-10-4.24-2.14-10.72,1.27-11.52s6.06-2.09,13.79.49c8.9,3,7.41,6.09,7.41,6.09s5.35,1.61,6.25,5.62c.75,3.35-1.38,14.6-4.82,18-5.68,5.69-6.32,2-6.6,0s4.4-6,2.45-7.89-3.34,1.42-4.31,1.06-2.55-2-3.39-4.67.3-4.42-.17-5.49-.75-2-3.88-1.58S1050.71,525.86,1049.14,525.19Z"/><path class="cls-47" d="M1050,554.73c-2.21-.82-4-2.82-5.38-6-2.77-6.4.07-20.54.1-20.68a.37.37,0,0,1,.73.15c-.63,2.91-2.47,14.86-.14,20.23,1.77,4.1,4.31,6.1,7.54,5.95,2.1-.1,6.21-.86,8.26-2.49a.37.37,0,1,1,.46.58c-2.19,1.74-6.49,2.55-8.69,2.65A7.25,7.25,0,0,1,1050,554.73Z"/><path class="cls-3" d="M1069.45,540.62c-.72,1.94-2.19,3.18-3.27,2.77s-2.63-3.46-1.91-5.39,3.53-2.4,4.62-2S1070.17,538.69,1069.45,540.62Z"/><path class="cls-3" d="M1000.78,547.7c3-2,4.43-8.74,4.42-10.31s-7.72-6.38-7.72-6.38l-4.83,2.82-.51,7.74,2.37,6.29Z"/><path class="cls-3" d="M994.38,551.45c-.38-1.33-6-11.06-4.84-14.08s3.83-9.61,5.86-8.17,3.26,9.24,2.28,9.76-4.54.29-4.54.29l3.76,9.33Z"/><path class="cls-3" d="M1004.68,578.38l-1.3-1c-.26-1.92-.45-3.88-.65-5.85s-.38-4-.54-6-.33-4-.48-6l-.47-6.08c-.07-1-.16-2-.24-3s-.18-2-.26-3l0-.47A4.22,4.22,0,0,0,996,543a4.41,4.41,0,0,0-3.75,4.11c-.19,2-.33,4-.47,6s-.26,4.17-.36,6.26c-.19,4.18-.3,8.38-.27,12.61a113.22,113.22,0,0,0,.74,13c.14,1.11.32,2.24.54,3.4a35.2,35.2,0,0,0,.9,3.61c.21.63.44,1.28.73,2a14.75,14.75,0,0,0,1.13,2.18,10.94,10.94,0,0,0,2.08,2.47c.49.42,1,1.11,1.76,1.21C1006.68,600.76,1006.34,586.25,1004.68,578.38Z"/><g class="cls-61"><path class="cls-58" d="M992,594.77c1.43,1.52,6.89-4.25,7.78-8.16s.21-27,.21-27l9.27,31.25L1002,605.63,994.12,602Z"/></g><path class="cls-47" d="M997.12,547.94a.36.36,0,0,1-.35,0,.35.35,0,0,1-.12-.47c.67-1.15-.73-4.89-2-5.88-1.5-1.18-1.31-2.32-1.3-2.37a.33.33,0,0,1,.34-.28,19.84,19.84,0,0,0,3.22-.11,1.34,1.34,0,0,0,.62-.38l-.08-3.11a.33.33,0,0,1,.33-.35.34.34,0,0,1,.35.33l.09,3.23a.37.37,0,0,1,0,.18,1.87,1.87,0,0,1-1.05.75,17.39,17.39,0,0,1-3.08.15,2.56,2.56,0,0,0,1,1.43c1.4,1.12,3.06,5.17,2.13,6.75A.3.3,0,0,1,997.12,547.94Z"/><polyline class="cls-62" points="132.31 368.7 59.4 327.03 59.4 410.36 132.31 452.02 132.31 368.7"/><polygon class="cls-49" points="205.22 327.03 132.31 285.37 59.4 327.03 132.31 368.7 205.22 327.03"/><polygon class="cls-63" points="205.22 410.36 132.31 452.02 132.31 368.7 205.22 327.03 205.22 410.36"/><polyline class="cls-62" points="668.55 345.1 540.3 271.81 540.3 418.39 668.55 491.68 668.55 345.1"/><polygon class="cls-49" points="796.81 271.81 668.55 198.52 540.3 271.81 668.55 345.1 796.81 271.81"/><polygon class="cls-63" points="796.81 418.39 668.55 491.68 668.55 345.1 796.81 271.81 796.81 418.39"/><polyline class="cls-62" points="424.69 388.85 387.66 367.69 387.66 410.01 424.69 431.18 424.69 388.85"/><polygon class="cls-49" points="461.73 367.69 424.69 346.53 387.66 367.69 424.69 388.85 461.73 367.69"/><polygon class="cls-63" points="461.73 410.01 424.69 431.18 424.69 388.85 461.73 367.69 461.73 410.01"/><polyline class="cls-62" points="322.62 158.22 217.97 98.43 217.97 218.02 322.62 277.81 322.62 158.22"/><polygon class="cls-49" points="427.26 98.43 322.62 38.63 217.97 98.43 322.62 158.22 427.26 98.43"/><polygon class="cls-63" points="427.26 218.02 322.62 277.81 322.62 158.22 427.26 98.43 427.26 218.02"/></g></g></svg>