<svg xmlns="http://www.w3.org/2000/svg" xmlns:xlink="http://www.w3.org/1999/xlink" viewBox="0 0 1201 1077"><defs><style>.cls-1{fill:none;}.cls-2{isolation:isolate;}.cls-3{clip-path:url(#clip-path);}.cls-4{fill:url(#linear-gradient);}.cls-5{fill:#9ac2fd;}.cls-6{fill:#9ad5ff;}.cls-7{fill:#c5e9ff;}.cls-8{fill:#009378;}.cls-9{fill:#2e3192;}.cls-10{fill:#272b7d;}.cls-11{fill:#fff;}.cls-12,.cls-13{fill:#a5d9ff;}.cls-12{opacity:0.35;}.cls-13{opacity:0.75;}.cls-14{fill:url(#linear-gradient-2);}.cls-15{fill:url(#linear-gradient-3);}.cls-16{fill:#006e73;}.cls-17{fill:#228973;}.cls-18{fill:#00a99d;}.cls-19{fill:#9cff9c;}.cls-20{fill:#444db9;}.cls-21{fill:#21266b;}.cls-22,.cls-26{fill:#356ccc;}.cls-22,.cls-35{opacity:0.5;}.cls-23{fill:#3d45a9;}.cls-24{fill:#2e318f;}.cls-25{fill:#1c5aaf;}.cls-27{fill:#8bb9fb;}.cls-28{fill:#4976dd;}.cls-29{fill:#659ded;}.cls-30{fill:#4e83dc;}.cls-31{opacity:0.65;}.cls-32{opacity:0.8;}.cls-33,.cls-49{opacity:0.4;}.cls-34{fill:#f5faff;}.cls-36,.cls-50{opacity:0.3;}.cls-37{fill:#f2a37c;}.cls-38{fill:#f48c6b;}.cls-39{clip-path:url(#clip-path-2);}.cls-40,.cls-41,.cls-49,.cls-50{fill:#1b1464;}.cls-40,.cls-41,.cls-43,.cls-45,.cls-49,.cls-50,.cls-53{mix-blend-mode:multiply;}.cls-40{opacity:0.14;}.cls-41,.cls-43{opacity:0.26;}.cls-42{fill:#2c348c;}.cls-43,.cls-45{fill:#36121f;}.cls-44{fill:#39b34c;}.cls-45{opacity:0.23;}.cls-46{fill:#289d4b;}.cls-47{fill:#00ff01;}.cls-48{clip-path:url(#clip-path-3);}.cls-51{fill:#272c7c;}.cls-52{clip-path:url(#clip-path-4);}.cls-53{fill:#cc7455;opacity:0.13;}.cls-54{fill:#cc8862;}.cls-55{fill:#057c19;}.cls-56{fill:lime;}.cls-57{fill:#0cc42a;}</style><clipPath id="clip-path"><path class="cls-1" d="M127.77,203.09C23.2,302.17,31.17,440.56,32.33,456.26c3.76,50.71,19.32,85,54.54,156,97.4,196.25,146,294.44,165.87,314.21,190.31,189.23,528.68,109.56,590.77,94.94,93.44-22,146.28-53.61,184-85.9,19.93-17,145.74-128.4,115.88-244.14-15.5-60.09-56.23-113.14-116.3-143.86C915,490.13,872,531.82,759.44,469.82c-102.1-56.24-154-139.58-170.42-162.75-50.53-71.47-47.6-90.83-88.61-126.59C429.88,119,317.89,108.77,230,139.79,216.51,144.56,171.53,161.62,127.77,203.09Z"/></clipPath><linearGradient id="linear-gradient" x1="761.7" y1="797.85" x2="686.64" y2="111.87" gradientUnits="userSpaceOnUse"><stop offset="0.22" stop-color="#6a3a84"/><stop offset="0.45" stop-color="#92478e"/><stop offset="0.97" stop-color="#f868a5"/><stop offset="1" stop-color="#ff6aa7"/></linearGradient><linearGradient id="linear-gradient-2" x1="366.07" y1="842.79" x2="595.84" y2="853.14" gradientUnits="userSpaceOnUse"><stop offset="0.13" stop-color="#008353"/><stop offset="0.41" stop-color="#1c7e89"/><stop offset="0.88" stop-color="#4976de"/></linearGradient><linearGradient id="linear-gradient-3" x1="599.3" y1="630.55" x2="818.37" y2="1085.49" gradientUnits="userSpaceOnUse"><stop offset="0.09" stop-color="#39b54a"/><stop offset="0.22" stop-color="#39b34e"/><stop offset="0.35" stop-color="#3bae5a"/><stop offset="0.48" stop-color="#3da66d"/><stop offset="0.61" stop-color="#409a88"/><stop offset="0.73" stop-color="#448bac"/><stop offset="0.86" stop-color="#4879d6"/><stop offset="0.88" stop-color="#4976de"/></linearGradient><clipPath id="clip-path-2"><path class="cls-1" d="M753.47,555.53a26.73,26.73,0,0,0-22.91,10.75,27.16,27.16,0,0,0-47.84,10.36c-2.59,10.81-5.1,21.51-7.6,32.28s-5,21.53-7.39,32.33-4.78,21.64-7,32.6c-1.12,5.49-2.21,11-3.22,16.69-.5,2.87-1,5.72-1.42,8.89-.22,1.59-.43,3.19-.6,5.3l-.06.87,0,.82,0,1-.07,1.88c-.13,2.61-.27,5.28-.44,8s-.32,5.4-.54,8.11c-.46,5.41-.93,10.84-1.45,16.26s-1.12,10.84-1.72,16.25l-.9,8.12c-.31,2.7-.63,5.41-.89,8.12l-.85,8.12-.43,4-.38,4.06c-.5,5.42-1,10.82-1.36,16.24-.25,2.69-.38,5.41-.57,8.11s-.36,5.4-.53,8.1l-.27,4-.23,4c-.08,1.35-.2,2.65-.29,4l0,.49a1.16,1.16,0,0,0,0,.52,3.25,3.25,0,0,0,1.26,1.27,21.81,21.81,0,0,0,3.22,1.7c.69.32,1.68.7,2.55,1.06l1.59.6.93.34,1,.34a3.32,3.32,0,0,0,.85.18l1,.09c.33,0,.72.07,1,.08l1.69.09c.94,0,2,.07,2.74,0a20.79,20.79,0,0,0,3.63-.31,3.34,3.34,0,0,0,1.69-.74,1.31,1.31,0,0,0,.25-.5l.18-.5c.49-1.35,1-2.72,1.46-4.07l1.38-4c.45-1.35.88-2.71,1.31-4.06.82-2.7,1.67-5.4,2.42-8.12s1.52-5.41,2.19-8.13,1.37-5.42,2-8.15,1.25-5.44,1.79-8.16c1.18-5.45,2.1-10.92,3.12-16.38s1.86-10.94,2.75-16.41l2.68-16.41,1.39-8.22,1.45-8.22,3.07-16.7.38-2.26.19-1.13c0-.14,0-.09,0-.1l0,0s0,0,0,0c.19-.41.48-1.44.81-2.47l.52-1.62.58-1.72,1.25-3.58c.89-2.42,1.85-4.89,2.81-7.37l1.46-3.73,1.56-3.74,3.18-7.5,3.3-7.5,3.33-7.52c1.11-2.51,2.23-5,3.3-7.54q2.94-6.66,5.68-13.4l-.09,4.41c-.13,5.41-.14,10.84-.19,16.26l-.08,16.3,0,8.19c0,2.74,0,5.46.07,8.24l.06,4.16.1,4.26.05,2.14,0,1.08,0,1.23.1,2.45,0,1.22c0,.23,0,.35,0,.5l0,.44c.21,2.28.37,5,.54,7.57l.44,8,.44,8.06.5,8.08,2,32.45c.18,2.71.35,5.42.55,8.13l.64,8.13,1.35,16.29.73,8.15.78,8.18.84,8.19.47,4.13c.09.68.13,1.37.27,2.06.17.34.72.67,1.78,1a29.39,29.39,0,0,0,5.21.89,41.07,41.07,0,0,0,9.7-.26l.14,0a32.79,32.79,0,0,0,5.19-1.13c1-.36,1.58-.7,1.73-1,.09-.66.08-1.32.13-2,.07-1.31.13-2.62.22-3.94l.51-7.95.59-8,.63-8,1.37-16,.72-8,.66-8,2.73-32.19.69-8.08c.23-2.69.41-5.39.61-8.1l.58-8.16c.18-2.78.37-5.47.5-8.54l.05-1.07.06-.82.12-1.64,0-.81.09-1,.16-1.91.34-3.84.38-3.93,1.52-15.88,3.2-32c2-21.37,4.17-42.81,5.81-64.21l.06-.7,0-.49A26.75,26.75,0,0,0,753.47,555.53Z"/></clipPath><clipPath id="clip-path-3"><path class="cls-1" d="M860.09,728.39l0-1.08,0-.9c0-.64.05-1.09.09-1.62l.1-1.44c.16-1.8.33-3.39.52-4.89s.38-2.93.58-4.32c.82-5.57,1.74-10.73,2.69-15.88s2.11-10.14,3.21-15.15l1.67-7.48.85-3.73c.28-1.24.6-2.48.9-3.71q1.82-7.41,3.7-14.76c.61-2.46,1.29-4.9,1.95-7.34l2-7.32c.66-2.44,1.38-4.86,2.1-7.29l1.07-3.64c.37-1.23.75-2.41,1.14-3.68l.16-.51q.2-.61.42-1.23a29.39,29.39,0,0,1,48.41-10.7,27.93,27.93,0,0,1,49.43,18.9l-.08,2.28-1.14,29.3-1.29,29.29-2.86,58.6-1.44,29.3L973.62,794c-.25,4.89-.47,9.77-.77,14.65L972,823.33l-.43,7.32c-.13,2.45-.32,4.89-.48,7.33-.34,4.88-.65,9.76-1,14.65L969.5,860l-.27,3.66-.07.92a2.88,2.88,0,0,1-.14.91c-.29.62-.92,1.23-2.67,1.84a31.47,31.47,0,0,1-20.77,0c-1.75-.61-2.37-1.22-2.67-1.84a2.86,2.86,0,0,1-.13-.91l-.07-.92-.26-3.66-.54-7.32c-.37-4.89-.64-9.77-.95-14.65-.14-2.44-.31-4.88-.43-7.33l-.35-7.32-.71-14.65-1.4-29.29c-.21-4.89-.53-9.77-.81-14.65s-.61-9.77-1-14.65l-.5-7.33-.57-7.32-1.15-14.65c-.36-4.88-.82-9.76-1.22-14.65s-.81-9.76-1.28-14.65l-1.36-14.64-1-9.64c-.38,1-.77,2-1.16,3l-10.69,27.5c-1.77,4.55-3.49,9.1-5.14,13.59s-3.38,8.93-4.8,13.06l-1,3-.79,2.41c-.05.13-.11.32-.14.39s-.1.23-.12.19h0s0,0,0-.07v-.11l0-.11v.06l0,.49-.32,3.9c-.43,5.14-1,10.17-1.49,15.19-1.07,10-2.16,20-3.34,30s-2.31,19.9-3.53,29.83L893,839.19c-.58,4.95-1.16,9.89-1.69,14.78-.26,2.45-.51,4.88-.74,7.27l-.16,1.77-.07.86a1.82,1.82,0,0,1-.28.85,3,3,0,0,1-.81.84c-.18.13-.4.26-.63.4s-.52.28-.78.42-.32.14-.47.21l-.5.23a4.5,4.5,0,0,1-.55.19l-.65.19-.64.2-.76.22-1.75.52-2.43.73a15.2,15.2,0,0,1-7.24.33l-1-.19-.24,0-.21-.06-.41-.11c-.26-.08-.56-.16-.79-.25l-.68-.26-.68-.29-.57-.27c-.2-.08-.36-.16-.52-.24l-.49-.25c-.27-.17-.59-.35-.81-.52a6.38,6.38,0,0,1-.66-.54,3.92,3.92,0,0,1-.84-1,2.32,2.32,0,0,1-.29-1l-.08-1-.14-2c-.18-2.61-.33-5.17-.47-7.71-.27-5.09-.5-10.14-.72-15.18-.46-10.07-.75-20.1-1.07-30.13s-.58-20-.84-30l-.73-29.92-.42-14.77-.13-3.59v-1.4Z"/></clipPath><clipPath id="clip-path-4"><path class="cls-1" d="M862.5,560c0-1.79.12-3.47.23-5.14.2-3.32.47-6.54.77-9.74.63-6.38,1.33-12.68,2.15-18.95.41-3.14.81-6.27,1.25-9.39s1-6.22,1.69-9.3,1.46-6.13,2.4-9.16a67.41,67.41,0,0,1,3.44-9,10.93,10.93,0,0,1,8.51-6,10.79,10.79,0,0,1,11.94,9.51v.12a70.09,70.09,0,0,1,.29,9.48c-.09,3.13-.32,6.24-.65,9.33s-.75,6.16-1.28,9.21l-1.6,9.15c-1,6.09-2.09,12.17-3,18.18-.48,3-.92,6-1.3,8.9-.18,1.44-.35,2.87-.48,4.2,0,.28-.06.56-.08.83.53.55,1.07,1.11,1.62,1.66,2.12,2.13,4.33,4.28,6.53,6.44l13.37,13,13.41,13,11.51,11.34h7.55c4.26,0,7.26,6,7.26,6a43.77,43.77,0,0,1,9.07-2.39c.22-.22.44-.43.68-.64l4.11-3.46,4-3.3,3.86-3.23c1.27-1.07,2.57-2.09,3.83-3.15,5.08-4.15,10-8.27,15-12.16l3.69-2.87,3.66-2.76c2.43-1.78,4.78-3.57,7-5.24,1.08-.85,2.1-1.69,3-2.48.33-.29.64-.58.92-.85L1005,563c-.67-3.08-1.35-6.16-2-9.25l-2-9.26-1-4.64-.94-4.64-1.88-9.28-1.81-9.31q-1.82-9.3-3.43-18.65l-.45-2.61c0-.21-.07-.41-.09-.63a15.86,15.86,0,1,1,31.47-4c.81,6.3,1.72,12.58,2.6,18.86l1.34,9.42,1.42,9.4,2.83,18.82c.46,3.14.95,6.27,1.44,9.41l1.47,9.46.37,2.46.1.68.06.39,0,.2.11.6c.08.54.15,1.08.18,1.63,0,.27,0,.55,0,.82v.59c0,.46-.06.94-.11,1.37a18,18,0,0,1-.45,2.44A19.69,19.69,0,0,1,1033,581a22.16,22.16,0,0,1-1.5,2.64,25.84,25.84,0,0,1-2.84,3.56,41.07,41.07,0,0,1-5,4.49c-1.58,1.22-3.11,2.27-4.61,3.26-3,2-5.87,3.72-8.72,5.4-1.43.83-2.84,1.65-4.25,2.45l-4.14,2.46-4.09,2.42c-1.35.81-2.68,1.63-4,2.45-2.65,1.63-5.27,3.27-7.82,4.92s-5.06,3.3-7.41,5l-1.75,1.3c-.57.44-1.11.91-1.65,1.36l-.42.37a29.11,29.11,0,0,1-2.77,6c-3.27,5.57-20.49,9.59-29.88,8.84s-19.67-17-19.67-17l-.81-1.09-1.23-1.23c-1.3-.92-1.68-1.87-3-2.8-2.55-1.86-5.1-3.7-7.63-5.57-5-3.77-10.07-7.53-15-11.39S884.9,591.1,880,587.1c-2.47-2-4.91-4-7.39-6.13-1.24-1.06-2.48-2.12-3.8-3.34l-.51-.47-.53-.5-.27-.27-.3-.3-.31-.32-.36-.38-.2-.22-.23-.27-.24-.28-.36-.47-.18-.24-.09-.12-.19-.28c-.18-.28-.35-.56-.51-.85l-.23-.43-.15-.3a6.65,6.65,0,0,1-.27-.61l-.13-.3-.08-.23c-.11-.28-.22-.61-.3-.86s-.13-.45-.18-.68-.09-.36-.13-.55c-.09-.38-.13-.62-.18-.92l-.11-.74-.08-.62c-.08-.77-.11-1.39-.14-2s0-1.1,0-1.6C862.47,561.84,862.48,560.92,862.5,560Z"/></clipPath></defs><g class="cls-2"><g id="background"><g class="cls-3"><path class="cls-4" d="M-197.24,827.3c0,1.82,0,3.67.1,5.54,0,1.28.1,2.58.17,3.88.21,3.51.52,7.08.95,10.71,2.36,20,8.16,41.72,17.12,63.63a.36.36,0,0,0,0,.07c.83,2,1.68,4,2.57,6.08,23.12,53.18,64.69,106.9,121,140.89,37.54,22.67,81.61,36.57,131.14,35.71.15,0,88.24.77,220,1.75,292.52,2.15,800.34,5.22,1039.52,2.71,96.64-1,185.62-54.79,250.81-127.31l2.06-2.31q10.58-11.91,20.28-24.44c1.06-1.36,2.1-2.72,3.14-4.07q13.18-17.4,24.77-35.63a501.82,501.82,0,0,0,29.48-53.06,448.46,448.46,0,0,0,34.29-99.63.59.59,0,0,0,0-.13c.34-1.58.67-3.16,1-4.74q2.38-11.79,4-23.63c.37-2.68.72-5.36,1-8.05a363.54,363.54,0,0,0,1-77.24c-5.85-61.62-28.26-121.73-70.43-175.7q-6.06-7.75-13.13-15.2c-64.28-68-185.34-118.55-228.86-188.85C1237,3.18,1041.63-3.12,909.09-14.57,721-30.79,537.3,11.43,363,59.31c-134.84,37-257,53.49-327.56,158.64A417.05,417.05,0,0,0,7.53,266.9C-19.1,321.34-37.22,382.7-56,440.24c-8.45,25.83-17,50.89-26.59,74.21C-97.21,550-115.28,585-132.74,620.08c-9.43,19-18.67,38-27.09,57.1q-4.51,10.27-8.69,20.61-2.78,6.9-5.35,13.83c-.52,1.4-1,2.8-1.55,4.21-4.29,11.86-8.11,23.8-11.3,35.86l-.57,2.17c-.1.37-.19.75-.29,1.12a318.05,318.05,0,0,0-7.53,39.22c-.08.6-.15,1.2-.22,1.8A268.78,268.78,0,0,0-197.24,827.3Z"/><path class="cls-5" d="M1003.13,751.69h697.35l0-.13c.34-1.58.66-3.16,1-4.75q3.18-15.79,5.06-31.67c-16.51-2.29-63-6.76-121.62,4.58-73.54,14.24-196.89-1.18-268.06,9.49s-235.55,17.73-264,13.78S1003.13,751.69,1003.13,751.69Z"/><path class="cls-6" d="M-197,827.17c-.11,72.33,52.2,176.62,141.94,230.8,37.54,22.66,81.62,36.57,131.14,35.7.15,0,88.25.78,220,1.76,292.53,2.15,800.34,5.22,1039.52,2.71,108.2-1.13,206.79-68.4,273.15-154.07,1.07-1.35,2.1-2.71,3.14-4.06,43.62-57.58,74.47-122.29,88.57-188.45h-1887a323.33,323.33,0,0,0-8.39,42.51A269.5,269.5,0,0,0-197,827.17Z"/><path class="cls-7" d="M-219.06,789c.7,72.33,54.19,176,144.54,229.18,95.37-2.49,209.55-12.23,252-31.68,63.73-29.19-79.59-104.18,200-142.93s293.5-73.83,229.28-87.34c-55.85-11.75-665.9-2.87-824-.35A266.12,266.12,0,0,0-219.06,789Z"/><path class="cls-8" d="M-269.84,823.72c0,1.28.11,2.58.18,3.87.2,3.51.52,7.09,1,10.72,2.36,20,8.16,41.72,17.12,63.62a.13.13,0,0,0,0,.08c.83,2,1.68,4,2.57,6.08,29.72-4.24,55.17-8.52,76.36-4.27,42.2,8.43,270-25.32,286.85-42.19,14.22-14.22-43.4-22.44-142.6-29.72q-10.73-.79-22.07-1.56l-4.25-.29-.84-.06-20.86-1.37-.76,0c-.15,0-.3,0-.45,0l-1-.06-4.52-.29-5.15-.32c-4.2-.26-8.44-.52-12.7-.75l-1.06-.06-1.46-.08q-7.67-.4-15.44-.76l-3.46-.15c-9.32-.42-18.73-.76-28.14-1.06l-.82,0h-.19c-.22,0-.44,0-.66,0l-.75,0-1.06,0c-9-.28-18.09-.5-27.11-.67l-2.12,0q-9.5-.19-18.91-.31-6.45-.09-12.83-.13h0l-4.07,0h-1.06l-10.32-.06h-7.91q-11.17,0-22,0Z"/><path class="cls-9" d="M-187,755.51,951.8,751S719.67,502,688.44,501.84c-13.13-.06-39.07,29.62-64.63,51.76A31.62,31.62,0,0,1,575,544.34c-16.57-31.7-41.55-78.76-63.55-117.24,0,0,0,0,0,0l0-.07c-21.47-37.53-40.1-66.88-45.3-65.78-8.38,1.78-25.39,26.39-41.25,52.35-18.44,30.17-35.34,62.15-35.34,62.15v0c-.48-1.24-23.07-59.21-45.15-107.55-4-8.88-8.08-17.42-11.95-25.24-11.62-23.44-21.83-40.28-26.83-39.42-3.49.6-9.9,7.76-15.84,15.35-1,1.26-2,2.53-2.9,3.79A11.14,11.14,0,0,1,268,321.14c-3.37-6.47-7.52-14.14-11.87-21.63-9.61-16.5-20.28-32.11-26.25-32.11-4,0-13,8.92-25.08,23.36C154.42,351.08,50.61,507.66,32.75,511.49h0c-19.12,4-45.31-54.32-74.5-67.27a25.73,25.73,0,0,0-14-2.33c-8.44,25.83-17,50.89-26.59,74.21-32.53,79.32-82.52,155.86-104.1,237.24Z"/><path class="cls-10" d="M-169.87,671.57l182.2,79.56,202.85.12s-57.86-26.78-72.12-48.66S95.64,661,66.4,652.15-21.66,593-33.8,594.77,2,630.61-12.54,646.49c-12.07,13.21-73.91-35.3-113.12-48.16-11.48,17.79-22.78,35.64-33.27,53.72Q-164.57,661.77-169.87,671.57Z"/><path class="cls-11" d="M424.84,413.52c1.31,1.84,2.77,3,4.35,3,7.38,0,20-16.87,27.94-4.22s17.92,12.13,30.05,6.33c9.62-4.6,20.24,4.4,24.21,8.31-21.47-37.53-40.1-66.88-45.3-65.78C457.71,363,440.7,387.57,424.84,413.52Z"/><path class="cls-11" d="M289.72,318.73c7.2,9.71,6.36,17.5,15,13.38,4.73-2.24,16.5,3.74,27.62,10.69-11.62-23.45-21.83-40.28-26.83-39.42C302.07,304,295.66,311.14,289.72,318.73Z"/><path class="cls-11" d="M204.83,290.66c6.25,9.27,15,14.11,16.65,6.69,2.1-9.49,13.71,5.27,24.25,7.91,7.31,1.83,7.27-3.7,10.43-5.85-9.61-16.49-20.28-32.11-26.25-32.11C225.88,267.3,216.88,276.23,204.83,290.66Z"/><path class="cls-10" d="M584.7,750.6s-66.46-64.54-88.13-92.36-79.75-77.44-70.36-44.61S420.63,687,382,663.79s-18.72,27.12-67.39,25.8-80.87-.21-65.11,27.16,34.32,33.54,34.32,33.54Z"/><path class="cls-12" d="M511.44,427.1c.94,3.06,26.22,62.84,16.73,88.93-13.33,36.67,7.12,39.94,19.37,35.59,9-3.18,19.38,8.3,46.26,28.47,22.17,16.62,22.54-20.82,22.54-20.82l-.48-.61A31.7,31.7,0,0,1,575,544.34C558.42,512.64,533.44,465.58,511.44,427.1Z"/><path class="cls-13" d="M-32.89,516.82c11.72,10.95,64.39-5,65.61-5.33-19.12,4-45.31-54.32-74.5-67.27.9,11.71,9.44,28.31,18.38,37.81C-10.75,495.47-44.75,505.75-32.89,516.82Z"/><path class="cls-10" d="M219.72,684.14S215,654.89,189.67,653.3s-26.09-15.81-41.91-19.77-50.61-30.84-60.89-33.21,22.94,29.26,28.47,38.75,43.49,27.68,49,38.75S195.21,695.22,219.72,684.14Z"/><path class="cls-12" d="M348.53,423.77c10.55,23.21-6.85,43.24,9,52.72s32-.75,32-.75v0c-.48-1.24-23.07-59.21-45.15-107.55C340.51,382.12,341.28,407.82,348.53,423.77Z"/><polygon class="cls-14" points="523.88 710.16 469.02 836.91 440.64 842.58 411.32 886.09 398.08 886.09 346.06 981.63 657.25 951.36 654.41 847.31 523.88 710.16"/><path class="cls-15" d="M-17.68,1070.12c349.9,2.57,957.3,6.25,1243.4,3.26,129.41-1.37,247.35-81.82,326.72-184.29C1436.67,847.34,751.39,648.34,571.17,678c-149.44,24.59,61.67,225,53.15,250.53S229.86,937.05,139,948.4C67,957.4,3.92,1016.38-17.68,1070.12Z"/><path class="cls-16" d="M1103.65,913.12h.12a.6.6,0,0,0,.47-.7C1088.06,828.07,1071.62,768,1058,743.3c-.3-.55-.52-.95-.6-1.14a.58.58,0,0,0-.77-.33.59.59,0,0,0-.34.77c.11.27.32.65.67,1.28,13.61,24.6,30,84.54,46.16,168.76A.59.59,0,0,0,1103.65,913.12Z"/><path class="cls-16" d="M1047.2,737.94c1.63,2.79,10.71,8.52,11.5,8s.21-11.18-1.42-14a5.84,5.84,0,1,0-10.08,5.91Z"/><path class="cls-16" d="M1064.85,747.71c-1.27,3-.36,14,.51,14.36s9.27-6.72,10.53-9.77a6,6,0,0,0-11-4.59Z"/><path class="cls-16" d="M1051.52,765.32c3.26.55,13.72-2.8,13.87-3.73s-8.62-7.52-11.88-8.06a6,6,0,1,0-2,11.79Z"/><path class="cls-16" d="M1087.37,804.82c-2.67,4.86-3.15,23.29-1.76,24s16.68-9.53,19.35-14.38a10,10,0,1,0-17.59-9.67Z"/><path class="cls-16" d="M1061.93,831.79c5.34,1.51,23.4-2.18,23.83-3.7s-13-14.11-18.37-15.62a10,10,0,0,0-5.46,19.32Z"/><path class="cls-16" d="M1099.6,826.75c-4.5,5.09-10,27-8.58,28.24s22.48-6.88,27-12a12.28,12.28,0,0,0-18.4-16.28Z"/><path class="cls-16" d="M1063.59,861.77c6.69,1.16,28.21-5.6,28.54-7.51s-17.65-15.53-24.33-16.69a12.28,12.28,0,1,0-4.21,24.2Z"/><path class="cls-16" d="M1105.73,854.34c-4.5,5.09-10,26.95-8.58,28.24s22.48-6.88,27-12a12.28,12.28,0,0,0-18.4-16.28Z"/><path class="cls-16" d="M1069.72,889.36c6.68,1.16,28.2-5.6,28.53-7.51s-17.64-15.53-24.32-16.69a12.28,12.28,0,1,0-4.21,24.2Z"/><path class="cls-16" d="M1121.73,889.87c-6.09,3-19.53,21.1-18.68,22.84s23.4,2.2,29.49-.79a12.28,12.28,0,1,0-10.81-22Z"/><path class="cls-16" d="M1074.85,916.56c6.49,2,28.69-2,29.25-3.89s-15.56-17.61-22-19.6a12.28,12.28,0,0,0-7.2,23.49Z"/><path class="cls-16" d="M1071.78,765.48c-1.29,3.1-.37,14.22.51,14.59s9.42-6.82,10.71-9.92a6.08,6.08,0,0,0-11.22-4.67Z"/><path class="cls-16" d="M1058.65,783.62c3.3.56,13.93-2.84,14.09-3.78s-8.76-7.64-12.07-8.2a6.07,6.07,0,0,0-2,12Z"/><path class="cls-16" d="M1080.06,782.18c-2.19,4.24-2.19,20.09-1,20.71s14.13-8.56,16.32-12.79a8.63,8.63,0,1,0-15.34-7.92Z"/><path class="cls-16" d="M1059.25,807.75c4.7.79,19.8-4,20-5.38s-12.46-10.85-17.16-11.65a8.64,8.64,0,0,0-2.87,17Z"/><path class="cls-17" d="M1067.68,922.78l.09,0a.47.47,0,0,0,.3-.6c-21.46-64.55-40.6-110-53.89-128-.3-.4-.51-.69-.59-.83a.47.47,0,0,0-.83.46c.12.2.32.47.66.93,13.24,17.91,32.33,63.28,53.75,127.74A.48.48,0,0,0,1067.68,922.78Z"/><path class="cls-18" d="M1005.18,791.07c1.57,2,9.29,5.58,9.87,5.13s-1-8.81-2.57-10.82a4.63,4.63,0,1,0-7.3,5.69Z"/><path class="cls-18" d="M1020.05,796.91c-.68,2.52,1.17,11,1.89,11.22s6.58-6.23,7.26-8.76a4.74,4.74,0,0,0-9.15-2.46Z"/><path class="cls-18" d="M1011.41,812.12c2.62.09,10.48-3.62,10.51-4.37s-7.56-5-10.17-5.1a4.74,4.74,0,0,0-.34,9.47Z"/><path class="cls-18" d="M1043.66,839.42c-1.59,4.1-.05,18.61,1.11,19.07s12.12-9.21,13.71-13.3a8,8,0,0,0-14.82-5.77Z"/><path class="cls-18" d="M1026.48,863.24c4.35.63,18.15-4.14,18.33-5.38s-11.7-9.73-16-10.36a8,8,0,0,0-2.28,15.74Z"/><path class="cls-18" d="M1055.54,855.38c-3,4.45-5.08,22.2-3.8,23.06s16.94-7.73,19.94-12.19a9.73,9.73,0,1,0-16.14-10.87Z"/><path class="cls-18" d="M1030.9,886.61c5.37.22,21.56-7.32,21.63-8.85s-15.47-10.37-20.84-10.59a9.73,9.73,0,1,0-.79,19.44Z"/><path class="cls-18" d="M1063.21,876.41c-3,4.45-5.07,22.2-3.8,23.06s16.94-7.73,19.94-12.19a9.73,9.73,0,0,0-16.14-10.87Z"/><path class="cls-18" d="M1038.57,907.64c5.37.22,21.57-7.32,21.63-8.85s-15.47-10.37-20.84-10.59a9.73,9.73,0,0,0-.79,19.44Z"/><path class="cls-18" d="M1079.47,902.64c-4.48,3-13.15,18.6-12.3,19.88s18.6-.7,23.08-3.68a9.73,9.73,0,0,0-10.78-16.2Z"/><path class="cls-18" d="M1045.42,928.47c5.3.88,22.32-4.57,22.57-6.09s-14-12.22-19.35-13.1a9.73,9.73,0,0,0-3.22,19.19Z"/><path class="cls-18" d="M1027.34,810.15c-.69,2.56,1.18,11.2,1.91,11.4s6.69-6.33,7.38-8.9a4.81,4.81,0,1,0-9.29-2.5Z"/><path class="cls-18" d="M1018.91,825.75c2.65.1,10.64-3.67,10.67-4.43s-7.67-5.09-10.33-5.19a4.81,4.81,0,0,0-.34,9.62Z"/><path class="cls-18" d="M1035.57,822.4c-1.28,3.55.37,16,1.38,16.37s10.21-8.19,11.49-11.74a6.84,6.84,0,0,0-12.87-4.63Z"/><path class="cls-18" d="M1021.88,844.63c3.78.14,15.13-5.22,15.17-6.29s-10.9-7.23-14.68-7.37a6.83,6.83,0,1,0-.49,13.66Z"/><path class="cls-16" d="M362.66,971.49l-.14,0a.68.68,0,0,1-.48-.84c25.95-96,50.11-163.91,68-191.27.4-.61.69-1.05.8-1.27a.69.69,0,1,1,1.24.6c-.15.3-.43.72-.88,1.42-17.84,27.24-41.93,95-67.85,190.88A.7.7,0,0,1,362.66,971.49Z"/><path class="cls-16" d="M442.94,774.09c-2.13,3.07-13.1,8.91-14,8.3s.71-12.93,2.84-16a6.77,6.77,0,1,1,11.13,7.7Z"/><path class="cls-16" d="M421.71,783.84c1.21,3.64-.78,16.19-1.81,16.54s-10.13-8.55-11.33-12.18a6.92,6.92,0,0,1,13.14-4.36Z"/><path class="cls-16" d="M435.59,805.32c-3.81.36-15.6-4.41-15.7-5.49s10.61-7.94,14.42-8.29a6.92,6.92,0,1,1,1.28,13.78Z"/><path class="cls-16" d="M390.79,847.85c2.67,5.84,1.63,27.15,0,27.91s-18.44-12.43-21.1-18.27a11.62,11.62,0,1,1,21.14-9.64Z"/><path class="cls-16" d="M417.83,881.18c-6.28,1.28-26.82-4.54-27.18-6.33s16.26-15.17,22.55-16.45a11.62,11.62,0,1,1,4.63,22.78Z"/><path class="cls-16" d="M374.78,872.12c4.75,6.25,9.25,32,7.47,33.33s-25.37-9.88-30.12-16.13a14.22,14.22,0,1,1,22.65-17.2Z"/><path class="cls-16" d="M413.34,915.65c-7.82.77-32.09-8.9-32.3-11.13s21.71-16.41,29.53-17.17a14.22,14.22,0,0,1,2.77,28.3Z"/><path class="cls-16" d="M365.33,903.44c4.75,6.26,9.25,32,7.46,33.34s-25.36-9.88-30.11-16.13a14.22,14.22,0,0,1,22.65-17.21Z"/><path class="cls-16" d="M403.88,947c-7.82.76-32.08-8.9-32.3-11.13s21.71-16.41,29.53-17.18A14.22,14.22,0,1,1,403.88,947Z"/><path class="cls-16" d="M343.79,943.08c6.77,4,20.73,26,19.6,28s-27.22.53-34-3.45a14.22,14.22,0,0,1,14.39-24.53Z"/><path class="cls-16" d="M395.61,977.94c-7.66,1.73-32.94-4.82-33.44-7s19.49-19,27.15-20.73a14.22,14.22,0,0,1,6.29,27.74Z"/><path class="cls-16" d="M412.18,803.77c1.22,3.69-.79,16.45-1.84,16.8s-10.29-8.69-11.51-12.38a7,7,0,1,1,13.35-4.42Z"/><path class="cls-16" d="M425.79,825.84c-3.87.36-15.85-4.48-16-5.58s10.78-8.07,14.64-8.43a7,7,0,0,1,1.31,14Z"/><path class="cls-16" d="M401.19,822.33c2.16,5.08.79,23.39-.66,24s-15.58-11.1-17.74-16.18a10,10,0,0,1,18.4-7.82Z"/><path class="cls-16" d="M423,853.65c-5.5.51-22.52-6.37-22.66-7.94s15.31-11.46,20.81-12A10,10,0,0,1,423,853.65Z"/><path class="cls-19" d="M402.27,962.74l-.07,0a.42.42,0,0,1-.11-.6c35.82-51.68,64.61-87,81.09-99.52.36-.28.63-.48.74-.59a.43.43,0,0,1,.61.62,10.18,10.18,0,0,1-.83.66c-16.4,12.45-45.13,47.72-80.9,99.32A.43.43,0,0,1,402.27,962.74Z"/><path class="cls-19" d="M492,862.16c-1.92,1.39-9.69,2.54-10.08,2s3.17-7.55,5.08-8.93a4.28,4.28,0,1,1,5,6.94Z"/><path class="cls-19" d="M477.25,863.48c-.06,2.41-3.9,9.47-4.59,9.46s-4.22-7.24-4.17-9.66a4.38,4.38,0,0,1,8.76.2Z"/><path class="cls-19" d="M481,879.21c-2.34-.59-8.36-5.93-8.19-6.6s8-2.48,10.35-1.88a4.38,4.38,0,1,1-2.16,8.48Z"/><path class="cls-19" d="M445.25,895.05c.35,4-4.79,16.52-5.94,16.62s-8.35-11.32-8.7-15.36a7.35,7.35,0,1,1,14.64-1.26Z"/><path class="cls-19" d="M454.3,920.64c-4-.57-15-8.39-14.86-9.54s12.91-5.58,16.93-5a7.35,7.35,0,0,1-2.07,14.55Z"/><path class="cls-19" d="M430.57,906.11c1.5,4.73-1.27,21-2.62,21.44s-13-11.26-14.52-16a9,9,0,1,1,17.14-5.45Z"/><path class="cls-19" d="M444.3,940.22c-4.82-1.2-17.22-12.1-16.88-13.48s16.42-5.17,21.24-4a9,9,0,1,1-4.36,17.45Z"/><path class="cls-19" d="M418.29,922.77c1.51,4.73-1.27,21-2.62,21.44s-13-11.26-14.52-16a9,9,0,0,1,17.14-5.44Z"/><path class="cls-19" d="M432,956.88c-4.82-1.2-17.23-12.1-16.88-13.48s16.41-5.17,21.23-4A9,9,0,1,1,432,956.88Z"/><path class="cls-19" d="M397.05,941.81c3.2,3.8,6.83,19.91,5.75,20.83s-16.33-5.46-19.52-9.26a9,9,0,0,1,13.77-11.57Z"/><path class="cls-19" d="M420.53,973.57c-4.93-.59-18.6-9.86-18.43-11.27s15.64-7.18,20.57-6.59a9,9,0,0,1-2.14,17.86Z"/><path class="cls-19" d="M467.34,873.33c0,2.45-4,9.62-4.66,9.61s-4.28-7.36-4.23-9.81a4.45,4.45,0,1,1,8.89.2Z"/><path class="cls-19" d="M470.77,889.36c-2.38-.61-8.49-6-8.32-6.71s8.13-2.52,10.51-1.91a4.45,4.45,0,0,1-2.19,8.62Z"/><path class="cls-19" d="M456.86,882.05c.21,3.49-4.49,14.1-5.49,14.16s-6.92-9.92-7.13-13.4a6.32,6.32,0,0,1,12.62-.76Z"/><path class="cls-19" d="M463.22,905.33c-3.39-.86-12.07-8.56-11.82-9.53s11.55-3.58,14.93-2.71a6.31,6.31,0,1,1-3.11,12.24Z"/><path class="cls-20" d="M791.69,987.67l8.82,18.3a3.46,3.46,0,0,0,.87,1.13l40,34h0l74.8,28.69a3.17,3.17,0,0,1,.49.24l20.08,11.65a3.45,3.45,0,0,0,4-.36q10.38-9,20.14-18.47c1.17-1.12,2.31-2.25,3.45-3.37q14.5-14.45,27.64-29.88a469.36,469.36,0,0,0,32.9-43.37,3.44,3.44,0,0,0-.16-4l-9.66-12.37a3.5,3.5,0,0,0-1.58-1.13L908,931.79a3.37,3.37,0,0,0-1.41-.18l-70.39,5.53a3.54,3.54,0,0,0-1.52.49l-33.39,20.2a3.52,3.52,0,0,0-1.49,1.88l-8.32,25.39A3.42,3.42,0,0,0,791.69,987.67Z"/><path class="cls-21" d="M791.69,987.67l8.82,18.3a3.46,3.46,0,0,0,.87,1.13l40,34h0l69.65,26.71a3.44,3.44,0,0,0,4.65-3.66l-7.43-56.25a3.42,3.42,0,0,0-1.22-2.2l-53.78-44.39a3.44,3.44,0,0,0-2.06-.79l-48.37-1.9a3.44,3.44,0,0,0-3.41,2.37l-7.91,24.13A3.42,3.42,0,0,0,791.69,987.67Z"/><path class="cls-22" d="M908.53,1009.84l7.7,58.35a3.44,3.44,0,0,0,1.69,2.53l18.85,10.94a3.45,3.45,0,0,0,4-.36q10.38-9,20.14-18.47c1.17-1.12,2.31-2.25,3.45-3.37q13.88-13.82,26.49-28.53a3.42,3.42,0,0,0,.73-3.07L984,997a3.45,3.45,0,0,0-3.92-2.58L911.37,1006A3.45,3.45,0,0,0,908.53,1009.84Z"/><path class="cls-23" d="M853.19,960.12l39.39-20.78a3.44,3.44,0,0,0-1.87-6.48l-54.47,4.28a3.54,3.54,0,0,0-1.52.49l-24.67,14.93A3.45,3.45,0,0,0,811.7,959l39.75,1.56A3.39,3.39,0,0,0,853.19,960.12Z"/><polygon class="cls-24" points="865.67 1042.47 842.16 1004.16 831.75 996.73 815 998.24 795.62 990.66 768.81 1008.66 759.47 1038.34 796.55 1053.97 851.28 1057.86 865.67 1042.47"/><polygon class="cls-25" points="842.16 1004.16 832.35 1023.55 838.26 1037.2 833.24 1047.59 851.28 1057.86 865.67 1042.47 842.16 1004.16"/><polygon class="cls-26" points="796.55 1053.97 833.24 1047.59 851.28 1057.86 796.55 1053.97"/><polygon class="cls-24" points="759.47 1038.34 747.86 1031 750.76 1018.37 761.85 1016.33 768.81 1008.66 759.47 1038.34"/><path class="cls-20" d="M279.87,947.22l2.9-.53a15.36,15.36,0,0,0,8.59-4.78l6.51-7.18a15.88,15.88,0,0,1,2.81-2.43l35.11-23.56a15.33,15.33,0,0,1,14.13-1.55l20.49,8a15.16,15.16,0,0,0,7,1l17.82-1.61a15.32,15.32,0,0,1,10.29,2.79l9.67,6.91a15.26,15.26,0,0,1,4.16,4.46L449.56,978a15.33,15.33,0,0,1-1.86,18.49l-10.28,11a15.37,15.37,0,0,1-12.29,4.83l-78.64-5.59a15.15,15.15,0,0,1-4.87-1.16L285.2,981.81a15.78,15.78,0,0,1-2.23-1.17l-8.52-5.38a15.33,15.33,0,0,1-6.75-16.38h0A15.34,15.34,0,0,1,279.87,947.22Z"/><path class="cls-24" d="M413.25,934.85,403,955.12a5.51,5.51,0,0,0-.14,4.66l7.54,17.39a5.49,5.49,0,0,1-.1,4.57l-4.79,9.91a5.5,5.5,0,0,0,2.23,7.16l20.94,11.91a5.47,5.47,0,0,0,6.72-1l17.44-18.65a5.49,5.49,0,0,0,.66-6.62l-30.66-50A5.48,5.48,0,0,0,413.25,934.85Z"/><path class="cls-26" d="M363.15,1004.46l46.57-8.1a1.54,1.54,0,0,1,1,.18l22.91,13a1.51,1.51,0,0,1-.86,2.82l-69.48-4.93A1.51,1.51,0,0,1,363.15,1004.46Z"/><path class="cls-27" d="M373.67,917.34,371.85,932a1.07,1.07,0,0,1-1.83.61l-24.13-24.82a1.07,1.07,0,0,1,1.16-1.74L373,916.21A1.08,1.08,0,0,1,373.67,917.34Z"/><path class="cls-28" d="M515.76,996.48l-17.7-15.88a6.14,6.14,0,0,0-3.41-1.52l-31-3.35a6.12,6.12,0,0,0-2.81.36l-23,8.74a6.05,6.05,0,0,0-3.54,3.55l-4.88,13a6.09,6.09,0,0,0,4.52,8.12l43.46,8.53a6,6,0,0,0,3.1-.19l33.17-11.06A6.09,6.09,0,0,0,515.76,996.48Z"/><path class="cls-23" d="M494.07,984.17l-5.8,11.2a4.27,4.27,0,0,1-2,1.9L476.2,1002a4.25,4.25,0,0,0-2.08,5.59l3.56,8a4.26,4.26,0,0,0,4.28,2.5l25.44-2.39a4.29,4.29,0,0,0,2.29-.93l10-8.13a4.26,4.26,0,0,0,.15-6.48L500.69,983A4.26,4.26,0,0,0,494.07,984.17Z"/><polygon class="cls-29" points="292.46 1068.94 276.86 1054.95 256.95 1052.8 241.35 1058.72 236.51 1071.63 266.64 1077.55 292.46 1068.94"/><polygon class="cls-30" points="276.86 1054.95 271.66 1065 262.87 1069.12 266.64 1077.55 283.85 1075.94 292.46 1068.94 276.86 1054.95"/><path class="cls-16" d="M647.73,1072.62h.13a.66.66,0,0,0,.64-.66c-1.2-93.37-6.82-127.9-16.72-157-.22-.65-.38-1.12-.43-1.34a.64.64,0,0,0-.76-.5.65.65,0,0,0-.51.76c.07.31.22.75.47,1.49,9.86,29,15.46,63.34,16.66,156.58A.65.65,0,0,0,647.73,1072.62Z"/><path class="cls-16" d="M621.29,907.21c1.22,3.29,9.83,11.16,10.77,10.81s2.37-11.93,1.15-15.22a6.35,6.35,0,1,0-11.92,4.41Z"/><path class="cls-16" d="M638.32,921c-1.94,3-3.07,14.91-2.21,15.46s11.21-5.41,13.15-8.43a6.5,6.5,0,1,0-10.94-7Z"/><path class="cls-16" d="M620.68,937.34c3.38,1.21,15.22-.37,15.57-1.34s-7.8-9.7-11.18-10.91a6.51,6.51,0,0,0-4.39,12.25Z"/><path class="cls-16" d="M651.5,986.48c-3.78,4.69-7.81,24.32-6.48,25.4s19.68-7,23.47-11.7a10.91,10.91,0,0,0-17-13.7Z"/><path class="cls-16" d="M619.12,1010.48c5.42,2.63,25.46,2.14,26.21.59s-11.25-17.59-16.68-20.22a10.91,10.91,0,1,0-9.53,19.63Z"/><path class="cls-16" d="M660.4,1012.29c-5.78,4.58-15.88,26.93-14.57,28.58s25.37-3.06,31.16-7.64a13.36,13.36,0,0,0-16.59-20.94Z"/><path class="cls-16" d="M615.17,1042.89c6.93,2.52,31.25-.6,32-2.58s-15.91-20-22.85-22.52a13.35,13.35,0,1,0-9.12,25.1Z"/><path class="cls-16" d="M661.69,1043c-5.79,4.58-15.89,26.93-14.58,28.58s25.38-3.07,31.16-7.65A13.35,13.35,0,1,0,661.69,1043Z"/><path class="cls-16" d="M616.45,1073.6c6.93,2.52,31.26-.61,32-2.58s-15.92-20-22.85-22.53a13.36,13.36,0,0,0-9.13,25.11Z"/><path class="cls-16" d="M642.34,941.39c-2,3.07-3.12,15.15-2.24,15.71s11.38-5.5,13.35-8.57a6.6,6.6,0,1,0-11.11-7.14Z"/><path class="cls-16" d="M624.81,958.29c3.44,1.23,15.46-.37,15.81-1.35s-7.92-9.86-11.35-11.09a6.61,6.61,0,0,0-4.46,12.44Z"/><path class="cls-16" d="M648,960.84c-3.15,4.12-6.18,21.09-5,22s16.76-6.47,19.91-10.58A9.38,9.38,0,1,0,648,960.84Z"/><path class="cls-16" d="M620.85,984.23c4.88,1.75,22-.53,22.46-1.93s-11.26-14-16.14-15.74a9.38,9.38,0,1,0-6.32,17.67Z"/><path class="cls-19" d="M624.85,1066l.13,0a.61.61,0,0,0,.42-.79c-33.87-81.27-28.71-72-41.66-92.87-.35-.57-.65-.95-.76-1.15a.64.64,0,0,0-.86-.27.63.63,0,0,0-.26.86c.14.27.44.63.84,1.28,15,24.3,7.8,17.07,41.49,92.52A.68.68,0,0,0,624.85,1066Z"/><path class="cls-19" d="M571.75,967.78c2,2.78,12.29,7.88,13.08,7.3s-1-11.89-3-14.67a6.24,6.24,0,0,0-10.06,7.37Z"/><path class="cls-19" d="M591.54,976.23c-1,3.37,1.13,14.89,2.1,15.18s9.1-8.13,10.12-11.5a6.38,6.38,0,1,0-12.22-3.68Z"/><path class="cls-19" d="M579.31,996.36c3.51.23,14.25-4.46,14.32-5.46s-10-7-13.49-7.27a6.38,6.38,0,0,0-.83,12.73Z"/><path class="cls-19" d="M621.63,1034.38c-2.3,5.45-.81,25,.75,25.71s16.66-11.92,19-17.36a10.71,10.71,0,0,0-19.72-8.35Z"/><path class="cls-19" d="M597.57,1065.76c5.83,1,24.59-4.86,24.88-6.52s-15.36-13.55-21.19-14.57a10.71,10.71,0,0,0-3.69,21.09Z"/><path class="cls-19" d="M600.82,994.34c-1,3.42,1.15,15.12,2.13,15.42s9.25-8.26,10.28-11.69a6.48,6.48,0,1,0-12.41-3.73Z"/><path class="cls-19" d="M588.86,1015c3.57.24,14.47-4.52,14.54-5.54s-10.13-7.15-13.7-7.39a6.48,6.48,0,1,0-.84,12.93Z"/><path class="cls-19" d="M611.42,1011.15c-1.86,4.73-.14,21.55,1.21,22.08s14.06-10.61,15.92-15.34a9.2,9.2,0,1,0-17.13-6.74Z"/><path class="cls-19" d="M592.11,1040.53c5.08.34,20.57-6.42,20.67-7.87s-14.39-10.17-19.47-10.5a9.2,9.2,0,0,0-1.2,18.37Z"/></g></g><g id="stars" class="cls-31"><g id="stars-2" data-name="stars" class="cls-32"><g class="cls-33"><path class="cls-34" d="M189.84,218.79a.5.5,0,0,0,0-1,.5.5,0,0,0,0,1Z"/></g><path class="cls-34" d="M126.25,257.43a.5.5,0,0,0,0-1,.5.5,0,0,0,0,1Z"/><path class="cls-34" d="M350.12,111.25a.5.5,0,0,0,0-1,.5.5,0,0,0,0,1Z"/><g class="cls-35"><path class="cls-34" d="M418,142.47a.5.5,0,0,0,0-1,.5.5,0,0,0,0,1Z"/></g><g class="cls-36"><path class="cls-34" d="M457.21,211.16a.5.5,0,0,0,0-1,.5.5,0,0,0,0,1Z"/></g><g class="cls-35"><path class="cls-34" d="M323.17,157.74a.5.5,0,0,0,0-1,.5.5,0,0,0,0,1Z"/></g><path class="cls-34" d="M180.74,182.37a.5.5,0,0,0,0-1,.5.5,0,0,0,0,1Z"/><g class="cls-35"><path class="cls-34" d="M383.72,136.88a1.5,1.5,0,0,0,0-3,1.5,1.5,0,0,0,0,3Z"/></g><g class="cls-33"><path class="cls-34" d="M176.38,238.49a1.5,1.5,0,0,0,0-3,1.5,1.5,0,0,0,0,3Z"/></g><g class="cls-33"><path class="cls-34" d="M109.69,237.13a1.5,1.5,0,0,0,0-3,1.5,1.5,0,0,0,0,3Z"/></g><g class="cls-36"><path class="cls-34" d="M334.72,188.22a1.5,1.5,0,0,0,0-3,1.5,1.5,0,0,0,0,3Z"/></g><g class="cls-36"><path class="cls-34" d="M491.16,214.07a1.5,1.5,0,0,0,0-3,1.5,1.5,0,0,0,0,3Z"/></g><path class="cls-34" d="M348.63,263.24a1.5,1.5,0,0,0,0-3,1.5,1.5,0,0,0,0,3Z"/><path class="cls-34" d="M343.91,284.87a.5.5,0,0,0,0-1,.5.5,0,0,0,0,1Z"/><path class="cls-34" d="M371.21,268a.5.5,0,0,0,0-1,.5.5,0,0,0,0,1Z"/><path class="cls-34" d="M284.06,211a.5.5,0,0,0,0-1,.5.5,0,0,0,0,1Z"/><g class="cls-36"><path class="cls-34" d="M385.12,172a.5.5,0,0,0,0-1,.5.5,0,0,0,0,1Z"/></g><g class="cls-35"><path class="cls-34" d="M354.32,146.29a.5.5,0,0,0,0-1,.5.5,0,0,0,0,1Z"/></g><path class="cls-34" d="M350.12,133.76a1.5,1.5,0,0,0,0-3,1.5,1.5,0,0,0,0,3Z"/><path class="cls-34" d="M214.78,175.35a1.5,1.5,0,0,0,0-3,1.5,1.5,0,0,0,0,3Z"/></g><g id="stars-3" data-name="stars"><g class="cls-33"><path class="cls-34" d="M136.4,287.63a.5.5,0,0,0,0-1,.5.5,0,0,0,0,1Z"/></g><path class="cls-34" d="M109,275.37a.5.5,0,0,0,0-1,.5.5,0,0,0,0,1Z"/><path class="cls-34" d="M349.13,193.71a.5.5,0,0,0,0-1,.5.5,0,0,0,0,1Z"/><g class="cls-35"><path class="cls-34" d="M439.24,221a.5.5,0,0,0,0-1,.5.5,0,0,0,0,1Z"/></g><g class="cls-36"><path class="cls-34" d="M491.27,281a.5.5,0,0,0,0-1,.5.5,0,0,0,0,1Z"/></g><g class="cls-35"><path class="cls-34" d="M313.37,234.31a.5.5,0,0,0,0-1,.5.5,0,0,0,0,1Z"/></g><path class="cls-34" d="M124.32,255.82a.5.5,0,0,0,0-1,.5.5,0,0,0,0,1Z"/><g class="cls-35"><path class="cls-34" d="M393.72,216.22a1.5,1.5,0,0,0,0-3,1.5,1.5,0,0,0,0,3Z"/></g><g class="cls-33"><path class="cls-34" d="M118.54,305a1.5,1.5,0,0,0,0-3,1.5,1.5,0,0,0,0,3Z"/></g><g class="cls-33"><path class="cls-34" d="M30,303.77a1.5,1.5,0,0,0,0-3,1.5,1.5,0,0,0,0,3Z"/></g><g class="cls-36"><path class="cls-34" d="M328.7,261.06a1.5,1.5,0,0,0,0-3,1.5,1.5,0,0,0,0,3Z"/></g><g class="cls-36"><path class="cls-34" d="M536.32,283.63a1.5,1.5,0,0,0,0-3,1.5,1.5,0,0,0,0,3Z"/></g><path class="cls-34" d="M347.16,326.57a1.5,1.5,0,0,0,0-3,1.5,1.5,0,0,0,0,3Z"/><path class="cls-34" d="M340.89,345.34a.5.5,0,0,0,0-1,.5.5,0,0,0,0,1Z"/><path class="cls-34" d="M377.12,330.57a.5.5,0,0,0,0-1,.5.5,0,0,0,0,1Z"/><path class="cls-34" d="M261.46,280.81a.5.5,0,0,0,0-1,.5.5,0,0,0,0,1Z"/><g class="cls-36"><path class="cls-34" d="M395.58,246.73a.5.5,0,0,0,0-1,.5.5,0,0,0,0,1Z"/></g><g class="cls-35"><path class="cls-34" d="M354.71,224.31a.5.5,0,0,0,0-1,.5.5,0,0,0,0,1Z"/></g><path class="cls-34" d="M349.13,213.49a1.5,1.5,0,0,0,0-3,1.5,1.5,0,0,0,0,3Z"/><path class="cls-34" d="M169.51,249.81a1.5,1.5,0,0,0,0-3,1.5,1.5,0,0,0,0,3Z"/><g id="stars-4" data-name="stars"><g class="cls-33"><path class="cls-34" d="M64.34,322.31a.5.5,0,0,0,0-1,.5.5,0,0,0,0,1Z"/></g><path class="cls-34" d="M136.86,280.08a.5.5,0,0,0,0-1,.5.5,0,0,0,0,1Z"/><path class="cls-34" d="M311,155.38a.5.5,0,0,0,0-1,.5.5,0,0,0,0,1Z"/><g class="cls-35"><path class="cls-34" d="M415.42,203.85a.5.5,0,0,0,0-1,.5.5,0,0,0,0,1Z"/></g><g class="cls-36"><path class="cls-34" d="M475.73,310.46a.5.5,0,0,0,0-1,.5.5,0,0,0,0,1Z"/></g><g class="cls-35"><path class="cls-34" d="M269.5,227.54a.5.5,0,0,0,0-1,.5.5,0,0,0,0,1Z"/></g><path class="cls-34" d="M154.39,213.28a.5.5,0,0,0,0-1,.5.5,0,0,0,0,1Z"/><g class="cls-35"><path class="cls-34" d="M362.65,194.62a1.5,1.5,0,0,0,0-3,1.5,1.5,0,0,0,0,3Z"/></g><g class="cls-33"><path class="cls-34" d="M257.64,186.33a1.5,1.5,0,0,0,0-3,1.5,1.5,0,0,0,0,3Z"/></g><g class="cls-33"><path class="cls-34" d="M72.66,293.38a1.5,1.5,0,0,0,0-3,1.5,1.5,0,0,0,0,3Z"/></g><g class="cls-36"><path class="cls-34" d="M287.27,274.31a1.5,1.5,0,0,0,0-3,1.5,1.5,0,0,0,0,3Z"/></g><g class="cls-36"><path class="cls-34" d="M528,314.42a1.5,1.5,0,0,0,0-3,1.5,1.5,0,0,0,0,3Z"/></g><path class="cls-34" d="M431.14,207.51a1.5,1.5,0,0,0,0-3,1.5,1.5,0,0,0,0,3Z"/><path class="cls-34" d="M423.87,241.64a.5.5,0,0,0,0-1,.5.5,0,0,0,0,1Z"/><path class="cls-34" d="M465.87,215.39a.5.5,0,0,0,0-1,.5.5,0,0,0,0,1Z"/><path class="cls-34" d="M411,171.15a.5.5,0,0,0,0-1,.5.5,0,0,0,0,1Z"/><g class="cls-36"><path class="cls-34" d="M364.8,249.62a.5.5,0,0,0,0-1,.5.5,0,0,0,0,1Z"/></g><g class="cls-35"><path class="cls-34" d="M317.42,209.77a.5.5,0,0,0,0-1,.5.5,0,0,0,0,1Z"/></g><path class="cls-34" d="M311,189.77a1.5,1.5,0,0,0,0-3,1.5,1.5,0,0,0,0,3Z"/><path class="cls-34" d="M137.72,209.32a1.5,1.5,0,0,0,0-3,1.5,1.5,0,0,0,0,3Z"/></g></g></g><g id="people"><path class="cls-37" d="M672.08,814.85c-.24,1.1-.47,2.08-.72,3.11l-.73,3c-.5,2-1,4-1.55,6q-1.58,6-3.4,12c-1.2,4-2.53,8-4,12A73.27,73.27,0,0,1,656,863.24a6.29,6.29,0,0,1-11.42-5l.21-.71.68-2.34.59-2.58.5-2.73c.17-.9.29-1.86.44-2.79q.79-5.64,1.24-11.5c.31-3.88.56-7.79.72-11.72q.13-2.94.21-5.88l.07-2.94c0-1,0-2,0-2.86a11.57,11.57,0,1,1,22.88,2.35Z"/><path class="cls-38" d="M755.69,811.8l-.43,12.1L754.77,836c-.34,8-.71,16.1-1.17,24.18a7.18,7.18,0,0,1-14.29.48c-1-7.93-2-15.86-3.15-23.78L734.49,825l-1.73-11.86v-.07a11.54,11.54,0,0,1,22.83-3.32A12.08,12.08,0,0,1,755.69,811.8Z"/><path class="cls-11" d="M736.73,592.16a36.62,36.62,0,0,1-.07,4.19c-.08,1.38-.24,2.76-.4,4.12-.35,2.73-.86,5.42-1.45,8.08s-1.32,5.29-2.09,7.9c-.42,1.3-.81,2.61-1.26,3.89s-.89,2.58-1.38,3.86c-3.82,10.25-7.89,20.41-12.33,30.46-1.07,2.52-2.19,5-3.3,7.54l-3.33,7.52-3.3,7.5-3.18,7.5-1.56,3.74-1.46,3.73c-1,2.48-1.92,4.95-2.81,7.37l-1.25,3.58-.58,1.72-.52,1.62c-.33,1-.62,2.06-.81,2.47,0,.06,0,0,0,0l0,0s0,0,0,.1l-.19,1.13-.38,2.26-3.07,16.7-1.45,8.22-1.39,8.22-2.68,16.41c-.89,5.47-1.77,11-2.75,16.41s-1.94,10.93-3.12,16.38c-.54,2.72-1.16,5.44-1.79,8.16s-1.29,5.43-2,8.15-1.45,5.42-2.19,8.13-1.6,5.42-2.42,8.12c-.43,1.35-.86,2.71-1.31,4.06l-1.38,4c-.46,1.35-1,2.72-1.46,4.07l-.18.5a1.31,1.31,0,0,1-.25.5,3.34,3.34,0,0,1-1.69.74,20.79,20.79,0,0,1-3.63.31c-.75,0-1.8,0-2.74,0l-1.69-.09c-.25,0-.64,0-1-.08l-1-.09a3.23,3.23,0,0,1-.82-.17l-1-.35-.93-.34-1.59-.6c-.87-.36-1.86-.74-2.55-1.06a21.81,21.81,0,0,1-3.22-1.7,3.25,3.25,0,0,1-1.26-1.27,1.16,1.16,0,0,1,0-.52l0-.49c.09-1.34.21-2.64.29-4l.23-4,.27-4c.17-2.7.3-5.41.53-8.1s.32-5.42.57-8.11c.39-5.42.86-10.82,1.36-16.24l.38-4.06.43-4,.85-8.12c.26-2.71.58-5.42.89-8.12l.9-8.12q.9-8.11,1.72-16.25c.52-5.42,1-10.85,1.45-16.26.22-2.71.37-5.42.54-8.11s.31-5.37.44-8l.07-1.88,0-1,0-.82.06-.87c.17-2.11.38-3.71.6-5.3.44-3.17.92-6,1.42-8.89,1-5.69,2.1-11.2,3.22-16.69,2.23-11,4.6-21.79,7-32.6s4.89-21.57,7.39-32.33,5-21.47,7.6-32.28a27.17,27.17,0,0,1,53.56,5.12Z"/><path class="cls-11" d="M778.67,584.87c-1.64,21.4-3.76,42.84-5.81,64.21l-3.2,32L768.14,697l-.38,3.93-.34,3.84-.16,1.91-.09,1,0,.81-.12,1.64-.06.82-.05,1.07c-.13,3.07-.32,5.76-.5,8.54l-.58,8.16c-.2,2.71-.38,5.41-.61,8.1l-.69,8.08L761.78,777l-.66,8-.72,8-1.37,16-.63,8-.59,8-.51,7.95c-.09,1.32-.15,2.63-.22,3.94-.05.66,0,1.32-.13,2-.15.33-.68.67-1.73,1a32.79,32.79,0,0,1-5.19,1.13l-.14,0a41.07,41.07,0,0,1-9.7.26,29.39,29.39,0,0,1-5.21-.89c-1.06-.31-1.61-.64-1.78-1-.14-.69-.18-1.38-.27-2.06l-.47-4.13-.84-8.19-.78-8.18-.73-8.15-1.35-16.29-.64-8.13c-.2-2.71-.37-5.42-.55-8.13l-2-32.45-.5-8.08-.44-8.06-.44-8c-.17-2.6-.33-5.29-.54-7.57l0-.44c0-.15,0-.27,0-.5l0-1.22-.1-2.45,0-1.23,0-1.08-.05-2.14-.1-4.26-.06-4.16c0-2.78-.07-5.5-.07-8.24l0-8.19.08-16.3c.05-5.42.06-10.85.19-16.26l.32-16.23.18-8.11.24-8.1.52-16.2c.23-5.41.42-10.79.71-16.21a26.76,26.76,0,0,1,53.45,2.86l0,.49Z"/><g class="cls-39"><path class="cls-40" d="M645.17,809.23c6.79,13.8,34.88-8.31,42.23-41-.56,64.48-11.39,79.9-11.39,79.9l-30.84-2.6-10.65-12.27Z"/><path class="cls-40" d="M729.71,808.23c1.65,10.76,18.89,16.51,25,1,2.06-5.21,11.29-49,11.29-49l-2.53,87.94-41.67,2Z"/><path class="cls-41" d="M756.65,595.46c14.46,17.63,16.57,54.81,17,61.42s12.3-57,12.3-57l-13.09-23.68Z"/></g><path class="cls-11" d="M695,548.88c-9.66,13.68-16.4,45.45-16.4,45.45s83.33-8.63,87-16.53,17-17.9,12-34.6c-19.81-1.84-45.4-1.8-63.36,1.46S695,548.88,695,548.88Z"/><path class="cls-42" d="M665,847.64c4,8.08,0,27.56,0,27.56h-42.6s-1.46-6.08,0-7.73,14-5.32,19.47-17.38h4.59A22.91,22.91,0,0,1,658,845.62C664.44,845.25,665,847.64,665,847.64Z"/><path class="cls-42" d="M756.68,847.64c4,8.08,0,27.56,0,27.56H714.09s-1.47-6.08,0-7.73,13.95-5.32,19.46-17.38h4.59a22.91,22.91,0,0,1,11.56-4.47C756.13,845.25,756.68,847.64,756.68,847.64Z"/><path class="cls-37" d="M768.19,371.3c-5.64,9.91-5.26,17-5.09,20.8a9.07,9.07,0,0,0,2.81,6.06l-23.3-2.63s-10.4,2.54-8.85-1.39c2.65-6.73,1.34-17.61,1.34-17.61Z"/><path class="cls-37" d="M800.73,427.22l.44,1.21.4,1.13.78,2.25,1.48,4.46c1,3,1.91,6,2.81,9,1.81,6,3.51,12,5,18.18s2.85,12.41,3.81,19c.47,3.29.85,6.65,1,10.21.08,1.78.1,3.61,0,5.52,0,1-.1,1.94-.19,2.95l-.08.82-.11.88c-.08.56-.16,1.11-.26,1.64a46.72,46.72,0,0,1-1.45,5.67c-.56,1.74-1.16,3.37-1.79,4.95-1.27,3.15-2.64,6.1-4.06,9-2.86,5.72-5.93,11.13-9.07,16.45s-6.42,10.5-9.76,15.62q-2.49,3.84-5.05,7.64c-1.71,2.55-3.41,5-5.21,7.6a7.83,7.83,0,0,1-13.21-8.39l.06-.1c1.43-2.49,2.9-5.11,4.32-7.69s2.83-5.19,4.21-7.8c2.74-5.24,5.38-10.51,7.87-15.8s4.81-10.61,6.79-15.88c1-2.63,1.88-5.25,2.6-7.77.35-1.25.66-2.49.9-3.64a22.49,22.49,0,0,0,.45-3.12c0-.22,0-.41,0-.6v-.36l0-.19c0-.49-.06-1-.12-1.55-.11-1.08-.28-2.25-.5-3.46-.43-2.42-1.06-5-1.78-7.58-1.48-5.19-3.33-10.53-5.42-15.82s-4.38-10.6-6.8-15.85c-1.21-2.62-2.47-5.23-3.74-7.83L773.15,444l-1-1.9-.49-.94-.46-.86a16.23,16.23,0,0,1,28.12-16.21,15.46,15.46,0,0,1,1.16,2.48Z"/><path class="cls-37" d="M723.79,349c.92,11.57,2.39,18.63,6.43,24.6s17,11.11,23,9.18,15.42-14.68,15.42-15.23-31.3-18-31.3-18Z"/><path class="cls-37" d="M658.61,414.9a51.56,51.56,0,0,1-6.24-.65,31.61,31.61,0,0,1-3.66-.82,24.7,24.7,0,0,1-4.37-1.67l-.4-.21-.28-.16-.58-.31-1.14-.64-1.15-.64-1.1-.66-2.21-1.34-2.13-1.4c-1.44-.92-2.78-1.91-4.16-2.87A195.25,195.25,0,0,1,616,391.13c-4.76-4.37-9.38-8.77-13.78-13.35-2.2-2.3-4.4-4.57-6.54-6.9s-4.25-4.68-6.35-7-4.14-4.76-6.2-7.15L580,353.07l-1.53-1.83-1.56-1.91a7.06,7.06,0,0,1,10.3-9.6l.82.77c1,1,2.16,2,3.26,3l3.34,3.05c2.25,2,4.49,4,6.76,6s4.55,3.92,6.84,5.85,4.63,3.79,6.94,5.65c4.62,3.73,9.39,7.21,14.13,10.55s9.64,6.31,14.47,9c1.22.62,2.42,1.31,3.64,1.88l1.82.88,1.82.8.9.4.9.36.9.35.45.18.23.09c.07,0,.19.08.09,0-.42-.24-.54-.31-.47-.35a1.84,1.84,0,0,1,.62-.09c.64-.06,1.62-.16,2.69-.32"/><path class="cls-43" d="M792.75,494.54c0,.14.06.28.08.42.22,1.21.39,2.38.5,3.46.06.55.1,1.06.12,1.55l0,.19v.36c0,.19,0,.38,0,.6a22.49,22.49,0,0,1-.45,3.12c-.24,1.15-.55,2.39-.9,3.64-.19.66-.39,1.33-.6,2,5.38-1.79,12.22,3.65,13.48,7.1.66,1.82-1.41,11.09-3.8,20.56,2.55-4.39,5-8.86,7.37-13.54,1.42-2.87,2.79-5.82,4.06-9,.63-1.58,1.23-3.21,1.79-4.95a46.72,46.72,0,0,0,1.45-5.67c.1-.53.18-1.08.26-1.64l.11-.88.08-.82c.09-1,.16-2,.19-2.95.07-1.91,0-3.74,0-5.52,0-.35-.05-.68-.07-1h-23Z"/><path class="cls-43" d="M657.38,387.84c-1.07.16-2,.26-2.69.32a1.84,1.84,0,0,0-.62.09c-.07,0,0,.11.47.35.1,0,0,0-.09,0l-.23-.09-.45-.18-.9-.35-.9-.36-.9-.4-1.82-.8-1.82-.88c-1.22-.57-2.42-1.26-3.64-1.88-1.82-1-3.65-2.08-5.47-3.18,2.86,3.95,4.37,7.7,1.69,9.46-5.41,3.55-18.54.64-31.64-5.92q3.72,3.6,7.58,7.14a195.25,195.25,0,0,0,15.24,12.4c1.38,1,2.72,2,4.16,2.87l2.13,1.4,2.21,1.34,1.1.66,1.15.64,1.14.64.58.31.28.16.4.21a24.7,24.7,0,0,0,4.37,1.67,31.61,31.61,0,0,0,3.66.82c1,.17,2,.29,2.88.39l10.3-26.52L663,386.77l-2.09.43C659.64,387.46,658.46,387.68,657.38,387.84Z"/><path class="cls-37" d="M587.57,343.41a3.42,3.42,0,0,0-.36-2.84c-3-4.84-9.33-12.6-12.68-11.47-3.7,1.26-13.42,9.19-12,16.22s7.43,8.07,8.58,7.34a17.09,17.09,0,0,1,3.85-1.24,3.5,3.5,0,0,1,2.21.24l3.3,1.55a3.41,3.41,0,0,0,4.69-2.06Z"/><path class="cls-37" d="M575.83,332.63a4.79,4.79,0,0,1-.56,0l-.48,0a7.18,7.18,0,0,1-.85-.14,7.75,7.75,0,0,1-1.59-.56,24.21,24.21,0,0,0-3.66-1.1l-2-.43-2.06-.38c-1.38-.24-2.83-.48-4.21-.76l-.42-.09a1.52,1.52,0,0,1,.21-3,44.14,44.14,0,0,1,4.6,0,37.62,37.62,0,0,1,4.58.47,22.81,22.81,0,0,1,4.58,1.21,10.45,10.45,0,0,1,4.26,2.89,1.19,1.19,0,0,1-.15,1.67,1.24,1.24,0,0,1-.73.27Z"/><path class="cls-44" d="M826,488.51a3.85,3.85,0,0,0-3.7-.69,165.79,165.79,0,0,0-10.38-51c-8.32-22.68-19.53-31.91-34-35.53a6.78,6.78,0,0,0-2-.73c-19.28-3.79-39.67-7.77-63.06-2.87a220.54,220.54,0,0,1-55-12.61,3.85,3.85,0,0,0-3.07-7.05c-13.66,4.92-22,27.76-22.55,36.42a3.85,3.85,0,0,0,3.6,4.1h.25a3.86,3.86,0,0,0,3.68-2.75c12.31,12.73,36.83,32.8,44.24,45.72,19.09,42.4-5.29,116.29-5.29,116.29s8.25-5.55,15-.51c24,18,44.17,26.67,59.34,28.09,2.79.27,10.88-17.17,10.88-17.17,5.1,9.28,2.2,16.47,4.47,15.67,10.4-3.66,16-13,15.68-26.35-.31-15.13-8.86-40.93-5.48-60.59,1-5.6,3-16.81,5-28.37l5.07,9a3.86,3.86,0,0,0-.9,7.55,28.44,28.44,0,0,0,8,1.05,48.76,48.76,0,0,0,18.41-4c3.89-1.18,6.86-2.8,7.83-4.29a23.44,23.44,0,0,0,4.46-4A3.86,3.86,0,0,0,826,488.51Z"/><path class="cls-45" d="M774.32,477.23c-1,19.33-9.72,39-8.56,45.94,1.41,8.5,16.06,40.76,18.1,59.88a41.27,41.27,0,0,0,.24-5.52c-.31-15.13-8.86-40.92-5.48-60.59,1-5.6,3-16.81,5-28.37,0,0,1.18-6.53,1.18-6.53l8.93-7.93a61,61,0,0,0,4.16-13.28c1.77-9.88,4-15.77,6.35-18.94,12.3,19,14.89,40,11.87,50.18,2.52,3.54,2.07,8.57-5.53,11l.45.32c1.07-.37,2.12-.78,3.14-1.21,3.89-1.18,6.86-2.8,7.83-4.29a23.44,23.44,0,0,0,4.46-4,3.85,3.85,0,0,0-4.19-6.12,165.79,165.79,0,0,0-10.38-51c-8.32-22.68-19.53-31.91-34-35.53a6.78,6.78,0,0,0-2-.73L771,460.83A161.49,161.49,0,0,0,774.32,477.23Z"/><path class="cls-37" d="M707.8,397.14c3.74,8.82,30.32,42.33,44.31,43.43s48-25.56,47.81-26.08-8.48-8.39-16-11.56c-18.69-7.92-30.37-7.88-37.9-8.78C734.77,392.81,707.8,397.14,707.8,397.14Z"/><path class="cls-43" d="M756.52,431.52c1.47,5.87,4,7.52,4,7.52l7.33-3.14L773.47,399c-3.19-1-6.12-1.77-8.82-2.36a8.78,8.78,0,0,1-1.55-4.57c-.17-3.78-.55-10.89,5.09-20.8l-2.5.39a27.78,27.78,0,0,0,3-4.19,6.84,6.84,0,0,0-1.37-.95l-28.66,3c2.17,6.78,5.29,13.12,9.33,15.6s5.5,9.31,6.24,11.59S755.05,425.64,756.52,431.52Z"/><path class="cls-46" d="M752.12,470.34a2.19,2.19,0,0,1-1.93-1.12c-1.42-2.29-5.65-7.06-11-13.1-10-11.22-23.6-26.58-30.17-38.47a.83.83,0,1,1,1.45-.8c6.48,11.73,20,27,29.95,38.18,5.42,6.09,9.69,10.91,11.19,13.32a.56.56,0,0,0,.54.34c4.24-.1,17.81-21.72,25.36-35.32a.84.84,0,0,1,1.13-.32.82.82,0,0,1,.32,1.12c-.05.09-5,9-10.7,17.87-11.7,18.2-15,18.28-16.07,18.3Z"/><path class="cls-46" d="M636.56,419.39a5,5,0,0,1-3.6-1.57c-2.35-2.46-.41-8.16-.18-8.8a.82.82,0,1,1,1.55.56c-.49,1.37-1.57,5.64-.18,7.1a3.28,3.28,0,0,0,3,1,3,3,0,0,0,2.19-1.62c-.5-3.7,5.71-15.82,7-18.29a.83.83,0,1,1,1.46.77c-3.18,6.09-7.4,15.5-6.81,17.38a.8.8,0,0,1,0,.57,4.74,4.74,0,0,1-3.52,2.82A4.91,4.91,0,0,1,636.56,419.39Z"/><path class="cls-46" d="M691.06,513.41H691a.83.83,0,0,1-.76-.89c.87-10.5-1.47-32.31-4-42.81-2.34-9.76-10.08-17.56-10.16-17.63a.83.83,0,0,1,0-1.17.82.82,0,0,1,1.17,0c.33.33,8.15,8.2,10.6,18.42,2.55,10.62,4.91,32.7,4,43.34A.82.82,0,0,1,691.06,513.41Z"/><path class="cls-46" d="M678.76,578.63l-.19,0a.83.83,0,0,1-.61-1l8.72-35.83a.83.83,0,1,1,1.61.39L679.57,578A.83.83,0,0,1,678.76,578.63Z"/><path class="cls-46" d="M752.87,606.21c-8,0-38.33-14.23-39.63-14.84a.82.82,0,1,1,.7-1.49c.31.14,31,14.53,38.78,14.68,3.39-3.6,10.43-16.6,10.51-16.74a.83.83,0,0,1,1.45.79c-.31.57-7.56,14-11,17.36a.82.82,0,0,1-.55.24Z"/><path class="cls-46" d="M768.42,604.71a.84.84,0,0,1-.8-.6.83.83,0,0,1,.57-1c.1,0,10.09-3,12.36-11,2.43-8.55,3.3-15.76,1-29.35-2.17-12.63-5.55-35.39-3.7-45.9,1.74-9.95,7.3-41,7.36-41.36a.83.83,0,0,1,1-.67.81.81,0,0,1,.66,1c0,.31-5.61,31.41-7.36,41.35-1.8,10.27,1.55,32.81,3.71,45.34,2.39,13.9,1.49,21.3-1,30.08s-13,12-13.49,12.18Z"/><path class="cls-46" d="M797.92,507.25a.83.83,0,0,1,0-1.65c3.71-.09,22.93-3.71,28.55-12.76a3.37,3.37,0,0,0,0-3.06c-.84-1.26-2.93-1.35-3-1.35h-1.39c-1.19,1.08-5.72,5.05-8.28,5.14a.83.83,0,0,1-.86-.8.83.83,0,0,1,.8-.85c1.65-.06,5.44-3.05,7.45-4.92a.85.85,0,0,1,.57-.22h1.74c.15,0,3,.11,4.29,2.08.8,1.2.85,2.76.16,4.63,0,.05-.05.1-.07.14-5.92,9.67-25.5,13.51-30,13.62Z"/><path class="cls-46" d="M818.88,461.66a.84.84,0,0,1-.81-.66c-.07-.32-7.11-32.79-16.34-43.21a.82.82,0,0,1,.07-1.16.83.83,0,0,1,1.17.07c9.51,10.74,16.43,42.61,16.72,44a.84.84,0,0,1-.64,1Z"/><path class="cls-46" d="M707.8,398h-.12c-.61-.1-14.95-2.24-19.46-3.26-.29-.06-28.53-6.55-30.88-9.91a.83.83,0,1,1,1.35-1c1.38,2,20.19,7.06,29.89,9.25,4.45,1,19.2,3.21,19.35,3.23a.82.82,0,0,1-.13,1.64Z"/><path class="cls-24" d="M726,340.14c0,19,19.48,38.94,24.79,39,13.49.08,27.45-13.73,27.45-39.52,0-19-17.4-26.15-31-26.15S726,321.18,726,340.14Z"/><path class="cls-24" d="M736.37,317.74c-12.58-2.94-16.34,4.87-17.08,18.36A32.56,32.56,0,0,0,722,349l8.59.21Z"/><path class="cls-37" d="M737.52,359.33c.57,3.93-.34,7.32-2,7.56s-5-5-5.6-8.94,1.87-5.06,3.55-5.3S737,355.4,737.52,359.33Z"/><path class="cls-47" d="M756.3,335.52c.15-4,3.07-8.2,7.24-10.14,4.93-2.3,11.57-1.42,13,1.45.43.83.64,2.26,0,2.9s-1.87.2-2.9,0c-3.6-.74-8.48.42-10.14,2.89-1.37,2.05.25,3.81-1.45,5.8-1.05,1.23-3,2.13-4.34,1.45C756.17,339,756.27,336.29,756.3,335.52Z"/><path class="cls-24" d="M764.06,341.62c.42-1.46-1.3-2.59-2.59-5.18-4.55-9.1,15.53-11.81,25.94,2.91,8.9,12.58,27.89,59.1,4,119.06-7.86,19.76-26.06,43.14-23.31-30.85,1.28-34.39-1.49-66.55-2.75-74.17-.65-3.89-9.31-6-9.31-6C754.1,345,761.66,343.13,764.06,341.62Z"/><path class="cls-38" d="M943.13,856.35c.16.78.31,1.69.46,2.55l.44,2.62q.42,2.64.81,5.28.76,5.3,1.35,10.56c.39,3.52.67,7,.84,10.41,0,.85.09,1.72.1,2.54l0,2.48-.08,2.35-.17,2.12-.08,1A6.85,6.85,0,0,0,960,901.37a68.87,68.87,0,0,0,3.52-12.07q1.23-5.77,2-11.43t1.49-11.33c.21-1.89.41-3.77.6-5.67l.26-2.84c.09-1,.17-1.88.24-2.93l0-.41a12.66,12.66,0,1,0-25.27-1.64A13.35,13.35,0,0,0,943.13,856.35Z"/><path class="cls-38" d="M864.81,856.41c.15.77.31,1.68.46,2.53l.45,2.63q.43,2.63.84,5.27.8,5.29,1.39,10.56c.41,3.51.71,7,.89,10.41,0,.84.1,1.71.11,2.54l0,2.48-.06,2.34-.17,2.12-.07,1a6.85,6.85,0,0,0,13.18,3.1,69.43,69.43,0,0,0,3.47-12.08q1.2-5.78,2-11.44c.55-3.79,1-7.56,1.44-11.34q.3-2.82.57-5.66l.25-2.85c.08-1,.16-1.88.23-2.93l0-.41a12.66,12.66,0,0,0-25.27-1.53A13,13,0,0,0,864.81,856.41Z"/><path class="cls-37" d="M964.53,443.63c-.25-.57-.49-1.13-.7-1.68l-.33-.82c-.12-.28-.22-.47-.32-.71l-.62-1.34-.29-.67c-.1-.2-.19-.4-.28-.6q-.29-.6-.54-1.2l-.51-1.17c-.33-.75-.63-1.52-.92-2.27a39.71,39.71,0,0,1-2.53-8.77c-.45-2.95-.51-6-1.09-8.74a21.55,21.55,0,0,0-1.2-3.94l-.4-.87a1.44,1.44,0,0,0-.73-.74,8.9,8.9,0,0,0-1.69-.3l-.29,0c-.05,0-.11,0-.16,0l-.14.05c-.22.07-.46.14-.69.19a11.35,11.35,0,0,1-1.79.26,8.59,8.59,0,0,0-17.14,1c0,.37,0,.75,0,1.13v1c0,.47,0,1,0,1.44s0,.83,0,1.24l.07,1.2.33,4.55c.26,3,.5,5.86.67,8.72.07,1.44.12,2.86.15,4.27,0,.69,0,1.4,0,2.1s0,1.37,0,2.06-.07,1.32-.14,2c0,.34-.07.65-.12.95l-.13.92-.06.46-.09.4-.22.78a2.08,2.08,0,0,1-.11.35l-.15.24c-.09.16-.2.32-.3.47a19.65,19.65,0,1,0,34.58,2.76Z"/><path class="cls-11" d="M925.49,632.9l.89,7.32.8,7.33,1.59,14.65,1.46,14.65,1.36,14.64c.47,4.89.85,9.77,1.28,14.65s.86,9.77,1.22,14.65l1.15,14.65.57,7.32.5,7.33c.33,4.88.69,9.76,1,14.65s.6,9.76.81,14.65l1.4,29.29.71,14.65.35,7.32c.12,2.45.29,4.89.43,7.33.31,4.88.58,9.76.95,14.65l.54,7.32.26,3.66.07.92a2.86,2.86,0,0,0,.13.91c.3.62.92,1.23,2.67,1.84a31.47,31.47,0,0,0,20.77,0c1.75-.61,2.38-1.22,2.67-1.84a2.88,2.88,0,0,0,.14-.91l.07-.92.27-3.66.56-7.32c.38-4.89.69-9.77,1-14.65.16-2.44.35-4.88.48-7.33l.43-7.32.85-14.65c.3-4.88.52-9.76.77-14.65l.72-14.64,1.44-29.3,2.86-58.6,1.29-29.29,1.14-29.3.08-2.28a27.94,27.94,0,1,0-55.84-2.16A29.71,29.71,0,0,0,925.49,632.9Z"/><path class="cls-11" d="M882.73,624.16c-.39,1.27-.77,2.45-1.14,3.68l-1.07,3.64c-.72,2.43-1.44,4.85-2.1,7.29l-2,7.32c-.66,2.44-1.34,4.88-1.95,7.34q-1.87,7.35-3.7,14.76c-.3,1.23-.62,2.47-.9,3.71l-.85,3.73-1.67,7.48c-1.1,5-2.18,10-3.21,15.15s-1.87,10.31-2.69,15.88c-.2,1.39-.4,2.83-.58,4.32s-.37,3.09-.52,4.89l-.1,1.44c0,.53-.07,1-.09,1.62l0,.9,0,1.08v1.4l.13,3.59.42,14.77.73,29.92c.26,10,.5,20,.84,30s.61,20.06,1.07,30.13c.22,5,.45,10.09.72,15.18.14,2.54.29,5.1.47,7.71l.14,2,.08,1a2.32,2.32,0,0,0,.29,1,3.92,3.92,0,0,0,.84,1,6.38,6.38,0,0,0,.66.54c.22.17.54.35.81.52l.49.25c.16.08.32.16.52.24l.57.27.68.29.68.26c.23.09.53.17.79.25l.41.11.21.06.24,0,1,.19a15.2,15.2,0,0,0,7.24-.33l2.43-.73,1.75-.52.76-.22.64-.2.65-.19a4.5,4.5,0,0,0,.55-.19l.5-.23c.15-.07.34-.14.47-.21s.57-.29.78-.42.45-.27.63-.4a3,3,0,0,0,.81-.84,1.82,1.82,0,0,0,.28-.85l.07-.86.16-1.77c.23-2.39.48-4.82.74-7.27.53-4.89,1.11-9.83,1.69-14.78l3.56-29.74c1.22-9.93,2.37-19.87,3.53-29.83s2.27-19.93,3.34-30c.53-5,1.06-10,1.49-15.19l.32-3.9,0-.49V730l0,0,0,.11v.11s0,.08,0,.07h0s.08-.12.12-.19.09-.26.14-.39l.79-2.41,1-3c1.42-4.13,3.08-8.6,4.8-13.06s3.37-9,5.14-13.59l10.69-27.5c.91-2.29,1.77-4.6,2.65-6.91l2.64-6.92c.9-2.3,1.74-4.61,2.6-6.92l1.29-3.46,1.25-3.42a29.39,29.39,0,0,0-55.23-20.14q-.22.62-.42,1.23Z"/><g class="cls-48"><g class="cls-35"><path class="cls-49" d="M973.36,826.81c-1.05,5.87-3.55,17.18-9.64,17.53-17.27,1-25.62-51.51-25.62-51.51l1.83,76.76,8.53,25.8,58.08-24.47-17.66-38.38Z"/><path class="cls-49" d="M895.13,821.14c-1.6,5.76-5.14,16.83-11.31,16.66-17.48-.49-21.09-53.55-21.09-53.55L857.56,861l6.23,26.44L924.51,868l-14.28-39.78Z"/></g></g><path class="cls-42" d="M1015.28,469.36c-24.51-30.91-37.6-34.87-67.55-36-14.31-.55-32.73,3.6-45.07,8.31-14.94,5.7-32,21.07-27.83,36.52,7.68,28.46,18.59,73.95,16.53,95.79-1,10-10,30.39-13,51.45,15.3,10.46,58.64,61.06,106.23.57,0,0-6.46-46.11-.11-70.42S1015.28,469.36,1015.28,469.36Z"/><path class="cls-50" d="M890.41,551.06l3-.23s5.27-23.77,5.24-28.42-.69-14.28-.69-14.28,10,18.84,11.3,37.26S908,587.53,908,587.53l5.83,14.07,28.27,19.82L965,612.47l17.27-10.87c.84,13.75,2.33,24.38,2.33,24.38a113.28,113.28,0,0,1-9.48,10.69c-12.48,5.63-31.34,12.36-42.85,8-18.37-7-23.45-25.38-32.26-22.87-4,1.13-9.6,5.13-14.59,9.19-2.76-2.28-5.13-4.23-7.05-5.54,3-21.06,12-41.41,13-51.45C891.93,567.87,891.5,559.94,890.41,551.06Z"/><ellipse class="cls-37" cx="938.41" cy="397.97" rx="17.85" ry="24.95" transform="translate(-22.07 56.68) rotate(-3.42)"/><path class="cls-51" d="M927.43,397.5c.82,13.76,9.47,24.44,19.3,23.85s23.25-17.14,22.43-30.9-15.56-19.51-25.4-18.92S926.61,383.75,927.43,397.5Z"/><path class="cls-24" d="M914.28,383.28c.88,14.71,15,25.83,31.64,24.84s27.58-1.7,29.59-16.29c3.28-23.77-17.44-30.58-32.78-37C924.43,347.2,913.4,368.57,914.28,383.28Z"/><path class="cls-42" d="M964.26,892.39c2.29,11.59-.78,17.74-.78,17.74h-34.9s-4.84-5.35-2.17-8.68,11.52-6,15.19-7.69,2.68-7.6,5.18-7.7,4.51,5.2,8.18,5.2a18.86,18.86,0,0,0,5.54-1.09A2.91,2.91,0,0,1,964.26,892.39Z"/><path class="cls-42" d="M886.45,892.39c2.29,11.59-.78,17.74-.78,17.74H842.25s-4.84-5.35-2.17-8.68,19.53-7.81,23.21-9.48,3.17-5.81,5.68-5.91,4.51,5.2,8.18,5.2a18.86,18.86,0,0,0,5.54-1.09A2.91,2.91,0,0,1,886.45,892.39Z"/><path class="cls-37" d="M874.43,489.33a67.41,67.41,0,0,0-3.44,9c-.94,3-1.73,6.08-2.4,9.16s-1.25,6.18-1.69,9.3-.84,6.25-1.25,9.39c-.82,6.27-1.52,12.57-2.15,18.95-.3,3.2-.57,6.42-.77,9.74-.11,1.67-.2,3.35-.23,5.14,0,.9,0,1.82,0,2.83,0,.5,0,1,0,1.61s.06,1.19.14,2l.08.62.11.74c0,.3.09.54.18.92,0,.19.07.32.13.55s.12.45.18.68.19.58.3.86l.08.23.13.3a6.65,6.65,0,0,0,.27.61l.15.3.23.43c.16.29.33.57.51.85l.19.28.09.12.18.24.36.47.24.28.23.27.2.22.36.38.31.32.3.3.27.27.53.5.51.47c1.32,1.22,2.56,2.28,3.8,3.34,2.48,2.11,4.92,4.14,7.39,6.13,4.92,4,9.86,7.89,14.83,11.74s10,7.62,15,11.39c2.53,1.87,5.08,3.71,7.63,5.57,1.28.93,2.9,4.35,4.19,5.27l1.64,1.33,2.09,1.42A7.69,7.69,0,0,0,935.12,612l-.23-2.7-13.18-13-13.41-13-13.37-13c-2.2-2.16-4.41-4.31-6.53-6.44-1-1.06-2.1-2.13-3-3.11l-.32-.35-.3-.33-.13-.15-.1-.13s-.09-.09-.09-.11l0,0s0,0,0,0l0,0,0,.06a2.11,2.11,0,0,1,.19.23l.09.12.2.29c.15.23.3.47.44.72l.19.36.12.24.21.47.16.39.2.59c0,.13.08.26.11.39l.07.27.07.35,0,.15s0,0,0,0a2.39,2.39,0,0,0,0-.37l0-.74c0-.56.1-1.2.17-1.86.13-1.33.3-2.76.48-4.2.38-2.91.82-5.9,1.3-8.9.92-6,2-12.09,3-18.18l1.6-9.15c.53-3.05.94-6.13,1.28-9.21s.56-6.2.65-9.33a70.09,70.09,0,0,0-.29-9.48v-.12a10.79,10.79,0,0,0-11.94-9.51A10.93,10.93,0,0,0,874.43,489.33Z"/><path class="cls-37" d="M972.25,625.54a32.11,32.11,0,0,1,3-2.83c.54-.45,1.08-.92,1.65-1.36l1.75-1.3c2.35-1.74,4.86-3.38,7.41-5s5.17-3.29,7.82-4.92c1.33-.82,2.66-1.64,4-2.45l4.09-2.42,4.14-2.46c1.41-.8,2.82-1.62,4.25-2.45,2.85-1.68,5.71-3.44,8.72-5.4,1.5-1,3-2,4.61-3.26a41.07,41.07,0,0,0,5-4.49,25.84,25.84,0,0,0,2.84-3.56A22.16,22.16,0,0,0,1033,581a19.69,19.69,0,0,0,1.36-3.72,18,18,0,0,0,.45-2.44c.05-.43.09-.91.11-1.37v-.59c0-.27,0-.55,0-.82,0-.55-.1-1.09-.18-1.63l-.11-.6,0-.2-.06-.39-.1-.68-.37-2.46-1.47-9.46c-.49-3.14-1-6.27-1.44-9.41l-2.83-18.82-1.42-9.4-1.34-9.42c-.88-6.28-1.79-12.56-2.6-18.86a15.86,15.86,0,1,0-31.47,4c0,.22.06.42.09.63L992,498q1.62,9.34,3.43,18.65l1.81,9.31,1.88,9.28.94,4.64,1,4.64,2,9.26c.64,3.09,1.32,6.17,2,9.25l2,9.19.46,2.23.11.5,0,.21,0,.1v0s0,.06,0,0l-.05-.28a10.56,10.56,0,0,1-.13-1.13c0-.19,0-.39,0-.58v-.37c0-.22,0-.45,0-.64a10.32,10.32,0,0,1,.15-1,5.77,5.77,0,0,1,.56-1.61,3.74,3.74,0,0,0-.26.32,23.61,23.61,0,0,1-2.07,2.05c-.89.79-1.91,1.63-3,2.48-2.19,1.67-4.54,3.46-7,5.24l-3.66,2.76-3.69,2.87c-4.93,3.89-9.89,8-15,12.16-1.26,1.06-2.56,2.08-3.83,3.15l-3.86,3.23-4,3.3-4.11,3.46a10.41,10.41,0,0,0,13.43,15.92,11.1,11.1,0,0,0,.93-.88Z"/><path class="cls-37" d="M961.81,610.9A41.65,41.65,0,0,0,948,613.66s-3-6-7.26-6H929.12l-6.64,13.27s10.27,16.28,19.67,17,26.61-3.27,29.88-8.84C983.69,609.24,961.81,610.9,961.81,610.9Z"/><g class="cls-52"><path id="shadow_hand" data-name="shadow hand" class="cls-53" d="M924.44,596.38c3.84,7,.69,10-11.93,8.08s-52.42-34.13-52.42-34.13l8.08,34.7,62,36.1,27.27,2.2,23.76-20.49L1028.64,590s-23.38,15.36-43.92,17.62S978.23,594,978.23,594Z"/><path class="cls-53" d="M1033.15,556.84c-2.84-2.88-13.7-6.38-21-1s-12.86,14.53-12.86,14.53V549l33.9-10.52Z"/><path class="cls-53" d="M889,556.84c-1.16,0-10.09-4-14.39-3.45s-14.12,9.93-14.56,16.94c-2.27-21.37,2.55-33.06,2.55-33.06L883,538.44l10.35,8.09Z"/></g><path class="cls-42" d="M993.23,448c13.41,3.35,22.66,20.22,27,32.92C1026.69,500.09,1036,540,1036,540c-14.16,9.09-26.79,14.08-41.12,14.41,0,0-16-27.39-16.47-37.67C976.31,472.48,993.23,448,993.23,448Z"/><path class="cls-50" d="M1013.06,551.28a63.64,63.64,0,0,1-18.18,3.09s-3.33-5.7-7-12.87l4.71-25S997.08,544.44,1013.06,551.28Z"/><path class="cls-54" d="M948.28,630.77a.75.75,0,0,0,.29-1.44c-3.88-1.62-7.19-4.87-7.88-7.72a3.31,3.31,0,0,1,.62-3,.76.76,0,0,0-.08-1.06.75.75,0,0,0-1.06.09,4.76,4.76,0,0,0-.94,4.36c.8,3.34,4.4,6.94,8.76,8.76A.74.74,0,0,0,948.28,630.77Z"/><path class="cls-42" d="M890.88,458.79c-15.63-4.09-19.49,11.52-23.74,28.59-2.23,9-13.48,55.28-13.48,55.28,6.26,3.9,25.2,12.29,39.72,8.17l4.55-56.9Z"/><path class="cls-50" d="M873.61,550.56a71.8,71.8,0,0,1-20-7.9s11.25-46.31,13.48-55.28c1.77-7.11,3.47-14,6-19.25C866.78,496.15,871.81,537.78,873.61,550.56Z"/></g><g id="bloc"><polygon class="cls-42" points="400.67 165.42 400.67 222.51 341.44 222.51 341.44 216.18 394.64 216.18 394.64 165.42 400.67 165.42"/><polygon class="cls-42" points="227.74 165.42 227.74 222.51 286.97 222.51 286.97 216.18 233.77 216.18 233.77 165.42 227.74 165.42"/><polyline class="cls-55" points="397.54 136.66 443.16 110.59 443.16 162.73 397.54 188.8 397.54 136.66"/><polygon class="cls-56" points="351.92 110.59 397.54 84.52 443.16 110.59 397.54 136.66 351.92 110.59"/><polygon class="cls-57" points="351.92 162.73 397.54 188.8 397.54 136.66 351.92 110.59 351.92 162.73"/><polyline class="cls-55" points="230.87 136.66 276.5 110.59 276.5 162.73 230.87 188.8 230.87 136.66"/><polygon class="cls-56" points="185.25 110.59 230.87 84.52 276.5 110.59 230.87 136.66 185.25 110.59"/><polygon class="cls-57" points="185.25 162.73 230.87 188.8 230.87 136.66 185.25 110.59 185.25 162.73"/><polyline class="cls-55" points="313.75 210.33 359.37 184.26 359.37 236.4 313.75 262.47 313.75 210.33"/><polygon class="cls-56" points="268.12 184.26 313.75 158.19 359.37 184.26 313.75 210.33 268.12 184.26"/><polygon class="cls-57" points="268.12 236.4 313.75 262.47 313.75 210.33 268.12 184.26 268.12 236.4"/><polyline class="cls-55" points="313.75 61.16 359.37 35.09 359.37 87.23 313.75 113.3 313.75 61.16"/><polygon class="cls-56" points="268.12 35.09 313.75 9.02 359.37 35.09 313.75 61.16 268.12 35.09"/><polygon class="cls-57" points="268.12 87.23 313.75 113.3 313.75 61.16 268.12 35.09 268.12 87.23"/><polygon class="cls-42" points="400.34 109.25 400.34 71.08 341.11 71.08 341.11 77.4 394.31 77.4 394.31 109.25 400.34 109.25"/><polygon class="cls-42" points="227.85 71.08 287.08 71.08 287.08 77.4 233.89 77.4 233.89 109.25 227.85 109.25 227.85 71.08"/></g></g></svg>