<?xml version="1.0" encoding="utf-8"?>
<!-- Generator: Adobe Illustrator 23.0.1, SVG Export Plug-In . SVG Version: 6.00 Build 0)  -->
<svg version="1.1" id="Layer_1" xmlns="http://www.w3.org/2000/svg" xmlns:xlink="http://www.w3.org/1999/xlink" x="0px" y="0px"
	 viewBox="0 0 1359 1124" style="enable-background:new 0 0 1359 1124;" xml:space="preserve">
<style type="text/css">
	.st0{fill:#1C1C1C;}
	.st1{fill:url(#SVGID_1_);}
	.st2{fill:url(#SVGID_2_);}
	.st3{fill:url(#SVGID_3_);}
	.st4{fill:url(#SVGID_4_);}
	.st5{fill:url(#SVGID_5_);}
	.st6{fill:#2E3192;}
	.st7{fill:#FFFFFF;}
	.st8{fill:#272B7D;}
	.st9{opacity:0.35;fill:#A5D9FF;enable-background:new    ;}
	.st10{fill:#F2A37C;}
	.st11{clip-path:url(#SVGID_7_);}
	.st12{opacity:0.14;fill:#1B1464;enable-background:new    ;}
	.st13{opacity:0.26;fill:#1B1464;enable-background:new    ;}
	.st14{fill:#2C348C;}
	.st15{opacity:0.26;fill:#36121F;enable-background:new    ;}
	.st16{fill:#39B34C;}
	.st17{opacity:0.23;fill:#36121F;enable-background:new    ;}
	.st18{fill:#289D4B;}
	.st19{fill:#2E318F;}
	.st20{fill:#00FF01;}
	.st21{fill:#2B2B2B;}
	.st22{clip-path:url(#SVGID_9_);}
	.st23{opacity:0.5;}
	.st24{opacity:0.4;fill:#1B1464;enable-background:new    ;}
	.st25{opacity:0.3;fill:#1B1464;enable-background:new    ;}
	.st26{fill:#272C7C;}
	.st27{clip-path:url(#SVGID_11_);}
	.st28{opacity:0.13;fill:#CC7455;enable-background:new    ;}
	.st29{fill:#CC8862;}
	.st30{fill:#057C19;}
	.st31{fill:#00FF00;}
	.st32{fill:#0CC42A;}
</style>
<g id="HERO">
	<rect x="-1.7" class="st0" width="1359" height="1124"/>
	
		<linearGradient id="SVGID_1_" gradientUnits="userSpaceOnUse" x1="758.5469" y1="189.5399" x2="633.407" y2="1094.2072" gradientTransform="matrix(0.9972 7.463064e-02 7.463064e-02 -0.9972 -38.3779 1060.7906)">
		<stop  offset="0" style="stop-color:#FF447F"/>
		<stop  offset="0" style="stop-color:#FF447F;stop-opacity:0.99"/>
		<stop  offset="0.12" style="stop-color:#FF4D88;stop-opacity:0.76"/>
		<stop  offset="0.25" style="stop-color:#FF5591;stop-opacity:0.56"/>
		<stop  offset="0.37" style="stop-color:#FF5B97;stop-opacity:0.39"/>
		<stop  offset="0.5" style="stop-color:#FF619D;stop-opacity:0.25"/>
		<stop  offset="0.62" style="stop-color:#FF65A1;stop-opacity:0.14"/>
		<stop  offset="0.75" style="stop-color:#FF68A5;stop-opacity:6.000000e-02"/>
		<stop  offset="0.87" style="stop-color:#FF69A6;stop-opacity:2.000000e-02"/>
		<stop  offset="1" style="stop-color:#FF6AA7;stop-opacity:0"/>
	</linearGradient>
	<path class="st1" d="M260.2,164.1c-25.5,24.3-64.8,62.4-96.7,124.4c-31.1,60.4-38.9,111.7-45.9,157.4
		c-9.8,64.4-18.6,121.3,2.9,190.1c2.9,9.2,17.8,55.8,56.4,105.7c10.8,14,50.3,62.9,116.3,98.2c38,20.3,72.1,29.3,256.2,42.3
		c105.7,7.5,91.2,4.3,236.2,13.6c87,5.6,130.4,9.2,200.3,10c98.6,1,123.4-0.4,138.9-2.7c72.6-10.8,142.4-21.2,177.3-73.2
		c47.7-70.9,0.8-175.4-17.1-215.4c-31.4-70.1-78.5-114.5-98.6-133c-81-74.8-126.1-61.7-162.6-123.7c-30.6-52-9.5-79.1-36.8-139.4
		c-30.5-67.4-88.4-101.2-130.3-126.3C735.1,19.3,567.4-2.5,422,56.6C338.3,90.6,282.2,143.2,260.2,164.1z"/>
	
		<linearGradient id="SVGID_2_" gradientUnits="userSpaceOnUse" x1="751.1911" y1="242.9335" x2="640.8421" y2="1040.7184" gradientTransform="matrix(0.9972 7.463064e-02 7.463064e-02 -0.9972 -38.3779 1060.7906)">
		<stop  offset="0" style="stop-color:#FF447F"/>
		<stop  offset="0" style="stop-color:#FF447F;stop-opacity:0.99"/>
		<stop  offset="0.12" style="stop-color:#FF4D88;stop-opacity:0.76"/>
		<stop  offset="0.25" style="stop-color:#FF5591;stop-opacity:0.56"/>
		<stop  offset="0.37" style="stop-color:#FF5B97;stop-opacity:0.39"/>
		<stop  offset="0.5" style="stop-color:#FF619D;stop-opacity:0.25"/>
		<stop  offset="0.62" style="stop-color:#FF65A1;stop-opacity:0.14"/>
		<stop  offset="0.75" style="stop-color:#FF68A5;stop-opacity:6.000000e-02"/>
		<stop  offset="0.87" style="stop-color:#FF69A6;stop-opacity:2.000000e-02"/>
		<stop  offset="1" style="stop-color:#FF6AA7;stop-opacity:0"/>
	</linearGradient>
	<path class="st2" d="M526.1,826.4c-159.4-11.9-181.7-20.3-207.5-34.1c-52.9-28.3-86.9-67.8-99-83.5c-31-40.1-44.2-78.1-47.6-88.8
		c-17.7-57-10.4-105.1-1-166c6.6-43.4,13.5-88.3,40.6-140.8c28.5-55.3,64.5-89.6,86-110.1c17.1-16.3,69-65.7,144.9-96.6
		C501,82.8,567.3,72.8,634,77.8c70.1,5.3,137.5,26.2,194.8,60.6l2.3,1.3c39.2,23.5,83.5,50,106.6,101c9.3,20.6,10.7,34.9,12.4,52.9
		c2.3,24.1,5.1,54.2,27.1,91.6c27.3,46.5,60,63.7,91.6,80.4c23.8,12.6,48.5,25.6,80.9,55.6c16,14.8,58.4,54,86,115.4
		c8.5,18.9,22.7,50.5,29.4,84.5s4.2,60.6-7.9,78.6c-9,13.3-23.9,23.2-47,31c-26.3,8.9-58.9,13.8-93.4,18.9c-13.1,2-40.2,3-130.4,2.1
		c-57.2-0.6-95.3-3.1-158.6-7.3c-12-0.8-24.8-1.6-38.8-2.5c-73-4.7-105.3-6.2-133.8-7.6c-27.8-1.3-49.8-2.4-102-6
		C543.7,827.7,534.7,827,526.1,826.4z"/>
	
		<linearGradient id="SVGID_3_" gradientUnits="userSpaceOnUse" x1="743.8032" y1="296.4645" x2="648.2543" y2="987.207" gradientTransform="matrix(0.9972 7.463064e-02 7.463064e-02 -0.9972 -38.3779 1060.7906)">
		<stop  offset="0" style="stop-color:#FF447F"/>
		<stop  offset="0" style="stop-color:#FF447F;stop-opacity:0.99"/>
		<stop  offset="0.12" style="stop-color:#FF4D88;stop-opacity:0.76"/>
		<stop  offset="0.25" style="stop-color:#FF5591;stop-opacity:0.56"/>
		<stop  offset="0.37" style="stop-color:#FF5B97;stop-opacity:0.39"/>
		<stop  offset="0.5" style="stop-color:#FF619D;stop-opacity:0.25"/>
		<stop  offset="0.62" style="stop-color:#FF65A1;stop-opacity:0.14"/>
		<stop  offset="0.75" style="stop-color:#FF68A5;stop-opacity:6.000000e-02"/>
		<stop  offset="0.87" style="stop-color:#FF69A6;stop-opacity:2.000000e-02"/>
		<stop  offset="1" style="stop-color:#FF6AA7;stop-opacity:0"/>
	</linearGradient>
	<path class="st3" d="M530.1,772.5C374.3,760.9,359.6,753,344,744.7c-44.9-24-73.9-58.8-81.7-68.9c-26.1-33.8-36.9-65.7-38.7-71.7
		c-14-45.1-8.1-83.5,0.8-141.8c6.3-40.9,12.2-79.6,35.2-124.2c24.3-47.2,55-76.4,75.3-95.7c15.2-14.5,61.6-58.7,128-85.6
		c50.9-20.7,108.7-29.3,167.2-25c61.8,4.6,121,23,171.1,53l2.3,1.4c35.5,21.3,69.1,41.4,85.2,76.9c5.6,12.4,6.3,19.7,7.8,35.7
		c2.5,26.3,6.2,66.1,34.3,114c35.1,59.6,78.3,82.5,113,100.8c22.7,12,42.3,22.3,69.5,47.5c13.8,12.7,50.3,46.5,73.3,97.8
		c7.5,16.8,20.2,45,25.8,73c5.8,29.1,0.3,37.8,0.2,37.9s-3.1,4.4-19.5,10c-21.8,7.3-52,11.9-84.1,16.6c-15.7,2.3-77.1,2-121.8,1.5
		c-55.7-0.6-93.3-3.1-155.6-7.2c-12-0.8-24.9-1.7-38.8-2.5c-73.5-4.7-106-6.3-134.7-7.6c-27.5-1.3-49.2-2.3-100.8-6
		C547.6,773.8,538.6,773.2,530.1,772.5z"/>
	
		<linearGradient id="SVGID_4_" gradientUnits="userSpaceOnUse" x1="735.2061" y1="349.7644" x2="654.4586" y2="933.5569" gradientTransform="matrix(0.9972 7.463064e-02 7.463064e-02 -0.9972 -38.3779 1060.7906)">
		<stop  offset="0" style="stop-color:#FF447F"/>
		<stop  offset="0" style="stop-color:#FF447F;stop-opacity:0.99"/>
		<stop  offset="0.12" style="stop-color:#FF4D88;stop-opacity:0.76"/>
		<stop  offset="0.25" style="stop-color:#FF5591;stop-opacity:0.56"/>
		<stop  offset="0.37" style="stop-color:#FF5B97;stop-opacity:0.39"/>
		<stop  offset="0.5" style="stop-color:#FF619D;stop-opacity:0.25"/>
		<stop  offset="0.62" style="stop-color:#FF65A1;stop-opacity:0.14"/>
		<stop  offset="0.75" style="stop-color:#FF68A5;stop-opacity:6.000000e-02"/>
		<stop  offset="0.87" style="stop-color:#FF69A6;stop-opacity:2.000000e-02"/>
		<stop  offset="1" style="stop-color:#FF6AA7;stop-opacity:0"/>
	</linearGradient>
	<path class="st4" d="M534.1,718.7c-68.2-5.1-114.1-9.8-140.2-14.5c-16.7-3-19.8-4.6-24.5-7.2c-36.4-19.4-60.1-48.7-64.4-54.3
		c-21.3-27.5-29.5-53.7-29.9-54.8c-9.9-31.8-6.4-59,2.6-117.6c6.1-39.6,10.8-70.8,29.8-107.7c20.1-39.1,45.8-63.5,64.5-81.4
		c13.4-12.8,54.1-51.6,111-74.7c43.3-17.6,92.7-24.9,142.9-21.1c53.5,4,104.4,19.7,147.4,45.5l2.3,1.4
		c29.3,17.6,54.6,32.7,63.7,52.9c1.8,3.9,1.9,4.1,3.2,18.4c2.7,29.2,7.3,78.1,41.5,136.4c42.8,72.9,97.8,101.9,134.3,121.2
		c21.7,11.5,36,19,58.1,39.4c11.5,10.7,42.2,39,60.7,80.3c5.7,12.8,14.8,33,20,52.6c-15.9,3.5-35.7,6.4-56.2,9.5
		c-5.7,0.7-28.1,1.8-113.4,0.9c-54.2-0.6-91.2-3-152.6-7.1l-39-2.6c-74-4.8-106.8-6.3-135.7-7.7c-27.1-1.3-48.5-2.3-99.5-5.9
		C551.4,720,542.6,719.3,534.1,718.7z"/>
	
		<linearGradient id="SVGID_5_" gradientUnits="userSpaceOnUse" x1="717.7623" y1="374.5749" x2="651.9358" y2="850.5096" gradientTransform="matrix(0.9972 7.463064e-02 7.463064e-02 -0.9972 -38.3779 1060.7906)">
		<stop  offset="0" style="stop-color:#FF447F"/>
		<stop  offset="0" style="stop-color:#FF447F;stop-opacity:0.99"/>
		<stop  offset="0.12" style="stop-color:#FF4D88;stop-opacity:0.76"/>
		<stop  offset="0.25" style="stop-color:#FF5591;stop-opacity:0.56"/>
		<stop  offset="0.37" style="stop-color:#FF5B97;stop-opacity:0.39"/>
		<stop  offset="0.5" style="stop-color:#FF619D;stop-opacity:0.25"/>
		<stop  offset="0.62" style="stop-color:#FF65A1;stop-opacity:0.14"/>
		<stop  offset="0.75" style="stop-color:#FF68A5;stop-opacity:6.000000e-02"/>
		<stop  offset="0.87" style="stop-color:#FF69A6;stop-opacity:2.000000e-02"/>
		<stop  offset="1" style="stop-color:#FF6AA7;stop-opacity:0"/>
	</linearGradient>
	<path class="st5" d="M1043.3,718.2c-15.6,0-34.2-0.1-55.4-0.3c-52.7-0.5-89.2-3-149.6-7c-12.2-0.8-25.1-1.7-39.1-2.5
		c-74.6-4.8-107.5-6.4-136.6-7.7c-26.8-1.3-47.9-2.3-98.2-5.8c-9.2-0.7-18-1.3-26.3-1.9c-65.4-4.9-110.8-9.5-134.7-13.8
		c-3.9-0.7-6.3-1.2-7.8-1.5c-0.6-0.1-1.3-0.4-1.9-0.7c-27.1-14.8-45.3-38.1-46-39.1c-8.9-11.5-16.1-24.3-21.1-38
		c-6-19.5-3.8-38.9,4.5-93.1c5.7-37.4,9.5-62.1,24.4-91.1c16-31,36.9-51,53.8-67c11.6-11,46.7-44.5,94.1-63.8
		c29.1-11.8,62.7-18.1,96.9-18.1c7.2,0,14.5,0.3,21.7,0.8c45.1,3.4,87.9,16.5,123.7,37.9l2.3,1.4c12.4,7.4,22,14,30.5,21.3
		c1.4,1.2,7.8,11.2,8,13l4,17c2.9,31.5,6.8,68.8,47.2,137.4c50.6,86,116.3,120.8,155.5,141.5c20.5,10.8,29.8,15.8,46.6,31.3
		c6.7,6.2,21.5,19.8,34.4,38.7c2.2,3.2,1.4,7.6-1.8,9.8c-1.2,0.8-2.5,1.2-3.9,1.3C1061.8,718.1,1053.6,718.2,1043.3,718.2z"/>
	<path class="st6" d="M100.6,919l1192.6-4.8c0,0-243.1-260.7-275.8-260.9c-13.7-0.1-40.9,31-67.7,54.2c-13.8,12-34.7,10.6-46.7-3.2
		c-1.7-2-3.2-4.2-4.4-6.5c-17.3-33.2-43.5-82.5-66.5-122.8l0,0V575c-22.5-39.3-42-70-47.4-68.9c-8.8,1.9-26.6,27.6-43.2,54.8
		c-19.4,31.6-37.1,65.1-37.1,65.1l0,0c-0.5-1.3-24.2-62-47.3-112.6c-4.2-9.3-8.5-18.2-12.5-26.4c-12.2-24.5-22.8-42.2-28.1-41.3
		c-3.7,0.6-10.4,8.1-16.6,16.1c-1,1.3-2,2.6-3,4c-3.9,5.2-11.2,6.2-16.3,2.3c-1.4-1-2.5-2.4-3.3-3.9c-3.5-6.8-7.9-14.8-12.4-22.6
		c-10.1-17.3-21.2-33.6-27.5-33.6c-4.2,0-13.6,9.4-26.3,24.5c-52.8,63.2-161.5,227.1-180.2,231.1l0,0c-20,4.2-47.5-56.9-78-70.5
		c-4.6-2.2-9.6-3-14.6-2.4c-8.8,27-17.8,53.3-27.9,77.7c-34.1,83.1-86.4,163.2-109,248.5L100.6,919z"/>
	<path class="st7" d="M330.7,663.5c-20,4.2-47.4-56.9-78-70.5c-4.6-2.2-9.6-3-14.6-2.4c-7.8,24-15.8,47.3-24.5,69.3
		c8.1,5.7,37.5-25,47.3-15.8c3,2.8,8.8,17.5,15.7,19.9C297.6,671.2,329.8,663.8,330.7,663.5z"/>
	<path class="st8" d="M128.9,838.9l186.8,77.5l212.4,0.1c0,0-60.6-28-75.5-51s-49.7-43.5-80.2-52.8s-92.2-62-104.9-60.1
		c-12.7,1.9,37.5,37.5,22.3,54.2c-12.6,13.8-78.8-39.3-119.9-52.7c-12.1,18.6-20.5,41.8-31.5,60.7
		C134.4,821.6,132.6,832,128.9,838.9z"/>
	<path class="st7" d="M741.3,560.9c1.4,1.9,2.9,3.2,4.5,3.2c7.7,0,21-17.7,29.3-4.4c8.3,13.3,18.8,12.7,31.5,6.6
		c10.1-4.8,21.2,4.6,25.3,8.7c-22.5-39.3-42-70-47.4-68.9C775.8,507.9,758,533.7,741.3,560.9z"/>
	<path class="st7" d="M599.9,461.6c7.5,10.2,6.7,18.3,15.8,14c5-2.3,17.3,3.9,28.9,11.2c-12.2-24.5-22.8-42.2-28.1-41.3
		C612.8,446.2,606.1,453.7,599.9,461.6z"/>
	<path class="st7" d="M511,432.2c6.6,9.7,15.7,14.8,17.4,7c2.2-9.9,14.3,5.5,25.4,8.3c7.7,1.9,7.6-3.9,10.9-6.1
		c-10.1-17.3-21.2-33.6-27.5-33.6C533,407.7,523.6,417.1,511,432.2z"/>
	<path class="st8" d="M908.8,913.9c0,0-69.6-67.6-92.3-96.7s-83.5-81.1-73.7-46.7s-5.8,76.8-46.4,52.5s-19.6,28.4-70.6,27
		s-84.7-0.2-68.2,28.5s36,35.1,36,35.1L908.8,913.9z"/>
	<path class="st9" d="M832.1,575.1c1,3.2,27.5,65.8,17.5,93.1c-14,38.4,7.5,41.8,20.3,37.3c9.4-3.3,20.3,8.7,48.4,29.8
		c23.2,17.4,23.6-21.8,23.6-21.8l-0.5-0.6c-16,7-34.7,0.5-42.8-15C881.3,664.7,855.1,615.4,832.1,575.1z"/>
	<path class="st8" d="M526.6,844.3c0,0-5-30.6-31.5-32.3c-26.5-1.6-27.3-16.6-43.9-20.7s-53-32.3-63.8-34.8s24,30.6,29.8,40.6
		s45.5,29,51.3,40.6S500.9,855.9,526.6,844.3z"/>
	<path class="st9" d="M661.5,571.6c11,24.3-7.2,45.3,9.4,55.2s33.5-0.8,33.5-0.8l0,0c-0.5-1.3-24.2-62-47.3-112.6
		C653.1,528,653.9,554.9,661.5,571.6z"/>
	<path class="st10" d="M951.7,994.8c-0.2,1-0.5,2-0.7,3l-0.7,2.9c-0.5,1.9-1,3.8-1.5,5.8c-1,3.8-2.1,7.6-3.3,11.4
		c-1.2,3.8-2.4,7.6-3.8,11.4c-1.4,4-3.2,7.9-5.4,11.6c-1.7,2.8-5.4,3.7-8.2,2c-2.3-1.4-3.4-4.2-2.7-6.8l0.2-0.7l0.7-2.2l0.6-2.5
		l0.5-2.6c0.2-0.9,0.3-1.8,0.4-2.7c0.5-3.6,0.9-7.3,1.2-11c0.3-3.7,0.5-7.5,0.7-11.2c0.1-1.9,0.1-3.8,0.2-5.6l0.1-2.8
		c0-0.9,0-1.9,0-2.7c0-6.1,4.9-11.1,11-11.1s11.1,4.9,11.1,11c0,0.8-0.1,1.6-0.2,2.3L951.7,994.8z"/>
	<path class="st10" d="M1031.5,991.9l-0.4,11.5l-0.5,11.5c-0.3,7.7-0.7,15.4-1.1,23.1c-0.2,3.8-3.4,6.7-7.2,6.5
		c-3.3-0.2-6-2.7-6.4-6c-0.9-7.6-2-15.1-3-22.7l-1.6-11.3l-1.7-11.3v-0.1c-0.9-6,3.3-11.6,9.3-12.5s11.6,3.3,12.5,9.3
		C1031.5,990.6,1031.5,991.3,1031.5,991.9z"/>
	<path class="st7" d="M1013.4,779.3c0.1,1.3,0,2.7-0.1,4c-0.1,1.3-0.2,2.6-0.4,3.9c-0.3,2.6-0.8,5.2-1.4,7.7s-1.3,5-2,7.5
		c-0.4,1.2-0.8,2.5-1.2,3.7s-0.8,2.5-1.3,3.7c-3.6,9.8-7.5,19.5-11.8,29.1c-1,2.4-2.1,4.8-3.2,7.2l-3.2,7.2l-3.2,7.2l-3,7.2
		l-1.5,3.6l-1.4,3.6c-0.9,2.4-1.8,4.7-2.7,7l-1.2,3.4l-0.6,1.6l-0.5,1.5c-0.3,1-0.6,2-0.8,2.4c0,0.1,0,0,0,0l0,0c0,0,0,0,0,0.1
		l-0.2,1.1l-0.4,2.2l-2.9,15.9l-1.4,7.9l-1.3,7.8l-2.6,15.8c-0.8,5.2-1.7,10.5-2.6,15.7s-1.8,10.4-3,15.6c-0.5,2.6-1.1,5.2-1.7,7.8
		s-1.2,5.2-1.9,7.8s-1.4,5.2-2.1,7.8s-1.5,5.2-2.3,7.7c-0.4,1.3-0.8,2.6-1.3,3.9l-1.3,3.9c-0.4,1.3-0.9,2.6-1.4,3.9l-0.2,0.5
		c0,0.2-0.1,0.3-0.2,0.5c-0.5,0.4-1,0.6-1.6,0.7c-1.1,0.2-2.3,0.3-3.5,0.3c-0.7,0-1.7,0-2.6,0l-1.6-0.1l-0.9-0.1l-1-0.1
		c-0.3,0-0.5-0.1-0.8-0.2l-1-0.3l-0.9-0.3l-1.5-0.6c-0.8-0.3-1.8-0.7-2.4-1c-1.1-0.5-2.1-1-3.1-1.6c-0.5-0.3-0.9-0.7-1.2-1.2
		c0-0.2,0-0.3,0-0.5v-0.5c0.1-1.3,0.2-2.5,0.3-3.8l0.2-3.8l0.3-3.8c0.2-2.6,0.3-5.2,0.5-7.7s0.3-5.2,0.5-7.8
		c0.4-5.2,0.8-10.3,1.3-15.5l0.4-3.9l0.4-3.9l0.8-7.8c0.2-2.6,0.5-5.2,0.8-7.8l0.9-7.8c0.6-5.2,1.1-10.3,1.6-15.5
		c0.5-5.2,1-10.3,1.4-15.5c0.2-2.6,0.4-5.2,0.5-7.7s0.3-5.1,0.4-7.6l0.1-1.8v-0.9v-0.8l0.1-0.8c0.2-2,0.4-3.5,0.6-5.1
		c0.4-3,0.9-5.8,1.4-8.5c1-5.4,2-10.7,3.1-15.9c2.1-10.5,4.4-20.8,6.7-31.1s4.7-20.6,7.1-30.8s4.8-20.5,7.3-30.8
		C965,750.6,979,742,993,745.4c11.2,2.7,19.3,12.5,19.8,24L1013.4,779.3z"/>
	<path class="st7" d="M1053.4,772.3c-1.6,20.4-3.6,40.9-5.5,61.3l-3,30.6l-1.5,15.2l-0.4,3.8l-0.3,3.7l-0.2,1.8l-0.1,0.9l-0.1,0.8
		l-0.1,1.6l-0.1,0.8v1c-0.1,2.9-0.3,5.5-0.5,8.2l-0.5,7.8c-0.2,2.6-0.4,5.2-0.6,7.7l-0.7,7.7l-2.6,30.8l-0.6,7.7l-0.7,7.7l-1.3,15.3
		l-0.6,7.6l-0.6,7.6l-0.5,7.6c-0.1,1.3-0.1,2.5-0.2,3.8c0,0.6,0,1.3-0.1,1.9c-0.1,0.3-0.7,0.6-1.7,1c-1.6,0.5-3.3,0.9-5,1.1h-0.1
		c-3.1,0.5-6.2,0.5-9.3,0.3c-1.7-0.1-3.4-0.4-5-0.8c-1-0.3-1.5-0.6-1.7-0.9c-0.1-0.7-0.2-1.3-0.3-2l-0.5-3.9l-0.8-7.8l-0.7-7.8
		l-0.7-7.8l-1.3-15.5l-0.6-7.8c-0.2-2.6-0.3-5.2-0.5-7.8l-1.9-31l-0.5-7.7l-0.4-7.7l-0.4-7.6c-0.2-2.5-0.3-5-0.5-7.2v-0.4
		c0-0.1,0-0.3,0-0.5l0-1.2l-0.1-2.3l0-1.2v-1l-0.1-2l-0.1-4.1l-0.1-4c0-2.7-0.1-5.3-0.1-7.9v-7.8l0.1-15.6c0-5.2,0.1-10.3,0.2-15.5
		l0.3-15.5l0.2-7.7l0.2-7.7l0.5-15.5c0.2-5.2,0.4-10.3,0.7-15.5c0.3-14.1,12-25.3,26.1-25c14.1,0.3,25.3,12,25,26.1
		c0,0.6,0,1.1-0.1,1.7c0,0.2,0,0.3,0,0.5L1053.4,772.3z"/>
	<g>
		<defs>
			<path id="SVGID_6_" d="M1029.3,744.3c-8.6-0.5-16.8,3.4-21.9,10.3c-8.8-11.3-25.1-13.3-36.4-4.5c-4.6,3.6-7.9,8.7-9.3,14.4
				c-2.5,10.3-4.9,20.5-7.3,30.8s-4.8,20.5-7.1,30.8s-4.6,20.7-6.7,31.1c-1.1,5.3-2.1,10.5-3.1,15.9c-0.5,2.7-1,5.5-1.4,8.5
				c-0.2,1.5-0.4,3-0.6,5.1l-0.1,0.8v0.8v0.9l-0.1,1.8c-0.1,2.5-0.3,5-0.4,7.6s-0.3,5.2-0.5,7.7c-0.4,5.2-0.9,10.3-1.4,15.5
				s-1.1,10.3-1.6,15.5l-0.9,7.8c-0.3,2.6-0.6,5.2-0.8,7.8l-0.8,7.8l-0.4,3.9l-0.4,3.9c-0.5,5.2-0.9,10.3-1.3,15.5
				c-0.2,2.6-0.4,5.2-0.5,7.8s-0.3,5.2-0.5,7.7l-0.3,3.8l-0.2,3.8c-0.1,1.3-0.2,2.5-0.3,3.8v0.5c0,0.2,0,0.3,0,0.5
				c0.3,0.5,0.7,0.9,1.2,1.2c1,0.6,2,1.2,3.1,1.6c0.7,0.3,1.6,0.7,2.4,1l1.5,0.6l0.9,0.3l0.9,0.3c0.3,0.1,0.5,0.2,0.8,0.2l1,0.1
				l0.9,0.1l1.6,0.1c0.9,0,1.9,0.1,2.6,0c1.2,0,2.3-0.1,3.5-0.3c0.6-0.1,1.2-0.3,1.6-0.7c0.1-0.1,0.2-0.3,0.2-0.5l0.2-0.5
				c0.5-1.3,1-2.6,1.4-3.9l1.3-3.9c0.4-1.3,0.8-2.6,1.3-3.9c0.8-2.6,1.6-5.2,2.3-7.7s1.5-5.2,2.1-7.8s1.3-5.2,1.9-7.8
				s1.2-5.2,1.7-7.8c1.1-5.2,2-10.4,3-15.6s1.8-10.4,2.6-15.7l2.6-15.7l1.3-7.8l1.4-7.9l2.9-15.9l0.4-2.2l0.2-1.1c0-0.1,0-0.1,0-0.1
				l0,0c0,0,0,0,0,0c0.2-0.4,0.5-1.4,0.8-2.4l0.5-1.5l0.6-1.6l1.2-3.4c0.8-2.3,1.8-4.7,2.7-7l1.4-3.6l1.5-3.6l3-7.2l3.2-7.2l3.2-7.2
				c1.1-2.4,2.1-4.8,3.2-7.2c1.9-4.2,3.7-8.5,5.4-12.8l-0.1,4.2c-0.1,5.2-0.1,10.3-0.2,15.5l-0.1,15.5v7.8c0,2.6,0,5.2,0.1,7.9
				l0.1,4l0.1,4.1l0.1,2v1l0,1.2l0.1,2.3l0,1.2c0,0.2,0,0.3,0,0.5v0.4c0.2,2.2,0.3,4.7,0.5,7.2l0.4,7.6l0.4,7.7l0.5,7.7l1.9,31
				c0.2,2.6,0.3,5.2,0.5,7.8l0.6,7.8l1.3,15.5l0.7,7.8l0.7,7.8l0.8,7.8l0.5,3.9c0.1,0.7,0.1,1.3,0.3,2c0.2,0.3,0.7,0.6,1.7,0.9
				c1.6,0.4,3.3,0.7,5,0.8c3.1,0.3,6.2,0.2,9.3-0.3h0.1c1.7-0.2,3.4-0.6,5-1.1c1-0.3,1.5-0.7,1.7-1c0.1-0.6,0.1-1.3,0.1-1.9
				c0.1-1.3,0.1-2.5,0.2-3.8l0.5-7.6l0.6-7.6l0.6-7.6l1.3-15.4l0.7-7.7l0.6-7.7l2.6-30.7l0.7-7.7c0.2-2.6,0.4-5.2,0.6-7.7l0.6-7.8
				c0.2-2.7,0.3-5.2,0.5-8.2v-1l0.1-0.8l0.1-1.6l0.1-0.8l0.1-0.9l0.2-1.8l0.3-3.7l0.4-3.8l1.5-15.2l3-30.6c2-20.4,4-40.9,5.5-61.3
				v-0.7c0-0.2,0-0.3,0-0.5C1054.1,757.1,1043.3,745.1,1029.3,744.3z"/>
		</defs>
		<clipPath id="SVGID_7_">
			<use xlink:href="#SVGID_6_"  style="overflow:visible;"/>
		</clipPath>
		<g class="st11">
			<path class="st12" d="M926,986.5c6.5,13.2,33.3-7.9,40.3-39.1c-0.5,61.5-10.9,76.3-10.9,76.3l-29.4-2.5l-10.2-11.7L926,986.5z"/>
			<path class="st12" d="M1006.7,985.5c1.6,10.3,18,15.8,23.9,1c2-5,10.8-46.8,10.8-46.8l-2.4,84l-39.8,1.9L1006.7,985.5z"/>
			<path class="st13" d="M1032.4,782.4c13.8,16.8,15.8,52.3,16.3,58.6c0.4,6.3,11.7-54.4,11.7-54.4l-12.5-22.6L1032.4,782.4z"/>
		</g>
	</g>
	<path class="st7" d="M973.5,737.9c-9.2,13.1-15.6,43.4-15.6,43.4s79.5-8.2,83.1-15.8s16.2-17.1,11.4-33
		c-18.9-1.8-43.3-1.7-60.5,1.4S973.5,737.9,973.5,737.9z"/>
	<path class="st14" d="M944.9,1026.1c3.9,7.7,0,26.3,0,26.3h-40.7c0,0-1.4-5.8,0-7.4c1.4-1.6,13.3-5.1,18.6-16.6h4.4
		c3.2-2.4,7-3.9,11-4.3C944.4,1023.9,944.9,1026.1,944.9,1026.1z"/>
	<path class="st14" d="M1032.4,1026.1c3.8,7.7,0,26.3,0,26.3h-40.7c0,0-1.4-5.8,0-7.4c1.4-1.6,13.3-5.1,18.6-16.6h4.4
		c3.2-2.4,7-3.9,11-4.3C1031.9,1023.9,1032.4,1026.1,1032.4,1026.1z"/>
	<path class="st10" d="M1043.4,568.4c-5.4,9.5-5,16.3-4.9,19.9c0.1,2.2,1.1,4.3,2.7,5.8l-22.2-2.5c0,0-9.9,2.4-8.5-1.3
		c2.5-6.4,1.3-16.8,1.3-16.8L1043.4,568.4z"/>
	<path class="st10" d="M1074.5,621.8l0.4,1.2l0.4,1l0.7,2.1l1.4,4.3c0.9,2.8,1.8,5.7,2.7,8.5c1.7,5.7,3.3,11.5,4.8,17.4
		s2.7,11.8,3.6,18.1c0.4,3.1,0.8,6.3,1,9.7c0.1,1.7,0.1,3.5,0,5.3c0,0.9-0.1,1.8-0.2,2.8l-0.1,0.8l-0.1,0.8
		c-0.1,0.5-0.2,1.1-0.3,1.6c-0.3,1.8-0.8,3.6-1.4,5.4c-0.5,1.7-1.1,3.2-1.7,4.7c-1.2,3-2.5,5.8-3.9,8.6c-2.7,5.5-5.7,10.6-8.7,15.7
		s-6.1,10-9.3,14.9c-1.6,2.5-3.2,4.9-4.8,7.3c-1.6,2.4-3.3,4.8-5,7.3c-2.4,3.4-7.1,4.1-10.4,1.7c-3.1-2.2-4-6.4-2.2-9.7l0.1-0.1
		c1.4-2.4,2.8-4.9,4.1-7.3s2.7-5,4-7.5c2.6-5,5.1-10,7.5-15.1s4.6-10.1,6.5-15.2c0.9-2.5,1.8-5,2.5-7.4c0.3-1.2,0.6-2.4,0.9-3.5
		c0.2-1,0.4-2,0.4-3c0-0.2,0-0.4,0-0.6v-0.5c0-0.5-0.1-1-0.1-1.5c-0.1-1-0.3-2.2-0.5-3.3c-0.4-2.3-1-4.8-1.7-7.2
		c-1.4-5-3.2-10.1-5.2-15.1s-4.2-10.1-6.5-15.1c-1.2-2.5-2.4-5-3.6-7.5l-1.8-3.7l-0.9-1.8l-0.5-0.9c-0.2-0.3-0.3-0.6-0.4-0.8
		c-4.3-7.4-1.9-16.9,5.5-21.2c7.4-4.3,16.9-1.9,21.2,5.5c0,0.1,0.1,0.1,0.1,0.2c0.4,0.8,0.8,1.5,1.1,2.4L1074.5,621.8z"/>
	<path class="st10" d="M1001,547.1c0.9,11,2.3,17.8,6.1,23.5s16.2,10.6,22,8.8c5.8-1.8,14.7-14,14.7-14.5s-29.9-17.2-29.9-17.2
		L1001,547.1z"/>
	<path class="st10" d="M938.8,610.1c-2-0.1-4-0.3-6-0.6c-1.1-0.2-2.2-0.4-3.5-0.8c-1.4-0.4-2.8-0.9-4.2-1.6l-0.4-0.2l-0.3-0.2
		l-0.5-0.3l-1.1-0.6l-1.1-0.6l-1.1-0.6l-2.1-1.3l-2-1.3c-1.4-0.9-2.7-1.8-4-2.7c-5-3.7-9.9-7.7-14.5-11.8c-4.5-4.2-9-8.4-13.2-12.7
		c-2.1-2.2-4.2-4.4-6.3-6.6s-4-4.5-6.1-6.7s-4-4.5-5.9-6.8l-2.9-3.5l-1.5-1.7l-1.5-1.8c-2.3-2.9-1.9-7.1,1-9.5
		c2.6-2.1,6.4-2,8.8,0.3l0.8,0.7c1,0.9,2.1,1.9,3.1,2.9l3.2,2.9c2.2,1.9,4.3,3.9,6.5,5.7s4.3,3.8,6.5,5.6s4.4,3.6,6.6,5.4
		c4.4,3.5,9,6.9,13.5,10.1s9.2,6,13.8,8.6c1.2,0.6,2.3,1.3,3.5,1.8l1.7,0.8l1.7,0.8l0.9,0.4l0.9,0.3l0.9,0.3l0.4,0.2l0.2,0.1
		c0.1,0,0.2,0.1,0.1,0c-0.4-0.2-0.5-0.3-0.5-0.3c0.2-0.1,0.4-0.1,0.6-0.1c0.6,0,1.5-0.1,2.6-0.3"/>
	<path class="st15" d="M1066.9,686.1c0,0.1,0,0.3,0.1,0.4c0.2,1.2,0.4,2.3,0.5,3.3c0,0.5,0.1,1,0.1,1.5v0.5c0,0.2,0,0.4,0,0.6
		c-0.1,1-0.2,2-0.4,3c-0.2,1.1-0.5,2.3-0.9,3.5c-0.2,0.6-0.4,1.3-0.6,1.9c5.1-1.7,11.7,3.5,12.9,6.8c0.6,1.7-1.3,10.6-3.6,19.6
		c2.4-4.2,4.8-8.5,7-12.9c1.4-2.7,2.7-5.6,3.9-8.6c0.6-1.5,1.2-3.1,1.7-4.7c0.6-1.8,1-3.6,1.4-5.4c0.1-0.5,0.2-1,0.3-1.6l0.1-0.8
		l0.1-0.8c0.1-1,0.2-1.9,0.2-2.8c0.1-1.8,0-3.6,0-5.3l-0.1-1h-21.9L1066.9,686.1z"/>
	<path class="st15" d="M937.6,584.2c-1,0.2-2,0.3-2.6,0.3c-0.2,0-0.4,0-0.6,0.1c-0.1,0,0,0.1,0.5,0.3c0.1,0,0,0-0.1,0l-0.2-0.1
		l-0.4-0.2l-0.9-0.3l-0.9-0.3l-0.9-0.4l-1.7-0.8l-1.7-0.8c-1.2-0.5-2.3-1.2-3.5-1.8c-1.7-1-3.5-2-5.2-3c2.7,3.8,4.2,7.3,1.6,9
		c-5.2,3.4-17.7,0.6-30.2-5.7c2.4,2.3,4.8,4.6,7.2,6.8c4.6,4.2,9.5,8.1,14.5,11.8c1.3,0.9,2.6,1.9,4,2.7l2,1.3l2.1,1.3l1.1,0.6
		l1.1,0.6l1.1,0.6l0.5,0.3l0.3,0.2l0.4,0.2c1.3,0.7,2.7,1.2,4.2,1.6c1.3,0.3,2.4,0.6,3.5,0.8s1.9,0.3,2.8,0.4l9.8-25.3l-2.5-1.3
		c-0.7,0.2-1.3,0.3-2,0.4C939.8,583.9,938.7,584.1,937.6,584.2z"/>
	<path class="st10" d="M871,541.8c0.3-0.9,0.2-1.9-0.3-2.7c-2.9-4.6-8.9-12-12.1-10.9c-3.5,1.2-12.8,8.8-11.5,15.5s7.1,7.7,8.2,7
		c1.2-0.5,2.4-0.9,3.7-1.2c0.7-0.2,1.4-0.1,2.1,0.2l3.2,1.5c1.6,0.8,3.6,0.1,4.3-1.6c0.1-0.1,0.1-0.3,0.2-0.4L871,541.8z"/>
	<path class="st10" d="M859.8,531.5c-0.2,0-0.4,0-0.5,0c-0.2,0-0.3,0-0.5,0c-0.3,0-0.5-0.1-0.8-0.1c-0.5-0.1-1-0.3-1.5-0.5
		c-1.1-0.4-2.3-0.8-3.5-1l-1.9-0.4l-2-0.4c-1.3-0.2-2.7-0.5-4-0.7l-0.4-0.1c-0.8-0.2-1.3-0.9-1.1-1.7c0.1-0.7,0.7-1.1,1.3-1.2
		c1.5-0.1,2.9-0.1,4.4,0c1.5,0.1,2.9,0.2,4.4,0.4c1.5,0.2,3,0.6,4.4,1.2c1.6,0.6,3,1.5,4.1,2.8c0.4,0.5,0.3,1.2-0.2,1.6
		c-0.2,0.2-0.4,0.3-0.7,0.3L859.8,531.5z"/>
	<path class="st16" d="M1098.6,680.3c-1-0.8-2.3-1.1-3.5-0.7c-0.7-16.7-4.1-33.1-9.9-48.7c-7.9-21.7-18.7-30.5-32.5-33.9
		c-0.6-0.3-1.2-0.6-1.9-0.7c-18.4-3.6-37.9-7.4-60.2-2.7c-17.9-1.7-35.6-5.8-52.5-12c1.8-0.9,2.5-3.2,1.5-5
		c-0.8-1.6-2.8-2.4-4.5-1.8c-13,4.7-21,26.5-21.5,34.8c-0.1,2,1.4,3.8,3.4,3.9h0.2c1.6,0,3.1-1.1,3.5-2.6
		c11.8,12.2,35.2,31.3,42.2,43.7c18.2,40.5-5,111-5,111s7.9-5.3,14.3-0.5c22.9,17.2,42.2,25.5,56.6,26.8
		c2.7,0.3,10.4-16.4,10.4-16.4c4.9,8.8,2.1,15.7,4.3,15c9.9-3.5,15.2-12.4,15-25.2c-0.3-14.5-8.5-39.1-5.2-57.8
		c0.9-5.3,2.8-16,4.8-27.1l4.8,8.6c-2,0.1-3.6,1.8-3.5,3.9c0.1,1.6,1.1,2.9,2.6,3.3c2.5,0.7,5,1,7.6,1c6-0.1,12-1.4,17.5-3.9
		c3.7-1.1,6.5-2.7,7.5-4.1c1.6-1.1,3-2.4,4.3-3.8C1100.4,684,1100.2,681.6,1098.6,680.3C1098.6,680.3,1098.6,680.3,1098.6,680.3z"/>
	<path class="st17" d="M1049.3,669.6c-1,18.5-9.3,37.2-8.2,43.8c1.3,8.1,15.3,38.9,17.3,57.2c0.2-1.7,0.3-3.5,0.2-5.3
		c-0.3-14.5-8.5-39.1-5.2-57.8c0.9-5.3,2.8-16,4.8-27.1l1.1-6.2l8.5-7.6c1.8-4.1,3.2-8.3,4-12.7c1.7-9.4,3.8-15,6.1-18.1
		c11.8,18.1,14.2,38.2,11.3,47.9c2.4,3.4,2,8.2-5.3,10.5l0.4,0.3c1-0.3,2-0.7,3-1.2c3.7-1.1,6.5-2.7,7.5-4.1c1.6-1.1,3-2.4,4.3-3.8
		c1.3-1.6,1.1-3.9-0.5-5.2c-1-0.8-2.3-1.1-3.5-0.7c-0.7-16.7-4.1-33.1-9.9-48.7c-7.9-21.7-18.7-30.5-32.5-33.9
		c-0.6-0.3-1.2-0.6-1.9-0.7l-4.7,57.5C1046.9,659.2,1048,664.4,1049.3,669.6z"/>
	<path class="st10" d="M985.8,593.1c3.6,8.4,28.9,40.4,42.3,41.5s45.8-24.4,45.6-24.9s-8.1-8-15.2-11c-17.8-7.6-29-7.5-36.2-8.4
		C1011.5,589,985.8,593.1,985.8,593.1z"/>
	<path class="st15" d="M1032.3,625.9c1.4,5.6,3.8,7.2,3.8,7.2l7-3l5.3-35.2c-3-1-5.8-1.7-8.4-2.3c-0.9-1.3-1.4-2.8-1.5-4.4
		c-0.2-3.6-0.5-10.4,4.9-19.9l-2.4,0.4c1.1-1.2,2-2.6,2.8-4c-0.4-0.4-0.8-0.7-1.3-0.9l-27.4,2.9c2.1,6.5,5,12.5,8.9,14.9
		c3.8,2.4,5.3,8.9,6,11.1S1030.9,620.3,1032.3,625.9z"/>
	<path class="st18" d="M917.8,614.3c-1.3,0-2.5-0.6-3.4-1.5c-2.3-2.3-0.4-7.8-0.2-8.4c0.2-0.4,0.6-0.6,1-0.5c0.4,0.1,0.6,0.6,0.5,1
		c0,0,0,0,0,0c-0.5,1.3-1.5,5.4-0.2,6.8c0.7,0.8,1.8,1.2,2.8,1c0.9-0.2,1.7-0.7,2.1-1.5c-0.5-3.5,5.5-15.1,6.7-17.5
		c0.2-0.4,0.7-0.5,1.1-0.3c0.4,0.2,0.5,0.7,0.3,1.1c0,0,0,0,0,0c-3,5.8-7.1,14.8-6.5,16.6c0.1,0.2,0.1,0.4,0,0.5
		C921.2,613.3,919.6,614.4,917.8,614.3L917.8,614.3z"/>
	<path class="st18" d="M969.8,704.1L969.8,704.1c-0.5,0-0.8-0.4-0.8-0.8c0.8-10-1.4-30.8-3.8-40.9c-2.2-9.3-9.6-16.8-9.7-16.8
		c-0.3-0.3-0.3-0.8,0-1.1c0.3-0.3,0.8-0.3,1.1,0c0.3,0.3,7.8,7.8,10.1,17.6c2.4,10.1,4.7,31.2,3.8,41.4
		C970.5,703.8,970.2,704.1,969.8,704.1z"/>
	<path class="st18" d="M958,766.4c-0.1,0-0.1,0-0.2,0c-0.4-0.1-0.7-0.5-0.6-0.9c0,0,0,0,0,0l8.3-34.2c0.1-0.4,0.5-0.7,1-0.6
		c0,0,0,0,0,0c0.4,0.1,0.7,0.5,0.6,0.9c0,0,0,0,0,0l-8.3,34.2C958.8,766.1,958.4,766.4,958,766.4z"/>
	<path class="st18" d="M1028.8,792.7c-7.6,0-36.6-13.6-37.8-14.2c-0.4-0.2-0.5-0.6-0.4-1c0.2-0.4,0.6-0.5,1-0.4
		c0.3,0.1,29.6,13.9,37,14c3.2-3.4,10-15.8,10-16c0.2-0.4,0.6-0.6,1-0.4c0.4,0.2,0.6,0.6,0.4,1c0,0.1,0,0.1-0.1,0.2
		c-0.3,0.5-7.2,13.3-10.5,16.6c-0.1,0.1-0.3,0.2-0.5,0.2H1028.8z"/>
	<path class="st18" d="M1043.6,791.2c-0.4,0-0.8-0.3-0.8-0.8c0-0.4,0.2-0.7,0.6-0.8c0.1,0,9.6-2.9,11.8-10.5c2.3-8.2,3.1-15,0.9-28
		c-2.1-12.1-5.3-33.8-3.5-43.8c1.7-9.5,7-39.2,7-39.5c0.1-0.4,0.5-0.7,0.9-0.6c0.4,0.1,0.7,0.5,0.6,0.9l0,0c-0.1,0.3-5.4,30-7,39.5
		c-1.7,9.8,1.5,31.3,3.5,43.3c2.3,13.3,1.4,20.3-1,28.7c-2.4,8.4-12.4,11.5-12.8,11.6C1043.8,791.2,1043.7,791.2,1043.6,791.2z"/>
	<path class="st18" d="M1071.8,698.2c-0.4,0-0.8-0.4-0.8-0.8c0-0.4,0.4-0.8,0.8-0.8c3.5-0.1,21.9-3.5,27.3-12.2c0.5-0.9,0.5-2,0-2.9
		c-0.7-0.8-1.7-1.3-2.8-1.3h-1.3c-1.1,1-5.5,4.8-7.9,4.9c-0.4,0-0.8-0.3-0.8-0.8c0-0.4,0.3-0.8,0.8-0.8c1.6,0,5.2-2.9,7.1-4.7
		c0.1-0.1,0.3-0.2,0.5-0.2h1.7c0.1,0,2.8,0.1,4.1,2c0.8,1.4,0.8,3,0.2,4.4c0,0,0,0.1-0.1,0.1
		C1094.8,694.5,1076.1,698.1,1071.8,698.2L1071.8,698.2z"/>
	<path class="st18" d="M1091.8,654.7c-0.4,0-0.7-0.3-0.8-0.6c-0.1-0.3-6.8-31.3-15.6-41.2c-0.3-0.3-0.4-0.8-0.1-1.1
		c0.3-0.3,0.8-0.4,1.1-0.1c0.1,0.1,0.2,0.2,0.2,0.2c9.1,10.3,15.7,40.7,16,42c0.1,0.4-0.2,0.8-0.6,0.9c0,0,0,0,0,0L1091.8,654.7z"/>
	<path class="st18" d="M985.8,593.9h-0.1c-0.6-0.1-14.3-2.1-18.6-3.1c-0.3-0.1-27.2-6.3-29.5-9.5c-0.2-0.4-0.2-0.9,0.2-1.1
		c0,0,0,0,0,0c0.4-0.2,0.8-0.2,1.1,0.2c0,0,0,0,0,0c1.3,1.9,19.3,6.7,28.5,8.8c4.3,1,18.3,3.1,18.5,3.1c0.4,0.1,0.7,0.5,0.7,0.9
		C986.5,593.6,986.1,593.9,985.8,593.9L985.8,593.9z"/>
	<path class="st18" d="M1028.1,663c-0.8,0-1.5-0.4-1.8-1.1c-1.4-2.2-5.4-6.7-10.5-12.5c-9.5-10.7-22.5-25.4-28.8-36.7
		c-0.2-0.4-0.1-0.9,0.3-1.1s0.9-0.1,1.1,0.3c6.2,11.2,19.1,25.8,28.6,36.5c5.2,5.8,9.2,10.4,10.7,12.7c0.2,0.3,0.3,0.3,0.5,0.3
		c4-0.1,17-20.7,24.2-33.7c0.2-0.4,0.7-0.5,1.1-0.2c0.3,0.2,0.4,0.6,0.3,1c-0.1,0.1-4.8,8.6-10.2,17
		C1032.3,662.9,1029.2,663,1028.1,663L1028.1,663z"/>
	<path class="st19" d="M1003.1,538.7c0,18.1,18.6,37.2,23.7,37.2c12.9,0.1,26.2-13.1,26.2-37.7c0-18.1-16.6-25-29.5-25
		C1010.5,513.2,1003.1,520.6,1003.1,538.7z"/>
	<path class="st19" d="M1013,517.3c-12-2.8-15.6,4.6-16.3,17.5c0,4.2,0.9,8.4,2.6,12.3l8.2,0.2L1013,517.3z"/>
	<path class="st10" d="M1014.1,557c0.5,3.8-0.3,7-1.9,7.2s-4.8-4.8-5.3-8.5s1.8-4.8,3.4-5.1C1011.9,550.4,1013.6,553.3,1014.1,557z"
		/>
	<path class="st20" d="M1032.1,534.3c0.1-3.8,2.9-7.8,6.9-9.7c4.7-2.2,11-1.4,12.4,1.4c0.4,0.8,0.6,2.2,0,2.8s-1.8,0.2-2.8,0
		c-3.4-0.7-8.1,0.4-9.7,2.8c-1.3,2,0.2,3.6-1.4,5.5c-1,1.2-2.9,2-4.2,1.4C1031.9,537.6,1032,535,1032.1,534.3z"/>
	<path class="st19" d="M1039.5,540.1c0.4-1.4-1.2-2.5-2.5-4.9c-4.3-8.7,14.8-11.3,24.8,2.8c8.5,12,26.6,56.4,3.8,113.7
		c-7.5,18.9-24.9,41.2-22.3-29.4c1.2-32.8-1.4-63.5-2.6-70.8c-0.6-3.7-8.9-5.7-8.9-5.7C1030,543.3,1037.2,541.5,1039.5,540.1z"/>
	<path class="st21" d="M901.6,1049.3h181.5c2.9,0,5.3,2.4,5.3,5.3l0,0c0,2.9-2.4,5.3-5.3,5.3H901.6c-2.9,0-5.3-2.4-5.3-5.3l0,0
		C896.3,1051.6,898.7,1049.3,901.6,1049.3z"/>
	<path class="st10" d="M1217.3,1044.2c0.2,0.8,0.3,1.7,0.5,2.5l0.4,2.6c0.3,1.8,0.6,3.5,0.8,5.3c0.5,3.5,1,7,1.3,10.5
		c0.4,3.5,0.7,7,0.8,10.4c0,0.8,0.1,1.7,0.1,2.5v2.5l-0.1,2.3l-0.2,2.1l-0.1,1c-0.3,3.7,2.5,7,6.2,7.3c3,0.2,5.7-1.5,6.9-4.2
		c1.5-3.9,2.7-7.9,3.5-12c0.8-3.8,1.5-7.6,2-11.4s1-7.5,1.5-11.3c0.2-1.9,0.4-3.8,0.6-5.6l0.3-2.8c0.1-1,0.2-1.9,0.2-2.9v-0.4
		c0.5-6.9-4.8-12.9-11.8-13.4c-6.9-0.5-12.9,4.8-13.4,11.8l0,0C1217,1042,1217.1,1043.1,1217.3,1044.2z"/>
	<path class="st10" d="M1139.4,1044.2c0.2,0.8,0.3,1.7,0.5,2.5l0.4,2.6c0.3,1.7,0.6,3.5,0.8,5.2c0.5,3.5,1,7,1.4,10.5
		c0.4,3.5,0.7,7,0.9,10.3c0,0.8,0.1,1.7,0.1,2.5v2.5l-0.1,2.3l-0.2,2.1l-0.1,1c-0.3,3.8,2.5,7,6.3,7.3c3,0.2,5.7-1.5,6.8-4.2
		c1.5-3.9,2.7-7.9,3.4-12c0.8-3.8,1.4-7.6,2-11.4s1-7.5,1.4-11.3c0.2-1.9,0.4-3.8,0.6-5.6l0.3-2.8c0.1-1,0.2-1.9,0.2-2.9v-0.4
		c0.5-6.9-4.6-13-11.6-13.5c-6.9-0.5-13,4.6-13.5,11.6c0,0.2,0,0.3,0,0.5C1139.1,1042.1,1139.2,1043.2,1139.4,1044.2z"/>
	<path class="st7" d="M1199.8,822l0.9,7.3l0.8,7.3l1.6,14.6l1.4,14.6l1.3,14.6c0.5,4.9,0.8,9.7,1.3,14.6s0.9,9.7,1.2,14.6l1.1,14.6
		l0.6,7.3l0.5,7.3c0.3,4.9,0.7,9.7,1,14.6s0.6,9.7,0.8,14.6l1.4,29.1l0.7,14.6l0.4,7.3c0.1,2.4,0.3,4.8,0.4,7.3
		c0.3,4.9,0.6,9.7,0.9,14.6l0.5,7.3l0.3,3.6l0.1,0.9c0,0.3,0,0.6,0.1,0.9c0.3,0.6,0.9,1.2,2.7,1.8c6.7,2.3,14,2.3,20.7,0
		c1.7-0.6,2.4-1.2,2.7-1.8c0.1-0.3,0.1-0.6,0.1-0.9l0.1-0.9l0.3-3.6l0.5-7.3c0.4-4.9,0.7-9.7,1-14.6c0.2-2.4,0.3-4.8,0.5-7.3
		l0.4-7.3l0.8-14.6c0.3-4.9,0.5-9.7,0.8-14.6l0.7-14.6l1.4-29.1l2.8-58.3l1.3-29.1l1.1-29.1l0.1-2.3c0.3-15.3-11.8-28-27.2-28.4
		c-15-0.3-27.5,11.3-28.3,26.2C1199.5,819,1199.6,820.5,1199.8,822z"/>
	<path class="st7" d="M1157.2,813.3c-0.4,1.3-0.8,2.4-1.1,3.7l-1.1,3.6c-0.7,2.4-1.4,4.8-2.1,7.3l-2,7.3c-0.7,2.4-1.3,4.8-2,7.3
		c-1.2,4.9-2.5,9.8-3.7,14.7c-0.3,1.2-0.6,2.5-0.9,3.7l-0.8,3.7l-1.7,7.5c-1.1,5-2.2,10-3.2,15.1s-1.9,10.3-2.7,15.8
		c-0.2,1.4-0.4,2.8-0.6,4.3s-0.4,3.1-0.5,4.9l-0.1,1.4c0,0.5-0.1,1-0.1,1.6v0.9v1.1v1v0.4l0.1,3.6l0.4,14.7l0.7,29.7
		c0.3,10,0.5,19.9,0.8,29.9s0.6,20,1.1,30c0.2,5,0.4,10,0.7,15.1c0.1,2.5,0.3,5.1,0.5,7.7l0.1,2l0.1,1c0,0.4,0.1,0.7,0.3,1
		c0.2,0.4,0.5,0.7,0.8,1c0.2,0.2,0.4,0.4,0.7,0.5c0.3,0.2,0.5,0.4,0.8,0.5c0.1,0.1,0.3,0.2,0.5,0.3c0.2,0.1,0.3,0.2,0.5,0.2
		c0.2,0.1,0.4,0.2,0.6,0.3l0.7,0.3l0.7,0.3c0.2,0.1,0.5,0.2,0.8,0.3l0.4,0.1l0.2,0.1l0.2,0.1l1,0.2c2.4,0.5,4.9,0.4,7.2-0.3l2.4-0.7
		l1.7-0.5l0.8-0.2l0.7-0.2l0.6-0.2c0.2,0,0.4-0.1,0.5-0.2l0.5-0.2c0.2-0.1,0.3-0.2,0.5-0.2c0.3-0.1,0.6-0.3,0.8-0.4
		c0.2-0.1,0.4-0.3,0.6-0.4c0.3-0.2,0.6-0.5,0.8-0.8c0.2-0.3,0.3-0.5,0.3-0.8l0.1-0.8l0.2-1.8c0.2-2.4,0.5-4.8,0.7-7.2
		c0.5-4.9,1.1-9.8,1.7-14.7l3.5-29.6c1.2-9.9,2.3-19.8,3.5-29.7s2.3-19.8,3.3-29.8c0.5-5,1-10,1.5-15.1l0.3-3.9v-0.5v-0.1v0.1v0.1
		v0.1c0,0,0,0.1,0,0.1l0,0c0,0,0.1-0.1,0.1-0.2c0.1-0.1,0.1-0.3,0.2-0.4l0.8-2.4l1-2.9c1.4-4.1,3.1-8.5,4.8-13s3.4-9,5.1-13.5
		l10.7-27.4c0.9-2.3,1.8-4.6,2.6-6.9l2.6-6.9c0.9-2.3,1.7-4.6,2.6-6.9l1.3-3.4l1.2-3.4c5.8-15.1-1.7-32-16.7-37.8
		c-15.1-5.8-32,1.7-37.8,16.7c-0.1,0.4-0.3,0.7-0.4,1.1c-0.2,0.4-0.3,0.8-0.4,1.2L1157.2,813.3z"/>
	<g>
		<defs>
			<path id="SVGID_8_" d="M1134.7,916.9v-1.1v-0.9c0-0.6,0.1-1.1,0.1-1.6l0.1-1.4c0.2-1.8,0.3-3.4,0.5-4.9s0.4-2.9,0.6-4.3
				c0.8-5.5,1.7-10.7,2.7-15.8s2.1-10.1,3.2-15.1l1.7-7.5l0.8-3.7c0.3-1.2,0.6-2.5,0.9-3.7c1.2-4.9,2.4-9.8,3.7-14.7
				c0.6-2.5,1.3-4.9,2-7.3l2-7.3c0.7-2.4,1.4-4.8,2.1-7.3l1.1-3.6c0.4-1.2,0.7-2.4,1.1-3.7l0.2-0.5c0.1-0.4,0.3-0.8,0.4-1.2
				c5.5-15.2,22.3-23,37.5-17.5c4,1.5,7.7,3.8,10.7,6.8c9.8-11.8,27.3-13.5,39.1-3.7c6.7,5.5,10.4,13.8,10,22.5l-0.1,2.3l-1.1,29.1
				l-1.3,29.1l-2.8,58.3l-1.5,29.1l-0.7,14.6c-0.3,4.9-0.5,9.7-0.8,14.6l-0.8,14.6l-0.4,7.3c-0.1,2.4-0.3,4.8-0.5,7.3
				c-0.3,4.9-0.6,9.7-1,14.6l-0.5,7.3l-0.3,3.6l-0.1,0.9c0,0.3,0,0.6-0.1,0.9c-0.3,0.6-0.9,1.2-2.7,1.8c-6.7,2.3-14,2.3-20.7,0
				c-1.7-0.6-2.4-1.2-2.7-1.8c-0.1-0.3-0.1-0.6-0.1-0.9l-0.1-0.9l-0.3-3.6l-0.5-7.3c-0.4-4.9-0.6-9.7-0.9-14.6
				c-0.1-2.4-0.3-4.8-0.4-7.3l-0.4-7.3l-0.7-14.6l-1.4-29.1c-0.2-4.8-0.5-9.7-0.8-14.6s-0.6-9.7-1-14.6l-0.5-7.3l-0.6-7.3l-1.1-14.6
				c-0.4-4.9-0.8-9.7-1.2-14.6s-0.8-9.7-1.3-14.6l-1.3-14.6l-1-9.6c-0.4,1-0.8,2-1.2,3l-10.6,27.3c-1.8,4.5-3.5,9-5.1,13.5
				s-3.4,8.9-4.8,13l-1,2.9l-0.8,2.4c0,0.1-0.1,0.3-0.2,0.4c0,0.1-0.1,0.2-0.1,0.2l0,0c0,0,0,0,0-0.1v-0.1v-0.1v-0.1v0.1v0.5
				l-0.3,3.9c-0.4,5.1-1,10.1-1.5,15.1c-1.1,10-2.2,19.9-3.3,29.8s-2.3,19.8-3.5,29.7l-3.5,29.6c-0.6,4.9-1.2,9.8-1.7,14.7
				c-0.3,2.4-0.5,4.9-0.7,7.2l-0.2,1.8l-0.1,0.8c0,0.3-0.1,0.6-0.3,0.8c-0.2,0.3-0.5,0.6-0.8,0.8c-0.2,0.1-0.4,0.3-0.6,0.4
				s-0.5,0.3-0.8,0.4c-0.1,0.1-0.3,0.1-0.5,0.2l-0.5,0.2c-0.2,0.1-0.4,0.1-0.5,0.2l-0.6,0.2l-0.7,0.2l-0.8,0.2l-1.7,0.5l-2.4,0.7
				c-2.3,0.7-4.8,0.8-7.2,0.3l-1-0.2l-0.2-0.1h-0.2l-0.4-0.1c-0.3-0.1-0.6-0.2-0.8-0.3l-0.7-0.3l-0.7-0.3c-0.2-0.1-0.4-0.2-0.6-0.3
				c-0.2-0.1-0.3-0.2-0.5-0.2c-0.2-0.1-0.3-0.2-0.5-0.3c-0.3-0.2-0.6-0.3-0.8-0.5c-0.2-0.2-0.5-0.3-0.7-0.5c-0.3-0.3-0.6-0.6-0.8-1
				c-0.2-0.3-0.3-0.6-0.3-1l-0.1-1l-0.1-2c-0.2-2.6-0.3-5.1-0.5-7.7c-0.3-5.1-0.5-10.1-0.7-15.1c-0.4-10-0.7-20-1.1-30
				s-0.6-19.9-0.8-29.9l-0.7-29.7l-0.4-14.7l-0.1-3.6v-0.4v-1L1134.7,916.9z"/>
		</defs>
		<clipPath id="SVGID_9_">
			<use xlink:href="#SVGID_8_"  style="overflow:visible;"/>
		</clipPath>
		<g class="st22">
			<g class="st23">
				<path class="st24" d="M1247.3,1014.8c-1,5.8-3.5,17.1-9.6,17.4c-17.1,1-25.4-51.2-25.4-51.2l1.8,76.3l8.5,25.7l57.8-24.3
					l-17.6-38.2L1247.3,1014.8z"/>
				<path class="st24" d="M1169.6,1009.1c-1.6,5.7-5.1,16.7-11.3,16.6c-17.4-0.5-21-53.2-21-53.2l-5.2,76.3l6.2,26.3l60.4-19.3
					l-14.2-39.6L1169.6,1009.1z"/>
			</g>
		</g>
	</g>
	<path class="st14" d="M1238.3,1080c2.3,11.5-0.8,17.7-0.8,17.7h-34.7c0,0-4.8-5.3-2.2-8.6s11.5-6,15.1-7.6s2.7-7.6,5.2-7.7
		s4.5,5.2,8.1,5.2c1.9-0.1,3.7-0.4,5.5-1.1c1.5-0.5,3.2,0.3,3.7,1.9C1238.3,1079.8,1238.3,1079.9,1238.3,1080z"/>
	<path class="st14" d="M1160.9,1080c2.3,11.5-0.8,17.7-0.8,17.7H1117c0,0-4.8-5.3-2.2-8.6s19.4-7.8,23.1-9.4s3.2-5.8,5.7-5.9
		s4.5,5.2,8.1,5.2c1.9-0.1,3.7-0.4,5.5-1.1c1.5-0.5,3.2,0.3,3.7,1.9C1160.9,1079.8,1160.9,1079.9,1160.9,1080z"/>
	<path class="st10" d="M1238.6,633.7c-0.2-0.6-0.5-1.1-0.7-1.7l-0.3-0.8c-0.1-0.3-0.2-0.5-0.3-0.7l-0.6-1.3l-0.3-0.7l-0.3-0.6
		c-0.2-0.4-0.4-0.8-0.5-1.2l-0.5-1.2c-0.3-0.8-0.6-1.5-0.9-2.3c-1.2-2.8-2-5.7-2.5-8.7c-0.4-2.9-0.5-5.9-1.1-8.7
		c-0.3-1.3-0.7-2.6-1.2-3.9l-0.4-0.9c-0.1-0.3-0.4-0.6-0.7-0.7c-0.5-0.2-1.1-0.3-1.7-0.3h-0.3c-0.1,0-0.1,0-0.2,0l-0.1,0
		c-0.2,0.1-0.5,0.1-0.7,0.2c-0.6,0.1-1.2,0.2-1.8,0.3c0.1-4.7-3.7-8.6-8.4-8.7c-4.7-0.1-8.6,3.7-8.7,8.4c0,0.4,0,0.9,0.1,1.3
		c0,0.4,0,0.8,0,1.1v1c0,0.5,0,1,0,1.4s0,0.8,0,1.2l0.1,1.2l0.3,4.5c0.3,2.9,0.5,5.8,0.7,8.7c0.1,1.4,0.1,2.8,0.2,4.3
		c0,0.7,0,1.4,0,2.1s0,1.4-0.1,2s-0.1,1.3-0.1,2c0,0.3-0.1,0.6-0.1,1l-0.1,0.9l-0.1,0.5l-0.1,0.4l-0.2,0.8c0,0.1-0.1,0.2-0.1,0.4
		l-0.2,0.2c-0.1,0.2-0.2,0.3-0.3,0.5c-5.8,9.1-3.1,21.2,6,27c9.1,5.8,21.2,3.1,27-6c3.5-5.5,4-12.3,1.5-18.3L1238.6,633.7z"/>
	<path class="st14" d="M1289.1,659.3c-24.4-30.7-37.4-34.7-67.2-35.8c-14.2-0.5-32.5,3.6-44.8,8.3c-14.9,5.7-31.8,21-27.7,36.3
		c7.6,28.3,18.5,73.5,16.4,95.3c-0.9,10-9.9,30.2-12.9,51.2c15.2,10.4,58.3,60.7,105.6,0.6c0,0-6.4-45.9-0.1-70
		S1289.1,659.3,1289.1,659.3z"/>
	<path class="st25" d="M1164.9,740.6l3-0.2c0,0,5.3-23.7,5.2-28.3s-0.7-14.2-0.7-14.2s9.9,18.7,11.2,37s-1.2,41.9-1.2,41.9l5.8,14
		l28.1,19.8l22.8-8.9l17.2-10.8c0.8,13.7,2.3,24.3,2.3,24.3c-2.9,3.7-6.1,7.3-9.4,10.6c-12.4,5.6-31.2,12.3-42.6,7.9
		c-18.3-7-23.3-25.2-32.1-22.7c-3.9,1.1-9.6,5.1-14.5,9.1c-2.7-2.3-5.1-4.2-7-5.5c3-21,12-41.2,12.9-51.2
		C1166.4,757.3,1166,749.4,1164.9,740.6z"/>
	
		<ellipse transform="matrix(0.9982 -5.965482e-02 5.965482e-02 0.9982 -32.9369 73.3864)" class="st10" cx="1212.6" cy="588.3" rx="17.8" ry="24.8"/>
	<path class="st26" d="M1201.7,587.9c0.8,13.7,9.4,24.3,19.2,23.7s23.1-17,22.3-30.7s-15.5-19.4-25.3-18.8
		S1200.9,574.2,1201.7,587.9z"/>
	<path class="st19" d="M1188.6,573.7c0.9,14.6,15,25.7,31.5,24.7s27.4-1.7,29.4-16.2c3.3-23.6-17.3-30.4-32.6-36.8
		C1198.7,537.9,1187.7,559.1,1188.6,573.7z"/>
	<path class="st10" d="M1149,679.2c-1.4,2.9-2.5,5.9-3.4,9c-0.9,3-1.7,6.1-2.4,9.1s-1.2,6.1-1.7,9.3s-0.8,6.2-1.2,9.3
		c-0.8,6.2-1.5,12.5-2.1,18.8c-0.3,3.2-0.6,6.4-0.8,9.7c-0.1,1.7-0.2,3.3-0.2,5.1c0,0.9,0,1.8,0,2.8c0,0.5,0,1,0,1.6s0.1,1.2,0.1,2
		l0.1,0.6l0.1,0.7c0,0.3,0.1,0.5,0.2,0.9c0,0.2,0.1,0.3,0.1,0.6s0.1,0.4,0.2,0.7s0.2,0.6,0.3,0.9l0.1,0.2l0.1,0.3
		c0.1,0.2,0.2,0.4,0.3,0.6l0.2,0.3l0.2,0.4c0.2,0.3,0.3,0.6,0.5,0.8l0.2,0.3l0.1,0.1l0.2,0.2l0.4,0.5l0.2,0.3l0.2,0.3l0.2,0.2
		l0.3,0.4l0.3,0.3l0.3,0.3l0.3,0.3l0.5,0.5l0.5,0.5c1.3,1.2,2.6,2.3,3.8,3.3c2.5,2.1,4.9,4.1,7.3,6.1c4.9,4,9.8,7.8,14.8,11.7
		s10,7.6,15,11.3c2.5,1.9,5,3.7,7.6,5.5c1.3,0.9,2.9,4.3,4.2,5.2l1.6,1.3l2.1,1.4c3.5,2.4,8.2,1.5,10.6-2c2.1-3.1,1.7-7.2-1-9.7
		l-0.2-2.7l-13.1-12.9l-13.3-13l-13.3-12.9c-2.2-2.2-4.4-4.3-6.5-6.4c-1-1-2.1-2.1-3-3.1l-0.3-0.3l-0.3-0.3l-0.1-0.2l-0.1-0.1
		l-0.1-0.1v-0.1l0,0l0,0l0,0l0.2,0.2l0.1,0.1l0.2,0.3c0.2,0.2,0.3,0.5,0.4,0.7l0.2,0.4l0.1,0.2l0.2,0.5l0.2,0.4
		c0.1,0.2,0.2,0.4,0.2,0.6s0.1,0.3,0.1,0.4l0.1,0.3l0.1,0.3v0.2l0,0c0-0.1,0-0.2,0-0.4v-0.7c0-0.5,0.1-1.2,0.2-1.8
		c0.1-1.3,0.3-2.8,0.5-4.2c0.4-2.9,0.8-5.8,1.3-8.8c0.9-6,2-12,3-18.1l1.6-9.1c0.5-3,0.9-6.1,1.3-9.2s0.6-6.2,0.7-9.3
		c0.1-3.1,0-6.3-0.3-9.4v-0.1c-0.7-5.9-6-10.1-11.9-9.5c-3.7,0.4-6.9,2.7-8.5,6L1149,679.2z"/>
	<path class="st10" d="M1246.3,814.6c0.9-1,1.9-1.9,3-2.8c0.5-0.5,1.1-0.9,1.6-1.3l1.7-1.3c2.3-1.7,4.8-3.4,7.4-5s5.1-3.3,7.8-4.9
		c1.3-0.8,2.6-1.6,4-2.4l4.1-2.4l4.1-2.4c1.4-0.8,2.8-1.6,4.2-2.4c2.8-1.7,5.7-3.4,8.7-5.4c1.5-1,3-2,4.6-3.2c1.8-1.4,3.5-2.8,5-4.5
		c1-1.1,2-2.3,2.8-3.5c0.6-0.8,1.1-1.7,1.5-2.6c0.6-1.2,1-2.4,1.3-3.7c0.2-0.8,0.4-1.6,0.4-2.4c0-0.4,0.1-0.9,0.1-1.4v-0.6
		c0-0.3,0-0.5,0-0.8c0-0.5-0.1-1.1-0.2-1.6l-0.1-0.6V759l-0.1-0.4l-0.1-0.7l-0.4-2.4l-1.5-9.4c-0.5-3.1-1-6.2-1.4-9.4L1302,718
		l-1.4-9.3l-1.3-9.4c-0.9-6.2-1.8-12.5-2.6-18.8c-1.1-8.6-9-14.7-17.6-13.6s-14.7,9-13.6,17.6l0,0c0,0.2,0.1,0.4,0.1,0.6l0.4,2.6
		c1.1,6.2,2.2,12.4,3.4,18.5l1.8,9.3l1.9,9.2l0.9,4.6l1,4.6l1.9,9.2c0.6,3.1,1.3,6.1,2,9.2l2,9.2l0.5,2.2l0.1,0.5v0.2v0.2
		c0,0,0,0.1,0,0v-0.3c-0.1-0.4-0.1-0.8-0.1-1.1c0-0.2,0-0.4,0-0.6v-0.4c0-0.2,0-0.4,0-0.6c0-0.3,0.1-0.7,0.2-1
		c0.1-0.6,0.3-1.1,0.6-1.6c0-0.1-0.1,0.1-0.3,0.3c-0.6,0.7-1.3,1.4-2.1,2c-0.9,0.8-1.9,1.6-3,2.5c-2.2,1.7-4.5,3.4-6.9,5.2l-3.6,2.8
		l-3.7,2.8c-4.9,3.9-9.8,8-14.9,12.1c-1.3,1-2.5,2.1-3.8,3.1l-3.8,3.2l-3.9,3.3l-4.1,3.4c-4.4,3.7-4.9,10.2-1.2,14.6
		c3.7,4.4,10.2,4.9,14.6,1.2c0.3-0.3,0.6-0.6,0.9-0.9L1246.3,814.6z"/>
	<path class="st10" d="M1235.9,800.1c-4.7,0.1-9.3,1.1-13.7,2.7c0,0-3-6-7.2-6h-11.6l-6.6,13.2c0,0,10.2,16.2,19.5,17
		s26.5-3.3,29.7-8.8C1257.6,798.4,1235.9,800.1,1235.9,800.1z"/>
	<g>
		<defs>
			<path id="SVGID_10_" d="M1137.1,749.5c0-1.8,0.1-3.5,0.2-5.1c0.2-3.3,0.5-6.5,0.8-9.7c0.6-6.3,1.3-12.6,2.1-18.8
				c0.4-3.1,0.8-6.2,1.2-9.3s1-6.2,1.7-9.3s1.5-6.1,2.4-9.1c0.9-3.1,2.1-6.1,3.4-9c2.6-5.3,9-7.6,14.3-5c3.3,1.6,5.6,4.8,6,8.5v0.1
				c0.3,3.1,0.4,6.3,0.3,9.4c-0.1,3.1-0.3,6.2-0.7,9.3s-0.8,6.1-1.3,9.2l-1.6,9.1c-1,6-2.1,12.1-3,18.1c-0.5,3-0.9,6-1.3,8.8
				c-0.2,1.4-0.3,2.9-0.5,4.2c0,0.3-0.1,0.5-0.1,0.8c0.5,0.5,1.1,1.1,1.6,1.7c2.1,2.1,4.3,4.3,6.5,6.4l13.3,12.9l13.3,13l11.4,11.3
				h7.5c4.2,0,7.2,6,7.2,6c2.9-1.1,5.9-1.9,9-2.4c0.2-0.2,0.4-0.4,0.7-0.6l4.1-3.4l3.9-3.3l3.8-3.2c1.3-1.1,2.6-2.1,3.8-3.1
				c5-4.1,10-8.2,14.9-12.1l3.7-2.8l3.6-2.8c2.4-1.8,4.8-3.5,6.9-5.2c1.1-0.8,2.1-1.7,3-2.5c0.3-0.3,0.6-0.6,0.9-0.8l-1.8-8.1
				c-0.7-3.1-1.3-6.1-2-9.2l-1.9-9.2l-1-4.6l-0.9-4.6l-1.9-9.2l-1.8-9.3c-1.2-6.2-2.3-12.3-3.4-18.5l-0.4-2.6c0-0.2-0.1-0.4-0.1-0.6
				c-1.1-8.6,5-16.5,13.6-17.6s16.5,5,17.6,13.6l0,0c0.8,6.3,1.7,12.5,2.6,18.8l1.3,9.4l1.4,9.3l2.8,18.7c0.5,3.1,1,6.2,1.4,9.4
				l1.5,9.4l0.4,2.4l0.1,0.7l0.1,0.4v0.2l0.1,0.6c0.1,0.5,0.2,1.1,0.2,1.6c0,0.3,0,0.5,0,0.8v0.6c0,0.5-0.1,0.9-0.1,1.4
				c-0.1,0.8-0.2,1.6-0.4,2.4c-0.3,1.3-0.8,2.5-1.3,3.7c-0.4,0.9-0.9,1.8-1.5,2.6c-0.8,1.3-1.8,2.4-2.8,3.5c-1.5,1.6-3.2,3.1-5,4.5
				c-1.6,1.2-3.1,2.3-4.6,3.2c-3,1.9-5.8,3.7-8.7,5.4c-1.4,0.8-2.8,1.6-4.2,2.4l-4.1,2.4l-4.1,2.4c-1.3,0.8-2.7,1.6-4,2.4
				c-2.6,1.6-5.2,3.3-7.8,4.9s-5,3.3-7.4,5l-1.7,1.3c-0.6,0.4-1.1,0.9-1.6,1.3c-0.2,0.1-0.3,0.3-0.4,0.4c-0.7,2.1-1.6,4.1-2.8,6
				c-3.3,5.5-20.4,9.5-29.7,8.8s-19.4-17-19.4-17l-0.8-1.1l-1.2-1.2c-1.3-0.9-1.7-1.9-2.9-2.8c-2.5-1.8-5.1-3.7-7.6-5.5
				c-5-3.8-10-7.5-15-11.3s-9.9-7.7-14.8-11.7c-2.4-2-4.9-4-7.3-6.1c-1.2-1.1-2.5-2.1-3.8-3.3l-0.5-0.5l-0.5-0.5l-0.3-0.3l-0.3-0.3
				l-0.3-0.3l-0.3-0.4l-0.2-0.2l-0.2-0.3l-0.2-0.3l-0.4-0.5l-0.2-0.2l-0.1-0.1l-0.2-0.3c-0.2-0.3-0.4-0.5-0.5-0.8l-0.2-0.4l-0.2-0.3
				c-0.1-0.2-0.2-0.4-0.3-0.6l-0.1-0.3l-0.1-0.2c-0.1-0.3-0.2-0.6-0.3-0.9s-0.1-0.4-0.2-0.7s-0.1-0.4-0.1-0.6
				c-0.1-0.4-0.1-0.6-0.2-0.9l-0.1-0.7l-0.1-0.6c-0.1-0.8-0.1-1.4-0.1-2s0-1.1,0-1.6C1137.1,751.3,1137.1,750.4,1137.1,749.5z"/>
		</defs>
		<clipPath id="SVGID_11_">
			<use xlink:href="#SVGID_10_"  style="overflow:visible;"/>
		</clipPath>
		<g class="st27">
			<path id="shadow_hand" class="st28" d="M1198.7,785.6c3.8,7,0.7,9.9-11.9,8s-52.1-33.9-52.1-33.9l8,34.5l61.6,35.9l27.1,2.2
				l23.6-20.4l47.2-32.6c0,0-23.3,15.3-43.7,17.5s-6.5-13.5-6.5-13.5L1198.7,785.6z"/>
			<path class="st28" d="M1306.8,746.3c-2.8-2.9-13.6-6.3-20.9-1s-12.8,14.4-12.8,14.4v-21.3l33.7-10.5V746.3z"/>
			<path class="st28" d="M1163.5,746.3c-1.2,0-10-4-14.3-3.4s-14,9.9-14.5,16.8c-2.3-21.3,2.5-32.9,2.5-32.9l20.3,1.2l10.3,8
				L1163.5,746.3z"/>
		</g>
	</g>
	<path class="st14" d="M1267.1,638.1c13.3,3.3,22.5,20.1,26.8,32.7c6.5,19.1,15.7,58.7,15.7,58.7c-14.1,9-26.6,14-40.9,14.3
		c0,0-15.9-27.2-16.4-37.5C1250.3,662.4,1267.1,638.1,1267.1,638.1z"/>
	<path class="st25" d="M1286.8,740.8c-5.8,1.9-11.9,2.9-18.1,3.1c0,0-3.3-5.7-7-12.8l4.7-24.9C1266.5,706.2,1271,734,1286.8,740.8z"
		/>
	<path class="st29" d="M1222.4,819.8c0.4,0,0.8-0.3,0.8-0.7c0-0.3-0.2-0.6-0.5-0.7c-3.9-1.6-7.2-4.8-7.8-7.7c-0.3-1-0.1-2.2,0.6-3
		c0.3-0.3,0.2-0.8-0.1-1.1c-0.3-0.3-0.8-0.2-1.1,0.1l0,0c-1,1.2-1.4,2.8-0.9,4.3c0.8,3.3,4.4,6.9,8.7,8.7
		C1222.2,819.8,1222.3,819.8,1222.4,819.8z"/>
	<path class="st14" d="M1165.3,648.8c-15.6-4.1-19.4,11.5-23.6,28.4c-2.2,8.9-13.4,55-13.4,55c6.2,3.9,25.1,12.2,39.5,8.1l4.5-56.6
		L1165.3,648.8z"/>
	<path class="st25" d="M1148.2,740.1c-7-1.6-13.7-4.3-19.8-7.9c0,0,11.2-46,13.4-55c1.8-7.1,3.5-13.9,6-19.1
		C1141.4,686,1146.4,727.4,1148.2,740.1z"/>
	<path class="st21" d="M1108.6,1097.5h177.5c2.9,0,5.3,2.4,5.3,5.3l0,0c0,2.9-2.4,5.3-5.3,5.3h-177.5c-2.9,0-5.3-2.4-5.3-5.3l0,0
		C1103.3,1099.9,1105.7,1097.5,1108.6,1097.5z"/>
	<polygon class="st14" points="632.3,284.3 632.3,344.1 570.3,344.1 570.3,337.5 626,337.5 626,284.3 	"/>
	<polygon class="st14" points="451.2,284.3 451.2,344.1 513.2,344.1 513.2,337.5 457.5,337.5 457.5,284.3 	"/>
	<polyline class="st30" points="629,254.2 676.8,226.9 676.8,281.5 629,308.8 629,254.2 	"/>
	<polygon class="st31" points="581.2,226.9 629,199.6 676.8,226.9 629,254.2 	"/>
	<polygon class="st32" points="581.2,281.5 629,308.8 629,254.2 581.2,226.9 	"/>
	<polyline class="st30" points="454.5,254.2 502.2,226.9 502.2,281.5 454.5,308.8 454.5,254.2 	"/>
	<polygon class="st31" points="406.7,226.9 454.5,199.6 502.2,226.9 454.5,254.2 	"/>
	<polygon class="st32" points="406.7,281.5 454.5,308.8 454.5,254.2 406.7,226.9 	"/>
	<polyline class="st30" points="541.2,331.3 589,304 589,358.6 541.2,385.9 541.2,331.3 	"/>
	<polygon class="st31" points="493.5,304 541.2,276.7 589,304 541.2,331.3 	"/>
	<polygon class="st32" points="493.5,358.6 541.2,385.9 541.2,331.3 493.5,304 	"/>
	<polyline class="st30" points="541.2,175.1 589,147.8 589,202.4 541.2,229.7 541.2,175.1 	"/>
	<polygon class="st31" points="493.5,147.8 541.2,120.5 589,147.8 541.2,175.1 	"/>
	<polygon class="st32" points="493.5,202.4 541.2,229.7 541.2,175.1 493.5,147.8 	"/>
	<polygon class="st14" points="631.9,225.5 631.9,185.5 569.9,185.5 569.9,192.1 625.6,192.1 625.6,225.5 	"/>
	<polygon class="st14" points="451.3,185.5 513.3,185.5 513.3,192.1 457.6,192.1 457.6,225.5 451.3,225.5 	"/>
</g>
</svg>
