<svg xmlns="http://www.w3.org/2000/svg" viewBox="0 0 1280 986.09"><defs><style>.cls-1{fill:#444db9;}.cls-11,.cls-2{stroke:#444db9;}.cls-11,.cls-2,.cls-5,.cls-7,.cls-9{stroke-miterlimit:10;}.cls-3{fill:lime;}.cls-4{fill:#f166a3;}.cls-5{stroke:#fff;}.cls-6{fill:#0f3;}.cls-7,.cls-9{stroke:#f166a3;}.cls-8{fill:#020202;}.cls-9{stroke-width:1.36px;}.cls-10{fill:#fff;}.cls-11{fill:none;stroke-width:2px;}.cls-12{fill:#272b7d;}.cls-13{fill:#057c19;}.cls-14{fill:#0cc42a;}.cls-15{opacity:0.53;}.cls-16{fill:#ebb044;}.cls-17,.cls-19{fill:#2d2a27;}.cls-17{opacity:0.1;}.cls-18{fill:#f9cc5d;}.cls-19{opacity:0.08;}</style></defs><g id="BACKGROUND"><rect width="1280" height="987.92"/></g><g id="OBJECTS"><polygon class="cls-1" points="1204.3 432.9 1200.48 421.53 1211.86 417.71 1209.49 410.65 1198.12 414.47 1194.3 403.1 1187.24 405.47 1191.06 416.84 1179.68 420.66 1182.05 427.71 1193.43 423.9 1197.24 435.27 1204.3 432.9"/><polygon class="cls-2" points="668.67 174.88 719.55 153.04 741.39 203.92 772.96 190.36 751.11 139.49 801.99 117.65 788.44 86.08 737.56 107.92 715.72 57.05 684.15 70.6 705.99 121.47 655.12 143.32 668.67 174.88"/><rect class="cls-3" x="13.09" y="18.56" width="12.47" height="12.47"/><rect class="cls-3" x="83.13" y="18.52" width="12.47" height="12.47"/><rect class="cls-3" x="153.16" y="18.48" width="12.47" height="12.47"/><rect class="cls-3" x="223.2" y="18.44" width="12.47" height="12.47"/><rect class="cls-3" x="293.24" y="18.39" width="12.47" height="12.47"/><rect class="cls-3" x="13.13" y="86.82" width="12.47" height="12.47"/><rect class="cls-3" x="83.16" y="86.78" width="12.47" height="12.47"/><rect class="cls-3" x="153.2" y="86.74" width="12.47" height="12.47"/><rect class="cls-3" x="223.24" y="86.7" width="12.47" height="12.47"/><rect class="cls-3" x="293.28" y="86.66" width="12.47" height="12.47"/><rect class="cls-3" x="13.17" y="155.09" width="12.47" height="12.47"/><rect class="cls-3" x="83.2" y="155.05" width="12.47" height="12.47"/><rect class="cls-3" x="153.24" y="155.01" width="12.47" height="12.47"/><rect class="cls-3" x="223.28" y="154.97" width="12.47" height="12.47"/><rect class="cls-3" x="293.32" y="154.93" width="12.47" height="12.47"/><rect class="cls-3" x="13.2" y="223.35" width="12.47" height="12.47"/><rect class="cls-3" x="83.24" y="223.31" width="12.47" height="12.47"/><rect class="cls-3" x="153.28" y="223.27" width="12.47" height="12.47"/><rect class="cls-3" x="223.32" y="223.23" width="12.47" height="12.47"/><rect class="cls-3" x="293.36" y="223.19" width="12.47" height="12.47"/><rect class="cls-4" x="1061.52" y="61.81" width="16.62" height="16.62"/><rect class="cls-4" x="1097.97" y="61.79" width="16.62" height="16.62"/><rect class="cls-4" x="1134.41" y="61.76" width="16.62" height="16.62"/><rect class="cls-4" x="1170.86" y="61.74" width="16.62" height="16.62"/><rect class="cls-4" x="1061.54" y="97.33" width="16.62" height="16.61"/><rect class="cls-4" x="1097.99" y="97.31" width="16.62" height="16.62"/><rect class="cls-4" x="1134.44" y="97.29" width="16.61" height="16.61"/><rect class="cls-4" x="1170.88" y="97.27" width="16.62" height="16.61"/><rect class="cls-4" x="1061.56" y="132.85" width="16.62" height="16.62"/><rect class="cls-4" x="1098.01" y="132.83" width="16.61" height="16.62"/><rect class="cls-4" x="1134.46" y="132.81" width="16.61" height="16.61"/><rect class="cls-4" x="1170.9" y="132.79" width="16.62" height="16.61"/><rect class="cls-4" x="1061.58" y="168.38" width="16.61" height="16.62"/><rect class="cls-4" x="1098.03" y="168.36" width="16.62" height="16.61"/><rect class="cls-4" x="1134.48" y="168.34" width="16.62" height="16.61"/><rect class="cls-4" x="1170.92" y="168.32" width="16.61" height="16.62"/><path class="cls-5" d="M1006.51,728.11h0a284.15,284.15,0,0,1,284.15,284.15v0a0,0,0,0,1,0,0H1006.51a0,0,0,0,1,0,0V728.11A0,0,0,0,1,1006.51,728.11Z" transform="translate(278.4 2018.77) rotate(-90)"/><polygon class="cls-6" points="1120.99 906.92 1160.92 881.14 1186.69 921.07 1211.47 905.08 1185.69 865.15 1225.62 839.38 1209.63 814.61 1169.7 840.38 1143.93 800.45 1119.16 816.44 1144.93 856.37 1105 882.14 1120.99 906.92"/><rect class="cls-7" x="68.13" y="605.89" width="212.28" height="212.28"/><rect class="cls-6" x="103.14" y="800.11" width="4.88" height="4.88"/><rect class="cls-6" x="130.54" y="800.09" width="4.88" height="4.88"/><rect class="cls-6" x="157.94" y="800.08" width="4.88" height="4.88"/><rect class="cls-6" x="185.34" y="800.06" width="4.88" height="4.88"/><rect class="cls-6" x="212.74" y="800.05" width="4.88" height="4.88"/><rect class="cls-6" x="240.14" y="800.03" width="4.88" height="4.88"/><rect class="cls-6" x="103.16" y="826.82" width="4.88" height="4.88"/><rect class="cls-6" x="130.56" y="826.8" width="4.88" height="4.88"/><rect class="cls-6" x="157.96" y="826.78" width="4.88" height="4.88"/><rect class="cls-6" x="185.36" y="826.77" width="4.88" height="4.88"/><rect class="cls-6" x="212.76" y="826.75" width="4.88" height="4.88"/><rect class="cls-6" x="240.16" y="826.74" width="4.88" height="4.88"/><rect class="cls-6" x="103.17" y="853.52" width="4.88" height="4.88"/><rect class="cls-6" x="157.97" y="853.49" width="4.88" height="4.88"/><rect class="cls-6" x="185.37" y="853.48" width="4.88" height="4.88"/><rect class="cls-6" x="212.77" y="853.46" width="4.88" height="4.88"/><rect class="cls-6" x="103.19" y="880.23" width="4.88" height="4.88"/><rect class="cls-6" x="157.99" y="880.2" width="4.88" height="4.88"/><rect class="cls-6" x="185.39" y="880.18" width="4.88" height="4.88"/><rect class="cls-6" x="212.79" y="880.17" width="4.88" height="4.88"/><rect class="cls-6" x="103.2" y="906.94" width="4.88" height="4.88"/><rect class="cls-6" x="185.4" y="906.89" width="4.88" height="4.88"/><rect class="cls-6" x="103.22" y="933.64" width="4.88" height="4.88"/><rect class="cls-6" x="185.42" y="933.6" width="4.88" height="4.88"/><rect class="cls-6" x="157.94" y="666.64" width="4.88" height="4.88"/><rect class="cls-6" x="157.96" y="693.34" width="4.88" height="4.88"/><rect class="cls-6" x="212.76" y="693.31" width="4.88" height="4.88"/><rect class="cls-6" x="130.57" y="720.06" width="4.88" height="4.88"/><rect class="cls-6" x="157.97" y="720.05" width="4.88" height="4.88"/><rect class="cls-6" x="212.77" y="720.02" width="4.88" height="4.88"/><rect class="cls-6" x="130.59" y="746.77" width="4.88" height="4.88"/><rect class="cls-6" x="157.99" y="746.76" width="4.88" height="4.88"/><rect class="cls-6" x="212.79" y="746.72" width="4.88" height="4.88"/><rect class="cls-6" x="240.19" y="746.71" width="4.88" height="4.88"/><rect class="cls-6" x="103.2" y="773.49" width="4.88" height="4.88"/><rect class="cls-6" x="130.6" y="773.48" width="4.88" height="4.88"/><rect class="cls-6" x="158" y="773.46" width="4.88" height="4.88"/><rect class="cls-6" x="185.4" y="773.45" width="4.88" height="4.88"/><rect class="cls-6" x="212.8" y="773.43" width="4.88" height="4.88"/><rect class="cls-6" x="240.2" y="773.42" width="4.88" height="4.88"/><path class="cls-1" d="M139,474.36c4.12-3.51,9.32-9.24,15.22-5.89,21,13.7,41.25,28.71,59.58,45.89,12.29,11.46,23.74,23.82,35.78,35.54,0,2.83.4,6-1.75,8.2-22.12,31.76-48.79,60.06-77.15,86.29-2.85,2.59-6.33,4.29-9.69,6.07-4-1.49-8-3-11.53-5.41C132.19,633.47,116,620.33,100,607c-13.88-12.21-28.49-24-39.74-38.79-5.5-5.71,1.91-11.95,4.92-16.84a620.62,620.62,0,0,1,73.81-77"/><path class="cls-8" d="M135,545.2c-1.84,1.42-3.51,2.64-5.1,3.95-3.26,2.7-6.51,5.41-9.71,8.19-1.11,1-2,2.15-3.09,3.2-.24.24-.71.51-.95.42a1.22,1.22,0,0,1-.52-.92c-.2-2-.4-4-.47-6a2.12,2.12,0,0,1,.71-1.42q5.77-5.18,11.62-10.25c1.89-1.65,1.92-1.85-.16-3.17a42.71,42.71,0,0,0-10.19-4.6,1.62,1.62,0,0,0-2.11.91,30,30,0,0,0-2,5.57,88,88,0,0,0-1,23.53,106.44,106.44,0,0,0,1.7,11.19,11.05,11.05,0,0,0,1.41,3.22,2.19,2.19,0,0,0,2.45,1.06,22.33,22.33,0,0,0,7.88-3.28,158.62,158.62,0,0,0,17-12.19c3.7-2.9,7.45-5.74,11.08-8.72,4.1-3.38,8.07-6.9,12.14-10.32,5-4.2,10-8.43,15.09-12.51,5.3-4.23,10.48-8.65,16.39-12a34.44,34.44,0,0,1,5.93-2.61c1.72-.59,2.81,0,3.82,1.47a20.3,20.3,0,0,1,2.72,7.7c1.84,9.62,2.13,19.36,2.12,29.12a212.25,212.25,0,0,1-1.46,25,51.37,51.37,0,0,1-2.68,12.49,13,13,0,0,1-.81,1.63A2.46,2.46,0,0,1,204,597a23.89,23.89,0,0,1-7.71-3.08,169.15,169.15,0,0,1-19.56-13.14c-4.75-3.59-9.38-7.34-14.1-11A1.54,1.54,0,0,1,162,568a5,5,0,0,1,.61-1.58c1.88-2.67,4.3-4.45,7.72-4.33a2.26,2.26,0,0,1,1.44.69c1.38,1.58,2.65,3.26,4,4.85a39.51,39.51,0,0,0,18.62,12c1.34.41,2.19.17,2.75-1.29a31.91,31.91,0,0,0,1.9-6.44,97.06,97.06,0,0,0,.21-28.12,36.35,36.35,0,0,0-1.82-7.18c-.83-2.38-2-2.79-4.39-2a38.34,38.34,0,0,0-9.87,5.73c-4.67,3.45-9.25,7-13.82,10.61-3.49,2.75-6.91,5.6-10.35,8.42-9.58,7.83-19.12,15.72-28.75,23.49-5.29,4.26-10.66,8.45-16.74,11.57a20.82,20.82,0,0,1-4.27,1.57c-2.11.54-3.61,0-4.51-1.93a33.78,33.78,0,0,1-2.53-7.41c-1.94-9.68-2.17-19.5-2.14-29.34a191.16,191.16,0,0,1,1.71-26.3,73.67,73.67,0,0,1,2.28-10.36c1-3.53,2.36-4.08,5.83-2.88,4.39,1.53,8.28,4,12.15,6.54a285.21,285.21,0,0,1,23.41,17.23c1.09.88,2.17,1.79,3.26,2.68s1.41,1.63.74,2.84a12.48,12.48,0,0,1-2.54,3.16,9.89,9.89,0,0,1-5.13,2.27,2,2,0,0,1-1.4-.72c-1.53-1.74-3-3.54-4.46-5.32C135.66,546.09,135.37,545.68,135,545.2Z"/><polygon class="cls-4" points="31.11 367.48 102.6 336.69 133.39 408.18 177.74 389.07 146.95 317.59 218.44 286.8 199.34 242.45 127.85 273.24 97.06 201.75 52.71 220.85 83.5 292.34 12.01 323.13 31.11 367.48"/><polygon class="cls-6" points="542.1 113.48 498.08 104.72 506.78 61.01 470.36 53.76 461.65 97.46 417.63 88.7 417.56 89.01 417.56 89.01 410.31 125.44 454.34 134.21 445.63 177.91 482.06 185.16 490.76 141.46 534.79 150.22 534.85 149.91 534.85 149.91 542.1 113.48"/><circle class="cls-9" cx="1277.51" cy="566.29" r="87.24" transform="translate(431.42 1678.43) rotate(-76.64)"/><rect class="cls-10" x="839.83" y="264.19" width="4.68" height="4.68"/><rect class="cls-10" x="866.09" y="264.17" width="4.68" height="4.68"/><rect class="cls-10" x="892.34" y="264.16" width="4.68" height="4.68"/><rect class="cls-10" x="918.59" y="264.14" width="4.68" height="4.68"/><rect class="cls-10" x="944.85" y="264.13" width="4.68" height="4.68"/><rect class="cls-10" x="971.1" y="264.11" width="4.68" height="4.68"/><rect class="cls-10" x="839.85" y="289.78" width="4.68" height="4.68"/><rect class="cls-10" x="866.1" y="289.76" width="4.68" height="4.68"/><rect class="cls-10" x="892.35" y="289.75" width="4.68" height="4.68"/><rect class="cls-10" x="918.61" y="289.73" width="4.68" height="4.68"/><rect class="cls-10" x="944.86" y="289.72" width="4.68" height="4.68"/><rect class="cls-10" x="971.11" y="289.7" width="4.68" height="4.68"/><rect class="cls-10" x="839.86" y="315.37" width="4.68" height="4.68"/><rect class="cls-10" x="866.12" y="315.35" width="4.68" height="4.68"/><rect class="cls-10" x="892.37" y="315.34" width="4.68" height="4.68"/><rect class="cls-10" x="918.62" y="315.32" width="4.68" height="4.68"/><rect class="cls-10" x="944.88" y="315.31" width="4.68" height="4.68"/><rect class="cls-10" x="971.13" y="315.29" width="4.67" height="4.68"/><rect class="cls-10" x="839.88" y="340.95" width="4.68" height="4.68"/><rect class="cls-10" x="866.13" y="340.94" width="4.68" height="4.68"/><rect class="cls-10" x="892.38" y="340.92" width="4.68" height="4.68"/><rect class="cls-10" x="918.64" y="340.91" width="4.68" height="4.67"/><rect class="cls-10" x="944.89" y="340.89" width="4.68" height="4.68"/><rect class="cls-10" x="971.14" y="340.88" width="4.68" height="4.68"/><rect class="cls-10" x="839.89" y="366.54" width="4.68" height="4.68"/><rect class="cls-10" x="866.14" y="366.53" width="4.68" height="4.68"/><rect class="cls-10" x="892.4" y="366.51" width="4.68" height="4.67"/><rect class="cls-10" x="918.65" y="366.5" width="4.68" height="4.68"/><rect class="cls-10" x="944.91" y="366.48" width="4.68" height="4.68"/><rect class="cls-10" x="971.16" y="366.47" width="4.68" height="4.68"/><rect class="cls-10" x="839.91" y="392.13" width="4.68" height="4.68"/><rect class="cls-10" x="866.16" y="392.12" width="4.68" height="4.68"/><rect class="cls-10" x="892.41" y="392.1" width="4.68" height="4.68"/><rect class="cls-10" x="918.67" y="392.09" width="4.68" height="4.68"/><rect class="cls-10" x="944.92" y="392.07" width="4.68" height="4.68"/><rect class="cls-10" x="971.17" y="392.06" width="4.68" height="4.68"/><path class="cls-1" d="M867.39,560.24c-5.49,5-7.43,12.15-6.33,19.39,1.18,7.8,6.24,14.63,12,19.74,6.39,5.64,14.51,9.23,20.17,15.68a32.06,32.06,0,0,1,7.55,19.48,34.06,34.06,0,0,1-1.47,11.74c-1.17,3.74-3.33,6.91-4.84,10.48-.35.83.84,1.72,1.56,1.2,5.24-3.84,7.3-11.67,8-17.83a37.44,37.44,0,0,0-3.31-19.79c-3.36-7.16-9.17-12-15.59-16.35-7-4.74-13.89-9.67-18-17.27s-4.58-18.41,1.51-25.22a.88.88,0,0,0-1.25-1.25Z"/><path class="cls-3" d="M930.74,659.31a8,8,0,0,1,4.34-7.35c4.8-2.66,17,2.13,22.73,5s5.16,8,4.8,10.31a17.56,17.56,0,0,0-.1,4.37l-8.19-8.82-12.87-5.25Z"/><path class="cls-3" d="M838.6,624a56,56,0,0,1,3.55-5.75c3.33-4.35,17.05,2.13,22.74,5a7.69,7.69,0,0,1,4.34,8.5,6.5,6.5,0,0,0-.75,3.64l-7.09-6.29-12.86-5.25Z"/><path class="cls-11" d="M968.18,690.52c-.62-7.28-1.89-14.56-6.25-20.6a29.43,29.43,0,0,0-15.63-11.16,27.53,27.53,0,0,0-20.79,2l-.15,0a1.42,1.42,0,0,1-.22-.07,1.15,1.15,0,0,1-.24-.07l-.67-.21c-2.36-.75-4.71-1.52-7.06-2.28-5.13-1.67-10.27-3.42-15.38-5.13-8.61-2.89-17.21-5.65-25.86-8.3-.14-.25-.29-.51-.45-.77l-.2-.36c-.26-.39-.5-.81-.74-1.18-.46-.69-.91-1.36-1.36-2a44.19,44.19,0,0,0-8.93-9.44c-7.51-5.89-17.13-9.63-26.68-7.09-10.45,2.77-18,10.92-24.65,19a266,266,0,0,0-19,25.12c-5.6,8.67-13.37,19.33-17,30.27a37.61,37.61,0,0,0-1.21,4.38,31.81,31.81,0,0,0-.81,7.6c.15,7.09,3.54,14.15,10.18,17.29,7.61,3.57,16.4,2.05,24-.53a69.82,69.82,0,0,0,20.16-10.8,82.07,82.07,0,0,0,9.41-8.36c1.66-1.7,3.57-3.57,5.23-5.58,3.82,1.48,7.52,3.31,11.23,4.88,6.89,2.9,13.89,5.52,20.9,8.15s14,5.13,21,7.92c3.57,1.42,7.12,2.88,10.63,4.43l.72.32c-.55,17.43,2,35.37,14.64,48.31,6.63,6.79,16.81,12.62,25.74,6.34,4-2.8,6.33-7,8.24-11.38,1.06-2.46,2-5,2.88-7.52s1.6-5,2.27-7.56c.24-.89.46-1.78.67-2.69a218.88,218.88,0,0,0,4.39-24c.57-4.17,1-8.38,1.24-12.59A183.69,183.69,0,0,0,968.18,690.52Z"/><path class="cls-3" d="M925.14,660.63c-1.88,6.42-3.92,12.75-6.39,14.06-4.4,2.32-14.13-.12-28.45-5.22s-17.08-7.67-17.63-13.15c-.23-2.34,1.15-7.38,2.81-12.45.16.26.31.52.45.77,8.65,2.65,17.25,5.41,25.86,8.3,5.11,1.71,10.25,3.46,15.38,5.13,2.35.76,4.7,1.53,7.06,2.28l.67.21A1.15,1.15,0,0,0,925.14,660.63Z"/><path class="cls-3" d="M916.5,690.47c-1.68-2.58-3.82-5.2-6.72-6.43a14.14,14.14,0,0,0-10.73,0,12.7,12.7,0,0,0-6.11,5.58,13.21,13.21,0,0,0,2.92,16,15,15,0,0,0,12.2,3.38,12.57,12.57,0,0,0,9.4-8.4A11.63,11.63,0,0,0,916.5,690.47Z"/><path class="cls-1" d="M913.16,692.08a11.39,11.39,0,0,0-4.71-4.62c-1.41-.63-3.66-1.24-5.3-.7a8,8,0,0,0-2.6.61,9.11,9.11,0,0,0-4.38,4,9.44,9.44,0,0,0,2,11.43,10.73,10.73,0,0,0,6.07,2.41,9.25,9.25,0,0,0,3.85-.15,8.48,8.48,0,0,0,2.88-1.7C914.1,700.63,915.36,695.72,913.16,692.08Zm-2.25,9.07A8.73,8.73,0,0,1,900,702.76a8.08,8.08,0,0,1-3.48-9.6c1.75-5.44,9.63-6.88,13.7-3.21a8.35,8.35,0,0,1,1.87,9.31A7.52,7.52,0,0,1,910.91,701.15Z"/><path class="cls-3" d="M873.05,675.19c-1.68-2.57-3.83-5.2-6.73-6.42a14.14,14.14,0,0,0-10.73,0,12.69,12.69,0,0,0-6.11,5.58,13.18,13.18,0,0,0,2.93,16,15,15,0,0,0,12.2,3.39,12.55,12.55,0,0,0,9.39-8.41A11.63,11.63,0,0,0,873.05,675.19Z"/><path class="cls-1" d="M869.7,676.81a11.28,11.28,0,0,0-4.71-4.62c-1.41-.63-3.65-1.25-5.29-.71a8.27,8.27,0,0,0-2.61.62,9,9,0,0,0-4.37,4,9.45,9.45,0,0,0,2,11.43,10.65,10.65,0,0,0,6.08,2.41,8.93,8.93,0,0,0,3.85-.15,8.51,8.51,0,0,0,2.88-1.7C870.65,685.36,871.91,680.45,869.7,676.81Zm-2.25,9.07a8.7,8.7,0,0,1-10.91,1.6,8.06,8.06,0,0,1-3.49-9.59c1.76-5.44,9.64-6.88,13.71-3.22a8.38,8.38,0,0,1,1.87,9.32A7.55,7.55,0,0,1,867.45,685.88Z"/><path class="cls-1" d="M831.72,660.67a10.08,10.08,0,0,0,5.65,2.69,3.37,3.37,0,0,0,2.68-.26,7.16,7.16,0,0,0,1.51-2.78l1.46-3.25.35-.78c0-.11.1-.21.16-.32s0-.26-.41-.18c-.06.1,1,.85,1.13.92,1.67,1.15,4.22,2.45,6.29,2a1.36,1.36,0,0,0,.32-2.46,24.94,24.94,0,0,0-2.87-.84,12.25,12.25,0,0,1-2.74-1.35,2.55,2.55,0,0,0-2.59-.25,4.35,4.35,0,0,0-1.54,2.29c-.45,1-.9,2.08-1.36,3.12-.22.52-.45,1-.68,1.56-.09.21-.18.42-.28.62s-.07.15.1,0h-.22c-.47-.12-1-.06-1.51-.16a10.13,10.13,0,0,1-1.58-.46,17.84,17.84,0,0,1-2.8-1.56.89.89,0,0,0-1.07,1.39Z"/><path class="cls-1" d="M827.65,648.06a5.17,5.17,0,0,0,2,1.73c.61.43,1.23.86,1.85,1.27s1.27.8,1.91,1.19l1,.64a2.47,2.47,0,0,0,1.83.4,1.46,1.46,0,0,0,1-1.78c-.36-1-1.39-1.45-2.29-2-.65-.36-1.3-.74-2-1.09s-1.34-.67-2-1a5.3,5.3,0,0,0-2.49-.88,1,1,0,0,0-.84,1.48Z"/><path class="cls-12" d="M850.49,658.4a1.73,1.73,0,0,0,.65-.36,3.48,3.48,0,0,0,.38-.54l.55-.89c.36-.59.71-1.19,1-1.8s.65-1.22.95-1.84c.16-.31.31-.62.45-.94.08-.15.15-.31.22-.47a2.63,2.63,0,0,0,.2-.88,1.2,1.2,0,0,0-2-.84,2.89,2.89,0,0,0-.49.74l-.09.24q-.09.21,0,.06c-.13.32-.27.64-.41,1-.28.62-.56,1.23-.86,1.83s-.59,1.21-.89,1.81l-.48.93a2.77,2.77,0,0,0-.29.6,1.59,1.59,0,0,0,0,.75.92.92,0,0,0,1.13.65Z"/><path class="cls-1" d="M846.88,647.54a9.85,9.85,0,0,0,2.79-2.95,28.94,28.94,0,0,0,1.88-3.41c.36-.79,1-1.77.47-2.62a1.35,1.35,0,0,0-1.54-.63,1.9,1.9,0,0,0-1.16,1.33c0,.13-.1.26-.15.39l-.1.25s-.09.22,0,.09l0,.09-.11.26-.23.51c-.27.57-.56,1.12-.86,1.67s-.77,1.23-1.09,1.87-.66,1.32-1,2a.88.88,0,0,0,.13,1,.84.84,0,0,0,1,.13Z"/><path class="cls-1" d="M932.71,703.07a6.81,6.81,0,0,0,9,3,7.13,7.13,0,0,0,3.38-4,5.78,5.78,0,0,0-.23-4.83c-.7-1.33-2.71-4.12-4.4-2.51a.89.89,0,0,0-.22.85c0,.17,0-.26,0-.09a2,2,0,0,0,.21.73,3.21,3.21,0,0,0,.63.74c.21.2.43.4.62.61a4.11,4.11,0,0,1,.48.61,6.28,6.28,0,0,1,.44.76c.05.08.15.34.06.11,0,.12.08.24.12.36.09.32,0-.23,0,.12,0,.15,0,.31,0,.46a3.08,3.08,0,0,1-.12.86,4.68,4.68,0,0,1-1.84,2.83,4.45,4.45,0,0,1-3.37.71,6,6,0,0,1-3.72-2.1c-.5-.63-1.4.18-1.07.83Z"/><path class="cls-1" d="M946.82,694.64a10.87,10.87,0,0,0,3.41,4.19,5.83,5.83,0,0,0,5.2.57,7.16,7.16,0,0,0,4.77-8.62,7.54,7.54,0,0,0-1.44-2.69,3.46,3.46,0,0,0-2.72-1.53,1.12,1.12,0,0,0-1,1.66,4,4,0,0,0,.89,1,6.14,6.14,0,0,1,.43.45l.27.31a4.47,4.47,0,0,1-.44,6,4.26,4.26,0,0,1-4.17,1.27,7.5,7.5,0,0,1-3.85-3.41.8.8,0,0,0-1.39.81Z"/><path class="cls-1" d="M939.14,679.39c1.92,3.31,6.21,4,9.54,2.54s5.32-6,3-9.2a4.88,4.88,0,0,0-2.43-1.94,2.29,2.29,0,0,0-2.61.61.55.55,0,0,0,0,.59,3,3,0,0,0,.85.84c.22.15.54.41.69.54a3.66,3.66,0,0,1,1.33,1.45c.08.17.09.19,0,.09,0,.1.07.2.1.3a4.07,4.07,0,0,1,.13.5,6.2,6.2,0,0,1,0,1,4.24,4.24,0,0,1-.8,1.92,5.61,5.61,0,0,1-8.64-.12c-.56-.69-1.63.19-1.2.92Z"/><path class="cls-1" d="M926.74,688.83a8.19,8.19,0,0,0,3.86,2.27,5.67,5.67,0,0,0,4.31-1,6.67,6.67,0,0,0,2.93-7.12,5.74,5.74,0,0,0-2.23-3.37,1.86,1.86,0,0,0-2.22,0c-.49.5-.2,1.18.14,1.68a7.6,7.6,0,0,0,.66.74l.27.29.06.07.13.18a4.8,4.8,0,0,1,.39.7c-.08-.19,0,.11.06.17a4.44,4.44,0,0,1,.15.52c0,.06.08.38,0,.16l0,.41c0,.15,0,.31,0,.47s0,.13,0,.2c0-.15,0,0,0,.05a4.06,4.06,0,0,1-.57,1.49,4.76,4.76,0,0,1-2.81,2.16c-1.59.4-3.26-.23-4.77-.71a.41.41,0,0,0-.4.67Z"/><path class="cls-3" d="M950.78,675.15a5.23,5.23,0,0,0-2.48-4.33,6.79,6.79,0,0,0-6.73-.1,6,6,0,0,0-2.5,7.23,6.18,6.18,0,0,0,2.8,3.08,6.93,6.93,0,0,0,4.64.45C949.38,680.86,950.92,677.93,950.78,675.15Z"/><path class="cls-3" d="M936.06,683.15c-.22-4.42-5.65-6.48-9.22-4.43a6,6,0,0,0-2.49,7.23,6.24,6.24,0,0,0,2.8,3.09,6.9,6.9,0,0,0,4.63.44C934.65,688.86,936.19,685.93,936.06,683.15Z"/><path class="cls-3" d="M956.1,686.84a6.86,6.86,0,0,0-6.74-.1,6,6,0,0,0-2.5,7.23,6.18,6.18,0,0,0,2.8,3.08,6.94,6.94,0,0,0,4.64.45c2.87-.62,4.41-3.55,4.27-6.33A5.24,5.24,0,0,0,956.1,686.84Z"/><path class="cls-3" d="M941.28,694.14a6.63,6.63,0,0,0-6.7-.16,5.94,5.94,0,0,0-2.49,7.23,6.18,6.18,0,0,0,2.8,3.08,6.84,6.84,0,0,0,4.63.44c2.87-.61,4.41-3.54,4.28-6.32A5.3,5.3,0,0,0,941.28,694.14Z"/><path class="cls-3" d="M843.46,635.14c-.19.32-12,23.25-11.43,24s5.28,3.18,6.66,2.64,11.44-23.37,11.57-24.08S844.25,633.84,843.46,635.14Z"/><path class="cls-3" d="M831.87,639.21s21.39,9.89,21.45,10.52-2.38,6.77-3.19,6.81-21.46-8.73-21.67-9.82S830.27,639,831.87,639.21Z"/><path class="cls-1" d="M951.84,695.87a3.86,3.86,0,0,0,3.42-.32,4.88,4.88,0,0,0,1.37-1.27,1.58,1.58,0,0,0,.26-2l.13.22v0a.48.48,0,0,0-.81-.21l0,0,.23-.13a1.4,1.4,0,0,0-.75.67c-.12.2-.21.42-.35.61s-.07.1-.1.15l0,0-.06.07-.23.25-.28.25c-.15.13.13-.09,0,0l-.15.11c-.2.13-.41.25-.62.36a2.09,2.09,0,0,1-.3.14c.13,0,0,0-.06,0l-.18.06A3.1,3.1,0,0,1,952,695a.44.44,0,0,0-.43.38.45.45,0,0,0,.31.48Z"/><path class="cls-1" d="M957.33,691.57c0-.12,0-.24,0-.36v-.36a.27.27,0,0,0-.19-.24.26.26,0,0,0-.29.12l-.08.15a1.19,1.19,0,0,0-.09.15c-.05.11-.1.22-.14.33a.37.37,0,0,0-.06.21.42.42,0,0,0,.06.21.44.44,0,0,0,.25.19.46.46,0,0,0,.32-.05.4.4,0,0,0,.15-.14.54.54,0,0,0,.05-.21Z"/><path class="cls-1" d="M936.14,703.67a1.93,1.93,0,0,0,1.78.63,4,4,0,0,0,1.8-.68,4.23,4.23,0,0,0,1.33-1.46,3.72,3.72,0,0,0,.38-.92,2,2,0,0,0,.05-.48,1.51,1.51,0,0,0,0-.43.24.24,0,0,0-.35-.15,2.23,2.23,0,0,0-.56.5c-.17.19-.35.46-.48.62a6.75,6.75,0,0,1-1.07,1.13c-.1.09.12-.07-.06.05l-.16.1a3.3,3.3,0,0,1-.32.18,1.11,1.11,0,0,1-.28.1l-.36.09a2.66,2.66,0,0,1-.61.07,4.36,4.36,0,0,0-.81,0,.42.42,0,0,0-.25.61Z"/><path class="cls-1" d="M928.45,687.37a3.21,3.21,0,0,0,4,.5,1.74,1.74,0,0,0,.8-1,.46.46,0,0,0-.42-.68.46.46,0,0,0-.26.07s-.13.1,0,0a1.42,1.42,0,0,1-.18.08l-.17.14c-.08.06.11-.07,0,0l-.09.06-.14.1-.06,0-.22.13-.23.11c.11,0-.06,0-.1,0a2.15,2.15,0,0,1-.5.12h0l-.16,0h-.26l-.28,0c-.1,0,.13,0,0,0l-.16,0a1.94,1.94,0,0,1-.88-.41.43.43,0,0,0-.61.61Z"/><path class="cls-1" d="M943.69,680.37a4.79,4.79,0,0,0,5.27-1.79,2.13,2.13,0,0,0,.34-1.91.29.29,0,0,0-.44-.06,2.83,2.83,0,0,0-.47.59c-.19.29-.33.43-.53.7a2.38,2.38,0,0,1-.2.25,3.31,3.31,0,0,1-.26.27,4.21,4.21,0,0,1-.58.48,3.67,3.67,0,0,1-2.9.65.43.43,0,0,0-.23.82Z"/><path class="cls-1" d="M877.06,648a6.82,6.82,0,0,0-1,2.65,7.62,7.62,0,0,0-.14,1.43,3.41,3.41,0,0,0,.11.78,1.35,1.35,0,0,0,.32.63.35.35,0,0,0,.49,0,2.5,2.5,0,0,0,.4-1.32c0-.4.1-.81.17-1.2a25.12,25.12,0,0,1,.66-2.55.53.53,0,0,0-.31-.63.54.54,0,0,0-.67.21Z"/><path class="cls-1" d="M875.53,657.27a5.59,5.59,0,0,0,.42,1.21,1,1,0,0,0,.14.25,1.44,1.44,0,0,0,.23.32l.11.09.15.06-.07,0c-.07,0-.1-.06-.06,0a.52.52,0,0,0,.1.11.74.74,0,0,0,.45.15.32.32,0,0,0,.32-.24s0-.07,0-.1a.72.72,0,0,0,0-.21.68.68,0,0,0-.07-.2.2.2,0,0,0,0-.08s0,0,0,.07,0,.11,0,0v0a.38.38,0,0,0,0-.21c0-.05,0-.09-.05-.13-.1-.2-.2-.4-.29-.6l.06.14a5.73,5.73,0,0,1-.28-.89.59.59,0,0,0-.72-.42.63.63,0,0,0-.42.73Z"/><path class="cls-1" d="M905,701.42a4.3,4.3,0,0,0,1.75,0,4.37,4.37,0,0,0,1.52-.77,5.93,5.93,0,0,0,1.25-1.3c.34-.5.7-1.24.26-1.78a.38.38,0,0,0-.35-.09c-.51.15-.73.75-1,1.16a4.37,4.37,0,0,1-.9,1c-.12.09-.38.26-.57.37a5.86,5.86,0,0,1-.6.31,5.39,5.39,0,0,1-1.36.42c-.37.06-.37.7,0,.75Z"/><path class="cls-12" d="M909.86,696.4a.4.4,0,0,0,0-.79.4.4,0,0,0,0,.79Z"/><path class="cls-1" d="M859.57,686.39a4.69,4.69,0,0,0,3.6.17,5.66,5.66,0,0,0,1.64-.93c.47-.38,1.12-1.08.79-1.71a.37.37,0,0,0-.33-.19c-.54,0-.94.6-1.31.94a4.38,4.38,0,0,1-1.15.7,4.55,4.55,0,0,1-2.89.2c-.48-.14-.82.6-.35.82Z"/><path class="cls-1" d="M867.79,681.44c0-.29,0-.59-.08-.88a.33.33,0,0,0-.06-.19.25.25,0,0,0-.16-.1.3.3,0,0,0-.34.13c-.13.26-.27.51-.4.76a.55.55,0,0,0,.34.82.55.55,0,0,0,.43-.06.54.54,0,0,0,.27-.48Z"/><path class="cls-1" d="M958.9,663.52a3.17,3.17,0,0,1,.44.12l.44.16-.17-.07c.13,0,.26.13.39.17l.25.07.18,0a.58.58,0,0,0,.26-.06.69.69,0,0,0,.33-.28.73.73,0,0,0,.09-.35.63.63,0,0,0-.2-.48l-.28-.22a1.38,1.38,0,0,0-.3-.14,2.34,2.34,0,0,0-.38-.09,1.9,1.9,0,0,0-.53,0,3.09,3.09,0,0,0-.52.07l-.13.05a.61.61,0,0,0-.17.15.64.64,0,0,0-.12.35.74.74,0,0,0,.08.29.57.57,0,0,0,.34.27Z"/><path class="cls-1" d="M958.8,660.92l.66.31a3.16,3.16,0,0,0,.43.16.71.71,0,0,0,.38,0,1.39,1.39,0,0,0,.21-.11.36.36,0,0,0,.16-.39,1,1,0,0,0-.07-.23.72.72,0,0,0-.28-.24l-.15-.08a1.36,1.36,0,0,0-.28-.11l-.67-.27a.53.53,0,0,0-.39,0,.52.52,0,0,0-.2.24.53.53,0,0,0,0,.33.5.5,0,0,0,.23.3Z"/><path class="cls-12" d="M863.84,627.43a5,5,0,0,0,.76.54l.38.19a2.78,2.78,0,0,0,.48.18c.23,0,.49.09.66-.12a.34.34,0,0,0,.09-.32.45.45,0,0,0-.21-.31.87.87,0,0,0-.17-.07h0l0,0-.29-.11-.19-.07c-.05,0,0,0,0,0l0,0-.1-.05a2.86,2.86,0,0,1-.42-.24l-.2-.13,0,0c.08,0,0,0,0,0l-.1-.09a.45.45,0,0,0-.63.63Z"/><path class="cls-12" d="M865.83,626l.15.1-.1-.07a1.29,1.29,0,0,1,.21.19l.18.21-.06-.07a2.13,2.13,0,0,1,.16.25.31.31,0,0,0,.33.14.32.32,0,0,0,.22-.29,2.07,2.07,0,0,0,0-.35,1.09,1.09,0,0,0-.07-.3,1.94,1.94,0,0,0-.4-.58.52.52,0,0,0-.34-.14.48.48,0,0,0-.39.19.49.49,0,0,0,.14.72Z"/><path class="cls-1" d="M941.77,772.41a11.48,11.48,0,0,0,5.07-.64,10.18,10.18,0,0,0,2.35-1.25,6.14,6.14,0,0,0,1.24-1.09,5.61,5.61,0,0,0,.35-.65c-.06.06-.08.2,0,0a1.62,1.62,0,0,0,.2-1.27v.7a2.8,2.8,0,0,0,.15-.65,4.17,4.17,0,0,0-.08-.51.81.81,0,0,0-.78-.59c.31,0-.37,0-.42,0a.9.9,0,0,0-.43.13c-.13.08-.15.08-.06,0h.7a1.72,1.72,0,0,0-1.16.13l-.23.13c.31-.17-.19.07-.25.1a8.82,8.82,0,0,0-1,.63,16.27,16.27,0,0,1-1.94,1.12c-.1,0-.54.23-.23.11l-.77.31c-.14.06-.12.05,0,0l-.25.1-.51.18a7.52,7.52,0,0,1-1.11.28l-.16,0-.15,0-.62,0a1.32,1.32,0,0,0-1.3,1.3,1.33,1.33,0,0,0,1.3,1.3Z"/><path class="cls-1" d="M948.4,762.68a8.66,8.66,0,0,0,3.44-1,5.31,5.31,0,0,0,1.34-1.07,1.89,1.89,0,0,0,.43-.77c0-.06,0,0,0,0s0,.12,0,0l.07-.13a1.7,1.7,0,0,0,.24-1,.76.76,0,0,0-.75-.75,2,2,0,0,0-.87.14l-.14.07.07,0-.28,0,.35,0-.42.06-.4.17-.28.13.34-.15-1.41.61.37-.16a9.87,9.87,0,0,1-2.43.73l.41-.06h-.08a1.73,1.73,0,0,0-1.1.46,1.56,1.56,0,0,0-.45,1.1,1.6,1.6,0,0,0,.45,1.1,1.49,1.49,0,0,0,1.1.45Z"/><path class="cls-1" d="M797.3,720.14a22.8,22.8,0,0,0,5.06.86,15.7,15.7,0,0,0,2.57-.11c.92-.11,2.33-.46,2.51-1.52.22-1.25-1.29-1.44-2.17-1.42s-1.71.15-2.56.21a21.5,21.5,0,0,1-4.81-.22,1.14,1.14,0,1,0-.6,2.2Z"/><path class="cls-1" d="M807.94,714.74l1.14-.25c.39-.09.78-.15,1.15-.27a6.54,6.54,0,0,0,1.27-.49c.52-.3,1.14-.66,1.14-1.35l0-.27-.52-.63a1.34,1.34,0,0,0-.7-.22l-.53,0a6.85,6.85,0,0,0-1.42.15c-.38.06-.76.17-1.14.27l-1.14.28a1.47,1.47,0,0,0-1,1.8,1.5,1.5,0,0,0,1.8,1Z"/><polyline class="cls-13" points="905.84 467.48 1014.23 405.54 1014.23 529.42 905.84 591.36 905.84 467.48"/><polygon class="cls-3" points="797.45 405.54 905.84 343.6 1014.23 405.54 905.84 467.48 797.45 405.54"/><polygon class="cls-14" points="797.45 529.42 905.84 591.36 905.84 467.48 797.45 405.54 797.45 529.42"/><polyline class="cls-13" points="1059.6 488.95 1143.49 441.02 1143.49 536.89 1059.6 584.83 1059.6 488.95"/><polygon class="cls-3" points="975.71 441.02 1059.6 393.08 1143.49 441.02 1059.6 488.95 975.71 441.02"/><polygon class="cls-14" points="975.71 536.89 1059.6 584.83 1059.6 488.95 975.71 441.02 975.71 536.89"/><g class="cls-15"><polygon class="cls-13" points="1002.85 425.54 1059.64 393.09 1116.42 425.54 1059.64 457.99 1002.85 425.54"/></g><polyline class="cls-13" points="1062.66 340.12 1128.74 302.36 1128.74 377.88 1062.66 415.63 1062.66 340.12"/><polygon class="cls-3" points="996.59 302.36 1062.66 264.61 1128.74 302.36 1062.66 340.12 996.59 302.36"/><polygon class="cls-14" points="996.59 377.88 1062.66 415.63 1062.66 340.12 996.59 302.36 996.59 377.88"/><polyline class="cls-13" points="943.19 364.97 968.13 350.71 968.13 379.23 943.19 393.48 943.19 364.97"/><polygon class="cls-3" points="918.24 350.71 943.19 336.46 968.13 350.71 943.19 364.97 918.24 350.71"/><polygon class="cls-14" points="918.24 379.23 943.19 393.48 943.19 364.97 918.24 350.71 918.24 379.23"/><path class="cls-3" d="M907,291.63c-.44-8.77-11.19-12.84-18.27-8.78a11.79,11.79,0,0,0-4.94,14.32,12.3,12.3,0,0,0,5.55,6.12,13.72,13.72,0,0,0,9.19.87C904.21,302.94,907.27,297.14,907,291.63Z"/><rect class="cls-10" x="564.32" y="648.55" width="3.73" height="3.73"/><rect class="cls-10" x="585.25" y="648.54" width="3.73" height="3.73"/><rect class="cls-10" x="606.18" y="648.53" width="3.73" height="3.73"/><rect class="cls-10" x="627.11" y="648.51" width="3.73" height="3.73"/><rect class="cls-10" x="648.04" y="648.5" width="3.73" height="3.73"/><rect class="cls-10" x="668.96" y="648.49" width="3.73" height="3.73"/><rect class="cls-10" x="564.34" y="668.95" width="3.73" height="3.73"/><rect class="cls-10" x="585.26" y="668.94" width="3.73" height="3.73"/><rect class="cls-10" x="606.19" y="668.92" width="3.73" height="3.73"/><rect class="cls-10" x="627.12" y="668.91" width="3.73" height="3.73"/><rect class="cls-10" x="648.05" y="668.9" width="3.73" height="3.73"/><rect class="cls-10" x="668.98" y="668.89" width="3.73" height="3.73"/><rect class="cls-10" x="564.35" y="689.35" width="3.73" height="3.73"/><rect class="cls-10" x="585.28" y="689.33" width="3.73" height="3.73"/><rect class="cls-10" x="606.2" y="689.32" width="3.73" height="3.73"/><rect class="cls-10" x="627.13" y="689.31" width="3.73" height="3.73"/><rect class="cls-10" x="648.06" y="689.3" width="3.73" height="3.73"/><rect class="cls-10" x="668.99" y="689.29" width="3.73" height="3.73"/><rect class="cls-10" x="564.36" y="709.74" width="3.73" height="3.73"/><rect class="cls-10" x="585.29" y="709.73" width="3.73" height="3.73"/><rect class="cls-10" x="606.22" y="709.72" width="3.73" height="3.73"/><rect class="cls-10" x="627.14" y="709.71" width="3.73" height="3.73"/><rect class="cls-10" x="648.07" y="709.7" width="3.73" height="3.73"/><rect class="cls-10" x="564.37" y="730.14" width="3.73" height="3.73"/><rect class="cls-10" x="585.3" y="730.13" width="3.73" height="3.73"/><rect class="cls-10" x="606.23" y="730.12" width="3.73" height="3.73"/><rect class="cls-10" x="627.16" y="730.11" width="3.73" height="3.73"/><rect class="cls-10" x="648.08" y="730.09" width="3.73" height="3.73"/><rect class="cls-10" x="669.01" y="730.08" width="3.73" height="3.73"/><rect class="cls-10" x="564.38" y="750.54" width="3.73" height="3.73"/><rect class="cls-10" x="585.31" y="750.53" width="3.73" height="3.73"/><rect class="cls-10" x="627.17" y="750.51" width="3.73" height="3.73"/><rect class="cls-10" x="648.1" y="750.49" width="3.73" height="3.73"/><rect class="cls-10" x="669.02" y="750.48" width="3.73" height="3.73"/><rect class="cls-10" x="647.97" y="546.54" width="3.73" height="3.73"/><rect class="cls-10" x="585.2" y="566.98" width="3.73" height="3.73"/><rect class="cls-10" x="627.06" y="566.95" width="3.73" height="3.73"/><rect class="cls-10" x="647.98" y="566.94" width="3.73" height="3.73"/><rect class="cls-10" x="585.21" y="587.38" width="3.73" height="3.73"/><rect class="cls-10" x="606.14" y="587.36" width="3.73" height="3.73"/><rect class="cls-10" x="627.07" y="587.35" width="3.73" height="3.73"/><rect class="cls-10" x="647.99" y="587.34" width="3.73" height="3.73"/><rect class="cls-10" x="585.22" y="607.77" width="3.73" height="3.73"/><rect class="cls-10" x="606.15" y="607.76" width="3.73" height="3.73"/><rect class="cls-10" x="627.08" y="607.75" width="3.73" height="3.73"/><rect class="cls-10" x="648.01" y="607.74" width="3.73" height="3.73"/><rect class="cls-10" x="564.31" y="628.18" width="3.73" height="3.73"/><rect class="cls-10" x="585.23" y="628.17" width="3.73" height="3.73"/><rect class="cls-10" x="606.16" y="628.16" width="3.73" height="3.73"/><rect class="cls-10" x="627.09" y="628.15" width="3.73" height="3.73"/><rect class="cls-10" x="648.02" y="628.14" width="3.73" height="3.73"/><rect class="cls-10" x="668.95" y="628.12" width="3.73" height="3.73"/><rect class="cls-10" x="585.44" y="954.34" width="3.73" height="3.73"/><rect class="cls-10" x="606.24" y="852.39" width="3.73" height="3.73"/><rect class="cls-10" x="627.16" y="852.38" width="3.73" height="3.73"/><rect class="cls-10" x="648.09" y="852.37" width="3.73" height="3.73"/><rect class="cls-10" x="669.02" y="852.36" width="3.73" height="3.73"/><rect class="cls-10" x="585.45" y="974.74" width="3.73" height="3.73"/><rect class="cls-10" x="606.25" y="872.79" width="3.73" height="3.73"/><rect class="cls-10" x="627.18" y="872.78" width="3.73" height="3.73"/><rect class="cls-10" x="669.03" y="872.75" width="3.73" height="3.73"/><rect class="cls-10" x="585.33" y="893.2" width="3.73" height="3.73"/><rect class="cls-10" x="606.26" y="893.19" width="3.73" height="3.73"/><rect class="cls-10" x="648.12" y="893.17" width="3.73" height="3.73"/><rect class="cls-10" x="669.04" y="893.15" width="3.73" height="3.73"/><rect class="cls-10" x="585.34" y="913.6" width="3.73" height="3.73"/><rect class="cls-10" x="648.13" y="913.56" width="3.73" height="3.73"/><rect class="cls-10" x="669.06" y="913.55" width="3.73" height="3.73"/><rect class="cls-10" x="585.35" y="934" width="3.73" height="3.73"/><rect class="cls-10" x="606.28" y="933.99" width="3.73" height="3.73"/><rect class="cls-10" x="669.07" y="933.95" width="3.73" height="3.73"/><rect class="cls-10" x="669.08" y="954.35" width="3.73" height="3.73"/><rect class="cls-10" x="564.33" y="770.86" width="3.73" height="3.73"/><rect class="cls-10" x="585.25" y="770.84" width="3.73" height="3.73"/><rect class="cls-10" x="606.18" y="770.83" width="3.73" height="3.73"/><rect class="cls-10" x="627.11" y="770.82" width="3.73" height="3.73"/><rect class="cls-10" x="648.04" y="770.81" width="3.73" height="3.73"/><rect class="cls-10" x="668.97" y="770.8" width="3.73" height="3.73"/><rect class="cls-10" x="564.34" y="791.25" width="3.73" height="3.73"/><rect class="cls-10" x="585.27" y="791.24" width="3.73" height="3.73"/><rect class="cls-10" x="606.19" y="791.23" width="3.73" height="3.73"/><rect class="cls-10" x="627.12" y="791.22" width="3.73" height="3.73"/><rect class="cls-10" x="668.98" y="791.19" width="3.73" height="3.73"/><rect class="cls-10" x="564.35" y="811.65" width="3.73" height="3.73"/><rect class="cls-10" x="585.28" y="811.64" width="3.73" height="3.73"/><rect class="cls-10" x="606.21" y="811.63" width="3.73" height="3.73"/><rect class="cls-10" x="627.13" y="811.62" width="3.73" height="3.73"/><rect class="cls-10" x="648.06" y="811.6" width="3.73" height="3.73"/><rect class="cls-10" x="668.99" y="811.59" width="3.73" height="3.73"/><rect class="cls-10" x="564.36" y="832.05" width="3.73" height="3.73"/><rect class="cls-10" x="585.29" y="832.04" width="3.73" height="3.73"/><rect class="cls-10" x="606.22" y="832.03" width="3.73" height="3.73"/><rect class="cls-10" x="627.15" y="832.01" width="3.73" height="3.73"/><rect class="cls-10" x="648.07" y="832" width="3.73" height="3.73"/><rect class="cls-10" x="669" y="831.99" width="3.73" height="3.73"/><circle class="cls-16" cx="563.24" cy="831.36" r="76.98" transform="translate(-422.89 641.77) rotate(-45)"/><path class="cls-17" d="M562.73,747.45a83.91,83.91,0,1,0,84.41,83.4A83.92,83.92,0,0,0,562.73,747.45Zm.93,153.72a69.81,69.81,0,1,1,69.39-70.23A69.81,69.81,0,0,1,563.66,901.17Z"/><path class="cls-18" d="M562.67,738.85a92.52,92.52,0,1,0,93.08,91.95A92.51,92.51,0,0,0,562.67,738.85Zm1,169.49a77,77,0,1,1,76.51-77.45A77,77,0,0,1,563.7,908.34Z"/><path class="cls-18" d="M538.11,854.7c-2-3.24-2.33-8.63,3.32-9.3,4.7-.57,9.52,3,13.79,5a26.69,26.69,0,0,0,11.62,2.51q6.79,0,10.91-3.32a10.61,10.61,0,0,0,4.11-8.7c0-3.64-1.11-6.24-3.31-7.78s-6-2.31-11.33-2.31h-3.53q-13.08,0-20-5.47t-6.86-15.87q0-10.15,6.7-15.78t18.84-5.63a32.62,32.62,0,0,1,10.08,1.66c7.12,2.3,18.38,7.89,16.4,15.13-3.11,11.42-15.3-3.62-19.68-5.5a22.67,22.67,0,0,0-9.05-1.66,14.33,14.33,0,0,0-9.72,3.2,10.27,10.27,0,0,0-3.69,8.12q0,4.86,3.79,6.93t16.3,2.39q13.35.39,19.51,5.59T592.51,840q0,10.39-6.8,16.63t-18.36,6.24a46.34,46.34,0,0,1-8.15-.81c-6.22-1.12-15.57-1.06-20.07-6A7.73,7.73,0,0,1,538.11,854.7Z"/><path class="cls-18" d="M564.83,881.14h-.1c-2.66,0-4.81-2.5-4.81-5.57v-94.9c0-3.08,2.15-5.57,4.81-5.57h.1c2.66,0,4.81,2.49,4.81,5.57v94.9C569.64,878.64,567.49,881.14,564.83,881.14Z"/><circle class="cls-19" cx="461.6" cy="720.19" r="92.52" transform="translate(-374.05 537.34) rotate(-45)"/><circle class="cls-16" cx="458.27" cy="715.34" r="76.98" transform="translate(-371.6 533.56) rotate(-45)"/><path class="cls-17" d="M457.76,631.44a83.91,83.91,0,1,0,84.42,83.4A83.91,83.91,0,0,0,457.76,631.44Zm.93,153.72a69.82,69.82,0,1,1,69.39-70.24A69.81,69.81,0,0,1,458.69,785.16Z"/><path class="cls-18" d="M457.71,622.83a92.52,92.52,0,1,0,93.07,91.95A92.52,92.52,0,0,0,457.71,622.83Zm1,169.49a77,77,0,1,1,76.5-77.44A77,77,0,0,1,458.74,792.32Z"/><path class="cls-18" d="M489,719.82q-3.42-4.5-10.42-7a16.92,16.92,0,0,0,6.49-6.31,17.55,17.55,0,0,0,2.15-8.93q-.06-10.15-7.27-15.44T459.08,677l-3.29,0-.06-9.2c0-2.81-5.11-2.78-5.1,0l.06,9.19-3.31,0-.06-9.19c0-2.82-5.11-2.79-5.1,0l.06,9.19-13.38.08a4.47,4.47,0,0,0-3.35,1.22,4.7,4.7,0,0,0-1.15,3.46c0,1.77.5,3,1.45,3.65s3.08,1,6.4,1l2.14,0,.35,58.24h-2.13q-5.37,0-6.79,1c-.94.63-1.41,1.81-1.4,3.53a4.82,4.82,0,0,0,1.16,3.48,4.56,4.56,0,0,0,3.4,1.15l13.76-.09.06,9.19c0,2.82,5.11,2.79,5.1,0l-.06-9.19,3.31,0,.06,9.19c0,2.82,5.12,2.79,5.1,0l-.06-9.19h1.68l5.56,0a56.65,56.65,0,0,0,11-.88,23.78,23.78,0,0,0,7-2.66,22.7,22.7,0,0,0,8.16-8,20.37,20.37,0,0,0,2.84-10.75A18.59,18.59,0,0,0,489,719.82Zm-28.48-33.56q7.5,0,11.52,3t4.06,8.79q0,6.08-4.37,9t-13.59,3H456l-.15-23.79Zm-9.81.06q.06,11.88.14,23.78l-3.31,0-.15-23.78Zm-3,58.25q-.09-13.25-.16-26.5l3.31,0q.07,13.25.16,26.5Zm28.55-3.25q-4.95,3.1-17.11,3.18l-3,0L456,718l3.68,0q12-.07,16.72,2.93t4.82,10.19Q481.31,738.23,476.34,741.32Z"/><path class="cls-1" d="M374.44,820.16c-3.64,26.3,3.65,52.48,20.53,73.72a103.92,103.92,0,0,0,32.94,27.29,107,107,0,0,0,27.44,10l-6.88,17.45-1.93,4.91,4.67-2.45,37.15-19.43,2.45-1.29-2-1.89-30.67-28.62-4-3.76.74,5.46L457,917.45A91.7,91.7,0,0,1,412.52,893a88.21,88.21,0,0,1-6.81-7.64C391.17,867.06,384.89,844.57,388,822l.27-2-1.94-.27-9.68-1.34-.82-.12-.67.51-.66.52Z"/><path class="cls-3" d="M673,757.09c3.78-27.25-3.78-54.38-21.28-76.4a107.91,107.91,0,0,0-34.13-28.28,111.74,111.74,0,0,0-28.44-10.32L596.27,624l2-5.09-4.84,2.54L554.94,641.6l-2.55,1.33,2.1,2,31.78,29.66,4.17,3.9-.77-5.66-2.25-16.52a95,95,0,0,1,46.1,25.35,93,93,0,0,1,7.07,7.91c15.06,19,21.57,42.27,18.32,65.65l-.28,2,2,.28,10,1.39.85.13,1.23.16.15-1.24Z"/><polygon class="cls-3" points="539.27 631.81 535.15 620.4 546.56 616.27 544 609.19 532.58 613.32 528.46 601.91 521.38 604.47 525.5 615.88 514.09 620.01 516.65 627.09 528.07 622.96 532.19 634.37 539.27 631.81"/><path class="cls-3" d="M655.13,548.58c-.19-3.89-5-5.69-8.08-3.89a5.22,5.22,0,0,0-2.19,6.34,5.42,5.42,0,0,0,2.46,2.71,6,6,0,0,0,4.06.39C653.9,553.58,655.25,551,655.13,548.58Z"/></g></svg>