<svg width="64" height="68" viewBox="0 0 64 68" fill="none" xmlns="http://www.w3.org/2000/svg">
<g clip-path="url(#clip0_2827_19731)">
<path d="M31.9685 14.2625C38.7404 14.2625 44.23 11.0697 44.23 7.13125C44.23 3.19277 38.7404 0 31.9685 0C25.1967 0 19.707 3.19277 19.707 7.13125C19.707 11.0697 25.1967 14.2625 31.9685 14.2625Z" fill="#E6007A"/>
<path d="M31.9685 67.9949C38.7404 67.9949 44.23 64.8022 44.23 60.8637C44.23 56.9252 38.7404 53.7324 31.9685 53.7324C25.1967 53.7324 19.707 56.9252 19.707 60.8637C19.707 64.8022 25.1967 67.9949 31.9685 67.9949Z" fill="#E6007A"/>
<path d="M14.8811 24.1348C18.267 18.2704 18.245 11.9189 14.832 9.9483C11.4189 7.97773 5.9073 11.1343 2.52138 16.9987C-0.864544 22.8631 -0.842568 29.2147 2.57046 31.1852C5.98349 33.1558 11.4951 29.9992 14.8811 24.1348Z" fill="#E6007A"/>
<path d="M61.4098 50.9972C64.7957 45.1327 64.7756 38.7823 61.3649 36.8131C57.9542 34.8438 52.4444 38.0015 49.0585 43.8659C45.6726 49.7303 45.6927 56.0808 49.1034 58.05C52.5141 60.0192 58.0239 56.8616 61.4098 50.9972Z" fill="#E6007A"/>
<path d="M14.8339 58.0478C18.2469 56.0772 18.2689 49.7257 14.883 43.8613C11.4971 37.9969 5.98544 34.8403 2.57241 36.8109C-0.840615 38.7814 -0.862591 45.133 2.52333 50.9974C5.90925 56.8618 11.4209 60.0184 14.8339 58.0478Z" fill="#E6007A"/>
<path d="M61.3669 31.1869C64.7776 29.2177 64.7977 22.8673 61.4118 17.0028C58.0258 11.1384 52.5161 7.98076 49.1053 9.95C45.6946 11.9192 45.6745 18.2697 49.0604 24.1341C52.4464 29.9985 57.9561 33.1562 61.3669 31.1869Z" fill="#E6007A"/>
</g>
<defs>
<clipPath id="clip0_2827_19731">
<rect width="63.9402" height="68" fill="white"/>
</clipPath>
</defs>
</svg>
