<svg width="68" height="68" viewBox="0 0 68 68" fill="none" xmlns="http://www.w3.org/2000/svg">
<path d="M34 68C52.7777 68 68 52.7777 68 34C68 15.2223 52.7777 0 34 0C15.2223 0 0 15.2223 0 34C0 52.7777 15.2223 68 34 68Z" fill="#1B162E"/>
<path d="M33.9988 53.7397C44.9003 53.7397 53.7378 44.9023 53.7378 34.0007C53.7378 23.0992 44.9003 14.2617 33.9988 14.2617C23.0972 14.2617 14.2598 23.0992 14.2598 34.0007C14.2598 44.9023 23.0972 53.7397 33.9988 53.7397Z" fill="#0E0C1F"/>
<path d="M33.9997 37.4857C35.925 37.4857 37.4857 35.925 37.4857 33.9997C37.4857 32.0744 35.925 30.5137 33.9997 30.5137C32.0744 30.5137 30.5137 32.0744 30.5137 33.9997C30.5137 35.925 32.0744 37.4857 33.9997 37.4857Z" fill="#B7B1BD"/>
<path d="M8.23826 48.8953C10.0492 52.0644 23.0878 47.9898 37.3035 39.7954C51.5192 31.601 61.5698 22.3653 59.7589 19.1962C57.948 16.0271 44.9094 20.1017 30.6937 28.2961C16.4779 36.4905 6.42734 45.7262 8.23826 48.8953ZM58.6271 19.83C60.0758 22.3653 50.2516 30.7861 36.6697 38.6183C23.0878 46.4505 10.8641 50.7515 9.41535 48.2162C7.96662 45.6809 17.7909 37.2601 31.3727 29.4279C44.9546 21.5957 57.1331 17.2947 58.6271 19.83Z" fill="#60587A"/>
<path d="M8.23708 19.1493C6.42616 22.3184 16.4315 31.5541 30.6925 39.7485C44.9082 47.9429 57.9468 52.0628 59.7577 48.8484C61.5686 45.6793 51.5633 36.4436 37.3023 28.2492C23.0413 20.0548 10.0933 15.9802 8.23708 19.1493ZM58.6259 48.2146C57.1772 50.7499 44.9535 46.4489 31.3716 38.6167C17.7897 30.7845 7.96544 22.3637 9.41417 19.8284C10.8629 17.2931 23.0866 21.5941 36.6685 29.4263C50.2504 37.2585 60.0746 45.6793 58.6259 48.2146Z" fill="#60587A"/>
<path d="M33.9989 4.25586C30.3318 4.25586 27.3438 17.5661 27.3438 34.0002C27.3438 50.4343 30.3318 63.7445 33.9989 63.7445C37.666 63.7445 40.654 50.4343 40.654 34.0002C40.654 17.5661 37.666 4.25586 33.9989 4.25586ZM33.9989 62.4316C31.0561 62.4316 28.7019 49.7099 28.7019 34.0455C28.7019 18.381 31.0561 5.65931 33.9989 5.65931C36.9416 5.65931 39.2958 18.381 39.2958 34.0455C39.2958 49.7099 36.9416 62.4316 33.9989 62.4316Z" fill="#60587A"/>
<path d="M17.2042 28.3419C17.2042 29.519 16.2534 30.4245 15.1216 30.4245C13.9445 30.4245 13.0391 29.4738 13.0391 28.3419C13.0391 27.1648 13.9898 26.2594 15.1216 26.2594C16.2534 26.2141 17.2042 27.1648 17.2042 28.3419Z" fill="#B7B1BD"/>
<path d="M31.6456 53.2408C31.6456 54.4179 30.6949 55.3233 29.563 55.3233C28.3859 55.3233 27.4805 54.3726 27.4805 53.2408C27.4805 52.0637 28.4312 51.1582 29.563 51.1582C30.6949 51.1582 31.6456 52.0637 31.6456 53.2408Z" fill="#B7B1BD"/>
<path d="M50.5245 20.5083C50.5245 21.6854 49.5738 22.5909 48.4419 22.5909C47.2648 22.5909 46.3594 21.6402 46.3594 20.5083C46.3594 19.3312 47.3101 18.4258 48.4419 18.4258C49.5738 18.4258 50.5245 19.3765 50.5245 20.5083Z" fill="#B7B1BD"/>
</svg>
