<svg width="68" height="54" viewBox="0 0 68 54" fill="none" xmlns="http://www.w3.org/2000/svg">
<path d="M11.0512 0.678959L0.323634 11.4065C-0.355325 12.0854 0.0973146 13.3076 1.09312 13.3076H55.3646C55.953 13.3076 56.5414 13.0813 56.9488 12.6286L67.6764 1.90106C68.3553 1.2221 67.9027 0 66.9069 0H12.6354C12.047 0.0452639 11.4586 0.271584 11.0512 0.678959Z" fill="#6FC16F"/>
<path d="M11.0512 40.7376L0.323634 51.4651C-0.355325 52.144 0.0973146 53.3661 1.09312 53.3661H55.3646C55.953 53.3661 56.5414 53.1398 56.9488 52.6872L67.6764 41.9597C68.3553 41.2807 67.9027 40.0586 66.9069 40.0586H12.6354C12.047 40.0586 11.4586 40.2849 11.0512 40.7376Z" fill="#6FC16F"/>
<path d="M11.0512 32.5446L0.323634 21.8171C-0.355325 21.1381 0.0973146 19.916 1.09312 19.916H55.3646C55.953 19.916 56.5414 20.1423 56.9488 20.595L67.6764 31.3225C68.3553 32.0015 67.9027 33.2236 66.9069 33.2236H12.6354C12.047 33.1783 11.4586 32.952 11.0512 32.5446Z" fill="#6FC16F"/>
</svg>
