<svg width="68" height="68" viewBox="0 0 68 68" fill="none" xmlns="http://www.w3.org/2000/svg">
<path d="M7.67898 26.303L0 33.9819L7.67898 41.6609L15.358 33.9819L7.67898 26.303Z" fill="#F4B511"/>
<path d="M33.9739 26.3166L26.2949 33.9956L33.9739 41.6746L41.6529 33.9956L33.9739 26.3166Z" fill="#F4B511"/>
<path d="M60.304 26.2971L52.625 33.9761L60.304 41.655L67.983 33.9761L60.304 26.2971Z" fill="#F4B511"/>
<path d="M33.9954 52.6345L26.3164 60.3135L33.9954 67.9925L41.6744 60.3135L33.9954 52.6345Z" fill="#F4B511"/>
<path d="M41.6751 44.9392L33.9961 52.6182L41.6751 60.2971L49.354 52.6182L41.6751 44.9392Z" fill="#F4B511"/>
<path d="M47.1334 39.4399L41.6621 44.9111L49.3411 52.5901L54.8124 47.1188L47.1334 39.4399Z" fill="#F4B511"/>
<path d="M26.3288 60.3069L34.0078 67.9858L41.6868 60.3069L34.0078 52.6279L26.3288 60.3069Z" fill="#F4B511"/>
<path d="M18.6472 52.6408L26.3262 60.3198L34.0051 52.6408L26.3262 44.9619L18.6472 52.6408Z" fill="#F4B511"/>
<path d="M13.1264 47.1611L18.5977 52.6323L26.2766 44.9533L20.8054 39.4821L13.1264 47.1611Z" fill="#F4B511"/>
<path d="M33.9968 15.3582L41.6758 7.6792L33.9968 0.00022389L26.3178 7.6792L33.9968 15.3582Z" fill="#F4B511"/>
<path d="M26.3152 23.0242L33.9941 15.3452L26.3152 7.66624L18.6362 15.3452L26.3152 23.0242Z" fill="#F4B511"/>
<path d="M20.8256 28.5372L26.2969 23.0659L18.6179 15.3869L13.1466 20.8582L20.8256 28.5372Z" fill="#F4B511"/>
<path d="M41.6594 7.6863L33.9805 0.00732422L26.3015 7.6863L33.9805 15.3653L41.6594 7.6863Z" fill="#F4B511"/>
<path d="M49.343 15.3855L41.6641 7.70654L33.9851 15.3855L41.6641 23.0645L49.343 15.3855Z" fill="#F4B511"/>
<path d="M54.8326 20.8497L49.3613 15.3784L41.6824 23.0574L47.1536 28.5287L54.8326 20.8497Z" fill="#F4B511"/>
</svg>
