<svg width="68" height="68" viewBox="0 0 68 68" fill="none" xmlns="http://www.w3.org/2000/svg">
<path d="M34 0C52.7971 0 68 15.2514 68 34C68 52.7971 52.7486 68 34 68C15.2514 68 0 52.7486 0 34C0 15.2029 15.2029 0 34 0Z" fill="#EEB911"/>
<path d="M19.5266 25.3531L34.0009 10.8789L39.7809 16.6589L25.3066 31.1332L19.5266 25.3531ZM19.5266 42.6932L42.6951 19.5245L48.4751 25.3046L25.3066 48.4731L19.5266 42.6932ZM51.3409 28.2189L28.1723 51.3874L33.9523 57.1674L57.1209 33.9988L51.3409 28.2189ZM10.8809 33.9988L16.6609 28.2189L22.4409 33.9988L16.6609 39.7789L10.8809 33.9988Z" fill="white"/>
</svg>
