<svg width="68" height="68" viewBox="0 0 68 68" fill="none" xmlns="http://www.w3.org/2000/svg">
<path d="M34 68C52.7777 68 68 52.7777 68 34C68 15.2223 52.7777 0 34 0C15.2223 0 0 15.2223 0 34C0 52.7777 15.2223 68 34 68Z" fill="#FF8107"/>
<path d="M50.4447 46.8718C51.4154 43.664 50.6065 40.2126 48.5436 37.5732C50.4851 36.5175 52.0626 34.8121 52.8715 32.66C54.6513 27.9498 52.3053 22.4275 47.5324 20.4379L45.3078 19.6664L47.7346 12.6823L43.4472 11.2205L41.0203 18.2046L37.5417 16.9865L39.9686 10.0024L35.6811 8.5L33.2543 15.4841L24.7197 12.5199L22.9805 17.6361L28.4005 19.504L25.5287 27.828L20.1087 25.9602L18.5312 30.508L23.9512 32.3758L20.6749 41.8368L16.1447 40.2532L13.5156 45.2882L18.8952 47.156L22.0097 48.2524L19.5828 55.2771L23.8703 56.7795L26.2972 49.7548L29.7757 50.9729L27.3488 57.9976L31.6363 59.5L34.0632 52.4753H34.1037L36.2879 53.2468C42.1124 55.6831 48.7458 52.4347 50.4447 46.8718ZM35.8025 22.0621L41.4248 24.0111C43.8112 24.742 45.146 27.3408 44.337 29.6553C43.528 32.0103 40.8585 33.2285 38.5529 32.2946L32.9307 30.3861L35.8025 22.0621ZM35.8429 47.1154L28.0769 44.4355L31.3532 34.9745L39.1192 37.6545C41.4652 38.7508 42.5977 41.4307 41.7483 43.867C40.9394 46.2627 38.3507 47.6839 35.8429 47.1154Z" fill="white"/>
</svg>
