<svg width="68" height="68" viewBox="0 0 68 68" fill="none" xmlns="http://www.w3.org/2000/svg">
<path d="M34 68C52.7777 68 68 52.7777 68 34C68 15.2224 52.7777 0 34 0C15.2223 0 0 15.2224 0 34C0 52.7777 15.2223 68 34 68Z" fill="#F41C21"/>
<path d="M40.3821 27.21L30.2863 45.0022C29.4261 46.5415 27.751 47.5375 25.9853 47.5375H16.0253C14.8482 47.5375 14.0785 46.2246 14.6671 45.1833L32.6857 13.447C33.2743 12.4057 34.8136 12.4057 35.4021 13.447L40.4274 22.3205C41.2423 23.8597 41.2423 25.716 40.3821 27.21Z" fill="white"/>
<path d="M44.3194 34.0466L38.0265 45.1837C37.4379 46.225 38.2076 47.5379 39.3847 47.5379H41.7841H45.6776H51.9705C53.1476 47.5379 53.9173 46.225 53.3287 45.1837L47.0358 34.0466C46.4472 33.0053 44.908 33.0053 44.3194 34.0466Z" fill="white"/>
</svg>
